<svg xmlns="http://www.w3.org/2000/svg" viewBox="0 0 50 50" width="50" height="50">
	<style>
		tspan { white-space:pre }
		.shp0 { fill: #ffffff } 
	</style>
	<path id="instagram" class="shp0" d="M48.74,40.46c-0.7,1.9 -2.9,5.4 -5.8,6.8c-2.9,1.4 -5.5,1.7 -12.1,1.8c-6.7,0.1 -10,-0.1 -14.9,-0.2c-4.8,-0.1 -5.5,-0.4 -7.2,-1c-1.7,-0.6 -4.6,-2.5 -6,-4.3c-1.4,-1.8 -2.7,-4.5 -2.7,-7.3c0,-2.8 -0.1,-9.4 0,-15.3c0.1,-5.8 0.2,-11.3 0.8,-13.2c0.6,-1.9 2,-2.9 3.1,-3.9c1.3,-1.1 3.2,-3 8.1,-3.6c4.9,-0.6 22.7,0.1 24.9,0.2c2.2,0 4.6,0.6 5.9,1.8c1.3,1.2 5.1,6.8 5.4,8c0.3,1.2 0.5,9.1 0.6,14.6c0.1,5.6 0.6,13.7 -0.1,15.6zM34.44,42.66c-0.1,-0.1 -1.3,-0.1 -1.3,0.1c0,0.1 1.3,2.9 1.5,3.1c0.1,0.2 1,0 1.1,-0.1c0.1,-0.1 -1.2,-3 -1.3,-3.1zM11.24,21.76c-0.1,-0.1 -3.3,0.8 -3.5,1c-0.2,0.3 -0.3,3.9 -0.2,7.4c0.1,3.5 0.3,9.2 0.5,10c0.2,0.8 1.8,1.4 3.8,1.6c2,0.2 7.7,0.3 12.6,0.3c4.9,0 9.5,-0.5 12.7,-0.7c3.2,-0.2 3.2,-0.5 4.2,-1.3c1,-0.7 1,-2.9 1.2,-5.6c0.2,-2.7 0.1,-12.2 -0.1,-12.5c-0.2,-0.3 -6.8,0 -6.9,0.1c-0.1,0.1 -0.3,1.6 -0.3,3c0,1.4 -0.6,4.1 -1.5,6.2c-0.9,2.1 -3.5,3.9 -5.2,4.8c-1.7,0.9 -4.8,1.4 -7.1,1.2c-2.3,-0.2 -4.5,-1.1 -7.1,-3.2c-2.6,-2.1 -3.3,-6 -3.4,-7.2c-0.1,-1.2 0.2,-4.9 0.3,-5.1zM38.04,45.06c0.1,-0.1 -1.5,-2.6 -1.6,-2.6c-0.1,0 -1.2,0 -1.2,0.1c0,0 1.2,2.9 1.4,3c0.1,0.1 1.3,-0.4 1.4,-0.5zM38.54,42.36c-0.1,-0.1 -1.2,-0.1 -1.1,0c0.1,0.1 1.3,2.6 1.4,2.6c0.1,0 0.7,-0.1 0.9,-0.3c0.2,-0.1 -0.9,-2.1 -1.2,-2.3zM41.44,43.56c0,0 -0.8,-1.5 -1,-1.6c-0.1,-0.1 -1,0.3 -1,0.4c0.1,0.1 0.9,1.8 1.1,1.9c0.2,0 0.9,-0.7 0.9,-0.7zM42.94,41.66c0,-0.1 -0.8,-0.9 -0.8,-0.9c0,0 -0.9,0.6 -0.9,0.7c0.1,0.1 0.7,1.3 0.9,1.4c0.2,0.1 0.8,-1.1 0.8,-1.2zM44.14,39.66c-0.1,-0.1 -1.1,-1.2 -1.2,-1.2c-0.2,0 -0.3,1.2 -0.3,1.3c0,0.1 0.6,1.1 0.8,1c0.2,0 0.8,-1 0.7,-1.1zM45.14,7.96c-0.1,-3.1 -1.8,-4.8 -1.9,-4.8c-0.1,0 -0.5,0.3 -0.7,0.3c-0.2,0 -0.4,-0.8 -0.8,-1.4c-0.4,-0.6 -1,-0.7 -1.2,-0.6c-0.2,0.1 0.9,2.6 1,2.8c0.1,0.2 -0.4,0.6 -0.5,0.6c-0.1,0 -1.4,-3.1 -1.6,-3.4c-0.2,-0.3 -0.5,-0.2 -0.7,-0.2c-0.2,0 0.6,1.5 0.7,1.7c0.1,0.1 -0.1,0.5 -0.5,0.5c-0.4,0 -1.2,-2 -1.4,-2.2c-0.1,-0.2 -1.1,-0.1 -1.2,-0.1c-0.1,0 1,2.1 1.1,2.3c0,0.2 -0.2,0.4 -0.5,0.4c-0.3,0 -1.4,-2.4 -1.5,-2.6c-0.1,-0.2 -0.7,-0.1 -0.9,-0.1c-0.2,0 0.4,1.2 0.6,1.6c0.2,0.4 -0.3,0.7 -0.5,0.7c-0.2,0 -1.2,-2.1 -1.2,-2.1c0,0 -1.2,-0.1 -1.4,-0.1c-0.2,0.1 0,0.3 0.1,0.6c0.1,0.2 1.3,3 1.3,3.3c0,0.3 -0.1,0.4 -0.3,0.4c-0.2,0 -2.1,-4.2 -2.1,-4.3c0,-0.1 -1,-0.1 -1.2,-0.1c-0.2,0 -0.1,0.4 0.2,1.1c0.3,0.8 2,5.1 2,5.3c0,0.2 -0.2,0.3 -0.3,0.3c-0.1,0 -2.9,-6.2 -3,-6.5c-0.1,-0.3 -0.7,-0.2 -0.9,-0.2c-0.2,0 -0.1,0.4 0.4,1.3c0.5,0.9 2,5.2 2.2,5.6c0.1,0.4 -0.1,0.6 -0.2,0.6c-0.1,0 -0.4,-0.7 -0.9,-1.8c-0.5,-1.1 -2.6,-5.4 -2.7,-5.6c-0.1,-0.2 -1.1,-0.1 -1.3,-0.1c-0.2,0 0.3,1.1 1,2.6c0.7,1.5 1.9,4.9 1.9,5c0,0.1 -0.1,0.3 -0.2,0.3c-0.1,0 -0.3,-0.6 -1.1,-2.7c-0.8,-2.1 -2.7,-5.2 -2.8,-5.4c-0.1,-0.2 -0.9,-0.1 -1.1,-0.1c-0.2,0 0.5,1.7 0.9,2.5c0.4,0.8 2.2,5.1 2.4,5.4c0.1,0.3 -0.1,0.5 -0.2,0.5c-0.1,0 -0.9,-1.6 -1.9,-3.5c-1,-1.9 -2.3,-4.7 -2.5,-4.9c-0.2,-0.2 -0.9,0 -1.1,0c-0.2,0 0,0.3 0.4,1.5c0.4,1.2 2.1,4.9 2.2,5.1c0.1,0.2 -0.1,0.3 -0.3,0.3c-0.2,0 -0.5,-1 -1.1,-2.2c-0.6,-1.2 -2.2,-4.4 -2.4,-4.6c-0.2,-0.2 -1.4,-0.1 -1.5,-0.1c-0.1,0 0.2,0.4 0.7,1.3c0.5,0.9 1,2.1 1.2,2.6c0.1,0.5 -0.2,0.6 -0.4,0.6c-0.2,0 -0.1,-0.3 -0.6,-1.2c-0.5,-0.9 -1.8,-2.8 -2.1,-3.1c-0.3,-0.3 -0.7,0 -0.9,0c-0.2,0 0.1,0.4 0.6,1.2c0.4,0.8 0.9,2.4 1,2.7c0,0.3 -0.2,0.5 -0.4,0.5c-0.2,0 -0.2,0 -0.6,-1.1c-0.4,-1.1 -1.9,-2.9 -2,-3c-0.2,-0.1 -0.6,0 -0.8,0c-0.2,0 0.4,1.1 0.5,1.4c0.1,0.3 -0.4,0.4 -0.7,0.4c-0.3,0 -0.6,-1.5 -0.9,-1.8c-0.3,-0.3 -2.5,0.2 -3.8,0.6c-1.4,0.4 -3.4,1.8 -4.2,2.4c-3.6,2.5 -3.2,8.4 -3.5,13.1c-0.3,4.7 0.1,9.5 -0.1,12.9c-0.2,3.4 0.1,8.1 0.8,9.8c0.7,1.8 3,4.1 4.7,5c1.7,0.9 3.5,0.5 8.1,0.7c4.6,0.2 10.1,-0.1 10.3,-0.1c0.2,0 -0.4,-1.2 -0.5,-1.4c-0.1,-0.2 0.5,-0.4 0.7,-0.4c0.2,0 0.7,1.6 0.8,1.7c0.1,0.1 1.2,0 1.3,0c0.1,0 -0.6,-1.9 -0.6,-2c0,-0.1 0.4,-0.3 0.6,-0.3c0.2,0 1,2.1 1.1,2.2c0.1,0.2 0.9,0.1 1,0.1c0.1,0 -0.9,-2.1 -0.8,-2.2c0.1,-0.2 0.6,-0.2 0.7,-0.2c0.1,0 1,2.4 1.1,2.5c0.2,0.1 1.4,0 1.5,0c0.1,0 -1.3,-2.1 -1.3,-2.3c0,-0.2 0.5,-0.4 0.8,-0.4c0.3,0 1.5,2.6 1.6,2.7c0.2,0.1 1,0 1.1,-0.1c0.1,-0.1 -1.3,-3.1 -1.4,-3.1c-0.1,0 -2.2,0.1 -3.9,0.1c-1.7,0 -8.6,0.2 -11.5,0.3c-2.8,0.1 -5.6,-0.3 -7.1,-0.5c-1.5,-0.2 -2.3,-0.7 -3.3,-2.1c-1,-1.4 -1.2,-3.6 -1.4,-7.7c-0.2,-4.1 -0.9,-12.7 -0.5,-13.7c0.3,-0.9 1,-1.1 2,-1c1,0.1 3.9,0 5,0.3c1.1,0.3 1.4,0.4 1.5,0.7c0.1,0.3 -0.3,0.5 -0.6,0.9c-0.4,0.4 -0.5,0.8 -0.7,2.9c-0.2,2.1 0.1,5.5 0.6,6.9c0.5,1.4 1.8,3.5 5,4.6c3.2,1.1 4.9,0.8 8.5,-0.5c3.6,-1.3 4.6,-3.4 5.6,-5.4c1.1,-2 0.9,-7.1 0.9,-7.2c0,-0.1 -0.3,-0.9 -0.4,-1.3c-0.1,-0.4 0,-1.4 0.1,-1.6c0.2,-0.2 0.8,-0.2 3,-0.2c2.2,0 6.5,0 7.1,0.2c0.6,0.2 0.9,0.6 1,1.6c0.1,1 0.1,6.4 0,9.6c-0.1,3.2 -0.2,7.3 -0.2,7.5c0,0.2 1,1.6 1.1,1.6c0.1,0 0.4,-0.9 0.6,-2.5c0.1,-1.6 0,-4.2 0.2,-9.5c0.2,-5.3 0.1,-15.5 0,-18.6zM10.04,4.76c-0.2,0.2 -1,0.3 -1.8,0.6c-0.8,0.3 -2.3,1.5 -3,2.4c-0.7,0.9 -1.2,2 -1.1,2.7c0.1,0.6 0.2,1.3 0,1.4c-0.2,0.1 -0.7,0.2 -0.9,0c-0.1,-0.1 -0.2,-1.8 -0.1,-2.5c0.1,-0.7 1.1,-2.7 2.5,-3.7c1.4,-1 3.3,-1.7 3.9,-1.7c0.6,0.1 0.7,0.6 0.5,0.8zM33.34,14.06c0.1,0.3 0.2,0.9 -0.2,0.9c-0.4,0 -2.1,-0.1 -2.3,-0.4c-0.2,-0.3 0,-3.1 0,-3.3c0,-0.2 1,-0.1 1.1,0.1c0.1,0.2 -0.1,2.1 0.2,2.2c0.3,0.1 1.2,0.1 1.2,0.5zM40.14,7.16c0.1,1.1 0.4,5.5 -0.3,5.7c-0.7,0.2 -5.9,0.4 -6.4,-0.2c-0.2,-0.2 -0.2,-3 -0.3,-4.3c-0.1,-1.3 -0.1,-2.7 0.4,-2.9c0.5,-0.2 4.7,-0.3 5.3,-0.2c0.6,0.1 1.2,0.8 1.3,1.9zM39.14,7.76c-0.2,-0.2 -3.7,-0.1 -3.8,0.1c-0.1,0.3 -0.2,3.5 0,3.7c0.2,0.2 3.3,0.1 3.6,0.1c0.3,0 0.4,-3.7 0.2,-3.9zM16.84,17.96c-0.9,1.1 -0.9,2.6 -1.2,2.6c-0.3,0 -0.8,-0.1 -0.8,-0.1c-0.2,-0.1 -0.3,-0.9 -0.1,-1.5c0.2,-0.6 1.1,-1.9 2.5,-2.8c1.3,-0.9 2.4,-1.2 2.7,-1.1c0.3,0.1 0.5,0.8 0,0.9c-0.5,0.1 -2.3,0.8 -3.1,2zM28.44,19.96c0.7,2.2 1.1,5.6 -0.2,7.8c-1.3,2.2 -5.9,3.1 -7.1,2.8c-1.2,-0.2 -4.4,-1.7 -5,-3.6c-0.6,-1.9 -0.6,-6.3 1,-8.3c0.6,-0.7 2.5,-2.6 5.3,-2.4c2.8,0.3 5.3,1.5 6,3.7zM27.64,21.06c-0.7,-1.6 -1.5,-1.5 -3,-1.5c-1.5,0 -3.4,1.2 -4.1,1.9c-1.1,1.1 -2.2,2 -2.5,4.5c-0.3,2.5 1.7,3.6 3.9,3.7c2.2,0.1 4.3,-1.1 5.5,-2.3c1.1,-1.2 0.9,-4.7 0.2,-6.3z" />
	<g id="Layer">
	</g>
	<g id="Layer">
	</g>
	<g id="Layer">
	</g>
	<g id="Layer">
	</g>
	<g id="Layer">
	</g>
	<g id="Layer">
	</g>
	<g id="Layer">
	</g>
	<g id="Layer">
	</g>
	<g id="Layer">
	</g>
	<g id="Layer">
	</g>
	<g id="Layer">
	</g>
	<g id="Layer">
	</g>
	<g id="Layer">
	</g>
	<g id="Layer">
	</g>
	<g id="Layer">
	</g>
</svg>