<svg xmlns="http://www.w3.org/2000/svg" viewBox="0 0 47 47" width="47" height="47">
	<style>
		tspan { white-space:pre }
		.shp0 { fill: #ffffff } 
	</style>
	<path id="mail" class="shp0" d="M45.67,38.21c-1.5,1 -2,1.1 -8.2,1.3c-6.2,0.2 -13.4,0.4 -20.4,0.4c-7,0 -7.2,-0.1 -10.2,-0.2c-2.9,-0.1 -3.7,0 -4.1,-0.4c-0.4,-0.4 -1.5,-2.8 -1.8,-3.7c-0.3,-0.9 -0.6,-4.4 -0.6,-10.8c0,-6.4 -0.9,-15.7 0.1,-17.1c0.3,-0.3 2.4,-0.6 4.4,-0.6c2,0 13.1,-0.1 18.1,-0.2c4.9,-0.1 12,0 12.7,0c0.7,0 4.3,-0.2 5.8,-0.2c1.5,0 4.4,0.5 4.5,2.1c0.1,1.6 0.7,19.2 0.6,21.5c-0.1,2.3 0.5,6.7 -0.9,7.9zM45.07,20.41c0,-0.1 -1.7,-1.7 -1.8,-1.8c-0.1,-0.1 -0.2,-0.7 0.1,-1c0.3,-0.2 1.5,1.5 1.6,1.7c0.1,0.2 0.2,-0.4 0.1,-0.7c-0.1,-0.3 -1.2,-1.5 -1.4,-1.7c-0.2,-0.2 0,-0.6 0.2,-0.8c0.2,-0.3 1,0.7 1.1,0.9c0.1,0.2 0,-0.3 0,-0.6c-0.1,-0.3 -1.2,-1.2 -1.4,-1.4c-0.2,-0.2 0,-0.5 0.2,-0.7c0.2,-0.2 0.9,0.7 1.1,0.8c0.1,0.1 0,-5.3 -0.4,-6c-0.26,-0.45 -1.19,-0.74 -2.32,-0.91c-0.48,-0.19 -0.92,-0.24 -1.08,-0.19c-0.03,0.02 -0.07,0.04 -0.1,0.05c-0.27,-0.02 -0.54,-0.04 -0.8,-0.05c-1.9,-0.1 -5.7,0 -13.1,0.1c-7.4,0.1 -13.1,0 -18.7,0.3c-5.7,0.2 -7.4,0.3 -7.6,0.6c-0.3,0.5 -0.2,3.1 -0.1,5.2c0.1,2.1 0.3,10.5 0.4,14.1c0,3.7 0.3,7.1 0.7,7.4c0.4,0.4 1,0.9 2.7,1.2c1.7,0.3 4.2,0.3 8.6,0.2c4.4,-0.1 11.1,-0.3 11.4,-0.4c0.3,0 -1.1,-1.7 -1.3,-1.9c-0.1,-0.2 0.4,-0.4 0.6,-0.3c0.2,0.1 1.8,2.2 1.9,2.3c0.1,0.1 1,0 1.3,0c0.2,0 -1.3,-2.2 -1.4,-2.4c-0.1,-0.2 0.4,-0.5 0.7,-0.4c0.3,0 1.8,2.5 2,2.7c0.3,0.2 0.8,0.2 1.1,0.1c0.3,0 -1.2,-2.4 -1.3,-2.6c0,-0.2 0.3,-0.5 0.6,-0.5c0.3,0 1.6,2.9 1.8,3c0.1,0.2 1.1,0.1 1.3,0.1c0.3,0 -1.6,-2.8 -1.7,-3c-0.1,-0.2 0.2,-0.6 0.5,-0.5c0.4,0.1 2.1,3.2 2.3,3.5c0.2,0.2 1.2,0 1.6,0c0.4,0 -2.2,-3.2 -2.3,-3.5c-0.1,-0.3 0.4,-0.5 0.6,-0.4c0.3,0 2.3,3.5 2.5,3.7c0.1,0.2 0.6,0.1 1,0.1c0.4,0 -2,-3.8 -2.2,-4c-0.2,-0.2 0.5,-0.6 0.7,-0.5c0.2,0.1 2.2,4.1 2.5,4.3c0.3,0.2 0.8,0 1,-0.1c0.2,-0.1 -2.3,-3.5 -2.3,-3.6c0,-0.1 0.2,-0.7 0.6,-0.7c0.4,0 2.6,4.1 2.8,4.3c0.2,0.2 1.1,0 1.4,0c0.3,-0.1 -3.1,-5.1 -3.2,-5.2c0,-0.1 0.3,-0.5 0.5,-0.5c0.2,0 3.5,5.4 3.7,5.6c0.2,0.2 1,-0.1 1,-0.1c0,0 0,-0.4 -0.3,-0.7c-0.3,-0.3 -2.2,-3.4 -2.6,-4.1c-0.4,-0.6 -0.9,-1.1 -0.7,-1.4c0.2,-0.2 0.4,-0.2 0.8,0.4c0.4,0.7 3.3,5.4 3.5,5.5c0.2,0.1 0.6,-0.2 0.6,-0.6c0,-0.4 -3.1,-4.7 -3.2,-4.9c-0.2,-0.2 -0.6,-0.7 -0.2,-0.9c0.3,-0.1 0.4,0 0.8,0.6c0.4,0.6 2.8,4.1 2.8,4.3c0,0.1 0.1,0.1 0.1,-0.1c0,-0.2 0.2,-0.4 0.3,-0.6c0.1,-0.2 0,-0.4 -0.2,-0.7c-0.1,-0.3 -2,-3.3 -2.2,-3.6c-0.2,-0.3 -0.3,-0.7 -0.1,-0.9c0.2,-0.2 0.5,0.2 1.2,1c0.7,0.8 1.7,3.4 1.9,3.5c0.2,0.1 0.1,-2 0.1,-2.2c0,-0.1 -0.7,-0.8 -1,-1.3c-0.2,-0.5 -1.2,-2.3 -1.5,-2.5c-0.3,-0.3 -0.2,-0.7 0.4,-0.6c0.6,0.2 1.9,2.8 2.1,2.9c0.2,0.1 0,-1.6 0,-1.9c0,-0.3 -2,-2.5 -2.1,-2.8c-0.1,-0.3 -0.1,-0.7 0.2,-0.9c0.3,-0.2 1.9,2.3 2,2.6c0.1,0.2 0,-1 0,-1.3c0,-0.2 -2.1,-2.4 -2.1,-2.6c0,-0.2 0,-0.7 0.3,-0.9c0.3,-0.1 1.68,2.37 1.8,2.5c-0.01,-0.1 -0.1,-1.21 -0.1,-1.4c0,-0.1 -1.8,-2.1 -1.9,-2.4c0,-0.2 0,-0.8 0.2,-0.8c0.2,0 1.6,2.1 1.8,2.3c0.2,0.2 -0.4,-1.2 -0.4,-1.3zM45.47,24.01c0,0 0,0 0,0c0,0.01 0,0.01 0,0zM8.27,11.51c0.1,-0.2 1.2,-0.3 2.9,-0.4c1.7,-0.1 10.2,-0.1 17.5,-0.3c7.3,-0.1 9.4,-0.1 9.9,0.1c0.6,0.2 1.1,0.4 0.3,1.4c-0.8,1.1 -6.7,6.9 -8.8,8.1c-2.1,1.3 -3.5,2.2 -5.8,2.3c-2.3,0.1 -3.2,-0.2 -6.4,-2.6c-3.2,-2.4 -7.7,-6.1 -8.3,-6.7c-0.5,-0.6 -1.6,-1.3 -1.3,-1.9zM12.47,13.91c-0.1,0.2 1,1.1 2.6,2.3c1.6,1.2 6,5 8.3,5.3c2.3,0.3 3.5,-0.4 6.1,-2c2.6,-1.6 6.8,-5.6 6.6,-5.9c-0.2,-0.3 -6.5,0 -12,0c-5.5,0 -11.6,0.1 -11.6,0.3zM42.27,16.11c-0.1,2.5 -0.2,8.6 -0.3,10.3c-0.1,1.7 0,2.1 -0.5,2.5c-0.5,0.4 -1,0.2 -1.7,-0.7c-0.7,-0.9 -2.5,-3.5 -4,-4.8c-1.4,-1.3 -2,-1.4 -1.8,-1.9c0.1,-0.1 1.6,-2.1 3.1,-3.9c1.5,-1.9 3.8,-4.8 4.5,-4.7c0.7,0.1 0.8,0.7 0.7,3.2zM41.37,17.21c-0.2,-0.2 -4.6,5.1 -4.6,5.3c0,0.4 0.9,1 1.4,1.5c0.5,0.4 2.6,3.4 2.9,3.6c0.3,0.1 0.4,-10.3 0.3,-10.4zM36.87,30.01c0.1,0.5 0.1,1.1 -0.6,1.3c-0.7,0.2 -4.5,0.5 -12.5,0.8c-7.9,0.3 -9.6,0.4 -10.2,0.3c-0.6,-0.1 -1.6,-1 -1.2,-1.5c0.4,-0.5 4.8,-6.4 5.7,-6.5c0.4,-0.1 2.2,0.5 2.6,0.8c0.3,0.2 3,1.6 4.1,1.6c1.1,0 2.2,-0.5 3.5,-1.4c1.3,-0.8 2.8,-1.8 3.6,-1.8c0.8,0 1.5,1.3 2.6,2.6c1.1,1.3 2.2,3.2 2.4,3.8zM35.27,29.01c-0.4,-0.8 -2.4,-3.7 -2.7,-3.7c-0.3,-0.1 -1.1,0.5 -2.7,1.7c-1.6,1.1 -3.5,1.9 -5.1,1.8c-1.6,0 -5.3,-1.8 -5.5,-1.8c-0.4,0 -3.9,4.1 -4,4.2c-0.1,0.1 1,0.2 7.9,-0.1c6.9,-0.3 12.3,-0.7 12.5,-0.9c0.1,-0.2 0,-0.6 -0.4,-1.2zM14.77,22.41c-0.2,1.3 -2.5,4.5 -4,6.4c-1.5,2 -2.1,3 -2.9,3.2c-0.7,0.2 -1.7,0.2 -2,-1.1c-0.3,-1.3 -0.9,-6.3 -1,-10.1c-0.1,-3.8 -0.7,-6.8 1.2,-6.8c0.4,-0.1 4.5,3.4 6.1,5c1.6,1.6 2.8,2 2.6,3.4zM13.47,22.61c0,-0.3 -0.7,-0.9 -1.9,-1.9c-1.2,-1 -3.5,-3 -3.6,-2.8c-0.1,0.3 0,1.8 0.1,3.3c0.1,1.5 -0.1,9.1 0.1,9.1c0.2,0.1 0.1,0 0.8,-0.8c0.7,-0.9 4.6,-6.6 4.5,-6.9zM27.97,22.71c0.4,0.1 0.7,0.6 0.5,0.9c-0.2,0.3 -1.4,1.1 -3.3,1.1c-1.9,0 -2.6,-0.2 -2.9,-0.5c-0.3,-0.3 -0.2,-1 0.3,-0.9c0.3,0.1 1.7,0.5 2.9,0.3c1.2,-0.2 2.2,-1 2.5,-0.9zM5.37,34.91c0.1,0.2 0.1,0.9 -0.6,1c-0.7,0.1 -1.2,-0.3 -1.4,-1c-0.2,-0.7 -0.3,-2 -0.1,-2.4c0.1,-0.3 0.8,-0.3 1,0c0.2,0.3 -0.1,1.9 0.2,2.2c0.3,0.2 0.9,0.1 0.9,0.2zM3.37,14.11c-0.1,0.2 -0.5,0.2 -0.9,0c-0.2,-0.1 -0.2,-1.8 -0.2,-2.6c0,-0.8 0.5,-1.7 1.5,-1.9c1,-0.2 1.3,0.2 1.4,0.5c0,0.3 0,0.2 -0.3,0.4c-0.3,0.1 -1.2,0.1 -1.4,0.7c-0.2,0.6 0.1,2.7 -0.1,2.9zM43.67,10.41c0.2,-0.2 0.3,-0.4 -0.3,-1.3c-0.29,-0.44 -0.77,-0.73 -1.22,-0.91c-0.37,-0.06 -0.77,-0.1 -1.17,-0.13c-0.67,0.42 -0.27,1.25 0.5,1.25c0.8,0 1.1,0.9 1.3,1.2c0.2,0.3 0.7,0.2 0.9,-0.1z" />
	<g id="Layer">
	</g>
	<g id="Layer">
	</g>
	<g id="Layer">
	</g>
	<g id="Layer">
	</g>
	<g id="Layer">
	</g>
	<g id="Layer">
	</g>
	<g id="Layer">
	</g>
	<g id="Layer">
	</g>
	<g id="Layer">
	</g>
	<g id="Layer">
	</g>
	<g id="Layer">
	</g>
	<g id="Layer">
	</g>
	<g id="Layer">
	</g>
	<g id="Layer">
	</g>
	<g id="Layer">
	</g>
</svg>