<svg xmlns="http://www.w3.org/2000/svg" viewBox="0 0 50 50" width="50" height="50">
	<style>
		tspan { white-space:pre }
		.shp0 { fill: #ffffff } 
	</style>
	<path id="vk" class="shp0" d="M46.79,33.24c0.9,1.7 1.9,3 1.6,4.3c-0.3,1.3 -2,3.3 -2.8,3.6c-0.8,0.3 -4.8,0.4 -6.7,0.4c-1.9,0 -3,-0.3 -3.6,-0.7c-0.5,-0.4 -1.8,-4 -2.6,-4.9c-0.8,-0.9 -1.2,-1.5 -1.7,-1.5c-0.5,0.1 -0.5,1.3 -0.4,1.6c0.1,0.3 0.2,3.1 -0.3,4.2c-0.4,1.1 -1.3,2 -3.5,2.1c-2.2,0.1 -4.8,0.3 -6.2,-0.2c-1.4,-0.5 -3.8,-1.5 -7.1,-4.7c-3.3,-3.2 -6.7,-6.8 -8.9,-10.3c-2.2,-3.4 -3.3,-6.5 -3.9,-8.3c-0.6,-1.8 -1.2,-5.9 0,-7.9c0.4,-0.7 2.7,-1 5,-0.9c2.3,0.1 3,0.2 3.2,0.5c0.2,0.2 4.2,8.6 5.8,10.4c1.5,1.8 2.8,2.3 3.1,2.4c0.3,0.1 1.1,-0.8 1.1,-2.8c0,-2.1 -0.4,-7 -0.8,-7.5c-0.4,-0.5 -1.8,-1.9 -1.9,-2.2c-0.1,-0.3 0.4,-1.1 1.2,-1.3c0.8,-0.2 7.6,-0.5 9.2,-0.4c1.6,0.1 4.1,1.3 4.3,2.6c0.1,1.3 0.1,7 0.3,7.1c0.2,0.1 2.6,-2.1 3.7,-3.5c1.2,-1.4 4,-5.8 4.5,-6.5c0.5,-0.7 0.9,-1.1 1.7,-1.2c0.8,-0.1 5.7,-0.3 6.7,0.1c1,0.4 2,1.2 2.1,3c0.1,1.7 0.4,3.6 -1.9,6.5c-2.3,2.9 -5.3,6.7 -6.2,7.6c-0.9,1 -1.3,1 -1.2,1.3c0.1,0.2 5.1,5.3 6.2,7.1zM46.49,36.14c-0.3,-0.8 -0.9,-2 -3.2,-5c-2.3,-3 -6.4,-6.3 -6.7,-6.5c-0.3,-0.2 -0.3,-0.5 0.1,-0.9c0.4,-0.4 1.4,-0.9 1.6,-1.1c0.1,-0.2 -1.9,-2 -1.9,-2.3c0,-0.3 0.2,-0.3 0.5,-0.4c0.3,-0.1 2.1,2 2.3,2.1c0.2,0.1 0.8,-0.4 0.9,-0.6c0.1,-0.2 -2.2,-2.3 -2.3,-2.6c-0.1,-0.3 0.3,-0.5 0.5,-0.6c0.2,-0.1 2.2,2.4 2.4,2.4c0.2,0 0.4,-0.3 0.7,-0.7c0.3,-0.4 -1.7,-2.3 -1.8,-2.5c-0.1,-0.2 0.3,-0.5 0.5,-0.6c0.2,-0.1 2.1,2.2 2.2,2.2c0.1,0 0.6,-0.7 0.6,-0.8c0,-0.1 -2,-2.4 -2.2,-2.6c-0.2,-0.2 0.1,-0.4 0.3,-0.6c0.2,-0.2 2.3,2.4 2.5,2.5c0.1,0.1 0.7,-1 0.8,-1.3c0.1,-0.3 -1.9,-1.9 -2.1,-2.2c-0.2,-0.3 0.1,-0.5 0.3,-0.6c0.2,-0.1 2.1,1.9 2.2,2c0.1,0.1 0.7,-0.8 0.7,-1c0,-0.2 -1.7,-1.9 -1.9,-2.2c-0.3,-0.2 0.1,-0.7 0.3,-0.8c0.3,-0.1 2.1,2.2 2.2,2.3c0.1,0.1 0.7,-0.8 0.7,-1c0.1,-0.2 -1.5,-1.5 -1.8,-1.8c-0.2,-0.4 -0.1,-0.6 0.2,-0.7c0.3,-0.1 1.8,1.5 2,1.7c0.2,0.2 0.5,-0.6 0.5,-0.7c0,-0.1 0,-0.3 -0.2,-0.5c-0.2,-0.1 -1.5,-1.8 -1.9,-2.1c-0.4,-0.3 -4.6,0 -4.8,0.1c-0.1,0.1 -1.2,1.5 -2.5,3.5c-1.3,2 -3.3,4.8 -5.3,6.6c-2,1.8 -3.2,2.3 -4.1,1.9c-0.9,-0.4 -1,-1.1 -0.9,-3.8c0.1,-2.8 0.1,-4.6 0,-5.9c-0.1,-1.3 -1.9,-1.1 -4.3,-1c-2.4,0.1 -5.9,0.3 -6,0.5c0,0.1 0.6,0.9 1.3,2c0.7,1.1 0.5,3.8 0.7,5.4c0.2,1.6 0.2,3.6 -0.3,4.8c-0.5,1.2 -1.8,1.6 -2.8,1.2c-0.9,-0.4 -2.4,-1.9 -4,-4.2c-1.6,-2.3 -4.4,-8.6 -4.6,-8.9c-0.2,-0.3 -3.6,-0.2 -4.5,-0.2c-0.9,0 -1.6,0.2 -1.9,0.6c-1,1.1 0.7,5.5 2.7,9.4c2,3.9 3.3,5.5 5.5,8.5c2.2,3 5.6,6.2 7,7.3c1.4,1.1 4.2,2 4.3,1.8c0.1,-0.2 -2,-2.2 -2.1,-2.4c-0.1,-0.2 0.2,-0.7 0.5,-0.6c0.4,0.1 3,3.2 3.3,3.3c0.2,0.1 1.2,0.1 1.4,0c0.2,-0.1 -3.1,-3 -3.3,-3.3c-0.2,-0.2 -0.1,-0.7 0.4,-0.8c0.6,-0.2 3.7,3.9 3.9,4c0.2,0.1 1.3,0.2 1.4,0c0.1,-0.2 -3.7,-3.8 -4,-4.1c-0.3,-0.3 0,-0.5 0.4,-0.7c0.4,-0.1 4.3,4.5 4.6,4.6c0.3,0.1 0.7,-0.2 0.7,-0.4c0.1,-0.2 -4.3,-4.5 -4.5,-4.7c-0.1,-0.2 0.3,-0.8 0.5,-0.8c0.2,0 4,4.5 4.2,4.7c0.2,0.2 0.1,-1.7 0,-2c0,-0.3 -3.7,-3.3 -3.8,-3.5c-0.1,-0.2 0.1,-0.8 0.3,-0.9c0.2,0 3.2,3.3 3.2,3.2c0,-0.1 0.2,-1.4 0.2,-1.5c0,-0.2 -2.1,-2.2 -2.3,-2.5c-0.2,-0.3 -0.2,-0.6 0.2,-0.7c0.3,-0.1 2.6,2.6 2.6,2.6c0,0 0.5,-0.7 1.3,-0.7c0.8,0 1.8,0.4 3.4,1.7c1.6,1.3 4.1,5.1 4.4,5.3c0.2,0.3 0.9,0.3 1.2,0.2c0.3,-0.1 -3.9,-5.3 -4,-5.5c-0.1,-0.2 0.1,-0.5 0.5,-0.4c0.4,0 4.5,5.9 4.6,6c0.1,0.1 1.3,0.1 1.5,0.1c0.2,0 0.1,-0.4 -0.1,-0.6c-0.2,-0.2 -3.2,-3.8 -3.8,-4.4c-0.6,-0.6 -1.4,-1.3 -1,-1.5c0.4,-0.1 0.6,0 1.9,1.4c1.3,1.4 3.9,4.8 4,4.9c0,0 1.2,0.1 1.4,-0.1c0.2,-0.1 -1.1,-1.6 -2.4,-3.4c-1.3,-1.8 -3.3,-3.3 -3.6,-3.6c-0.3,-0.3 -0.2,-0.8 0.1,-0.9c0.3,-0.1 1.3,0.7 2.8,2.5c1.6,1.7 3.9,5.1 4,5.3c0.1,0.2 1.2,-0.1 1.3,-0.2c0.1,-0.1 -6.1,-7.5 -6.3,-7.7c-0.2,-0.2 -0.4,-0.6 0,-0.8c0.3,-0.2 0.9,0.4 2.1,2c1.2,1.6 4.8,6 4.9,6.2c0.1,0.2 0.1,-0.7 -0.5,-1.4zM5.69,13.04c-0.2,0 -1.6,-0.1 -1.6,0.1c-0.1,0.2 0.7,2.4 0.6,2.6c-0.1,0.2 -0.4,0.5 -0.8,0.3c-0.3,-0.2 -1.3,-3.4 -1.2,-3.7c0.1,-0.3 2.7,-0.3 3,-0.1c0.3,0.2 0.2,0.7 0,0.8zM26.49,11.34c0.1,0.2 0.2,2.4 0,2.6c-0.2,0.2 -0.8,0.4 -0.9,0c0,-0.4 0,-1.5 -0.2,-1.6c-0.2,-0.1 -2.3,-0.2 -2.6,-0.3c-0.3,-0.1 -0.4,-0.6 -0.3,-0.8c0.1,-0.1 3.9,-0.1 4,0.1z" />
	<g id="Layer">
	</g>
	<g id="Layer">
	</g>
	<g id="Layer">
	</g>
	<g id="Layer">
	</g>
	<g id="Layer">
	</g>
	<g id="Layer">
	</g>
	<g id="Layer">
	</g>
	<g id="Layer">
	</g>
	<g id="Layer">
	</g>
	<g id="Layer">
	</g>
	<g id="Layer">
	</g>
	<g id="Layer">
	</g>
	<g id="Layer">
	</g>
	<g id="Layer">
	</g>
	<g id="Layer">
	</g>
</svg>