<svg xmlns:xlink="http://www.w3.org/1999/xlink" xmlns="http://www.w3.org/2000/svg" stroke-width="0.501"
     stroke-linejoin="bevel" fill-rule="evenodd" version="1.1" overflow="visible" viewBox="0 0 75 75" x="0px"
     y="0px">
    <g fill="none" stroke="white" transform="scale(1 -1)">
        <g transform="translate(0 -75)">
            <g>
                <path d="M 32.401,0.715 C 32.331,0.821 32.258,0.928 32.176,1.025 C 32.134,1.075 32.086,1.12 32.047,1.173 C 31.987,1.255 31.915,1.362 31.845,1.433 C 31.624,1.654 31.4,1.862 31.173,2.076 C 31.051,2.191 30.917,2.296 30.795,2.41 C 30.584,2.607 30.34,2.784 30.122,2.974 C 29.757,3.292 29.365,3.595 28.989,3.902 C 28.548,4.262 28.106,4.621 27.669,4.98 C 27.422,5.13 27.177,5.28 26.932,5.431 C 26.717,5.562 26.507,5.699 26.298,5.839 C 26.241,5.761 26.184,5.683 26.127,5.605 C 26.017,5.455 25.804,5.424 25.654,5.534 C 25.504,5.644 25.473,5.857 25.583,6.007 C 25.634,6.077 25.685,6.147 25.736,6.218 C 25.671,6.262 25.606,6.306 25.541,6.35 C 24.582,6.991 23.639,7.736 22.797,8.541 C 22.651,8.406 22.507,8.271 22.364,8.135 C 22.257,8.034 22.086,8.039 21.985,8.146 C 21.884,8.253 21.889,8.424 21.996,8.525 C 22.135,8.655 22.275,8.786 22.414,8.919 C 22.336,9.007 22.337,9.144 22.419,9.232 C 22.465,9.281 22.529,9.306 22.592,9.305 C 22.444,9.417 22.325,9.56 22.175,9.705 C 21.764,10.097 21.398,10.549 20.954,10.912 C 20.657,11.154 20.278,11.27 19.986,11.523 C 19.845,11.645 19.711,11.778 19.572,11.902 C 19.305,12.14 19.039,12.384 18.777,12.628 C 18.163,13.2 17.532,13.738 16.894,14.275 C 16.445,14.646 15.993,15.008 15.553,15.391 C 13.087,17.541 10.822,19.901 8.574,22.275 C 7.437,23.476 6.348,24.712 5.251,25.949 C 4.811,26.445 4.381,26.948 3.949,27.45 C 3.592,27.865 3.224,28.279 2.877,28.702 C 2.74,28.868 2.604,29.035 2.469,29.202 L 2.506,29.165 L 1.911,29.761 C 1.836,29.73 1.748,29.735 1.677,29.783 C 1.503,29.869 1.356,30.04 1.245,30.234 L 1.134,30.538 L 0.996,30.676 L 0.971,30.674 C 0.891,30.71 0.826,30.779 0.799,30.872 L 0.815,30.857 L 0.668,31.003 C 0.463,30.818 0.258,30.633 0.055,30.449 C 0.022,30.419 -0.031,30.422 -0.061,30.455 C -0.091,30.488 -0.088,30.541 -0.055,30.571 C 0.145,30.755 0.348,30.938 0.55,31.121 L 0.452,31.221 C 0.382,31.289 0.357,31.385 0.45,31.47 C 0.445,31.464 0.442,31.467 0.439,31.471 C 0.359,31.551 0.335,31.666 0.44,31.76 C 0.438,31.763 0.436,31.765 0.435,31.768 C 0.419,31.787 0.406,31.809 0.397,31.831 C 0.409,31.851 0.423,31.87 0.441,31.887 C 0.443,31.889 0.446,31.892 0.449,31.895 C 0.379,32.023 0.414,32.098 0.479,32.15 C 0.556,32.211 0.658,32.223 0.746,32.19 C 1.465,32.909 2.176,33.636 2.877,34.374 C 3.438,34.964 3.982,35.57 4.55,36.153 C 5.363,36.987 6.188,37.811 7.007,38.638 C 8.056,39.697 9.1,40.76 10.146,41.821 C 10.565,42.246 10.985,42.672 11.404,43.097 C 11.406,43.122 11.413,43.147 11.428,43.169 C 11.452,43.207 11.493,43.228 11.536,43.23 C 12.131,43.833 12.726,44.435 13.321,45.037 C 13.321,45.08 13.338,45.124 13.371,45.157 C 13.403,45.189 13.445,45.205 13.488,45.205 C 14.672,46.402 15.859,47.596 17.048,48.788 C 17.009,48.819 16.973,48.856 16.944,48.9 C 16.913,48.945 16.914,48.966 16.897,49.018 L 16.45,48.717 C 16.368,48.663 16.256,48.687 16.202,48.769 C 16.148,48.851 16.172,48.963 16.254,49.017 L 17.157,49.637 L 17.04,49.754 L 17.009,49.772 C 16.94,49.803 16.873,49.84 16.805,49.873 C 16.744,49.902 16.665,49.926 16.608,49.959 C 16.556,49.981 16.532,50.043 16.554,50.095 C 16.576,50.147 16.638,50.171 16.69,50.149 L 16.724,50.132 L 16.633,50.341 C 16.63,50.459 16.673,50.579 16.761,50.671 C 16.937,50.855 17.231,50.861 17.415,50.685 C 17.535,50.564 17.657,50.446 17.78,50.328 C 18.032,50.619 18.29,50.905 18.559,51.181 C 18.831,51.461 19.103,51.739 19.384,52.011 C 19.654,52.273 19.931,52.531 20.213,52.784 L 20.45,52.993 L 22.18,54.715 C 22.638,55.158 23.117,55.585 23.581,56.022 C 23.705,56.139 23.831,56.251 23.967,56.354 C 24.087,56.444 24.199,56.589 24.342,56.648 L 24.405,56.658 C 24.494,56.674 24.578,56.665 24.651,56.637 L 24.778,56.544 L 25.442,57.072 C 25.473,57.096 25.507,57.116 25.542,57.131 C 25.535,57.135 25.527,57.14 25.52,57.146 C 25.491,57.165 25.282,57.265 25.276,57.283 C 25.217,57.453 25.076,57.577 25.013,57.748 C 25.008,57.762 25.005,57.84 25.004,57.86 C 24.996,57.989 25.085,58.122 25.19,58.188 L 25.237,58.221 C 25.322,58.249 25.369,58.26 25.458,58.25 C 25.591,58.234 25.706,58.146 25.82,58.078 L 25.92,58.014 L 25.986,58.044 C 26.093,58.049 26.202,58.013 26.287,57.935 C 26.339,57.88 26.396,57.827 26.454,57.775 C 27.23,58.54 27.991,59.32 28.763,60.09 C 28.902,60.229 29.045,60.367 29.189,60.504 C 29.247,60.581 29.304,60.657 29.362,60.735 C 30.405,62.092 31.572,63.352 32.812,64.532 C 33.241,64.94 33.664,65.362 34.102,65.76 C 34.712,66.314 35.313,66.88 35.922,67.436 C 36.036,67.54 36.151,67.644 36.266,67.748 C 36.665,68.132 37.066,68.512 37.464,68.897 C 38.347,69.752 39.251,70.601 40.159,71.43 C 40.49,71.732 40.817,72.037 41.15,72.336 C 41.325,72.493 41.497,72.657 41.678,72.807 C 41.846,72.945 42.017,73.073 42.192,73.2 C 42.461,73.47 42.726,73.744 42.986,74.023 C 43.162,74.208 43.457,74.215 43.642,74.039 C 43.651,74.03 43.66,74.02 43.668,74.011 C 43.671,74.011 43.674,74.012 43.677,74.013 C 43.611,74.099 43.551,74.19 43.483,74.28 C 43.316,74.497 43.156,74.71 42.966,74.908 C 42.916,74.961 42.918,75.047 42.971,75.097 C 43.024,75.147 43.11,75.145 43.16,75.092 C 43.343,74.892 43.549,74.714 43.756,74.54 C 43.849,74.462 43.959,74.385 44.047,74.304 C 44.109,74.247 44.171,74.178 44.233,74.11 C 44.421,74.215 44.602,74.303 44.822,74.344 C 44.896,74.358 44.986,74.341 45.052,74.307 C 45.123,74.27 45.168,74.217 45.227,74.167 C 45.405,74.016 45.562,73.832 45.711,73.653 C 46.362,72.869 46.808,71.833 47.733,71.315 C 47.819,71.259 47.859,71.157 47.841,71.062 C 48.29,70.696 48.735,70.325 49.179,69.95 C 49.619,69.577 50.042,69.182 50.47,68.796 C 51.147,68.184 51.794,67.53 52.434,66.88 C 52.877,66.43 53.324,65.984 53.764,65.53 C 55.376,63.865 56.961,62.179 58.555,60.497 C 60.501,58.443 62.451,56.385 64.528,54.463 C 64.596,54.398 64.641,54.318 64.663,54.232 C 64.73,54.174 64.797,54.116 64.863,54.058 C 65.116,53.832 65.365,53.607 65.608,53.377 C 65.772,53.546 65.937,53.714 66.105,53.88 C 66.26,54.048 66.525,54.059 66.693,53.904 C 66.861,53.749 66.872,53.484 66.717,53.316 C 66.701,53.297 66.685,53.278 66.67,53.26 C 66.777,53.063 66.892,52.872 67.006,52.677 C 67.135,52.454 67.242,52.211 67.367,51.984 C 67.606,51.55 67.846,51.124 68.095,50.696 C 68.849,49.402 69.716,48.146 70.552,46.904 C 71.402,45.64 72.25,44.359 73.065,43.072 C 73.354,42.615 73.632,42.15 73.93,41.699 C 74.071,41.473 74.002,41.172 73.776,41.031 C 73.55,40.89 73.249,40.959 73.108,41.185 C 73.056,41.267 73.005,41.35 72.954,41.432 C 72.776,41.421 72.601,41.515 72.517,41.684 C 72.191,42.376 71.875,43.051 71.501,43.72 C 71.484,43.749 71.467,43.778 71.451,43.806 C 71.416,43.706 71.348,43.616 71.252,43.556 C 70.791,43.278 70.345,42.975 69.887,42.692 C 69.203,42.27 68.522,41.812 67.854,41.364 C 67.124,40.874 66.38,40.406 65.651,39.912 C 64.831,39.357 64.013,38.799 63.204,38.229 C 62.867,37.992 62.536,37.747 62.199,37.509 C 60.923,36.609 59.7,35.639 58.48,34.667 C 58.002,34.286 57.511,33.876 57.058,33.466 C 56.302,32.782 55.555,32.118 54.857,31.373 C 54.644,31.146 54.431,30.914 54.23,30.677 C 54.347,30.57 54.464,30.463 54.581,30.357 C 54.822,30.136 55.054,29.905 55.295,29.684 L 55.335,29.64 C 55.364,29.649 55.394,29.654 55.425,29.656 L 55.449,29.651 L 55.452,29.65 C 57.862,31.533 60.181,33.538 62.541,35.483 C 63.81,36.529 65.089,37.563 66.411,38.541 C 67.04,39.007 67.672,39.476 68.32,39.914 C 68.966,40.351 69.61,40.779 70.27,41.194 C 70.66,41.439 71.079,41.659 71.478,41.892 C 71.726,42.034 72.045,41.949 72.187,41.701 C 72.329,41.453 72.244,41.134 71.996,40.992 C 71.278,40.575 70.558,40.162 69.842,39.74 C 69.272,39.404 68.709,39.032 68.155,38.669 C 67.255,38.078 66.368,37.46 65.499,36.823 C 62.539,34.654 59.731,32.289 56.861,30.005 C 56.911,29.858 56.884,29.688 56.774,29.565 C 56.576,29.351 56.386,29.129 56.187,28.915 C 55.744,28.439 55.292,27.974 54.838,27.509 C 53.575,26.215 52.245,24.978 51.025,23.642 C 51.016,23.632 51.007,23.623 50.999,23.613 C 51.045,23.491 51.092,23.369 51.14,23.248 C 51.178,23.143 51.123,23.026 51.018,22.988 C 50.913,22.95 50.796,23.005 50.758,23.11 C 50.737,23.168 50.717,23.226 50.697,23.284 C 50.523,23.093 50.35,22.9 50.188,22.704 C 49.961,22.43 49.739,22.156 49.515,21.879 C 49.459,21.809 49.418,21.73 49.365,21.659 C 49.249,21.503 49.132,21.348 49.018,21.19 L 48.919,21.057 L 48.905,21.038 C 48.863,20.987 48.819,20.94 48.772,20.909 L 48.71,20.885 C 48.647,20.859 48.585,20.848 48.524,20.851 C 48.523,20.842 48.521,20.833 48.521,20.825 C 48.514,20.673 48.438,20.552 48.324,20.456 C 48.304,20.439 48.289,20.414 48.265,20.404 C 48.225,20.387 48.12,20.342 48.081,20.334 L 48.002,20.333 L 47.885,20.333 C 47.817,20.346 47.641,20.426 47.533,20.497 C 47.145,20.144 46.756,19.788 46.382,19.424 C 46.31,19.354 46.208,19.334 46.118,19.362 C 45.855,19.045 45.587,18.731 45.324,18.417 C 44.78,17.768 44.257,17.097 43.73,16.434 C 43.18,15.743 42.65,15.034 42.118,14.329 C 41.443,13.435 40.782,12.532 40.134,11.619 C 39.065,10.114 37.995,8.596 36.992,7.046 C 35.984,5.488 34.958,3.928 34.033,2.319 C 34.03,2.314 34.027,2.309 34.024,2.304 C 34.289,2.151 34.553,1.998 34.821,1.853 C 35.015,1.74 35.082,1.489 34.969,1.295 C 34.856,1.101 34.605,1.034 34.411,1.147 C 34.146,1.3 33.883,1.454 33.619,1.607 C 33.595,1.567 33.571,1.527 33.548,1.487 C 33.488,1.387 33.425,1.287 33.372,1.183 C 33.294,1.03 33.105,0.643 32.97,0.562 C 32.76,0.436 32.529,0.52 32.401,0.715 Z M 32.713,1.64 L 32.852,1.885 C 32.874,1.926 32.897,1.967 32.921,2.008 C 32.9,2.02 32.879,2.032 32.858,2.044 C 32.402,2.301 31.944,2.554 31.486,2.806 C 31.728,2.597 31.971,2.383 32.193,2.156 L 32.713,1.64 Z M 33.844,3.577 C 34.246,4.239 34.648,4.901 35.064,5.555 C 36.067,7.133 37.095,8.694 38.159,10.232 C 39.073,11.553 40.015,12.849 40.963,14.145 C 41.903,15.429 42.888,16.699 43.885,17.941 C 44.382,18.56 44.89,19.167 45.396,19.778 C 45.646,20.08 45.907,20.389 46.183,20.668 C 46.357,20.844 46.535,21.012 46.714,21.179 C 46.463,21.38 46.216,21.582 45.972,21.793 C 45.787,21.952 45.605,22.115 45.425,22.282 C 44.987,21.643 44.509,21.025 44.036,20.417 C 43.383,19.576 42.733,18.736 42.064,17.907 C 41.141,16.763 40.222,15.615 39.296,14.473 C 38.158,13.068 37.05,11.657 35.969,10.208 C 35.602,9.716 35.238,9.231 34.887,8.728 C 34.567,8.27 34.223,7.827 33.903,7.368 C 33.283,6.479 32.686,5.569 32.163,4.619 C 31.979,4.286 31.788,3.943 31.626,3.599 C 32.174,3.315 32.723,3.031 33.265,2.735 C 33.284,2.724 33.303,2.714 33.322,2.703 C 33.484,2.995 33.67,3.292 33.844,3.577 Z M 32.984,7.324 C 33.172,7.646 33.375,7.964 33.572,8.281 C 33.753,8.572 33.94,8.878 34.138,9.158 C 34.639,9.865 35.145,10.563 35.655,11.263 C 35.885,11.579 36.13,11.889 36.368,12.2 C 37.13,13.197 37.909,14.178 38.688,15.162 C 40.013,16.836 41.37,18.488 42.676,20.176 C 43.119,20.748 43.564,21.319 43.994,21.901 C 44.248,22.245 44.499,22.587 44.756,22.925 C 44.609,23.071 44.462,23.219 44.317,23.367 L 43.788,23.909 L 41.901,25.472 C 41.67,25.656 41.44,25.841 41.208,26.025 C 41.123,25.94 41.038,25.854 40.953,25.77 C 39.571,24.392 38.175,23.029 36.775,21.67 C 36.798,21.652 36.822,21.634 36.847,21.617 C 36.878,21.612 36.899,21.581 36.894,21.55 C 36.889,21.519 36.858,21.498 36.827,21.503 C 36.737,21.476 36.626,21.442 36.521,21.422 C 36.013,20.93 35.506,20.438 34.999,19.947 C 33.762,18.748 32.522,17.555 31.292,16.349 C 30.704,15.773 30.132,15.182 29.543,14.607 C 27.645,12.757 25.772,10.844 24.028,8.844 C 24.136,8.77 24.249,8.7 24.37,8.623 C 24.473,8.557 24.618,8.389 24.711,8.297 C 24.925,8.086 25.149,7.88 25.374,7.682 C 25.664,7.426 25.96,7.177 26.259,6.932 C 29.111,10.8 32.174,14.562 35.428,18.09 C 36.6,19.36 37.795,20.595 39.054,21.779 C 39.397,22.102 39.742,22.423 40.092,22.739 C 40.335,22.958 40.571,23.184 40.836,23.378 C 41.028,23.55 41.325,23.535 41.497,23.343 C 41.669,23.151 41.654,22.854 41.462,22.682 C 41.229,22.425 40.959,22.201 40.701,21.969 C 40.235,21.55 39.762,21.118 39.315,20.68 C 39.012,20.382 38.702,20.09 38.395,19.797 C 38.084,19.5 37.781,19.194 37.472,18.895 C 36.822,18.266 36.198,17.604 35.569,16.954 C 34.327,15.672 33.122,14.322 31.96,12.968 C 30.16,10.871 28.441,8.719 26.791,6.505 C 27.196,6.184 27.607,5.869 28.019,5.554 C 28.116,5.479 28.213,5.405 28.311,5.33 C 28.452,5.252 28.596,5.175 28.741,5.101 C 29.127,4.901 29.511,4.694 29.896,4.492 C 30.29,4.284 30.69,4.087 31.084,3.881 C 31.645,5.061 32.325,6.197 32.984,7.324 Z M 28.913,5.347 C 29.074,5.604 29.222,5.884 29.388,6.133 C 30.594,7.938 31.848,9.68 33.174,11.401 C 34.96,13.719 36.887,15.948 38.816,18.147 C 39.75,19.211 40.687,20.271 41.614,21.342 C 42.017,21.808 42.41,22.289 42.822,22.747 C 43.065,23.016 43.318,23.278 43.572,23.537 C 43.687,23.675 43.894,23.692 44.032,23.577 C 44.17,23.462 44.187,23.255 44.072,23.117 C 43.85,22.812 43.629,22.508 43.395,22.212 C 42.94,21.635 42.433,21.074 41.95,20.518 C 41.313,19.785 40.673,19.055 40.031,18.326 C 36.773,14.625 33.35,10.949 30.558,6.871 C 30.304,6.5 30.058,6.115 29.799,5.749 C 29.641,5.526 29.476,5.309 29.331,5.077 C 29.257,4.962 29.102,4.929 28.987,5.003 C 28.872,5.077 28.839,5.232 28.913,5.347 Z M 24.01,8.206 C 23.944,8.285 23.859,8.468 23.805,8.565 C 23.802,8.569 23.8,8.573 23.797,8.577 C 23.775,8.551 23.752,8.525 23.73,8.499 C 23.714,8.48 23.696,8.464 23.677,8.45 C 23.696,8.435 23.715,8.421 23.734,8.407 C 23.85,8.317 23.964,8.223 24.075,8.131 C 24.054,8.154 24.031,8.18 24.01,8.206 Z M 23.215,8.921 C 23.196,8.904 23.179,8.888 23.161,8.872 C 23.165,8.868 23.17,8.864 23.175,8.86 C 23.186,8.881 23.199,8.901 23.215,8.921 Z M 24.285,10.794 C 24.413,10.928 24.54,11.063 24.666,11.199 C 24.338,11.352 24.007,11.5 23.669,11.634 C 22.965,11.912 22.262,12.187 21.557,12.46 C 21,12.675 20.454,12.893 19.912,13.123 C 20.684,12.465 21.452,11.802 22.181,11.101 L 22.905,10.313 L 23.367,9.855 L 23.368,9.853 C 23.677,10.163 23.982,10.477 24.285,10.794 Z M 25.946,12.593 C 25.981,12.631 26.017,12.669 26.053,12.707 C 25.589,12.886 25.129,13.057 24.656,13.214 C 24.008,13.428 23.353,13.627 22.701,13.83 C 22.4,13.924 22.102,14.027 21.801,14.122 C 20.939,14.395 20.019,14.734 19.216,15.15 C 18.931,15.298 18.656,15.493 18.384,15.666 C 18.352,15.684 18.342,15.726 18.36,15.758 C 18.378,15.79 18.42,15.8 18.452,15.782 C 18.606,15.686 18.775,15.601 18.939,15.522 C 19.066,15.461 19.191,15.419 19.318,15.352 C 20.273,14.847 21.316,14.541 22.343,14.223 C 23.338,13.915 24.356,13.667 25.354,13.364 C 25.695,13.26 26.03,13.142 26.366,13.026 C 26.464,13.125 26.562,13.222 26.658,13.321 C 26.834,13.501 27.009,13.682 27.184,13.865 C 26.57,14.052 25.964,14.269 25.362,14.491 C 24.726,14.724 24.095,14.961 23.469,15.206 C 23.279,15.172 23.084,15.161 22.89,15.172 L 22.86,15.176 L 22.828,15.169 C 22.712,15.155 22.595,15.148 22.489,15.145 C 22.065,15.132 21.552,15.246 21.19,15.449 C 21.028,15.539 20.873,15.648 20.726,15.773 L 20.656,15.842 L 20.624,15.829 C 20.412,15.824 20.212,15.808 20.001,15.792 C 19.889,15.784 19.803,15.75 19.712,15.826 C 19.671,15.861 19.63,15.91 19.594,15.951 C 19.474,16.083 19.347,16.227 19.24,16.374 C 18.436,16.738 17.638,17.116 16.839,17.49 C 16.273,17.754 15.695,18.034 15.119,18.272 C 14.735,18.43 14.352,18.594 13.967,18.75 L 17.197,15.557 L 19.369,13.587 C 19.419,13.544 19.469,13.501 19.519,13.458 C 19.688,13.387 19.857,13.319 20.026,13.253 C 20.533,13.053 21.039,12.86 21.555,12.683 C 22.643,12.308 23.742,11.93 24.811,11.504 C 24.844,11.49 24.877,11.477 24.91,11.463 C 25.255,11.84 25.597,12.219 25.946,12.593 Z M 28.89,15.666 C 29.431,16.236 29.96,16.818 30.496,17.393 C 30.681,17.591 30.866,17.79 31.051,17.989 C 30.943,18.024 30.836,18.058 30.729,18.093 C 30.241,18.249 29.754,18.408 29.267,18.565 C 29.059,18.632 28.852,18.701 28.645,18.773 C 28.045,18.456 27.407,18.221 26.728,18.087 C 26.485,18.039 26.21,17.997 25.962,17.993 C 25.784,17.982 25.628,18.118 25.617,18.296 C 25.606,18.474 25.742,18.63 25.92,18.641 C 26.119,18.642 26.323,18.678 26.519,18.711 C 26.955,18.783 27.371,18.912 27.767,19.083 C 27.667,19.118 27.567,19.153 27.467,19.189 C 26.857,19.403 26.234,19.642 25.638,19.893 C 25.577,19.917 25.547,19.987 25.571,20.048 C 25.595,20.109 25.665,20.139 25.726,20.115 C 26.503,19.791 27.305,19.506 28.118,19.247 C 28.679,19.531 29.201,19.898 29.689,20.305 C 29.268,20.489 28.855,20.69 28.469,20.92 C 28.403,20.956 28.379,21.042 28.415,21.108 C 28.451,21.174 28.537,21.198 28.603,21.162 C 28.812,21.035 29.062,20.906 29.286,20.81 C 29.51,20.713 29.728,20.618 29.947,20.528 C 30.033,20.604 30.118,20.681 30.202,20.759 C 30.503,21.039 30.81,21.361 31.096,21.693 C 30.833,21.834 30.584,21.998 30.369,22.197 C 30.292,22.258 30.279,22.373 30.34,22.45 C 30.401,22.527 30.516,22.54 30.593,22.479 C 30.837,22.278 31.087,22.119 31.342,21.986 C 31.465,22.138 31.583,22.289 31.693,22.439 C 31.873,22.683 32.046,22.926 32.215,23.17 C 32.066,23.239 31.92,23.315 31.772,23.385 C 31.534,23.497 31.286,23.592 31.047,23.702 C 30.941,23.747 30.892,23.872 30.937,23.978 C 30.982,24.084 31.107,24.133 31.213,24.088 C 31.63,23.9 32.046,23.726 32.459,23.53 C 32.596,23.735 32.731,23.943 32.865,24.156 C 33.075,24.49 33.276,24.847 33.462,25.195 C 33.508,25.28 33.553,25.366 33.599,25.452 C 33.478,25.485 33.356,25.515 33.233,25.537 C 33.111,25.559 32.983,25.59 32.862,25.607 C 32.753,25.622 32.64,25.632 32.532,25.652 C 32.429,25.665 32.356,25.762 32.369,25.865 C 32.382,25.968 32.479,26.041 32.582,26.028 C 32.811,25.986 33.047,25.968 33.277,25.919 C 33.446,25.883 33.614,25.841 33.781,25.799 C 33.902,26.03 34.019,26.263 34.134,26.499 C 34.317,26.877 34.487,27.261 34.652,27.647 C 34.249,27.837 33.845,28.06 33.508,28.299 C 33.433,28.346 33.411,28.446 33.458,28.521 C 33.505,28.596 33.605,28.618 33.68,28.571 C 34.05,28.333 34.412,28.143 34.79,27.974 C 34.807,28.015 34.825,28.057 34.842,28.098 C 34.843,28.168 34.844,28.236 34.845,28.305 C 34.845,28.33 34.866,28.351 34.891,28.351 C 34.911,28.351 34.928,28.337 34.934,28.319 C 35.045,28.59 35.146,28.869 35.249,29.143 C 35.29,29.251 35.323,29.37 35.368,29.475 C 35.388,29.523 35.407,29.574 35.424,29.626 C 35.177,29.748 34.936,29.878 34.704,30.015 C 34.646,30.046 34.624,30.12 34.655,30.178 C 34.686,30.236 34.76,30.258 34.818,30.227 C 35.048,30.098 35.276,29.987 35.509,29.886 C 35.514,29.9 35.519,29.914 35.525,29.929 C 35.598,30.128 35.772,30.261 35.969,30.293 C 35.708,30.519 35.451,30.747 35.202,30.981 C 34.97,31.196 34.743,31.414 34.519,31.634 C 34.513,31.635 34.508,31.636 34.503,31.637 C 34.335,31.662 34.171,31.701 34.005,31.737 C 33.883,31.763 33.76,31.808 33.64,31.844 C 33.383,31.922 33.142,32.002 32.89,32.096 C 32.801,32.129 32.716,32.172 32.63,32.21 C 32.382,32.32 32.135,32.43 31.888,32.544 L 31.483,32.778 L 30.835,32.96 C 30.318,33.123 29.758,33.354 29.283,33.615 C 29.004,33.769 28.721,33.91 28.453,34.085 C 28.303,34.182 28.146,34.271 27.997,34.369 C 27.609,34.624 27.256,34.901 26.903,35.202 C 25.489,36.406 24.379,38.047 23.718,39.777 C 23.602,40.08 23.506,40.387 23.393,40.689 C 23.343,40.823 23.311,40.976 23.273,41.115 C 23.071,41.854 22.928,42.632 22.86,43.396 C 22.855,43.451 22.849,43.509 22.843,43.569 C 21.797,44.724 20.764,45.889 19.707,47.034 C 19.355,46.728 19.001,46.425 18.652,46.115 C 18.345,45.842 18.053,45.545 17.744,45.278 C 17.402,44.983 17.056,44.704 16.735,44.384 C 16.725,44.374 16.715,44.367 16.701,44.384 C 16.848,44.226 16.842,43.99 16.702,43.825 C 16.6,43.704 16.49,43.586 16.391,43.463 C 16.304,43.355 16.221,43.243 16.134,43.136 C 15.914,42.865 15.723,42.554 15.527,42.265 C 14.777,41.158 14.186,39.876 13.905,38.566 C 13.817,38.154 13.768,37.766 13.734,37.346 C 13.721,37.186 13.73,37.02 13.722,36.859 C 13.72,36.775 13.69,36.698 13.64,36.637 C 13.661,36.601 13.682,36.565 13.703,36.53 C 13.962,36.086 14.074,35.658 14.2,35.163 C 14.219,35.088 14.227,35.007 14.241,34.931 C 14.294,34.634 14.324,34.337 14.339,34.036 C 14.368,33.459 14.35,32.908 14.199,31.913 C 14.202,31.912 14.206,31.911 14.21,31.91 C 14.338,31.871 14.409,31.734 14.37,31.606 C 14.346,31.527 14.284,31.47 14.211,31.446 C 14.183,31.215 14.153,30.982 14.122,30.745 C 14.069,30.343 13.978,29.937 13.897,29.539 C 13.825,29.187 13.746,28.835 13.673,28.483 C 13.644,28.343 13.621,28.2 13.59,28.061 C 13.559,27.922 13.527,27.76 13.504,27.597 L 13.465,27.134 L 13.479,26.874 C 13.559,26.214 13.933,25.418 14.247,24.905 C 14.37,24.704 14.496,24.502 14.617,24.3 C 14.755,24.071 14.946,23.837 15.106,23.62 C 15.41,23.208 15.801,22.755 16.174,22.406 C 16.631,21.979 17.074,21.581 17.672,21.378 C 17.929,21.289 18.065,21.007 17.976,20.75 C 17.887,20.493 17.605,20.357 17.348,20.446 C 16.848,20.608 16.356,20.933 15.921,21.301 C 14.967,21.715 14.031,22.194 13.095,22.65 C 11.959,23.203 10.833,23.765 9.678,24.278 C 9.249,24.469 8.815,24.647 8.379,24.821 C 8.166,24.906 7.949,24.98 7.736,25.065 C 7.666,25.09 7.631,25.169 7.656,25.239 C 7.681,25.309 7.76,25.344 7.83,25.319 C 8.235,25.164 8.638,25.008 9.042,24.851 C 9.89,24.522 10.739,24.134 11.569,23.762 C 12.698,23.255 13.83,22.724 14.976,22.238 C 14.671,22.577 14.382,22.927 14.118,23.301 C 13.91,23.594 13.703,23.892 13.519,24.201 C 13.452,24.313 13.393,24.431 13.326,24.543 C 13.232,24.7 13.13,24.884 13.056,25.052 C 12.825,25.576 12.558,26.157 12.502,26.734 C 12.487,26.883 12.479,27.016 12.477,27.166 C 12.475,27.345 12.506,27.521 12.527,27.697 C 12.532,27.74 12.537,27.783 12.543,27.827 C 11.939,28.015 11.325,28.234 10.751,28.497 C 10.652,28.422 10.557,28.354 10.439,28.283 C 10.22,28.151 9.94,28.061 9.695,27.998 C 9.418,27.926 9.145,27.884 8.872,27.871 C 9.479,27.558 10.097,27.242 10.717,26.961 C 11.065,26.803 11.408,26.655 11.766,26.524 C 12.014,26.433 12.253,26.361 12.497,26.255 C 12.582,26.231 12.631,26.14 12.607,26.055 C 12.583,25.97 12.492,25.921 12.407,25.945 C 12.147,25.97 11.865,26.066 11.624,26.165 C 11.439,26.241 11.255,26.317 11.07,26.394 C 10.895,26.467 10.721,26.564 10.547,26.643 C 9.846,26.961 9.168,27.372 8.476,27.713 C 8.337,27.781 8.197,27.849 8.057,27.917 C 7.967,27.931 7.878,27.948 7.788,27.969 C 7.495,28.035 7.176,28.126 6.905,28.259 C 6.779,28.3 6.695,28.413 6.684,28.538 L 6.687,28.562 L 6.531,28.661 C 6.461,28.712 6.394,28.766 6.34,28.812 C 5.681,29.366 5.286,30.166 5.267,31.029 L 5.276,31.239 C 5.234,31.627 5.286,32.023 5.457,32.401 C 5.504,32.506 5.557,32.599 5.616,32.685 C 4.978,33.019 4.341,33.349 3.702,33.678 C 3.612,33.573 3.522,33.468 3.435,33.363 C 3.209,33.091 2.976,32.826 2.745,32.559 C 2.816,32.518 2.894,32.464 2.962,32.425 C 3.116,32.334 3.308,32.19 3.451,32.079 C 3.862,31.759 4.248,31.511 4.736,31.355 C 4.844,31.319 4.902,31.199 4.866,31.091 C 4.83,30.983 4.71,30.925 4.602,30.961 C 4.207,31.09 3.796,31.365 3.477,31.628 C 3.365,31.72 3.236,31.828 3.118,31.91 C 3.016,31.981 2.916,32.072 2.812,32.138 C 2.731,32.19 2.647,32.239 2.567,32.293 C 2.555,32.3 2.544,32.307 2.533,32.314 C 2.295,32.037 2.062,31.757 1.841,31.467 L 1.764,31.358 L 1.785,31.387 C 1.913,31.398 2.042,31.34 2.117,31.226 C 2.247,30.999 2.41,30.787 2.556,30.57 C 2.683,30.38 2.82,30.194 2.96,30.01 C 3.169,29.914 3.381,29.824 3.595,29.735 C 3.887,29.613 4.184,29.485 4.474,29.359 C 4.613,29.298 4.754,29.23 4.895,29.175 C 5.016,29.123 5.072,28.979 5.02,28.858 C 4.968,28.737 4.824,28.681 4.703,28.733 C 4.489,28.814 4.277,28.92 4.066,29.01 C 3.911,29.076 3.755,29.142 3.601,29.211 C 3.673,29.123 3.745,29.035 3.817,28.948 C 4.088,28.615 4.379,28.287 4.666,27.968 L 5.635,26.926 L 11.216,21.463 L 11.237,21.442 C 12.477,20.803 13.864,20.396 15.194,19.999 C 15.93,19.779 16.673,19.579 17.41,19.362 C 17.711,19.273 18.029,19.185 18.334,19.083 C 18.369,19.432 18.467,19.771 18.643,20.058 C 19.113,20.825 19.931,21.105 20.776,21.258 C 21.068,21.311 21.443,21.34 21.752,21.322 L 21.792,21.329 C 22.144,21.379 22.5,21.375 22.84,21.311 C 23.352,21.214 23.857,20.932 24.234,20.576 L 24.291,20.51 L 24.387,20.445 C 24.424,20.418 24.455,20.384 24.492,20.357 C 24.714,20.192 25.016,19.828 25.15,19.585 C 25.33,19.257 25.433,19.021 25.508,18.655 C 25.568,18.359 25.566,18.045 25.513,17.735 C 25.663,17.685 25.815,17.637 25.966,17.592 C 26.797,17.344 27.634,17.131 28.468,16.894 C 28.686,16.832 28.9,16.759 29.117,16.696 C 29.224,16.662 29.283,16.547 29.249,16.44 C 29.215,16.333 29.1,16.274 28.993,16.308 C 28.818,16.359 28.647,16.425 28.473,16.48 C 28.252,16.55 28.029,16.621 27.808,16.693 C 27.328,16.85 26.835,16.978 26.356,17.141 C 26.056,17.243 25.744,17.33 25.446,17.441 C 25.396,17.26 25.328,17.084 25.247,16.916 L 25.182,16.799 L 25.172,16.766 C 25.088,16.516 24.97,16.279 24.806,16.04 C 24.557,15.678 24.209,15.434 23.82,15.298 C 24.164,15.179 24.511,15.066 24.862,14.957 C 25.717,14.69 26.582,14.473 27.443,14.231 C 27.466,14.224 27.49,14.217 27.514,14.21 C 27.974,14.694 28.431,15.183 28.89,15.666 Z M 24.136,16.701 L 24.374,16.987 L 24.438,17.141 C 24.499,17.351 24.531,17.575 24.536,17.804 C 24.411,17.855 24.286,17.908 24.161,17.963 C 24.008,18.03 23.821,18.109 23.677,18.191 C 23.608,18.224 23.578,18.308 23.611,18.377 C 23.644,18.446 23.728,18.476 23.797,18.443 C 23.972,18.346 24.177,18.26 24.361,18.179 C 24.416,18.154 24.471,18.13 24.527,18.107 C 24.475,18.775 24.207,19.45 23.778,19.917 L 23.53,20.135 L 23.087,20.349 C 22.906,20.418 22.719,20.473 22.528,20.515 L 22.068,20.586 L 21.719,20.534 C 21.59,20.505 21.46,20.466 21.325,20.418 L 21.052,20.305 L 20.742,20.119 C 20.647,20.054 20.559,19.978 20.467,19.868 C 19.859,19.146 20.104,17.883 20.57,17.15 C 20.763,16.847 21.046,16.449 21.362,16.263 C 21.439,16.215 21.582,16.112 21.673,16.09 L 21.673,16.092 C 21.674,16.091 21.675,16.09 21.677,16.09 C 21.678,16.088 21.68,16.087 21.681,16.088 C 21.687,16.083 21.692,16.082 21.696,16.082 L 21.689,16.084 C 21.709,16.074 21.73,16.066 21.752,16.059 C 21.774,16.07 21.8,16.071 21.824,16.062 C 21.889,16.034 21.955,16.006 22.02,15.979 C 22.793,15.807 23.586,16.128 24.136,16.701 Z M 21.681,16.088 C 21.679,16.088 21.678,16.088 21.678,16.089 L 21.689,16.084 C 21.686,16.085 21.683,16.086 21.681,16.088 Z M 21.678,16.089 L 21.677,16.09 L 21.675,16.09 L 21.678,16.089 Z M 20.344,16.155 L 20.31,16.189 C 19.536,17.1 19.118,18.446 19.446,19.537 C 19.51,19.751 19.605,19.963 19.728,20.156 L 19.814,20.271 L 19.773,20.252 C 19.7,20.212 19.629,20.167 19.572,20.129 C 19.175,19.869 18.942,19.354 18.94,18.888 C 18.939,18.874 18.939,18.86 18.94,18.847 C 19.005,18.818 19.069,18.789 19.135,18.761 C 19.236,18.724 19.288,18.61 19.251,18.509 C 19.214,18.408 19.101,18.356 19,18.393 C 18.993,18.275 19.015,18.159 19.044,18.038 C 19.095,17.818 19.157,17.58 19.241,17.371 C 19.304,17.214 19.362,17.047 19.442,16.898 C 19.568,16.664 19.684,16.491 19.835,16.309 L 19.946,16.182 L 20.344,16.155 Z M 18.648,17.346 C 18.561,17.555 18.483,17.748 18.425,17.968 C 18.371,18.17 18.336,18.387 18.324,18.609 C 18.163,18.669 18.002,18.731 17.845,18.791 C 17.286,19.002 16.708,19.189 16.141,19.379 C 14.591,19.899 13.053,20.387 11.602,21.084 L 12.093,20.605 L 13.474,19.238 L 13.468,19.244 C 14.087,19.012 14.707,18.77 15.315,18.513 C 16.491,18.014 17.656,17.483 18.833,16.984 C 18.763,17.1 18.699,17.22 18.648,17.346 Z M 32.313,19.348 C 32.207,19.379 32.101,19.413 32.005,19.443 C 31.65,19.553 31.294,19.664 30.948,19.798 C 30.773,19.865 30.597,19.933 30.421,20.003 C 30.212,19.819 29.982,19.646 29.761,19.481 C 29.516,19.298 29.265,19.129 29.006,18.975 C 29.793,18.743 30.586,18.532 31.371,18.333 C 31.685,18.671 31.999,19.01 32.313,19.348 Z M 33.42,20.543 C 33.487,20.615 33.554,20.688 33.622,20.761 C 33.152,20.921 32.666,21.048 32.2,21.22 C 32.068,21.268 31.934,21.318 31.801,21.371 C 31.62,21.171 31.432,20.98 31.25,20.783 C 31.076,20.595 30.883,20.42 30.692,20.248 C 30.713,20.241 30.735,20.234 30.757,20.227 C 31.368,20.029 32.015,19.824 32.653,19.715 C 32.908,19.991 33.164,20.267 33.42,20.543 Z M 34.713,21.941 C 34.242,22.154 33.784,22.376 33.322,22.612 C 33.2,22.673 33.077,22.738 32.954,22.802 C 32.95,22.798 32.947,22.793 32.944,22.789 C 32.663,22.411 32.371,22.038 32.067,21.678 C 32.635,21.479 33.232,21.348 33.869,21.153 C 33.898,21.143 33.928,21.134 33.959,21.125 C 34.21,21.397 34.462,21.669 34.713,21.941 Z M 48.477,22.396 C 48.395,22.685 48.315,22.975 48.233,23.265 C 47.923,24.352 47.594,25.436 47.275,26.521 C 46.882,27.859 46.541,29.196 46.219,30.551 C 46.174,30.74 46.158,30.946 46.129,31.139 C 46.128,31.141 46.128,31.143 46.127,31.144 C 45.707,30.689 45.288,30.232 44.865,29.78 C 44.771,29.68 44.677,29.581 44.583,29.482 C 44.808,28.496 45.056,27.506 45.347,26.548 C 45.547,25.889 45.746,25.233 45.949,24.575 C 46.09,24.115 46.219,23.651 46.365,23.192 C 46.401,23.161 46.437,23.13 46.474,23.099 C 46.673,22.927 46.862,22.741 47.058,22.566 C 47.34,22.314 47.609,22.041 47.878,21.774 C 48.066,21.988 48.276,22.191 48.477,22.396 Z M 36.966,24.354 C 36.658,24.437 36.355,24.537 36.049,24.637 C 35.558,24.796 35.06,24.981 34.573,25.156 C 34.548,25.164 34.523,25.173 34.499,25.182 C 34.347,24.917 34.191,24.648 34.027,24.396 C 33.756,23.981 33.494,23.566 33.212,23.162 C 33.73,22.908 34.254,22.654 34.782,22.442 C 34.878,22.402 34.975,22.365 35.072,22.328 C 35.7,23.007 36.33,23.683 36.966,24.354 Z M 48.797,22.732 L 49.945,23.943 L 50.318,24.41 C 50.155,24.908 49.998,25.408 49.848,25.911 C 49.54,26.937 49.266,27.966 48.988,29 C 48.755,29.866 48.528,30.75 48.326,31.624 C 48.283,31.812 48.23,31.999 48.192,32.188 C 48.121,32.536 48.057,32.885 47.991,33.232 C 47.896,33.126 47.802,33.019 47.708,32.912 C 47.236,32.391 46.78,31.852 46.303,31.335 C 46.286,31.317 46.269,31.299 46.253,31.281 C 46.255,31.271 46.258,31.26 46.261,31.251 C 46.318,31.036 46.395,30.795 46.436,30.58 C 46.514,30.168 46.634,29.724 46.747,29.319 C 47.088,28.099 47.489,26.915 47.886,25.711 C 48.181,24.816 48.476,23.909 48.726,23 C 48.75,22.911 48.773,22.822 48.797,22.732 Z M 44.414,29.304 C 44.159,29.039 43.903,28.775 43.651,28.509 C 43.487,28.336 43.322,28.164 43.156,27.992 C 43.201,27.905 43.243,27.816 43.267,27.718 C 43.467,26.886 43.659,26.044 43.958,25.241 C 44.569,24.738 45.168,24.226 45.764,23.711 L 45.767,23.71 C 45.219,25.545 44.818,27.43 44.414,29.304 Z M 37.976,25.407 C 38.258,25.697 38.539,25.988 38.82,26.278 C 38.592,26.335 38.364,26.396 38.137,26.454 C 37.721,26.559 37.295,26.662 36.887,26.794 C 36.446,26.936 36.024,27.091 35.599,27.255 C 35.317,26.671 35.017,26.096 34.699,25.532 C 35.168,25.378 35.635,25.207 36.099,25.057 C 36.326,24.983 36.56,24.904 36.79,24.844 C 36.969,24.797 37.142,24.758 37.316,24.722 C 37.535,24.951 37.755,25.179 37.976,25.407 Z M 50.591,24.753 L 50.6,24.765 L 50.619,24.788 C 50.907,25.14 51.201,25.488 51.504,25.825 C 51.973,26.347 52.445,26.861 52.927,27.371 C 53.241,27.703 53.563,28.036 53.891,28.361 C 53.769,28.589 53.697,28.846 53.633,29.101 C 53.602,29.226 53.553,29.406 53.501,29.521 C 53.45,29.634 53.398,29.743 53.331,29.845 C 53.308,29.88 53.273,29.914 53.249,29.951 C 53.217,29.992 53.226,30.053 53.267,30.085 C 53.308,30.117 53.369,30.108 53.401,30.067 C 53.512,29.919 53.626,29.75 53.687,29.573 C 53.751,29.386 53.8,29.199 53.857,29.01 C 53.902,28.859 53.955,28.671 54.033,28.501 C 54.17,28.635 54.308,28.766 54.447,28.896 C 54.49,28.936 54.534,28.977 54.577,29.017 C 54.449,29.122 54.324,29.234 54.245,29.303 C 54.135,29.397 54.029,29.496 53.92,29.591 C 53.873,29.632 53.801,29.68 53.762,29.726 C 53.683,29.82 53.661,29.868 53.558,29.947 C 53.418,30.054 53.286,30.179 53.149,30.289 C 52.922,30.471 52.7,30.663 52.476,30.85 C 51.817,31.398 51.167,31.959 50.515,32.519 C 50.546,32.424 50.578,32.33 50.611,32.236 C 50.941,31.286 51.337,30.388 51.74,29.468 C 51.914,29.071 52.105,28.68 52.281,28.284 C 52.408,28 52.532,27.715 52.664,27.433 C 52.717,27.307 52.657,27.159 52.531,27.106 C 52.405,27.053 52.257,27.113 52.204,27.239 C 51.936,27.908 51.67,28.578 51.397,29.245 C 50.905,30.445 50.446,31.63 50.113,32.863 C 50.106,32.869 50.098,32.876 50.091,32.882 C 49.931,32.717 49.773,32.552 49.614,32.388 C 49.534,32.306 49.401,32.303 49.319,32.383 C 49.237,32.463 49.234,32.596 49.314,32.678 C 49.467,32.836 49.62,32.994 49.773,33.153 C 49.423,33.45 49.074,33.751 48.726,34.054 C 48.527,33.834 48.328,33.612 48.131,33.39 C 48.24,32.999 48.356,32.61 48.465,32.217 C 48.516,32.033 48.555,31.838 48.6,31.652 C 49.107,29.553 49.688,27.479 50.365,25.429 C 50.439,25.204 50.514,24.979 50.591,24.753 Z M 43.004,26.871 C 42.962,27.048 42.924,27.227 42.884,27.404 C 42.865,27.488 42.842,27.57 42.827,27.654 C 42.604,27.427 42.38,27.199 42.155,26.972 C 42.239,26.887 42.323,26.801 42.406,26.715 C 42.668,26.439 42.927,26.161 43.19,25.886 L 43.275,25.796 L 43.316,25.764 C 43.324,25.757 43.332,25.75 43.347,25.737 C 43.193,26.104 43.095,26.49 43.004,26.871 Z M 39.727,27.203 C 39.141,27.671 38.558,28.141 37.984,28.618 C 37.979,28.621 37.974,28.625 37.97,28.629 C 37.634,28.745 37.299,28.862 36.965,28.98 C 36.792,29.04 36.619,29.105 36.446,29.173 C 36.323,28.868 36.199,28.564 36.065,28.262 C 35.966,28.039 35.865,27.817 35.761,27.596 C 35.817,27.58 35.873,27.564 35.929,27.548 C 36.438,27.394 36.943,27.278 37.455,27.142 C 37.996,26.999 38.556,26.856 39.103,26.739 C 39.145,26.728 39.182,26.708 39.212,26.681 C 39.383,26.855 39.554,27.03 39.727,27.203 Z M 42.698,28.914 C 42.7,28.916 42.702,28.918 42.704,28.921 C 42.698,28.959 42.69,28.997 42.682,29.036 C 42.676,29.063 42.693,29.09 42.72,29.096 C 42.747,29.102 42.774,29.085 42.78,29.058 C 42.783,29.041 42.786,29.025 42.79,29.009 C 43.252,29.488 43.709,29.969 44.164,30.455 C 44.15,30.493 44.148,30.536 44.163,30.578 C 44.195,30.671 44.294,30.721 44.39,30.697 C 45.266,31.637 46.128,32.59 46.978,33.556 C 47.16,33.76 47.343,33.965 47.525,34.169 C 47.425,34.274 47.427,34.444 47.532,34.547 C 47.631,34.645 47.731,34.743 47.83,34.842 C 47.571,35.072 47.312,35.303 47.056,35.534 C 46.858,35.584 46.661,35.629 46.472,35.671 C 46.397,35.687 46.348,35.762 46.364,35.837 C 46.38,35.912 46.455,35.961 46.53,35.945 C 46.559,35.938 46.589,35.931 46.62,35.924 C 46.242,36.263 45.864,36.601 45.488,36.94 C 45.317,36.898 45.139,36.993 45.085,37.163 C 45.068,37.213 45.064,37.265 45.071,37.315 C 44.485,37.844 43.9,38.376 43.319,38.914 L 43.309,38.923 C 43.271,38.88 43.218,38.851 43.157,38.844 C 43.023,38.828 42.9,38.923 42.884,39.057 C 42.826,39.105 42.771,39.152 42.726,39.214 C 42.678,39.281 42.679,39.406 42.664,39.487 C 42.66,39.505 42.657,39.525 42.654,39.544 L 42.347,39.835 C 42.312,39.803 42.268,39.781 42.218,39.774 C 42.085,39.755 41.96,39.848 41.941,39.981 C 41.883,40.027 41.812,40.085 41.774,40.15 C 41.759,40.174 41.748,40.204 41.74,40.236 L 41.756,40.23 L 41.735,40.239 L 41.699,40.268 L 41.668,40.309 L 41.641,40.358 L 41.613,40.403 L 41.579,40.438 L 41.54,40.46 L 41.525,40.537 C 41.471,40.559 41.445,40.621 41.463,40.675 L 41.474,40.665 L 40.953,41.161 L 40.874,41.232 L 39.533,42.51 C 39.175,42.859 38.818,43.208 38.467,43.563 C 38.418,43.582 38.376,43.631 38.341,43.666 C 38.028,43.964 37.736,44.303 37.45,44.628 C 37.41,44.672 37.371,44.719 37.332,44.765 C 37.18,44.716 37.006,44.757 36.893,44.883 C 35.764,46.11 34.704,47.381 33.642,48.666 L 33.416,48.939 L 32.986,49.43 C 32.81,49.624 32.638,49.822 32.466,50.021 C 32.288,50.087 32.11,50.147 31.931,50.208 C 31.834,50.24 31.781,50.345 31.813,50.442 C 31.839,50.522 31.917,50.573 31.998,50.569 C 31.899,50.684 31.8,50.799 31.701,50.913 C 31.648,50.973 31.57,51.069 31.528,51.135 C 31.507,51.168 31.49,51.199 31.474,51.228 C 31.327,51.261 31.18,51.291 31.026,51.318 C 30.925,51.335 30.857,51.431 30.874,51.532 C 30.891,51.633 30.987,51.701 31.088,51.684 C 31.088,51.683 31.089,51.683 31.092,51.683 C 30.801,51.995 30.52,52.319 30.233,52.634 L 29.034,53.938 L 26.978,56.005 C 26.856,56.118 26.734,56.232 26.609,56.343 C 26.559,56.3 26.509,56.258 26.46,56.213 C 26.325,56.09 26.194,55.965 26.07,55.831 C 25.977,55.73 25.819,55.724 25.718,55.817 C 25.617,55.91 25.611,56.068 25.704,56.169 C 25.723,56.191 25.743,56.213 25.763,56.236 C 25.245,55.83 24.728,55.422 24.211,55.016 L 23.343,54.334 L 22.923,53.894 C 22.224,53.214 21.51,52.56 20.775,51.932 C 20.784,51.924 20.793,51.916 20.802,51.908 C 20.973,51.736 20.971,51.456 20.799,51.285 C 20.188,50.681 19.578,50.076 18.969,49.47 C 19.07,49.457 19.166,49.41 19.243,49.331 C 19.369,49.197 19.4,49.009 19.34,48.848 C 19.404,48.831 19.468,48.813 19.532,48.796 C 19.723,48.742 19.912,48.682 20.103,48.631 C 20.216,48.593 20.281,48.471 20.253,48.357 C 20.36,48.371 20.471,48.335 20.55,48.251 C 20.677,48.113 20.669,47.897 20.531,47.77 C 20.485,47.727 20.44,47.685 20.394,47.644 C 20.617,47.403 20.84,47.162 21.063,46.92 L 21.22,46.745 L 23.102,44.978 L 23.051,45.025 C 23.093,45.06 23.146,45.081 23.204,45.082 C 23.338,45.083 23.45,44.975 23.451,44.841 C 23.499,44.774 23.593,44.664 23.608,44.582 C 23.613,44.551 23.617,44.517 23.619,44.483 C 23.883,44.227 24.146,43.97 24.408,43.713 C 24.435,43.731 24.466,43.744 24.5,43.751 C 24.632,43.776 24.761,43.689 24.786,43.557 C 24.861,43.495 24.951,43.43 24.985,43.336 C 25.013,43.255 25.028,43.168 25.045,43.082 C 25.705,42.427 26.361,41.767 27.017,41.107 C 27.189,41.026 27.361,40.947 27.535,40.868 C 27.657,40.806 27.705,40.654 27.643,40.532 C 27.635,40.516 27.625,40.502 27.6,40.518 C 27.602,40.516 27.604,40.514 27.606,40.513 C 28.087,40.028 28.567,39.542 29.047,39.056 C 29.276,38.824 29.519,38.593 29.736,38.35 C 30.033,38.016 30.339,37.69 30.641,37.36 L 31.841,36.051 L 31.844,36.048 C 32.117,35.922 32.39,35.797 32.664,35.674 C 32.767,35.626 32.813,35.502 32.765,35.399 C 32.749,35.366 32.726,35.339 32.699,35.319 L 35.912,32.631 C 36.183,32.404 36.454,32.176 36.726,31.948 C 36.727,31.948 36.729,31.948 36.732,31.949 C 36.828,31.949 36.909,31.877 36.91,31.776 C 36.945,31.763 37.358,31.413 37.77,31.06 C 37.975,30.989 38.181,30.914 38.385,30.833 C 38.531,30.779 38.605,30.615 38.551,30.469 C 38.542,30.447 38.532,30.427 38.52,30.408 C 39.163,29.844 39.798,29.271 40.818,28.269 C 40.824,28.274 40.83,28.28 40.837,28.287 C 40.998,28.45 41.263,28.451 41.426,28.29 C 41.589,28.129 41.59,27.864 41.429,27.701 C 41.427,27.699 41.426,27.698 41.425,27.697 C 41.269,27.872 41.371,27.771 41.474,27.669 C 41.886,28.079 42.293,28.495 42.698,28.914 Z M 20.219,29.163 C 19.953,29.45 19.72,29.781 19.557,30.137 L 19.474,30.352 L 19.456,30.384 C 19.055,31.175 19.049,32.189 19.56,32.93 C 19.808,33.289 20.245,33.525 20.646,33.663 C 21.27,33.877 22.003,33.769 22.609,33.549 C 22.695,33.518 22.782,33.488 22.863,33.445 C 22.963,33.392 23.073,33.348 23.17,33.29 C 23.437,33.131 23.676,32.965 23.905,32.755 C 24.462,32.243 24.783,31.708 24.898,30.969 C 24.94,30.703 24.954,30.429 24.92,30.162 C 24.884,29.873 24.799,29.535 24.642,29.286 C 24.501,29.062 24.378,28.899 24.175,28.725 C 22.999,27.721 21.213,28.087 20.219,29.163 Z M 12.741,28.845 C 12.789,29.079 12.838,29.313 12.888,29.547 C 12.498,29.707 12.108,29.865 11.717,30.023 C 11.695,30.031 11.674,30.04 11.653,30.049 C 11.641,29.972 11.627,29.898 11.613,29.828 C 11.573,29.634 11.473,29.368 11.37,29.198 C 11.276,29.043 11.152,28.855 11.013,28.712 C 11.524,28.512 12.074,28.345 12.61,28.213 C 12.651,28.426 12.698,28.639 12.741,28.845 Z M 23.115,28.625 C 23.814,28.836 24.228,29.182 24.474,29.881 C 24.533,30.05 24.557,30.23 24.56,30.412 L 24.532,30.829 L 24.499,30.606 C 24.483,30.531 24.462,30.455 24.436,30.379 C 24.396,30.265 24.336,30.131 24.269,30.03 C 24.159,29.865 24.004,29.655 23.842,29.538 C 23.75,29.472 23.662,29.391 23.561,29.336 C 23.317,29.204 23.118,29.108 22.845,29.042 C 22.408,28.937 21.952,28.96 21.543,29.104 L 21.483,29.131 L 21.205,29.1 C 21.105,29.099 21.007,29.108 20.912,29.125 L 20.814,29.153 L 21.021,29 C 21.225,28.87 21.447,28.769 21.698,28.678 C 22.002,28.568 22.292,28.556 22.61,28.552 C 22.752,28.55 22.979,28.584 23.115,28.625 Z M 9.28,29.004 C 9.393,29.041 9.491,29.079 9.58,29.12 C 9.477,29.186 9.375,29.256 9.272,29.332 C 9.091,29.464 8.898,29.612 8.739,29.77 C 8.689,29.814 8.685,29.892 8.729,29.942 C 8.773,29.992 8.851,29.996 8.901,29.952 C 9.114,29.77 9.298,29.615 9.531,29.454 C 9.629,29.386 9.729,29.322 9.832,29.263 C 9.965,29.354 10.088,29.464 10.237,29.61 L 10.447,29.891 C 10.561,30.074 10.652,30.274 10.718,30.481 C 10.676,30.498 10.634,30.515 10.593,30.532 C 10.534,30.555 10.505,30.624 10.528,30.683 C 10.551,30.742 10.62,30.771 10.679,30.748 C 10.712,30.734 10.746,30.72 10.78,30.707 C 10.793,30.761 10.807,30.825 10.809,30.869 L 10.816,30.978 C 10.747,31.025 10.678,31.072 10.61,31.119 C 10.589,31.133 10.583,31.163 10.597,31.184 C 10.611,31.205 10.641,31.211 10.662,31.197 C 10.714,31.161 10.766,31.126 10.819,31.09 L 10.818,31.092 L 10.785,31.277 C 10.75,31.407 10.709,31.535 10.667,31.659 C 10.612,31.821 10.507,32.038 10.417,32.182 L 10.172,32.525 C 10.076,32.597 9.977,32.662 9.875,32.722 C 9.731,32.806 9.557,32.876 9.402,32.935 C 9.32,32.966 9.229,32.984 9.148,33.014 C 9.071,33.043 8.977,33.054 8.897,33.07 C 8.726,33.104 8.573,33.126 8.399,33.139 C 7.893,33.177 7.37,33.119 6.918,32.913 L 6.751,32.822 L 6.608,32.666 C 6.097,32.026 5.888,31.213 6.142,30.439 L 6.217,30.267 L 6.384,30.013 C 6.93,29.351 7.835,28.927 8.65,28.917 C 8.837,28.915 9.102,28.946 9.28,29.004 Z M 36.627,29.735 C 36.628,29.669 36.617,29.601 36.593,29.535 C 36.584,29.515 36.576,29.495 36.568,29.475 C 36.67,29.435 36.772,29.394 36.875,29.359 C 36.989,29.319 37.105,29.282 37.221,29.245 C 37.023,29.408 36.825,29.571 36.627,29.735 Z M 21.079,29.342 L 20.973,29.411 C 20.8,29.543 20.647,29.705 20.522,29.895 C 20.387,30.101 20.335,30.284 20.282,30.52 C 20.225,30.773 20.259,31.037 20.308,31.288 C 20.342,31.459 20.415,31.598 20.482,31.755 C 20.515,31.831 20.585,31.941 20.635,32.008 C 20.995,32.491 21.432,32.803 22.041,32.887 C 22.185,32.907 22.333,32.91 22.48,32.898 L 22.759,32.846 L 22.61,32.924 C 22.465,32.982 22.309,33.026 22.14,33.055 C 22.016,33.076 21.89,33.073 21.765,33.08 C 21.651,33.086 21.512,33.057 21.399,33.043 C 21.252,33.025 21.058,32.968 20.922,32.907 C 20.082,32.531 19.506,31.698 19.752,30.757 C 19.836,30.435 19.94,30.213 20.094,29.969 L 20.208,29.799 L 20.302,29.699 C 20.489,29.536 20.709,29.413 20.945,29.359 L 21.079,29.342 Z M 21.695,29.52 L 21.612,29.617 C 21.452,29.808 21.371,30.051 21.339,30.293 C 21.264,30.866 21.611,31.639 22.072,31.984 C 22.289,32.147 22.575,32.342 22.858,32.362 L 22.938,32.365 L 22.889,32.388 L 22.551,32.472 C 22.268,32.501 21.924,32.484 21.665,32.353 C 21.591,32.315 21.52,32.27 21.447,32.233 C 21.368,32.193 21.248,32.082 21.183,32.019 C 20.766,31.612 20.538,30.906 20.764,30.353 C 20.871,30.089 20.997,29.944 21.182,29.8 L 21.382,29.659 L 21.578,29.56 L 21.695,29.52 Z M 55.347,29.628 L 55.335,29.64 L 55.333,29.64 L 55.347,29.628 Z M 22.301,29.769 L 22.371,29.821 C 22.42,29.858 22.491,29.849 22.531,29.785 L 22.618,29.79 C 22.763,29.819 22.902,29.874 23.039,29.96 C 23.631,30.333 23.938,31.148 23.628,31.789 L 23.578,31.86 C 23.523,31.833 23.46,31.828 23.4,31.849 C 23.362,31.859 23.239,31.898 23.207,31.913 C 23.097,31.965 22.804,31.918 22.692,31.875 C 21.977,31.602 21.446,30.511 21.955,29.877 L 22.028,29.8 L 22.166,29.774 L 22.301,29.769 Z M 13.324,31.637 C 13.327,31.653 13.33,31.67 13.333,31.687 C 13.082,31.774 12.834,31.866 12.581,31.971 C 12.297,32.088 12.013,32.234 11.737,32.37 C 11.474,32.499 11.213,32.635 10.955,32.777 L 10.965,32.763 L 11.086,32.625 C 11.163,32.521 11.256,32.399 11.31,32.282 C 11.36,32.174 11.407,32.074 11.453,31.962 C 11.505,31.837 11.546,31.636 11.565,31.5 L 11.577,31.356 L 11.644,31.041 C 11.668,30.871 11.68,30.7 11.689,30.524 C 11.689,30.519 11.689,30.515 11.689,30.511 C 11.736,30.48 11.783,30.449 11.83,30.419 C 11.851,30.405 11.857,30.375 11.843,30.354 C 11.84,30.35 11.837,30.347 11.834,30.344 C 11.978,30.289 12.121,30.226 12.263,30.171 C 12.496,30.079 12.73,29.988 12.963,29.898 C 13.088,30.476 13.213,31.054 13.324,31.637 Z M 11.689,30.398 C 11.689,30.396 11.689,30.395 11.675,30.4 L 11.678,30.4 C 11.685,30.397 11.692,30.395 11.696,30.394 C 11.693,30.395 11.691,30.396 11.689,30.398 Z M 57.082,34.397 C 57.902,35.104 58.726,35.797 59.573,36.472 C 60.779,37.433 62.008,38.372 63.253,39.282 C 63.955,39.795 64.657,40.315 65.37,40.811 C 65.991,41.243 66.612,41.675 67.232,42.108 C 67.466,42.272 67.711,42.428 67.95,42.584 C 68.541,42.97 69.129,43.358 69.724,43.737 C 70.059,43.95 70.409,44.157 70.738,44.378 C 70.832,44.437 70.941,44.459 71.044,44.448 C 70.724,44.943 70.403,45.431 70.091,45.925 C 69.848,46.305 69.609,46.689 69.371,47.08 C 69.167,47.375 68.959,47.674 68.748,47.973 C 68.356,48.527 67.96,49.08 67.568,49.635 C 66.564,48.646 65.525,47.689 64.498,46.725 C 62.647,44.989 60.783,43.267 58.92,41.543 C 58.403,41.065 57.892,40.579 57.383,40.093 C 56.178,38.943 54.96,37.795 53.783,36.617 C 53.12,35.954 52.451,35.296 51.792,34.629 C 51.489,34.322 51.189,34.015 50.89,33.707 C 51.118,33.504 51.346,33.301 51.573,33.097 C 51.789,32.901 52.006,32.706 52.222,32.51 C 52.217,32.59 52.238,32.672 52.288,32.743 C 53.414,34.346 54.738,35.8 56.17,37.135 C 56.925,37.839 57.699,38.514 58.483,39.185 C 59.982,40.469 61.55,41.654 63.095,42.88 C 63.522,43.219 63.964,43.548 64.385,43.893 C 65.14,44.511 65.903,45.12 66.655,45.742 C 67.179,46.176 67.721,46.599 68.233,47.046 C 68.375,47.177 68.598,47.168 68.729,47.026 C 68.86,46.884 68.851,46.661 68.709,46.53 C 68.402,46.231 68.105,45.922 67.795,45.625 C 67.501,45.344 67.194,45.076 66.889,44.807 C 66.705,44.645 66.513,44.492 66.324,44.336 C 65.686,43.811 65.041,43.295 64.392,42.784 C 62.842,41.563 61.272,40.368 59.729,39.139 C 57.198,37.124 54.744,34.988 52.878,32.323 C 52.81,32.227 52.704,32.175 52.595,32.171 C 52.981,31.82 53.365,31.469 53.75,31.116 C 54.77,32.299 55.898,33.376 57.082,34.397 Z M 13.237,35.984 C 13.12,36.26 12.994,36.465 12.815,36.702 C 12.621,36.958 12.365,37.142 12.097,37.311 C 11.807,37.495 11.445,37.598 11.113,37.678 C 10.732,37.769 10.351,37.789 9.968,37.784 C 10.213,37.608 10.466,37.449 10.732,37.293 C 11.232,36.997 11.708,36.724 12.188,36.398 C 12.287,36.329 12.312,36.192 12.243,36.093 C 12.174,35.994 12.037,35.969 11.938,36.038 C 11.818,36.116 11.705,36.208 11.586,36.287 C 11.303,36.474 11.013,36.651 10.721,36.824 C 10.337,37.051 9.986,37.286 9.627,37.545 C 9.542,37.606 9.439,37.683 9.346,37.761 C 9.307,37.759 9.267,37.757 9.228,37.755 C 9.075,37.745 8.941,37.861 8.931,38.014 C 8.921,38.167 9.037,38.301 9.19,38.311 C 9.408,38.322 9.625,38.337 9.843,38.347 C 10.344,38.369 10.889,38.316 11.378,38.211 C 11.686,38.145 12.09,38.006 12.363,37.849 C 12.573,37.728 12.757,37.614 12.944,37.458 C 12.967,37.438 12.99,37.417 13.012,37.397 C 13.093,38.849 13.492,40.255 14.115,41.574 C 14.333,42.036 14.583,42.535 14.868,42.958 C 15.22,43.48 15.576,43.956 15.984,44.435 C 16.096,44.568 16.268,44.622 16.429,44.593 C 16.438,44.615 16.452,44.636 16.471,44.654 C 16.696,44.866 16.914,45.105 17.119,45.337 C 17.128,45.347 17.138,45.358 17.147,45.369 C 16.977,45.399 16.808,45.437 16.647,45.497 C 16.529,45.54 16.414,45.594 16.297,45.639 C 16.218,45.669 16.138,45.698 16.059,45.727 C 15.796,45.489 15.533,45.251 15.274,45.011 C 15.154,44.9 15.031,44.791 14.908,44.682 C 15.066,44.661 15.209,44.617 15.363,44.581 C 15.468,44.55 15.529,44.437 15.498,44.332 C 15.467,44.227 15.354,44.166 15.249,44.197 C 15.184,44.212 15.118,44.246 15.056,44.26 C 14.978,44.278 14.899,44.296 14.821,44.314 C 14.741,44.332 14.656,44.349 14.57,44.367 C 14.304,44.087 14.037,43.809 13.771,43.533 C 13.497,43.249 13.224,42.966 12.949,42.683 C 13.209,42.633 13.469,42.599 13.716,42.568 C 13.907,42.543 14.106,42.509 14.297,42.491 C 14.395,42.475 14.461,42.381 14.445,42.283 C 14.429,42.185 14.335,42.119 14.237,42.135 C 14.057,42.162 13.857,42.209 13.676,42.244 C 13.349,42.307 13.023,42.35 12.699,42.425 C 12.293,42.008 11.886,41.591 11.479,41.175 C 11.761,41.112 12.044,41.05 12.325,40.997 C 12.544,40.955 12.766,40.927 12.988,40.899 C 13.066,40.89 13.122,40.818 13.113,40.74 C 13.104,40.662 13.032,40.606 12.954,40.615 C 12.825,40.63 12.682,40.641 12.557,40.668 C 12.133,40.76 11.718,40.883 11.298,40.991 C 11.194,40.885 11.09,40.779 10.986,40.673 C 10.808,40.492 10.631,40.311 10.454,40.13 C 10.467,40.124 10.48,40.115 10.492,40.105 C 11.073,39.526 12.041,38.919 12.796,38.597 C 12.892,38.551 12.932,38.433 12.886,38.337 C 12.84,38.241 12.722,38.201 12.626,38.247 C 11.869,38.626 11.222,39.046 10.565,39.58 C 10.459,39.666 10.364,39.762 10.262,39.853 C 10.247,39.866 10.235,39.882 10.226,39.898 C 9.896,39.563 9.564,39.229 9.23,38.899 C 8.694,38.37 8.167,37.824 7.622,37.304 C 7.815,37.199 8.008,37.093 8.197,36.981 C 8.567,36.761 8.937,36.51 9.302,36.277 C 9.715,36.014 10.14,35.778 10.561,35.53 C 11.375,35.05 12.314,34.595 13.199,34.265 C 13.338,34.211 13.407,34.052 13.353,33.913 C 13.299,33.774 13.14,33.705 13.001,33.759 C 12,34.115 11.101,34.642 10.205,35.204 C 9.926,35.379 9.645,35.559 9.373,35.744 C 8.918,36.053 8.444,36.342 7.984,36.644 C 7.781,36.777 7.585,36.929 7.385,37.068 C 7.382,37.069 7.379,37.071 7.377,37.073 C 6.872,36.602 6.36,36.139 5.849,35.675 C 6.064,35.567 6.279,35.48 6.5,35.4 C 6.489,35.432 6.492,35.467 6.509,35.499 C 6.541,35.558 6.616,35.579 6.675,35.547 C 6.985,35.372 7.297,35.2 7.608,35.028 C 7.723,34.986 7.835,34.943 7.951,34.903 C 7.998,34.886 8.029,34.842 8.031,34.794 C 8.288,34.651 8.544,34.508 8.8,34.363 C 8.832,34.344 8.865,34.325 8.896,34.308 C 9.17,34.239 9.433,34.124 9.677,33.997 C 9.848,33.908 10.053,33.766 10.196,33.637 C 10.227,33.608 10.258,33.579 10.288,33.551 C 10.431,33.476 10.573,33.402 10.717,33.329 C 10.933,33.218 11.155,33.102 11.375,33.001 C 11.914,32.754 12.441,32.539 12.993,32.324 C 13.132,32.269 13.274,32.216 13.416,32.165 C 13.611,33.398 13.699,34.887 13.237,35.984 Z M 19.678,32.407 L 19.818,32.604 C 19.905,32.718 20.092,32.892 20.21,32.973 C 20.434,33.126 20.619,33.233 20.846,33.32 L 20.994,33.369 L 20.776,33.324 C 20.564,33.255 20.413,33.184 20.224,33.064 L 20.095,32.967 L 19.946,32.821 C 19.899,32.772 19.856,32.719 19.813,32.655 L 19.678,32.407 Z M 5.968,33.098 L 6.043,33.16 L 6.094,33.226 C 6.268,33.428 6.465,33.615 6.679,33.782 C 6.884,33.942 7.151,34.109 7.398,34.194 C 7.724,34.305 7.939,34.351 8.255,34.366 C 8.025,34.502 7.795,34.637 7.565,34.771 C 7.39,34.827 7.215,34.885 7.04,34.942 C 6.546,35.101 6.082,35.249 5.639,35.484 C 5.577,35.429 5.517,35.374 5.457,35.319 C 4.944,34.851 4.43,34.386 3.915,33.922 C 3.911,33.918 3.908,33.914 3.905,33.911 C 4.551,33.593 5.199,33.281 5.851,32.976 C 5.888,33.016 5.927,33.056 5.968,33.098 Z M 32.523,33.679 C 32.03,34.19 31.542,34.724 31.066,35.251 L 29.951,36.471 C 29.893,36.498 29.835,36.525 29.777,36.552 C 29.142,36.846 28.51,37.146 27.87,37.427 C 27.718,37.494 27.573,37.574 27.425,37.648 C 27.404,37.658 27.383,37.668 27.362,37.679 C 28.028,36.726 28.783,35.813 29.645,35.032 C 29.92,34.782 30.191,34.519 30.486,34.293 C 30.806,34.047 31.132,33.819 31.467,33.604 L 31.949,33.323 L 32.751,33.093 C 32.884,33.063 33.018,33.037 33.153,33.01 C 32.943,33.233 32.735,33.459 32.523,33.679 Z M 53.672,37.17 C 55.634,39.161 57.612,41.133 59.589,43.108 C 60.256,43.774 60.926,44.439 61.601,45.096 C 61.958,45.443 62.307,45.799 62.667,46.143 C 63.217,46.669 63.775,47.186 64.326,47.711 C 65.242,48.583 66.165,49.447 67.107,50.292 C 66.821,50.703 66.538,51.115 66.262,51.532 C 66.253,51.522 66.244,51.512 66.235,51.503 C 66.231,51.499 66.228,51.495 66.224,51.492 C 66.29,51.382 66.315,51.297 66.311,51.237 C 66.294,50.984 66.066,50.797 65.813,50.85 L 65.726,50.87 C 65.704,50.881 65.683,50.894 65.66,50.909 C 65.612,50.87 65.559,50.842 65.503,50.825 C 65.491,50.811 65.478,50.796 65.465,50.783 C 65.075,50.402 64.696,50.01 64.309,49.626 C 63.122,48.446 61.921,47.277 60.717,46.115 C 58.682,44.151 56.643,42.195 54.639,40.207 C 54.637,40.191 54.634,40.175 54.63,40.16 C 54.597,40.041 54.493,39.96 54.377,39.947 C 53.917,39.49 53.46,39.031 53.004,38.57 C 53.045,38.51 53.062,38.434 53.044,38.36 C 53.01,38.221 52.868,38.135 52.729,38.169 C 52.698,38.177 52.667,38.186 52.636,38.195 C 51.579,37.118 50.537,36.028 49.514,34.918 C 49.635,34.812 49.756,34.706 49.878,34.6 C 49.881,34.6 49.884,34.601 49.887,34.602 C 49.963,34.614 50.036,34.563 50.048,34.487 C 50.05,34.472 50.052,34.458 50.055,34.444 C 50.229,34.291 50.403,34.138 50.576,33.984 C 51.604,35.05 52.633,36.115 53.672,37.17 Z M 28.957,34.645 L 28.337,35.22 C 28.062,35.499 27.787,35.822 27.544,36.13 C 26.991,36.832 26.496,37.553 26.059,38.321 C 25.714,38.482 25.364,38.637 25.012,38.786 C 25.143,38.543 25.284,38.305 25.441,38.072 C 25.715,37.662 25.997,37.279 26.317,36.903 C 27.028,36.067 27.92,35.327 28.832,34.72 L 28.957,34.645 Z M 49.819,36.876 C 49.824,36.881 49.83,36.887 49.835,36.893 C 49.606,36.979 49.379,37.074 49.151,37.158 C 48.937,37.237 48.714,37.307 48.497,37.38 C 48.161,37.493 47.822,37.595 47.482,37.698 C 47.229,37.583 46.974,37.474 46.717,37.372 C 47.305,36.866 47.89,36.355 48.47,35.841 C 48.533,35.784 48.596,35.728 48.659,35.673 C 49.049,36.069 49.436,36.468 49.819,36.876 Z M 51.373,38.551 C 51.118,38.624 50.862,38.698 50.608,38.776 C 50.336,38.858 50.068,38.951 49.797,39.032 C 49.588,38.874 49.375,38.722 49.151,38.584 C 48.79,38.36 48.409,38.15 48.017,37.953 C 48.438,37.84 48.86,37.727 49.28,37.605 C 49.528,37.533 49.773,37.435 50.022,37.363 C 50.083,37.341 50.131,37.297 50.16,37.243 C 50.561,37.68 50.961,38.125 51.373,38.551 Z M 28.93,37.383 L 28.925,37.387 L 28.93,37.383 Z M 28.925,37.387 L 27.917,38.286 C 27.241,38.915 26.592,39.563 25.956,40.223 C 25.975,40.178 25.994,40.133 26.012,40.089 C 26.127,39.8 26.28,39.486 26.431,39.214 C 26.624,38.865 26.821,38.512 27.034,38.172 C 27.316,38.066 27.599,37.965 27.879,37.855 C 28.227,37.716 28.578,37.548 28.925,37.387 Z M 46.441,38.026 C 46.162,38.118 45.887,38.211 45.615,38.31 C 45.783,38.169 45.95,38.027 46.118,37.885 C 46.227,37.929 46.334,37.977 46.441,38.026 Z M 48.139,39.021 C 48.319,39.145 48.507,39.281 48.68,39.42 C 48.591,39.454 48.501,39.487 48.412,39.521 C 48.014,39.668 47.63,39.843 47.243,40.014 C 47.093,40.08 46.904,40.165 46.765,40.249 C 46.7,40.281 46.673,40.362 46.705,40.427 C 46.737,40.492 46.818,40.519 46.883,40.487 C 47.391,40.213 47.989,39.973 48.532,39.787 C 48.678,39.736 48.825,39.688 48.973,39.641 C 49.027,39.678 49.082,39.716 49.134,39.755 C 49.276,39.862 49.418,39.972 49.558,40.082 C 49.861,40.321 50.147,40.58 50.432,40.84 C 50.542,40.94 50.655,41.045 50.766,41.154 C 50.687,41.181 50.609,41.209 50.531,41.237 C 50.381,41.29 50.22,41.335 50.074,41.396 C 49.794,41.512 49.506,41.609 49.219,41.705 C 49.099,41.743 49.032,41.874 49.07,41.994 C 49.108,42.114 49.239,42.181 49.359,42.143 C 49.675,42.034 50.004,41.967 50.32,41.864 C 50.534,41.794 50.747,41.717 50.959,41.642 C 51.027,41.617 51.096,41.593 51.165,41.569 C 51.469,41.902 51.759,42.228 52.049,42.579 C 52.149,42.701 52.25,42.828 52.348,42.958 C 52.05,43.011 51.696,43.042 51.489,42.976 C 51.424,42.955 51.359,42.933 51.294,42.912 C 51.195,42.879 51.087,42.933 51.054,43.032 C 51.021,43.131 51.075,43.239 51.174,43.272 C 51.47,43.369 51.745,43.447 52.061,43.435 C 52.252,43.427 52.445,43.397 52.638,43.353 C 52.721,43.472 52.802,43.591 52.88,43.709 C 53.155,44.126 53.42,44.558 53.665,45.001 C 53.323,45.209 53.002,45.414 52.681,45.669 C 52.6,45.729 52.584,45.845 52.644,45.926 C 52.704,46.007 52.82,46.023 52.901,45.963 C 52.95,45.919 53.017,45.878 53.071,45.838 C 53.315,45.658 53.593,45.515 53.873,45.391 C 54.092,45.816 54.291,46.252 54.459,46.697 C 54.188,46.781 53.915,46.865 53.65,46.96 C 53.567,46.987 53.52,47.078 53.547,47.161 C 53.574,47.244 53.665,47.291 53.748,47.264 C 54.017,47.171 54.291,47.083 54.567,46.999 C 54.583,47.045 54.598,47.091 54.614,47.137 C 54.73,47.492 54.837,47.835 54.918,48.2 C 54.955,48.369 54.984,48.541 55.014,48.712 C 54.837,48.807 54.653,48.911 54.504,49.016 C 54.41,49.072 54.379,49.197 54.435,49.291 C 54.491,49.385 54.616,49.416 54.71,49.36 C 54.83,49.278 54.962,49.199 55.098,49.123 C 55.189,49.379 55.453,49.543 55.732,49.501 C 56.047,49.453 56.264,49.156 56.216,48.841 C 56.204,48.756 56.192,48.671 56.179,48.585 C 56.82,48.294 57.473,48.045 58.151,47.841 C 58.471,47.744 58.788,47.668 59.11,47.581 C 59.371,47.51 59.71,47.411 59.977,47.381 C 60.329,47.75 60.681,48.12 61.032,48.492 C 61.515,49.004 61.998,49.516 62.48,50.029 C 62.468,50.035 62.456,50.04 62.445,50.046 C 61.907,50.29 61.407,50.605 60.889,50.883 C 60.634,50.506 60.264,50.178 59.927,49.904 C 59.787,49.791 59.597,49.779 59.448,49.859 L 59.363,49.929 L 58.798,49.797 C 58.647,49.77 58.497,49.764 58.346,49.762 C 58.533,49.706 58.722,49.65 58.913,49.594 C 59.534,49.411 60.162,49.234 60.786,49.061 C 60.93,49.016 61.011,48.861 60.966,48.717 C 60.921,48.573 60.766,48.492 60.622,48.537 C 59.995,48.741 59.369,48.96 58.742,49.169 C 57.518,49.577 56.314,49.981 55.171,50.58 C 55.081,50.626 55.045,50.738 55.091,50.828 C 55.137,50.918 55.249,50.954 55.339,50.908 C 55.373,50.89 55.408,50.872 55.442,50.855 C 55.242,51.054 55.069,51.28 54.934,51.531 C 54.648,52.061 54.565,52.643 54.558,53.243 C 54.555,53.458 54.586,53.656 54.644,53.843 C 54.467,53.884 54.312,53.947 54.103,54.033 C 53.602,54.238 53.136,54.502 52.644,54.72 C 52.09,54.965 51.544,55.194 50.944,55.291 C 50.843,55.307 50.715,55.327 50.613,55.331 C 50.52,55.335 50.417,55.331 50.325,55.341 C 50.285,55.342 50.253,55.376 50.254,55.416 C 50.255,55.456 50.289,55.488 50.329,55.487 C 50.432,55.477 50.541,55.487 50.645,55.477 C 50.838,55.459 51.012,55.428 51.202,55.402 C 51.591,55.349 52.064,55.172 52.432,55.036 C 52.586,54.979 52.742,54.926 52.892,54.86 C 53.116,54.76 53.343,54.667 53.572,54.574 C 53.394,54.818 53.226,55.072 53.06,55.32 C 52.42,56.269 51.828,57.287 51.122,58.187 C 50.981,58.366 50.844,58.541 50.607,58.758 C 50.128,58.982 49.657,59.218 49.192,59.468 C 48.73,59.715 48.251,59.971 47.811,60.256 C 47.772,60.278 47.755,60.323 47.764,60.364 C 47.427,60.35 47.094,60.314 46.757,60.276 C 45.832,60.17 44.916,60.031 43.984,60.014 C 43.701,60.009 43.44,60.033 43.16,60.05 C 42.941,60.063 42.721,60.122 42.51,60.17 C 42.011,60.282 41.539,60.508 41.095,60.757 C 40.947,60.84 40.733,60.968 40.605,61.077 C 40.447,61.212 40.288,61.381 40.15,61.536 C 39.695,62.048 39.322,62.587 38.932,63.15 C 38.564,63.681 38.192,64.175 37.77,64.661 C 37.719,64.718 37.725,64.808 37.782,64.859 C 37.839,64.91 37.929,64.904 37.98,64.847 C 38.222,64.558 38.488,64.28 38.736,63.994 C 39.118,63.554 39.532,63.109 39.963,62.716 C 40.137,62.557 40.316,62.416 40.499,62.268 C 40.703,62.102 40.948,61.964 41.173,61.827 C 41.36,61.713 41.527,61.593 41.722,61.487 C 41.906,61.387 42.1,61.305 42.3,61.238 L 42.9,61.082 L 43.503,61.016 C 43.844,61.001 44.154,61.009 44.494,61.03 C 44.874,61.053 45.255,61.109 45.633,61.155 C 46.142,61.217 46.648,61.28 47.157,61.338 C 47.837,61.415 48.598,61.447 49.238,61.2 C 49.408,61.134 49.595,61.021 49.756,60.931 C 50.344,60.601 50.883,60.089 51.337,59.597 C 51.727,59.173 52.079,58.723 52.413,58.26 C 52.534,58.213 52.655,58.166 52.777,58.121 C 53.925,57.687 55.077,57.267 56.24,56.874 C 56.588,56.757 56.93,56.62 57.275,56.494 C 57.835,56.289 58.394,56.081 58.95,55.867 C 59.609,55.614 60.269,55.368 60.92,55.096 C 61.183,54.986 61.449,54.885 61.706,54.763 C 61.99,54.628 62.275,54.489 62.551,54.338 C 62.859,54.17 63.158,53.981 63.462,53.805 C 63.504,53.786 63.523,53.735 63.504,53.693 C 63.485,53.651 63.434,53.632 63.392,53.651 C 63.067,53.757 62.748,53.878 62.425,53.99 C 62.163,54.081 61.897,54.17 61.64,54.274 C 60.876,54.583 60.108,54.909 59.337,55.198 C 58.697,55.438 58.055,55.679 57.418,55.927 C 57.024,56.08 56.624,56.219 56.229,56.372 C 55.801,56.538 55.377,56.714 54.95,56.883 C 54.207,57.176 53.469,57.482 52.736,57.799 C 53.026,57.376 53.306,56.945 53.589,56.515 C 53.933,55.991 54.274,55.459 54.66,54.965 C 54.841,54.722 54.79,54.375 54.547,54.194 C 54.539,54.188 54.531,54.183 54.524,54.177 C 54.54,54.17 54.556,54.163 54.573,54.156 C 54.626,54.131 54.679,54.104 54.732,54.076 C 54.789,54.206 54.86,54.333 54.943,54.461 C 54.994,54.541 55.09,54.643 55.16,54.708 C 55.487,55.014 55.907,55.213 56.347,55.3 L 56.782,55.35 C 57.83,55.773 58.986,55.241 59.819,54.535 L 59.914,54.446 L 60.001,54.391 C 60.3,54.18 60.573,53.935 60.78,53.666 C 60.85,53.575 60.908,53.483 60.973,53.389 C 61.091,53.218 61.257,52.832 61.281,52.627 C 61.305,52.424 61.344,52.233 61.315,52.024 C 61.267,51.682 61.205,51.489 61.058,51.176 C 61.051,51.162 61.045,51.149 61.038,51.136 C 61.392,50.978 61.747,50.822 62.099,50.663 C 62.294,50.574 62.488,50.493 62.687,50.412 C 62.723,50.397 62.759,50.382 62.797,50.367 C 63.155,50.748 63.513,51.13 63.871,51.513 C 64.065,51.721 64.259,51.931 64.453,52.141 C 64.162,52.577 63.953,53.077 63.763,53.564 C 63.719,53.674 63.616,53.893 63.572,54.048 C 63.369,54.234 63.168,54.424 62.97,54.615 C 62.137,55.286 61.288,55.939 60.475,56.62 C 59.904,57.097 59.344,57.589 58.815,58.112 C 58.799,58.127 58.783,58.143 58.769,58.16 C 58.746,58.081 58.695,58.087 58.647,58.106 C 57.201,58.655 55.773,59.23 54.351,59.841 C 53.279,60.302 52.199,60.761 51.154,61.28 C 49.78,61.962 48.45,62.661 47.177,63.521 C 47.079,63.586 46.98,63.653 46.881,63.72 C 46.618,63.561 46.323,63.447 46.017,63.375 L 45.989,63.37 L 45.647,63.159 C 45.442,63.055 45.231,62.97 45.019,62.907 C 44.773,62.834 44.503,62.787 44.246,62.777 C 44.138,62.773 44.031,62.779 43.923,62.778 C 43.698,62.775 43.367,62.856 43.156,62.921 C 42.816,63.026 42.527,63.213 42.252,63.433 C 42.061,63.586 41.892,63.786 41.75,63.985 C 41.532,64.289 41.377,64.611 41.268,64.948 L 41.234,65.063 C 40.965,65.386 40.724,65.799 40.632,66.136 C 40.627,66.153 40.622,66.17 40.618,66.188 C 40.572,66.133 40.497,66.105 40.424,66.123 C 39.711,66.261 38.769,66.686 38.178,67.108 C 38.051,67.198 37.937,67.287 37.825,67.379 C 37.498,67.074 37.17,66.77 36.843,66.466 C 37.321,66.206 37.805,65.957 38.288,65.711 C 38.584,65.56 38.876,65.395 39.171,65.239 C 39.295,65.168 39.339,65.008 39.268,64.884 C 39.197,64.76 39.037,64.716 38.913,64.787 C 38.616,64.964 38.32,65.157 38.019,65.325 C 37.521,65.603 37.025,65.888 36.531,66.175 C 35.801,65.496 35.072,64.817 34.343,64.138 C 34.203,64.008 34.064,63.878 33.925,63.749 C 34.414,63.55 34.865,63.302 35.349,63.078 C 35.426,63.04 35.459,62.945 35.421,62.868 C 35.383,62.791 35.288,62.758 35.211,62.796 C 34.944,62.913 34.67,63.064 34.412,63.2 C 34.167,63.328 33.93,63.426 33.681,63.522 C 33.251,63.122 32.821,62.723 32.391,62.323 C 32.51,62.253 32.63,62.175 32.73,62.118 C 33.018,61.951 33.502,61.65 33.85,61.671 C 33.938,61.673 34.012,61.603 34.014,61.515 C 34.016,61.427 33.946,61.353 33.858,61.351 C 33.285,61.326 32.735,61.838 32.2,62.147 C 31.862,61.832 31.523,61.517 31.185,61.201 C 31.294,61.17 31.402,61.135 31.509,61.096 C 32.281,60.807 33.038,60.497 33.823,60.243 C 33.983,60.189 34.068,60.014 34.014,59.854 C 33.96,59.694 33.785,59.609 33.625,59.663 C 33.432,59.723 33.234,59.809 33.046,59.884 C 32.605,60.06 32.164,60.261 31.728,60.452 C 31.448,60.575 31.124,60.69 30.829,60.771 C 30.801,60.778 30.774,60.785 30.746,60.792 C 30.419,60.487 30.094,60.182 29.769,59.876 C 29.765,59.872 29.762,59.869 29.759,59.867 C 29.675,59.754 29.59,59.644 29.504,59.534 C 29.529,59.528 29.553,59.517 29.576,59.503 C 29.717,59.37 30.125,59.243 30.312,59.195 C 30.67,59.103 31.062,59.022 31.402,58.881 C 31.487,58.846 31.564,58.799 31.646,58.76 C 31.679,58.741 31.708,58.716 31.73,58.687 C 32.317,58.932 32.924,59.121 33.519,59.254 C 33.894,59.338 34.27,59.403 34.649,59.464 C 35.01,59.522 35.397,59.557 35.762,59.587 C 35.922,59.6 36.085,59.602 36.245,59.616 C 36.635,59.648 37.089,59.647 37.484,59.621 C 36.732,60.37 36.133,61.423 35.908,62.436 C 35.808,62.884 35.757,63.485 35.856,63.937 C 35.917,64.214 36.045,64.693 36.317,64.814 C 36.431,64.865 36.572,64.865 36.683,64.807 C 36.788,64.752 36.854,64.684 36.9,64.575 C 36.943,64.474 36.964,64.368 36.996,64.263 C 37.052,64.081 37.116,63.945 37.109,63.745 C 37.105,63.629 37.082,63.515 37.061,63.401 C 37.102,63.278 37.035,63.143 36.912,63.102 C 36.789,63.061 36.654,63.128 36.612,63.251 L 36.593,63.045 C 36.544,61.943 37.104,60.68 37.864,59.888 L 37.969,59.785 L 38.089,59.782 C 38.303,59.79 38.519,59.833 38.72,59.901 C 38.834,59.935 38.955,59.87 38.989,59.756 C 39.023,59.642 38.958,59.521 38.844,59.487 C 38.686,59.434 38.532,59.395 38.375,59.371 C 38.41,59.305 38.428,59.23 38.424,59.152 C 38.412,58.921 38.212,58.743 37.981,58.755 C 37.827,58.759 37.668,58.774 37.514,58.784 C 37.295,58.798 37.062,58.803 36.842,58.805 C 36.662,58.807 36.478,58.825 36.298,58.825 C 35.955,58.824 35.618,58.825 35.275,58.815 C 34.321,58.786 33.324,58.626 32.412,58.349 C 32.131,58.264 31.817,58.16 31.55,58.037 C 31.168,57.861 30.733,57.658 30.39,57.413 C 30.343,57.379 30.298,57.346 30.253,57.314 C 30.243,57.297 30.231,57.281 30.219,57.267 C 29.868,56.873 29.509,56.518 29.135,56.147 C 29.134,56.146 29.133,56.145 29.131,56.143 C 29.161,56.115 29.167,56.076 29.164,56.037 C 29.151,55.906 29.031,55.81 28.9,55.823 C 28.878,55.825 28.857,55.828 28.836,55.831 C 28.798,55.792 28.76,55.755 28.723,55.719 C 29.167,55.282 29.597,54.817 30.013,54.365 C 30.358,53.988 30.697,53.6 31.029,53.211 C 31.165,53.052 31.294,52.888 31.43,52.729 C 31.479,52.672 31.52,52.604 31.569,52.549 C 31.63,52.48 31.638,52.418 31.682,52.347 L 31.718,52.302 C 31.783,52.199 31.913,52.069 31.995,51.972 L 32.131,51.808 L 32.228,51.73 C 32.324,51.646 32.413,51.547 32.501,51.45 C 32.839,51.389 33.173,51.316 33.502,51.216 C 33.658,51.168 33.809,51.105 33.963,51.05 C 34.38,50.901 34.768,50.727 35.167,50.537 C 35.591,50.335 36.013,50.152 36.412,49.899 C 36.593,49.784 36.779,49.678 36.96,49.56 C 37.121,49.455 37.277,49.338 37.438,49.234 C 37.519,49.167 37.638,49.092 37.73,49.023 C 37.894,48.901 38.052,48.771 38.209,48.64 C 38.383,48.494 38.562,48.315 38.72,48.153 C 38.94,47.927 39.171,47.692 39.371,47.448 C 39.648,47.112 39.899,46.768 40.15,46.413 C 40.189,46.356 40.228,46.297 40.266,46.239 C 40.467,46.126 40.717,45.983 40.82,45.871 C 40.948,45.731 41.025,45.59 41.118,45.427 C 41.007,45.437 40.898,45.45 40.792,45.472 C 40.983,45.245 41.164,45.01 41.328,44.777 C 41.492,44.542 41.641,44.3 41.799,44.062 C 41.856,43.977 41.906,43.877 41.955,43.787 C 42.027,43.655 42.113,43.522 42.177,43.387 C 42.225,43.286 42.278,43.178 42.332,43.08 C 42.44,42.881 42.545,42.655 42.636,42.437 C 42.647,42.426 42.656,42.416 42.666,42.405 C 42.716,42.377 42.753,42.333 42.707,42.262 C 42.711,42.255 42.713,42.249 42.716,42.243 C 42.839,41.934 42.97,41.63 43.059,41.308 C 43.08,41.234 43.109,41.164 43.133,41.091 C 43.177,40.955 43.222,40.789 43.256,40.65 C 43.289,40.512 43.319,40.375 43.349,40.237 C 43.604,40.032 43.858,39.824 44.105,39.613 C 44.372,39.383 44.643,39.156 44.911,38.923 C 45.55,38.648 46.226,38.444 46.903,38.256 C 47.328,38.484 47.736,38.743 48.139,39.021 Z M 25.627,39.134 C 25.519,39.351 25.405,39.566 25.305,39.787 C 25.028,40.395 24.771,41.043 24.568,41.693 C 24.373,41.902 24.178,42.113 23.983,42.324 C 23.912,42.399 23.842,42.475 23.772,42.551 C 23.916,41.6 24.139,40.649 24.532,39.773 C 24.651,39.505 24.774,39.243 24.906,38.987 C 25.081,38.917 25.258,38.85 25.433,38.786 C 25.587,38.728 25.742,38.67 25.897,38.612 C 25.805,38.783 25.714,38.957 25.627,39.134 Z M 53.119,40.315 C 52.68,40.462 52.246,40.618 51.81,40.776 C 51.325,40.293 50.813,39.835 50.293,39.42 C 50.242,39.379 50.191,39.339 50.141,39.299 C 50.668,39.156 51.198,39.029 51.732,38.911 C 52.201,39.37 52.66,39.844 53.119,40.315 Z M 54.955,42.184 C 54.636,42.216 54.226,42.347 53.926,42.463 C 53.768,42.523 53.607,42.584 53.445,42.642 C 53.305,42.459 53.161,42.278 53.013,42.097 C 52.762,41.792 52.496,41.49 52.219,41.196 C 52.644,41.049 53.07,40.907 53.5,40.781 C 53.519,40.775 53.539,40.769 53.558,40.763 C 54.024,41.237 54.49,41.71 54.955,42.184 Z M 41.151,42.702 C 41.094,42.736 41.037,42.77 40.981,42.805 C 40.531,43.081 40.075,43.343 39.615,43.597 C 39.866,43.35 40.118,43.106 40.37,42.862 L 41.341,41.93 L 41.416,41.859 C 41.337,42.143 41.247,42.423 41.151,42.702 Z M 55.889,43.141 C 56.141,43.401 56.393,43.661 56.646,43.922 C 56.03,44.084 55.437,44.261 54.836,44.481 C 54.79,44.497 54.745,44.514 54.701,44.532 C 54.406,44.01 54.083,43.512 53.729,43.023 C 53.805,42.998 53.881,42.974 53.956,42.952 C 54.088,42.913 54.229,42.858 54.362,42.827 C 54.517,42.791 54.672,42.749 54.829,42.725 C 54.896,42.715 54.966,42.712 55.033,42.702 C 55.146,42.685 55.233,42.596 55.253,42.488 C 55.465,42.705 55.677,42.922 55.889,43.141 Z M 40.897,43.41 C 40.757,43.789 40.57,44.161 40.385,44.52 L 39.904,45.29 L 39.833,45.372 C 39.738,45.472 39.636,45.567 39.55,45.658 C 39.466,45.725 39.369,45.822 39.287,45.898 C 39.181,45.997 39.06,46.087 38.951,46.184 C 38.852,46.272 38.738,46.354 38.635,46.438 C 38.338,46.679 38.023,46.906 37.715,47.134 C 37.536,47.266 37.349,47.381 37.164,47.502 C 36.935,47.652 36.705,47.801 36.47,47.941 C 36.434,47.962 36.399,47.983 36.363,48.005 C 36.272,48.055 36.182,48.107 36.093,48.16 C 35.839,48.308 35.582,48.456 35.324,48.615 C 35.141,48.712 34.949,48.813 34.756,48.909 C 34.935,48.706 35.116,48.505 35.286,48.298 C 35.571,47.964 35.856,47.631 36.14,47.296 C 36.268,47.145 36.415,47.003 36.546,46.852 C 36.693,46.682 36.832,46.508 36.971,46.332 C 37.092,46.179 37.22,46.034 37.348,45.887 C 37.398,45.829 37.483,45.772 37.499,45.698 C 37.509,45.652 37.506,45.591 37.51,45.542 L 37.518,45.48 L 37.541,45.485 C 37.571,45.485 37.601,45.474 37.626,45.447 C 37.726,45.336 37.843,45.245 37.943,45.126 C 38.043,45.006 38.131,44.877 38.212,44.743 L 38.256,44.663 L 38.291,44.617 C 38.309,44.591 38.327,44.565 38.347,44.538 C 38.411,44.506 38.476,44.472 38.541,44.439 C 38.668,44.456 38.801,44.416 38.897,44.321 C 38.933,44.283 38.969,44.246 39.005,44.208 C 39.647,43.893 40.297,43.591 40.943,43.284 C 40.927,43.326 40.912,43.368 40.897,43.41 Z M 58.269,45.601 C 58.229,45.612 58.19,45.623 58.151,45.634 C 57.817,45.722 57.484,45.818 57.151,45.911 C 56.624,46.058 56.101,46.205 55.579,46.358 C 55.532,46.234 55.482,46.11 55.428,45.986 C 55.272,45.631 55.108,45.289 54.934,44.958 C 55.17,44.876 55.424,44.807 55.662,44.745 C 56.111,44.628 56.562,44.51 57.012,44.396 C 57.035,44.389 57.058,44.38 57.078,44.368 C 57.475,44.779 57.872,45.189 58.269,45.601 Z M 17.435,45.691 C 17.659,45.915 17.894,46.131 18.119,46.356 C 18.502,46.74 18.882,47.126 19.268,47.507 C 19.081,47.707 18.893,47.907 18.704,48.106 L 18.666,48.143 C 17.909,47.428 17.143,46.719 16.377,46.017 C 16.383,46.014 16.39,46.012 16.397,46.01 C 16.7,45.9 16.98,45.822 17.291,45.753 C 17.343,45.742 17.386,45.711 17.415,45.671 C 17.421,45.677 17.428,45.684 17.435,45.691 Z M 59.53,46.913 C 59.484,46.925 59.44,46.936 59.398,46.948 C 59.097,47.028 58.8,47.1 58.502,47.195 C 57.965,47.367 57.444,47.569 56.924,47.786 C 56.645,47.901 56.375,48.024 56.108,48.153 C 56.084,48.025 56.055,47.899 56.021,47.775 C 55.916,47.403 55.815,47.041 55.695,46.683 C 56.149,46.564 56.605,46.454 57.057,46.351 C 57.446,46.262 57.84,46.177 58.228,46.082 C 58.362,46.049 58.504,46.025 58.639,45.984 C 58.936,46.294 59.234,46.603 59.53,46.913 Z M 37.688,48.04 L 37.004,48.629 L 35.441,49.623 C 35.265,49.726 35.079,49.841 34.895,49.928 C 34.518,50.107 34.137,50.278 33.75,50.434 C 33.591,50.498 33.426,50.552 33.266,50.611 C 33.366,50.497 33.469,50.383 33.572,50.27 C 33.643,50.189 33.716,50.108 33.789,50.026 C 33.971,49.967 34.151,49.903 34.33,49.831 C 34.478,49.771 34.618,49.698 34.763,49.631 C 35.098,49.476 35.412,49.32 35.739,49.149 C 36.04,48.991 36.348,48.842 36.646,48.679 C 36.834,48.576 37.019,48.458 37.205,48.351 L 37.688,48.04 Z M 19.977,48.186 C 19.97,48.188 19.962,48.19 19.955,48.193 C 19.919,48.205 19.883,48.217 19.848,48.229 C 19.875,48.2 19.902,48.171 19.93,48.142 C 19.945,48.156 19.961,48.171 19.977,48.186 Z M 42.239,49.6 C 41.986,49.822 41.814,50.074 41.644,50.361 C 41.492,50.617 41.353,51.094 41.337,51.391 L 41.335,51.455 L 41.265,51.701 C 41.244,51.788 41.227,51.876 41.21,51.982 C 41.119,52.546 41.364,53.209 41.84,53.537 L 42.046,53.645 L 42.076,53.686 C 42.748,54.473 43.771,54.955 44.815,54.956 C 45.277,54.956 45.762,54.848 46.162,54.612 C 47.017,54.107 47.632,53.052 47.35,52.051 C 47.293,51.848 47.214,51.65 47.1,51.471 C 46.921,51.19 46.685,50.942 46.413,50.74 L 46.235,50.622 L 46.209,50.466 C 46.181,50.333 46.14,50.203 46.076,50.044 C 46,49.854 45.895,49.704 45.777,49.54 C 45.671,49.393 45.475,49.243 45.324,49.144 C 44.371,48.521 43.038,48.901 42.239,49.6 Z M 43.918,49.444 C 43.86,49.426 43.802,49.435 43.745,49.446 L 43.93,49.428 C 43.931,49.437 43.931,49.446 43.918,49.444 Z M 45.148,49.74 C 45.271,49.845 45.385,49.973 45.459,50.118 L 45.542,50.295 L 45.51,50.284 C 45.295,50.219 45.073,50.182 44.851,50.175 C 44.613,50.167 44.433,50.193 44.202,50.238 C 43.915,50.293 43.48,50.509 43.275,50.718 C 43.111,50.886 42.937,51.051 42.829,51.252 C 42.681,51.525 42.549,51.814 42.528,52.136 C 42.505,52.483 42.529,52.835 42.659,53.154 L 42.798,53.407 L 42.562,53.388 L 42.423,53.237 C 42.251,53.021 42.112,52.78 42.014,52.52 L 41.904,52.127 L 41.866,51.632 C 41.863,51.145 42.034,50.704 42.316,50.339 L 42.474,50.157 L 42.572,50.068 L 42.602,50.043 L 42.841,49.873 C 43.016,49.763 43.206,49.675 43.411,49.612 C 43.558,49.567 43.697,49.556 43.848,49.543 C 43.892,49.54 43.928,49.506 43.918,49.444 C 44.362,49.371 44.817,49.457 45.148,49.74 Z M 59.975,51.303 C 59.909,51.33 59.845,51.369 59.781,51.397 C 59.606,51.472 59.442,51.528 59.257,51.573 C 59.214,51.583 59.187,51.628 59.197,51.671 C 59.207,51.714 59.252,51.741 59.295,51.731 C 59.581,51.652 59.853,51.62 60.127,51.534 L 60.111,51.509 L 60.139,51.552 L 60.227,51.756 C 60.248,51.807 60.254,51.881 60.272,51.928 C 60.283,51.956 60.282,52.004 60.286,52.036 C 60.313,52.282 60.281,52.578 60.178,52.805 C 60.117,52.94 60.054,53.084 59.973,53.209 C 59.922,53.287 59.867,53.362 59.809,53.435 L 59.664,53.601 L 59.624,53.635 C 59.498,53.724 59.387,53.806 59.253,53.886 C 59.116,53.968 58.986,54.037 58.843,54.109 C 58.69,54.187 58.491,54.255 58.328,54.31 C 58.174,54.362 57.98,54.419 57.821,54.45 C 57.738,54.466 57.651,54.473 57.568,54.491 C 57.384,54.53 57.004,54.55 56.817,54.525 L 56.767,54.519 L 56.59,54.39 C 56.084,53.965 55.861,53.079 55.94,52.445 C 55.986,52.077 55.991,51.714 56.155,51.368 L 56.184,51.308 L 56.349,51.171 C 56.749,50.884 57.235,50.703 57.723,50.636 C 57.94,50.606 58.175,50.579 58.395,50.599 C 59.051,50.656 59.589,50.808 59.975,51.303 Z M 45.065,50.796 L 45.176,50.814 C 45.307,50.845 45.525,50.9 45.638,50.967 L 45.68,50.989 L 45.682,51.037 C 45.682,51.126 45.676,51.214 45.66,51.303 L 45.628,51.417 L 45.606,51.371 C 45.518,51.244 45.347,51.088 45.276,51.007 L 45.065,50.796 Z M 66.597,51.98 C 66.575,51.943 66.547,51.913 66.53,51.877 C 66.524,51.864 66.518,51.852 66.511,51.841 C 66.739,51.498 66.974,51.161 67.215,50.827 C 67.005,51.207 66.795,51.592 66.597,51.98 Z M 44.026,50.912 L 44.048,50.941 C 44.099,50.988 44.168,51.016 44.242,51.013 C 44.308,51.018 44.371,51.005 44.435,51.03 C 44.578,51.087 44.717,51.201 44.847,51.329 L 45.134,51.63 L 45.139,51.927 L 45.132,52.335 L 44.929,52.542 C 44.564,52.867 44.11,53.108 43.663,53.279 C 43.613,53.298 43.552,53.316 43.49,53.332 L 43.387,53.354 L 43.232,53.171 C 42.984,52.776 42.985,52.203 43.169,51.768 L 43.295,51.537 L 43.453,51.323 C 43.573,51.185 43.714,51.073 43.868,50.985 L 44.026,50.912 Z M 46.236,51.36 L 46.351,51.462 C 46.564,51.685 46.753,51.984 46.81,52.251 C 46.868,52.528 46.851,52.747 46.779,52.985 L 46.695,53.217 L 46.531,53.504 C 46.464,53.604 46.39,53.7 46.315,53.773 C 46.214,53.871 46.017,54.059 45.889,54.11 C 45.797,54.147 45.702,54.208 45.603,54.248 C 45.375,54.339 44.974,54.409 44.73,54.388 C 44.526,54.371 44.364,54.359 44.162,54.314 C 43.89,54.254 43.626,54.156 43.38,54.025 L 43.137,53.875 L 43.228,53.867 L 43.314,53.931 C 43.366,53.969 43.449,53.995 43.509,54.024 C 43.797,54.163 44.336,54.166 44.634,54.049 C 44.695,54.025 44.755,53.997 44.816,53.972 C 44.866,53.952 44.941,53.895 44.99,53.865 C 45.054,53.825 45.167,53.721 45.214,53.66 C 45.41,53.409 45.524,53.15 45.589,52.877 L 45.624,52.648 L 45.78,52.448 C 45.972,52.172 46.122,51.862 46.203,51.544 L 46.236,51.36 Z M 66.241,52.764 C 66.239,52.762 66.237,52.76 66.236,52.759 C 66.24,52.754 66.244,52.75 66.247,52.747 C 66.246,52.752 66.243,52.758 66.241,52.764 Z M 44.777,53.373 L 44.717,53.434 C 44.67,53.478 44.596,53.516 44.519,53.545 L 44.327,53.602 L 44.52,53.523 C 44.587,53.498 44.656,53.442 44.721,53.409 L 44.777,53.373 Z M 28.795,56.582 C 28.981,56.81 29.16,57.044 29.343,57.274 C 29.213,57.295 29.084,57.319 28.955,57.357 C 28.597,57.462 28.26,57.618 27.904,57.728 C 27.9,57.728 27.897,57.729 27.895,57.73 C 27.824,57.655 27.753,57.58 27.683,57.506 C 27.542,57.356 27.395,57.202 27.255,57.044 L 27.541,56.81 C 27.69,56.692 27.836,56.556 27.98,56.42 C 28.18,56.379 28.379,56.347 28.574,56.326 C 28.649,56.41 28.723,56.494 28.795,56.582 Z M 30.088,57.805 C 30.419,58.032 30.771,58.235 31.136,58.417 C 31.059,58.451 30.978,58.484 30.908,58.503 C 30.752,58.545 30.588,58.602 30.432,58.65 C 30.131,58.743 29.837,58.823 29.552,58.961 C 29.466,59.003 29.393,59.06 29.312,59.107 C 29.276,59.13 29.25,59.161 29.232,59.196 C 29.052,58.979 28.866,58.766 28.67,58.558 C 28.514,58.392 28.359,58.226 28.204,58.06 C 28.251,58.047 28.299,58.034 28.345,58.018 C 28.792,57.857 29.228,57.721 29.707,57.738 C 29.714,57.737 29.72,57.737 29.728,57.736 C 29.825,57.828 29.967,57.853 30.088,57.805 Z M 57.946,59.049 C 56.954,60.209 55.941,61.342 54.911,62.457 C 53.985,62.868 53.081,63.323 52.197,63.816 C 51.011,64.475 49.846,65.16 48.673,65.842 C 48.432,65.981 48.189,66.119 47.947,66.257 C 47.979,66.078 47.997,65.887 47.991,65.723 C 47.98,65.439 47.951,65.203 47.868,64.93 C 47.803,64.714 47.663,64.461 47.524,64.283 C 47.392,64.115 47.239,63.969 47.069,63.845 C 47.161,63.783 47.253,63.722 47.346,63.662 C 48.504,62.901 49.757,62.248 51.022,61.686 C 52.999,60.807 55.025,60.08 57.067,59.367 C 57.364,59.263 57.661,59.15 57.957,59.035 C 57.953,59.04 57.949,59.044 57.946,59.049 Z M 49.86,59.588 C 49.645,59.772 49.431,59.924 49.193,60.075 L 48.843,60.254 L 48.443,60.351 C 48.295,60.367 48.145,60.371 48.021,60.37 C 48.503,60.059 49.024,59.792 49.534,59.532 C 49.791,59.4 50.053,59.272 50.319,59.148 C 50.175,59.3 50.024,59.447 49.86,59.588 Z M 50.978,66.578 C 50.434,67.132 49.888,67.685 49.342,68.237 C 48.885,68.436 48.429,68.62 47.978,68.836 C 46.101,69.733 44.215,70.591 42.413,71.629 C 41.475,70.763 40.538,69.896 39.601,69.027 C 40.031,68.752 40.509,68.53 40.988,68.34 C 41.293,68.829 41.732,69.244 42.245,69.533 C 42.615,69.741 42.947,69.858 43.359,69.951 C 43.581,70.001 43.954,70.044 44.179,70.023 C 44.337,70.008 44.493,70.015 44.652,69.985 C 44.85,69.948 45.026,69.905 45.22,69.86 C 45.466,69.802 45.746,69.657 45.971,69.543 C 46.26,69.397 46.568,69.153 46.801,68.928 C 46.855,68.876 46.903,68.811 46.958,68.76 C 46.994,68.727 47.042,68.664 47.074,68.624 C 47.243,68.416 47.352,68.238 47.477,68.02 C 47.65,67.717 47.777,67.29 47.817,66.944 C 47.825,66.878 47.825,66.81 47.833,66.744 L 47.835,66.673 L 47.855,66.61 C 48.019,66.518 48.183,66.427 48.346,66.334 C 48.812,66.065 49.283,65.8 49.754,65.54 C 50.576,65.087 51.393,64.64 52.231,64.215 C 52.645,64.005 53.063,63.792 53.487,63.603 C 53.689,63.512 53.891,63.424 54.092,63.337 C 53.069,64.428 52.03,65.505 50.978,66.578 Z M 43.717,63.596 L 43.308,63.792 L 43.275,63.815 L 43.226,63.824 L 42.908,63.928 L 43.026,63.842 C 43.143,63.777 43.242,63.733 43.367,63.685 C 43.424,63.663 43.498,63.64 43.572,63.622 L 43.717,63.596 Z M 45.26,64.107 L 45.776,64.171 L 45.861,64.227 C 46.35,64.619 46.745,65.159 46.941,65.738 C 47.01,65.942 47.072,66.204 47.09,66.444 L 47.09,66.471 L 46.872,66.946 C 46.594,67.431 46.183,67.855 45.727,68.158 C 45.588,68.25 45.44,68.327 45.292,68.403 C 44.89,68.61 44.322,68.772 43.867,68.752 C 43.592,68.74 43.383,68.706 43.121,68.619 L 42.967,68.556 L 42.773,68.446 C 42.538,68.293 42.367,68.106 42.233,67.886 C 42.318,67.857 42.404,67.829 42.489,67.805 C 42.598,67.764 42.654,67.64 42.613,67.531 C 42.572,67.422 42.448,67.366 42.339,67.407 C 42.244,67.445 42.15,67.484 42.055,67.523 C 42.013,67.417 41.975,67.305 41.941,67.188 C 41.839,66.844 41.822,66.477 41.837,66.121 C 41.855,65.678 41.986,65.146 42.224,64.701 L 42.282,64.605 L 42.393,64.516 C 42.511,64.434 42.635,64.359 42.763,64.292 L 43.114,64.139 L 43.14,64.248 C 43.219,64.42 43.424,64.495 43.596,64.416 C 43.793,64.335 43.963,64.275 44.168,64.218 C 44.338,64.171 44.534,64.147 44.71,64.127 C 44.874,64.108 45.063,64.099 45.26,64.107 Z M 40.832,68.057 C 40.746,68.097 40.661,68.138 40.576,68.179 C 40.181,68.368 39.763,68.58 39.39,68.832 C 38.936,68.41 38.481,67.988 38.026,67.566 C 38.539,67.171 39.136,66.881 39.753,66.695 C 40.006,66.618 40.261,66.566 40.514,66.497 C 40.531,66.492 40.547,66.486 40.562,66.478 C 40.487,67.031 40.595,67.572 40.832,68.057 Z M 41.153,67.204 L 41.2,67.393 L 41.161,67.262 L 41.153,67.204 Z M 47.597,69.999 C 46.947,70.656 46.287,71.308 45.645,71.972 C 45.508,72.113 45.37,72.254 45.228,72.398 C 44.949,72.617 44.664,72.838 44.367,73.041 C 44.318,73.074 44.272,73.111 44.227,73.151 C 44.098,73.073 43.96,72.993 43.821,72.944 C 43.8,72.914 43.777,72.886 43.751,72.862 C 43.352,72.495 42.954,72.128 42.556,71.76 C 44.007,70.939 45.566,70.308 47.125,69.725 C 47.514,69.578 47.907,69.438 48.297,69.292 C 48.063,69.527 47.83,69.763 47.597,69.999 Z M 45.244,73.159 C 45.179,73.225 45.109,73.292 45.037,73.356 L 44.834,73.52 L 44.814,73.507 C 44.84,73.48 44.866,73.453 44.892,73.427 C 44.988,73.327 45.085,73.227 45.182,73.128 C 45.278,73.057 45.374,72.986 45.47,72.914 C 45.396,72.998 45.321,73.08 45.244,73.159 Z"
                      stroke="none" fill="#ffffff" stroke-width="0.5" fill-rule="evenodd" marker-start="none"
                      marker-end="none" stroke-miterlimit="79.8403193612775"/>
            </g>
        </g>
    </g>
</svg>