<svg xmlns:xlink="http://www.w3.org/1999/xlink" xmlns="http://www.w3.org/2000/svg" stroke-width="0.501"
     stroke-linejoin="bevel" fill-rule="evenodd" version="1.1" overflow="visible" viewBox="0 0 75 75" x="0px"
     y="0px">
    <g fill="none" stroke="white"  transform="scale(1 -1)">
        <g transform="translate(0 -75)">
            <g>
                <path d="M 41.423,-26.399 C 41.152,-26.399 40.882,-26.399 40.611,-26.399" fill="none"
                      stroke-linejoin="round" stroke-linecap="round" stroke-width="1.5"
                      stroke-miterlimit="79.8403193612775"/>
                <path d="M 36.376,-25.335 L 37.126,-26.085" fill="none" stroke-linejoin="round" stroke-linecap="round"
                      stroke-width="1.5" stroke-miterlimit="79.8403193612775"/>
                <path d="M 33.248,0.622 C 33.226,0.681 33.227,0.743 33.247,0.798 C 32.937,0.815 32.629,0.847 32.321,0.88 C 32.136,0.874 31.951,0.868 31.766,0.863 C 31.188,0.846 30.606,0.859 30.025,0.88 C 30.032,0.849 30.034,0.816 30.031,0.783 C 30.013,0.615 29.86,0.494 29.692,0.512 C 27.088,0.636 24.543,1.085 21.986,1.565 C 21.449,1.665 20.908,1.766 20.371,1.873 C 19.384,1.917 18.403,1.982 17.421,2.15 C 16.556,2.298 15.717,2.468 14.867,2.686 C 14.078,2.889 13.306,3.137 12.533,3.395 L 11.785,3.673 L 11.275,3.776 C 10.877,3.858 10.478,3.936 10.079,4.017 C 9.73,4.088 9.377,4.146 9.033,4.237 C 8.704,4.324 8.375,4.41 8.045,4.495 L 7.999,4.475 C 7.844,4.445 7.685,4.493 7.552,4.571 C 7.504,4.599 7.456,4.627 7.407,4.658 C 6.793,4.812 6.176,4.962 5.559,5.103 C 5.479,5.12 5.428,5.201 5.445,5.281 C 5.462,5.361 5.543,5.412 5.623,5.395 C 5.971,5.318 6.32,5.244 6.67,5.174 C 6.551,5.275 6.435,5.379 6.322,5.481 C 5.923,5.841 5.548,6.205 5.176,6.593 C 5.053,6.721 4.941,6.86 4.823,6.992 C 4.724,7.102 4.658,7.204 4.578,7.327 C 4.417,7.574 4.285,7.801 4.139,8.053 C 4.022,8.255 3.926,8.476 3.829,8.688 C 3.459,9.497 3.278,10.445 3.417,11.329 C 3.496,11.83 3.658,12.205 3.883,12.653 C 3.972,12.826 4.172,12.906 4.353,12.854 C 4.467,12.989 4.592,13.116 4.721,13.234 C 4.37,13.577 4.03,13.917 3.706,14.297 C 3.405,14.648 3.103,15.038 2.821,15.455 C 2.659,15.597 2.5,15.757 2.394,15.898 C 2.322,15.993 2.229,16.09 2.166,16.189 C 1.93,16.56 1.725,16.914 1.603,17.342 C 1.536,17.578 1.469,17.816 1.442,18.061 C 1.413,18.315 1.402,18.565 1.406,18.81 C 1.396,18.885 1.388,18.96 1.382,19.035 C 1.347,19.444 1.321,19.806 1.365,20.218 C 1.417,20.711 1.563,21.104 1.735,21.561 C 1.742,21.593 1.756,21.622 1.774,21.648 C 1.769,21.886 1.773,22.124 1.807,22.361 C 1.862,22.747 1.934,23.065 2.054,23.436 C 2.202,23.894 2.502,24.392 2.871,24.79 C 2.688,24.999 2.519,25.221 2.352,25.441 C 2.138,25.722 1.938,26.042 1.777,26.357 C 0.931,28.012 0.746,29.757 1.38,31.517 C 1.502,31.856 1.697,32.27 1.899,32.569 C 2.025,32.756 2.155,32.941 2.294,33.119 L 2.295,33.121 C 2.353,33.226 2.411,33.333 2.473,33.436 C 2.533,33.536 2.608,33.631 2.667,33.731 C 2.76,33.872 2.921,33.942 3.079,33.929 C 3.126,33.971 3.174,34.012 3.224,34.048 C 3.311,34.11 3.394,34.181 3.481,34.241 C 3.574,34.306 3.674,34.363 3.768,34.427 C 3.818,34.461 3.87,34.49 3.924,34.519 C 3.901,34.558 3.879,34.598 3.858,34.639 C 3.778,34.649 3.698,34.659 3.618,34.67 C 3.517,34.682 3.445,34.776 3.457,34.877 C 3.469,34.978 3.563,35.05 3.664,35.038 C 3.669,35.037 3.675,35.036 3.681,35.036 C 3.595,35.194 3.531,35.37 3.48,35.533 C 3.021,36.977 3.022,38.494 3.711,39.87 C 4.049,40.544 4.49,41.031 5.072,41.479 C 5.153,41.604 5.238,41.74 5.33,41.856 C 5.359,41.892 5.388,41.929 5.417,41.966 C 5.241,41.899 5.039,41.982 4.962,42.157 C 4.882,42.338 4.964,42.552 5.145,42.632 C 5.452,42.769 5.766,42.949 6.075,43.069 C 6.857,43.373 7.627,43.656 8.435,43.885 C 9.383,44.153 10.31,44.332 11.284,44.483 C 11.998,44.594 12.732,44.654 13.453,44.706 C 15.105,44.825 16.766,44.844 18.418,44.961 C 18.688,45.044 18.964,45.12 19.235,45.197 C 19.719,45.334 20.208,45.447 20.694,45.574 C 21.169,45.698 21.657,45.785 22.136,45.888 C 23.083,46.092 24.064,46.233 25.043,46.316 C 25.039,46.318 25.034,46.32 25.031,46.322 C 24.892,46.384 24.752,46.456 24.611,46.514 C 24.47,46.572 24.322,46.618 24.182,46.679 L 24.2,46.729 C 24.344,46.667 24.497,46.618 24.643,46.56 C 24.771,46.509 24.909,46.443 25.035,46.385 C 25.076,46.365 25.117,46.346 25.159,46.326 C 25.609,46.362 26.058,46.386 26.503,46.398 C 27.618,46.427 28.805,46.339 29.906,46.049 C 29.929,46.14 29.979,46.221 30.045,46.284 C 30.001,46.453 29.955,46.622 29.91,46.791 C 29.692,47.595 29.433,48.392 29.189,49.189 C 28.933,50.024 28.645,50.851 28.383,51.684 C 28.017,52.851 27.639,54.015 27.27,55.181 C 27.138,55.599 27.019,56.023 26.898,56.445 C 26.814,56.737 26.725,57.03 26.65,57.325 C 26.589,57.563 26.528,57.804 26.463,58.041 C 26.391,58.298 26.325,58.566 26.263,58.836 L 26.201,59.132 L 25.825,59.968 C 25.525,60.616 25.217,61.281 24.881,61.91 C 24.735,62.183 24.636,62.476 24.5,62.755 C 24.418,62.915 24.482,63.113 24.642,63.195 C 24.802,63.277 25,63.213 25.082,63.053 C 25.202,62.823 25.364,62.606 25.475,62.379 L 25.493,62.341 L 25.485,62.359 C 25.477,62.394 25.474,62.43 25.477,62.468 C 25.489,62.655 25.504,62.842 25.546,63.02 C 25.546,63.029 25.545,63.042 25.545,63.054 C 25.506,63.208 25.46,63.362 25.409,63.522 C 25.343,63.723 25.226,63.971 25.217,64.179 C 25.194,64.427 25.368,64.651 25.611,64.692 C 25.671,65.356 25.797,66.026 25.972,66.676 L 26.158,67.322 C 26.144,67.366 26.149,67.405 26.169,67.439 L 26.28,67.657 L 26.509,68.271 C 26.612,68.524 26.722,68.77 26.837,69.006 C 27.283,69.923 27.801,70.843 28.451,71.634 C 28.995,72.296 29.586,72.946 30.297,73.435 C 30.595,73.64 30.892,73.853 31.22,74.008 C 32.618,74.668 33.989,74.759 35.412,74.106 C 35.546,74.044 35.758,73.938 35.957,73.82 L 36.24,73.637 L 36.434,73.464 C 36.452,73.442 36.453,73.411 36.467,73.387 C 36.515,73.302 36.538,73.161 36.523,73.064 C 36.52,73.044 36.475,72.929 36.465,72.906 C 36.422,72.81 36.332,72.718 36.235,72.675 C 36.202,72.66 36.156,72.631 36.123,72.62 C 36.097,72.611 36.029,72.615 35.998,72.61 C 35.915,72.596 35.832,72.617 35.752,72.652 L 35.671,72.693 L 35.525,72.77 C 35.414,72.826 35.302,72.864 35.185,72.907 C 35.095,72.939 35.002,72.977 34.909,73.01 C 34.852,72.979 34.789,72.959 34.721,72.955 C 34.583,72.941 34.443,72.938 34.304,72.928 C 33.943,72.902 33.57,72.82 33.219,72.736 C 33.095,72.706 32.965,72.676 32.845,72.635 C 32.715,72.59 32.581,72.557 32.452,72.508 C 31.931,72.309 31.42,72.088 30.928,71.824 C 30.74,71.723 30.527,71.607 30.351,71.487 C 30.296,71.45 30.243,71.413 30.189,71.377 C 29.982,71.202 29.783,71.026 29.594,70.854 C 29.304,70.591 29.016,70.304 28.741,70.024 C 28.648,69.929 28.556,69.833 28.465,69.737 C 28.458,69.692 28.445,69.646 28.431,69.601 L 28.42,69.569 L 28.407,69.543 L 28.355,69.418 C 28.328,69.358 28.299,69.301 28.274,69.247 C 28.06,68.786 27.881,68.29 27.714,67.81 C 27.487,67.156 27.302,66.462 27.133,65.79 C 26.915,64.93 26.727,64.106 26.637,63.238 C 26.645,62.925 26.667,62.602 26.695,62.292 C 26.787,61.268 26.988,60.276 27.202,59.272 L 27.408,58.428 C 27.532,58.148 27.67,57.873 27.793,57.592 C 28.101,56.889 28.403,56.189 28.696,55.479 C 29.607,53.276 30.303,50.991 30.824,48.667 C 31.013,47.821 31.182,46.943 31.302,46.074 C 31.432,46 31.521,45.86 31.521,45.7 C 31.534,45.597 31.556,45.494 31.564,45.391 C 31.582,45.167 31.565,44.936 31.574,44.71 C 31.592,44.254 31.605,43.798 31.625,43.341 C 31.641,42.97 31.666,42.602 31.697,42.234 C 31.724,42.198 31.75,42.157 31.781,42.105 C 31.799,42.072 31.797,42.034 31.755,42.012 C 31.784,41.269 31.879,40.508 31.975,39.744 C 32.207,39.56 32.439,39.378 32.672,39.197 C 32.929,38.996 33.196,38.79 33.444,38.579 C 33.562,38.479 33.686,38.383 33.803,38.281 C 33.982,38.125 34.153,37.96 34.332,37.805 C 34.387,37.755 34.392,37.668 34.342,37.613 C 34.292,37.558 34.205,37.553 34.15,37.603 C 33.827,37.885 33.511,38.177 33.19,38.461 C 32.982,38.645 32.766,38.822 32.555,39.003 C 32.374,39.157 32.193,39.311 32.012,39.464 C 32.144,38.5 32.345,37.53 32.544,36.573 C 32.599,36.529 32.653,36.486 32.708,36.442 C 33.462,35.828 34.207,35.205 34.958,34.587 C 35.159,34.422 35.346,34.239 35.546,34.074 C 35.612,34.017 35.618,33.915 35.561,33.849 C 35.504,33.783 35.402,33.777 35.336,33.834 C 34.974,34.132 34.633,34.47 34.288,34.79 C 33.97,35.085 33.648,35.376 33.329,35.67 C 33.09,35.889 32.846,36.105 32.598,36.316 C 32.619,36.214 32.64,36.111 32.662,36.01 C 32.765,35.511 32.889,34.999 33.024,34.507 C 33.187,33.914 33.348,33.322 33.542,32.738 C 34.161,30.875 34.944,29.017 35.987,27.334 C 36.756,26.309 37.597,25.385 38.558,24.529 C 38.794,24.318 39.011,24.087 39.249,23.877 C 39.672,23.504 40.113,23.155 40.603,22.872 C 40.659,22.838 40.677,22.764 40.643,22.708 C 40.622,22.675 40.589,22.655 40.554,22.651 C 40.605,22.622 40.655,22.592 40.706,22.563 C 41.014,22.381 41.379,22.187 41.706,22.042 C 42.041,21.893 42.366,21.727 42.709,21.593 C 43.575,21.255 44.487,20.968 45.397,20.775 C 45.574,20.745 45.692,20.575 45.662,20.398 C 45.632,20.221 45.462,20.103 45.285,20.133 C 44.901,20.182 44.527,20.232 44.151,20.33 C 43.245,20.566 42.353,20.918 41.508,21.319 C 40.592,21.754 39.691,22.301 38.871,22.898 C 38.448,23.206 38.032,23.518 37.651,23.878 C 37.235,24.271 36.852,24.726 36.492,25.171 C 35.937,25.857 35.497,26.6 35.13,27.401 C 35.068,27.536 35.006,27.683 34.953,27.83 C 34.127,28.992 33.375,30.244 32.747,31.523 C 32.504,32.018 32.255,32.518 32.04,33.026 C 31.778,33.645 31.53,34.252 31.291,34.88 C 31.089,35.412 30.91,35.953 30.735,36.495 C 30.631,36.817 30.527,37.14 30.437,37.466 C 30.424,37.51 30.412,37.554 30.4,37.599 C 30.501,37.524 30.48,37.433 30.422,37.362 C 30.317,37.235 30.126,37.218 29.999,37.323 C 29.85,37.444 29.711,37.579 29.563,37.701 C 29.252,37.956 28.932,38.205 28.605,38.44 C 28.592,38.163 28.57,37.884 28.545,37.616 C 28.543,37.603 28.542,37.59 28.541,37.578 C 28.591,37.039 28.597,36.497 28.56,35.967 C 29.326,35.545 30.1,35.138 30.9,34.784 C 31.026,34.724 31.081,34.571 31.021,34.445 C 30.961,34.319 30.808,34.264 30.682,34.324 C 30.549,34.381 30.414,34.458 30.283,34.522 C 29.892,34.714 29.512,34.932 29.132,35.146 C 28.925,35.262 28.719,35.38 28.515,35.5 C 28.5,35.384 28.484,35.269 28.466,35.155 C 28.398,34.739 28.288,34.304 28.137,33.886 C 29.036,33.39 29.937,32.898 30.848,32.421 C 31.429,32.116 31.989,31.786 32.563,31.469 C 32.681,31.402 32.723,31.25 32.656,31.132 C 32.589,31.014 32.437,30.972 32.319,31.039 C 31.912,31.275 31.496,31.499 31.093,31.743 C 30.068,32.362 29.051,32.99 28.034,33.621 C 27.92,33.346 27.787,33.082 27.635,32.842 C 27.618,32.815 27.601,32.789 27.583,32.767 C 27.919,32.492 28.156,32.138 28.363,31.784 C 28.464,31.611 28.555,31.433 28.65,31.257 C 28.785,31.008 28.914,30.721 29.019,30.458 C 29.026,30.438 29.035,30.418 29.043,30.398 C 29.082,30.377 29.12,30.356 29.159,30.335 C 29.729,30.021 30.299,29.711 30.89,29.438 C 31.102,29.34 31.317,29.245 31.531,29.152 C 31.692,29.082 31.852,29.02 32.008,28.938 C 32.272,28.799 32.517,28.641 32.775,28.495 C 32.825,28.477 32.85,28.42 32.832,28.37 C 32.814,28.32 32.757,28.295 32.707,28.313 C 32.425,28.355 32.134,28.4 31.862,28.485 C 31.553,28.581 31.263,28.724 30.971,28.862 C 30.404,29.13 29.834,29.428 29.289,29.744 C 29.292,29.734 29.295,29.724 29.299,29.715 C 29.449,29.236 29.605,28.724 29.671,28.226 C 29.697,28.025 29.717,27.831 29.733,27.635 C 30.033,27.456 30.339,27.285 30.647,27.122 C 31.001,26.934 31.409,26.752 31.787,26.611 C 32.022,26.523 32.267,26.434 32.495,26.33 C 32.592,26.301 32.646,26.197 32.617,26.1 C 32.588,26.003 32.484,25.949 32.387,25.978 C 31.961,26.026 31.399,26.261 31.012,26.45 C 30.834,26.537 30.65,26.618 30.475,26.711 C 30.233,26.838 29.997,26.969 29.763,27.104 C 29.77,26.685 29.732,26.209 29.648,25.786 C 30.018,25.582 30.391,25.388 30.762,25.185 C 31.072,25.015 31.406,24.854 31.726,24.702 C 32.386,24.387 33.054,24.087 33.728,23.803 C 33.837,23.755 33.888,23.626 33.84,23.517 C 33.792,23.408 33.663,23.357 33.554,23.405 C 32.188,23.986 30.866,24.718 29.582,25.501 C 29.575,25.473 29.567,25.444 29.559,25.417 C 29.523,25.294 29.481,25.143 29.433,25.026 C 29.391,24.924 29.343,24.82 29.305,24.717 C 29.279,24.645 29.226,24.56 29.189,24.491 C 29.093,24.312 28.992,24.159 28.876,23.993 C 28.84,23.941 28.796,23.899 28.757,23.851 C 28.747,23.839 28.738,23.828 28.728,23.817 C 28.727,23.813 28.725,23.809 28.724,23.805 C 29.325,23.413 29.929,23.025 30.542,22.653 C 30.977,22.388 31.42,22.137 31.866,21.891 C 32.032,21.799 32.204,21.719 32.37,21.628 C 32.812,21.388 33.275,21.171 33.739,20.975 C 33.86,20.921 33.916,20.777 33.862,20.656 C 33.808,20.535 33.664,20.479 33.543,20.533 C 33.329,20.629 33.112,20.721 32.9,20.821 C 32.706,20.912 32.515,21.015 32.322,21.11 C 31.979,21.28 31.64,21.495 31.313,21.695 C 30.894,21.951 30.472,22.22 30.069,22.499 C 29.578,22.838 29.088,23.181 28.597,23.522 C 28.522,23.366 28.44,23.213 28.35,23.064 C 28.362,23.035 28.374,23.007 28.386,22.979 C 28.47,22.918 28.554,22.848 28.638,22.786 C 28.721,22.722 28.839,22.603 28.929,22.502 C 28.944,22.502 28.96,22.502 28.976,22.503 C 29.196,22.511 29.382,22.339 29.39,22.119 C 29.392,22.06 29.381,22.003 29.36,21.952 C 29.376,21.928 29.391,21.904 29.407,21.88 C 29.535,21.672 29.668,21.446 29.768,21.223 C 29.856,21.026 29.925,20.834 30.001,20.633 C 30.099,20.373 30.163,20.106 30.212,19.836 C 30.251,19.815 30.29,19.794 30.33,19.774 C 30.75,19.549 31.182,19.343 31.613,19.14 C 31.956,18.978 32.316,18.844 32.657,18.681 C 32.759,18.632 32.86,18.58 32.963,18.533 C 33.061,18.494 33.109,18.38 33.07,18.282 C 33.031,18.184 32.917,18.136 32.819,18.175 C 31.959,18.449 31.114,18.85 30.3,19.282 C 30.309,19.215 30.319,19.149 30.329,19.083 C 30.347,18.959 30.342,18.819 30.353,18.693 C 30.369,18.511 30.362,18.292 30.354,18.109 C 30.351,18.036 30.35,17.959 30.346,17.883 C 30.578,17.758 30.811,17.635 31.046,17.514 C 31.816,17.114 32.604,16.728 33.404,16.392 C 33.646,16.29 33.887,16.19 34.131,16.093 C 34.284,16.033 34.441,15.979 34.587,15.904 C 34.743,15.824 34.887,15.708 35.027,15.603 C 35.081,15.584 35.109,15.522 35.09,15.468 C 35.071,15.414 35.009,15.386 34.955,15.405 C 34.784,15.408 34.607,15.417 34.439,15.451 C 34.228,15.494 34.032,15.584 33.833,15.665 C 33.629,15.748 33.424,15.829 33.223,15.921 C 32.621,16.197 32.016,16.47 31.435,16.79 C 31.112,16.968 30.786,17.139 30.465,17.322 C 30.41,17.353 30.355,17.384 30.3,17.415 C 30.249,17.042 30.176,16.656 30.068,16.297 C 29.972,15.983 29.859,15.682 29.726,15.394 C 30.173,15.163 30.623,14.937 31.079,14.719 C 31.8,14.372 32.519,14.022 33.264,13.726 C 33.358,13.686 33.403,13.575 33.363,13.481 C 33.323,13.387 33.212,13.342 33.118,13.382 C 32.27,13.757 31.439,14.115 30.616,14.546 C 30.269,14.726 29.925,14.914 29.584,15.107 C 29.435,14.828 29.265,14.563 29.069,14.316 C 28.957,14.127 28.832,13.945 28.692,13.772 C 28.602,13.66 28.508,13.553 28.409,13.449 C 29.003,13.072 29.602,12.704 30.211,12.353 C 31.277,11.737 32.335,11.141 33.446,10.61 C 33.559,10.553 33.604,10.412 33.547,10.299 C 33.49,10.186 33.349,10.141 33.236,10.198 C 32.271,10.688 31.353,11.232 30.425,11.787 C 30.095,11.984 29.765,12.186 29.443,12.396 C 29.401,12.422 29.36,12.449 29.319,12.476 C 29.305,12.316 29.175,12.185 29.011,12.175 C 28.819,12.151 28.628,12.128 28.435,12.106 C 28.541,11.904 28.635,11.695 28.712,11.48 C 28.774,11.307 28.845,11.134 28.888,10.954 C 28.908,10.868 28.927,10.782 28.944,10.695 C 30.04,9.93 31.184,9.217 32.393,8.671 C 32.512,8.615 32.564,8.471 32.508,8.352 C 32.452,8.233 32.308,8.181 32.189,8.237 C 31.705,8.443 31.215,8.717 30.757,8.976 C 30.178,9.302 29.603,9.67 29.044,10.06 C 29.1,9.551 29.102,9.03 29.031,8.531 C 29.339,8.293 29.648,8.058 29.964,7.835 C 30.186,7.677 30.414,7.529 30.639,7.377 C 31.025,7.117 31.407,6.889 31.815,6.665 C 32.052,6.535 32.302,6.405 32.553,6.303 C 32.69,6.242 32.751,6.079 32.69,5.942 C 32.629,5.805 32.466,5.744 32.329,5.805 C 31.89,5.989 31.439,6.23 31.035,6.48 C 30.555,6.777 30.111,7.078 29.658,7.416 C 29.41,7.6 29.167,7.79 28.926,7.982 C 28.889,7.821 28.849,7.663 28.802,7.495 C 28.721,7.205 28.583,6.852 28.445,6.584 C 28.347,6.394 28.249,6.22 28.143,6.047 C 29.014,5.385 29.906,4.747 30.839,4.186 C 31.556,3.754 32.357,3.292 33.142,2.991 C 33.272,2.936 33.333,2.783 33.278,2.653 C 33.223,2.523 33.07,2.462 32.94,2.517 C 32.004,2.908 31.103,3.396 30.257,3.959 C 29.463,4.486 28.713,5.06 27.972,5.65 C 27.898,5.458 27.818,5.27 27.718,5.09 C 27.594,4.867 27.468,4.647 27.317,4.44 C 27.266,4.37 27.214,4.303 27.162,4.238 C 27.535,3.989 27.91,3.742 28.277,3.486 C 28.878,3.064 29.452,2.638 30.035,2.192 C 30.069,2.165 30.094,2.131 30.109,2.094 C 30.351,2.071 30.594,2.048 30.837,2.026 C 31.251,1.988 31.669,1.961 32.08,1.897 C 32.261,1.868 32.442,1.834 32.622,1.797 C 32.823,1.805 33.024,1.815 33.225,1.826 C 34.087,1.965 34.946,2.127 35.811,2.307 C 36.625,2.475 37.46,2.662 38.263,2.876 C 39.164,3.116 40.065,3.348 40.96,3.609 C 42.133,3.951 43.297,4.312 44.465,4.67 C 45.659,5.036 46.861,5.388 48.059,5.742 C 48.698,5.93 49.341,6.112 49.985,6.286 C 50.199,6.399 50.409,6.515 50.614,6.631 C 50.638,6.645 50.663,6.659 50.688,6.672 C 50.694,6.685 50.702,6.697 50.711,6.708 C 51.248,7.385 51.792,8.051 52.349,8.711 C 52.417,8.792 52.485,8.874 52.552,8.956 C 52.545,8.957 52.537,8.958 52.53,8.959 C 52.478,8.965 52.44,9.013 52.446,9.065 C 52.452,9.117 52.5,9.155 52.552,9.149 C 52.599,9.142 52.647,9.136 52.695,9.13 C 52.87,9.347 53.042,9.565 53.216,9.784 C 53.429,10.053 53.653,10.341 53.846,10.624 C 53.996,10.844 54.148,11.065 54.295,11.289 C 54.292,11.324 54.29,11.359 54.288,11.393 C 54.279,11.396 54.27,11.399 54.261,11.403 C 54.021,11.491 53.795,11.609 53.564,11.717 C 53.31,11.836 53.047,11.989 52.808,12.135 C 52.306,12.442 51.833,12.76 51.349,13.096 C 50.584,13.627 49.826,14.145 49.023,14.613 C 48.868,14.703 48.718,14.802 48.561,14.891 C 48.427,14.967 48.282,15.033 48.143,15.101 C 48.087,15.127 48.062,15.196 48.088,15.252 C 48.114,15.308 48.183,15.333 48.239,15.307 C 48.533,15.164 48.836,15.039 49.131,14.895 C 49.358,14.784 49.635,14.612 49.847,14.471 C 50.418,14.091 50.996,13.72 51.567,13.34 C 52.401,12.783 53.314,12.213 54.262,11.861 C 54.233,12.409 54.209,12.958 54.201,13.509 C 54.198,13.667 54.195,13.825 54.192,13.984 C 51.974,15.194 49.824,16.395 47.861,18.017 C 47.841,18.033 47.838,18.064 47.854,18.084 C 47.87,18.104 47.901,18.107 47.921,18.091 C 48.516,17.609 49.126,17.137 49.774,16.727 C 50.395,16.335 51.007,15.966 51.651,15.612 C 52.363,15.22 53.094,14.865 53.824,14.507 C 53.944,14.447 54.065,14.389 54.185,14.33 C 54.175,14.841 54.166,15.351 54.161,15.863 C 53.749,16.113 53.335,16.358 52.927,16.616 C 51.885,17.271 50.876,17.989 49.867,18.694 C 49.458,18.98 49.05,19.269 48.643,19.558 C 48.393,19.735 48.13,19.906 47.89,20.096 C 47.52,20.389 47.144,20.665 46.763,20.942 C 46.702,20.985 46.686,21.071 46.729,21.132 C 46.772,21.193 46.858,21.209 46.919,21.166 C 47.32,20.872 47.751,20.615 48.168,20.344 C 48.343,20.23 48.513,20.103 48.684,19.983 C 50.477,18.728 52.255,17.491 54.158,16.413 C 54.156,16.877 54.156,17.34 54.158,17.803 C 54.002,18.044 53.849,18.286 53.701,18.532 C 53.102,18.855 52.53,19.197 51.945,19.561 C 51.48,19.85 51.025,20.193 50.577,20.509 C 49.657,21.157 48.763,21.847 47.842,22.493 C 47.464,22.758 47.086,23.027 46.702,23.283 C 46.281,23.564 45.852,23.825 45.424,24.095 C 45.364,24.131 45.346,24.211 45.382,24.271 C 45.418,24.331 45.498,24.349 45.558,24.313 C 45.776,24.172 46.005,24.043 46.225,23.905 C 46.645,23.642 47.063,23.366 47.475,23.09 C 48.467,22.426 49.444,21.739 50.437,21.074 C 50.747,20.866 51.06,20.653 51.376,20.454 C 51.69,20.256 52.01,20.064 52.321,19.863 C 52.906,19.484 53.536,19.121 54.165,18.802 C 54.172,19.598 54.183,20.393 54.198,21.189 C 54.177,21.216 54.156,21.244 54.136,21.272 C 54.133,21.273 54.13,21.275 54.128,21.277 C 53.913,21.396 53.691,21.505 53.482,21.634 C 52.954,21.96 52.415,22.268 51.895,22.608 C 50.545,23.491 49.197,24.391 47.887,25.332 C 47.325,25.736 46.747,26.119 46.184,26.522 C 46.139,26.553 46.128,26.616 46.159,26.661 C 46.19,26.706 46.253,26.717 46.298,26.686 C 46.728,26.376 47.174,26.077 47.613,25.78 C 48.143,25.422 48.668,25.061 49.205,24.714 C 50.63,23.795 52.052,22.895 53.552,22.103 C 53.771,21.987 53.99,21.87 54.208,21.754 C 54.223,22.537 54.241,23.32 54.259,24.103 C 53.619,24.411 53,24.766 52.392,25.144 C 50.612,26.247 48.948,27.578 47.265,28.819 L 47.256,28.88 L 47.317,28.889 C 49.197,27.499 51.086,26.116 53.17,25.048 C 53.529,24.863 53.897,24.693 54.269,24.535 C 54.277,24.894 54.285,25.253 54.294,25.612 C 54.307,26.205 54.32,26.797 54.33,27.388 C 53.977,27.598 53.631,27.82 53.287,28.037 C 53.009,28.212 52.726,28.404 52.457,28.593 C 51.633,29.172 50.804,29.761 49.968,30.322 C 49.272,30.789 48.582,31.225 47.861,31.652 C 47.833,31.668 47.823,31.706 47.839,31.734 C 47.855,31.762 47.893,31.772 47.921,31.756 C 48.596,31.349 49.269,30.956 49.929,30.523 C 51.387,29.565 52.815,28.6 54.337,27.796 C 54.348,28.552 54.356,29.307 54.358,30.063 C 54.169,30.171 53.98,30.28 53.793,30.392 C 53.28,30.695 52.76,30.987 52.255,31.302 C 50.94,32.121 49.637,33.051 48.557,34.168 C 48.51,34.214 48.509,34.291 48.555,34.338 C 48.601,34.385 48.678,34.386 48.725,34.34 C 49.906,33.117 51.287,32.229 52.739,31.368 C 53.089,31.161 53.46,30.972 53.817,30.776 C 53.996,30.677 54.177,30.58 54.359,30.484 C 54.359,31.132 54.354,31.78 54.343,32.429 C 53.893,32.679 53.449,32.941 53.006,33.205 C 51.9,33.861 50.814,34.605 49.78,35.369 C 49.734,35.402 49.723,35.469 49.756,35.515 C 49.789,35.561 49.856,35.572 49.902,35.539 C 51.213,34.555 52.646,33.681 54.098,32.924 C 54.177,32.882 54.256,32.841 54.336,32.801 C 54.332,33.019 54.326,33.237 54.321,33.456 C 54.306,33.999 54.278,34.547 54.245,35.089 C 54.239,35.173 54.236,35.259 54.232,35.344 C 54.216,35.354 54.201,35.363 54.186,35.373 C 53.815,35.597 53.441,35.817 53.067,36.036 C 52.659,36.275 52.267,36.541 51.869,36.795 C 51.562,36.992 51.242,37.214 50.957,37.443 C 50.896,37.489 50.884,37.577 50.93,37.638 C 50.976,37.699 51.064,37.711 51.125,37.665 C 52.08,36.928 53.145,36.353 54.206,35.779 C 54.204,35.796 54.202,35.813 54.201,35.83 C 54.179,36.036 54.171,36.244 54.152,36.45 C 54.133,36.656 54.111,36.866 54.096,37.072 C 54.083,37.253 54.055,37.435 54.037,37.616 C 53.983,38.145 53.901,38.668 53.819,39.193 C 53.734,39.248 53.646,39.303 53.558,39.356 C 53.546,39.272 53.495,39.196 53.415,39.155 C 53.282,39.087 53.118,39.139 53.05,39.272 C 52.952,39.454 52.856,39.636 52.761,39.82 C 52.652,39.878 52.541,39.933 52.429,39.985 C 52.325,40.032 52.222,40.082 52.117,40.128 C 51.995,40.182 51.863,40.226 51.742,40.282 C 51.675,40.309 51.642,40.386 51.669,40.453 C 51.696,40.52 51.773,40.553 51.84,40.526 C 52.072,40.426 52.303,40.336 52.534,40.231 C 52.54,40.227 52.547,40.224 52.554,40.221 C 51.975,41.356 51.421,42.51 50.814,43.631 L 50.469,44.23 C 50.059,44.74 49.621,45.225 49.185,45.711 C 47.581,47.497 45.799,49.131 44.136,50.864 C 43.44,51.589 42.754,52.328 42.103,53.094 C 41.826,53.42 41.563,53.756 41.29,54.084 C 41.152,54.25 41.02,54.423 40.892,54.596 C 40.816,54.698 40.734,54.794 40.666,54.902 C 40.591,55.021 40.57,55.142 40.606,55.277 C 40.626,55.353 40.661,55.419 40.706,55.473 C 40.527,55.71 40.353,55.952 40.183,56.199 C 40.178,56.202 40.173,56.206 40.168,56.21 C 39.909,56.381 39.64,56.539 39.383,56.711 C 38.977,56.982 38.534,57.208 38.111,57.45 C 38.082,57.466 38.071,57.505 38.087,57.534 C 38.103,57.563 38.142,57.574 38.171,57.558 C 38.383,57.435 38.603,57.323 38.813,57.199 C 39.196,56.972 39.579,56.741 39.953,56.5 C 39.969,56.489 39.985,56.478 40.002,56.468 C 39.943,56.556 39.885,56.644 39.828,56.734 C 39.331,57.28 38.846,57.845 38.382,58.43 C 38.321,58.446 38.267,58.487 38.238,58.548 C 38.204,58.612 38.171,58.677 38.139,58.741 C 37.732,59.269 37.315,59.853 36.982,60.427 C 36.527,61.209 36.092,61.984 35.768,62.833 C 35.74,62.9 35.773,62.979 35.84,63.007 C 35.907,63.035 35.986,63.002 36.014,62.935 C 36.413,61.939 36.914,61.026 37.49,60.171 C 37.347,60.52 37.218,60.884 37.096,61.238 C 36.798,62.1 36.533,62.981 36.346,63.874 C 36.313,64.029 36.281,64.185 36.249,64.341 C 36.131,64.311 36.013,64.29 35.899,64.286 C 35.706,64.278 35.524,64.301 35.336,64.342 C 34.41,64.542 33.885,65.223 33.589,66.081 C 33.191,67.234 33.178,68.739 33.361,69.938 C 33.444,70.485 33.594,71.12 33.826,71.624 C 33.919,71.853 34.182,71.962 34.411,71.869 C 34.64,71.776 34.749,71.513 34.656,71.284 C 34.603,71.176 34.565,71.055 34.523,70.942 C 34.385,70.574 34.281,70.135 34.215,69.748 C 34.104,69.104 34.042,68.462 34.071,67.808 C 34.082,67.564 34.097,67.304 34.142,67.063 C 34.18,66.863 34.223,66.679 34.269,66.481 C 34.376,66.02 34.778,65.202 35.231,64.993 C 35.565,64.839 35.671,64.846 36.013,64.84 C 36.059,64.839 36.107,64.834 36.155,64.832 C 36.09,65.188 36.034,65.545 35.995,65.903 C 35.936,66.442 35.896,66.972 35.869,67.514 C 35.799,68.944 35.947,70.376 36.136,71.791 C 36.172,72.069 36.43,72.265 36.708,72.229 C 36.986,72.193 37.182,71.935 37.146,71.657 C 37.129,71.527 37.112,71.398 37.095,71.27 C 37.253,71.161 37.349,70.972 37.33,70.769 C 37.194,69.627 37.19,68.48 37.252,67.334 C 37.281,66.801 37.32,66.285 37.37,65.754 C 37.398,65.46 37.445,65.151 37.492,64.859 C 37.541,64.555 37.588,64.236 37.657,63.936 C 37.792,63.347 37.908,62.754 38.088,62.176 C 38.252,61.647 38.411,61.119 38.611,60.602 C 39.057,59.451 39.557,58.368 40.19,57.306 C 40.386,56.975 40.594,56.643 40.814,56.316 C 41.225,55.915 41.645,55.52 42.07,55.128 C 42.314,54.976 42.56,54.829 42.81,54.688 L 42.825,54.635 L 42.772,54.62 C 42.646,54.687 42.522,54.756 42.399,54.825 C 43.312,53.987 44.265,53.181 45.141,52.306 C 45.628,51.82 46.137,51.351 46.565,50.811 C 46.697,50.643 46.823,50.473 46.947,50.297 C 48.623,48.861 50.281,47.398 51.75,45.74 C 52.722,44.642 53.585,43.475 54.335,42.215 C 54.678,41.639 55,41.008 55.283,40.401 C 55.35,40.256 55.415,40.112 55.478,39.968 C 55.514,39.985 55.551,40.002 55.586,40.02 C 55.833,40.142 56.117,40.205 56.378,40.286 C 56.459,40.311 56.605,40.354 56.687,40.36 C 56.765,40.365 56.83,40.371 56.899,40.381 C 56.869,40.413 56.839,40.445 56.809,40.478 C 56.771,40.518 56.774,40.583 56.814,40.621 C 56.854,40.659 56.919,40.656 56.957,40.616 C 57.016,40.552 57.076,40.488 57.136,40.424 C 58.011,40.587 58.929,40.687 59.815,40.736 C 60.341,40.765 60.865,40.797 61.392,40.813 C 61.153,41.114 60.92,41.419 60.694,41.727 C 60.645,41.791 60.656,41.884 60.72,41.933 C 60.784,41.982 60.877,41.971 60.926,41.907 C 61.21,41.547 61.491,41.179 61.783,40.822 C 63.213,40.843 64.627,40.8 66.054,40.702 C 66.589,40.665 67.138,40.623 67.67,40.553 C 68.082,40.499 68.505,40.457 68.913,40.383 C 69.032,40.361 69.152,40.339 69.272,40.318 C 69.275,40.359 69.291,40.398 69.322,40.43 C 69.39,40.5 69.504,40.502 69.574,40.434 C 69.64,40.365 69.711,40.295 69.782,40.225 C 70.332,40.12 70.881,39.996 71.399,39.802 C 71.931,39.602 72.388,39.414 72.752,38.972 C 72.763,38.958 72.774,38.944 72.785,38.929 C 72.777,39.126 72.769,39.323 72.761,39.52 C 72.755,39.686 72.885,39.828 73.051,39.834 C 73.217,39.84 73.359,39.71 73.365,39.544 C 73.399,38.722 73.431,37.9 73.46,37.079 C 73.467,37.048 73.474,37.017 73.481,36.987 C 73.503,36.873 73.524,36.76 73.544,36.647 C 73.645,36.568 73.748,36.49 73.852,36.414 C 73.965,36.326 73.984,36.161 73.896,36.048 C 73.837,35.973 73.745,35.939 73.657,35.95 C 73.664,35.866 73.669,35.781 73.676,35.699 C 73.715,35.237 73.705,34.803 73.684,34.344 C 73.668,33.985 73.615,33.632 73.581,33.277 C 73.579,33.264 73.578,33.251 73.576,33.236 C 73.578,33.177 73.579,33.117 73.581,33.057 C 73.613,31.752 73.618,30.445 73.639,29.14 C 73.663,27.652 73.668,26.162 73.676,24.674 C 73.683,23.476 73.696,22.277 73.702,21.079 C 73.706,20.208 73.723,19.337 73.718,18.466 C 73.712,17.343 73.715,16.22 73.725,15.097 C 73.737,13.763 73.742,12.428 73.772,11.094 C 73.78,10.738 73.788,10.382 73.798,10.027 C 73.818,10.005 73.838,9.984 73.859,9.963 C 73.94,9.871 73.93,9.729 73.838,9.648 C 73.829,9.64 73.819,9.633 73.809,9.626 C 73.856,8.04 73.919,6.457 73.997,4.87 C 74.009,4.615 73.811,4.397 73.556,4.385 C 73.301,4.373 73.083,4.571 73.071,4.826 C 73.05,5.253 73.03,5.679 73.011,6.106 C 72.94,5.99 72.86,5.879 72.77,5.775 C 72.772,5.569 72.774,5.364 72.777,5.159 C 72.777,5.057 72.694,4.972 72.592,4.972 C 72.49,4.972 72.405,5.055 72.405,5.157 C 72.403,5.246 72.402,5.336 72.401,5.425 C 72.333,5.37 72.264,5.321 72.216,5.302 C 72.125,5.266 72.034,5.231 71.941,5.199 C 71.235,4.952 70.537,4.837 69.8,4.734 C 68.96,4.617 68.078,4.558 67.23,4.526 C 65.872,4.475 64.516,4.46 63.157,4.452 C 62.808,4.45 62.458,4.45 62.108,4.448 C 62.193,4.374 62.279,4.3 62.364,4.226 C 62.452,4.149 62.462,4.013 62.385,3.925 C 62.308,3.837 62.172,3.827 62.084,3.904 C 61.88,4.079 61.68,4.257 61.482,4.439 C 61.239,4.434 60.992,4.429 60.75,4.431 C 60.363,4.433 59.974,4.417 59.586,4.406 C 59.596,4.387 59.604,4.367 59.609,4.347 C 59.72,4.266 59.831,4.182 59.939,4.094 C 59.997,4.055 60.012,3.974 59.973,3.916 C 59.934,3.858 59.853,3.843 59.795,3.882 C 59.672,3.947 59.561,4.015 59.45,4.087 C 59.392,4.072 59.327,4.081 59.274,4.117 C 59.138,4.2 59.008,4.29 58.881,4.385 C 58.315,4.363 57.745,4.324 57.184,4.27 C 56.894,4.242 56.56,4.219 56.277,4.161 C 56.095,4.123 55.865,4.033 55.678,4.07 C 55.374,4.13 55.3,4.363 55.235,4.624 C 55.188,4.813 55.126,5.002 55.077,5.192 C 54.993,5.517 54.93,5.854 54.862,6.184 C 54.741,6.771 54.662,7.37 54.581,7.963 C 54.574,8.006 54.568,8.05 54.563,8.095 C 54.282,7.826 53.994,7.586 53.731,7.385 C 53.626,7.305 53.522,7.226 53.417,7.149 C 53.477,7.163 53.537,7.177 53.598,7.191 C 53.722,7.223 53.85,7.147 53.882,7.023 C 53.914,6.899 53.838,6.771 53.714,6.739 C 53.24,6.597 52.76,6.469 52.284,6.334 C 52.251,6.324 52.218,6.315 52.186,6.306 C 51.784,6.052 51.373,5.812 50.947,5.585 C 50.574,5.386 50.172,5.176 49.78,5.015 C 49.591,4.937 49.402,4.846 49.209,4.778 C 48.92,4.676 48.634,4.554 48.342,4.458 C 48.029,4.355 47.718,4.244 47.405,4.14 C 46.651,3.889 45.88,3.664 45.115,3.448 C 44.657,3.319 44.196,3.208 43.735,3.088 C 42.996,2.895 42.256,2.705 41.515,2.523 C 41.245,2.409 40.974,2.3 40.7,2.199 C 40.256,2.035 39.81,1.896 39.354,1.766 C 38.776,1.601 38.171,1.494 37.578,1.397 C 37.3,1.351 37.022,1.302 36.742,1.265 C 36.412,1.221 36.082,1.177 35.752,1.137 C 35.683,1.118 35.614,1.1 35.546,1.081 C 35.505,0.969 35.407,0.881 35.282,0.865 C 35.114,0.849 34.942,0.815 34.774,0.807 C 34.712,0.804 34.651,0.801 34.59,0.798 C 34.253,0.691 33.918,0.579 33.585,0.463 C 33.449,0.414 33.297,0.486 33.248,0.622 Z M 29.23,2.205 C 28.787,2.525 28.35,2.854 27.907,3.173 C 27.562,3.42 27.217,3.667 26.874,3.915 C 26.75,3.79 26.62,3.672 26.48,3.559 C 26.934,3.307 27.385,3.042 27.825,2.788 C 28.145,2.601 28.468,2.403 28.792,2.221 C 28.951,2.205 29.111,2.19 29.27,2.175 C 29.257,2.185 29.243,2.195 29.23,2.205 Z M 26.572,3.036 C 26.423,3.124 26.274,3.211 26.123,3.295 C 26.046,3.245 25.965,3.196 25.893,3.164 C 25.771,3.108 25.554,3.045 25.421,3.019 C 25.231,2.982 25.033,2.931 24.839,2.922 C 24.772,2.919 24.643,2.894 24.584,2.919 C 24.582,2.919 24.58,2.92 24.578,2.921 C 24.55,2.822 24.484,2.739 24.398,2.69 C 25.515,2.551 26.637,2.433 27.76,2.322 C 27.361,2.557 26.965,2.8 26.572,3.036 Z M 22.458,3.33 C 22.888,3.368 23.314,3.396 23.745,3.411 C 23.87,3.415 23.998,3.409 24.126,3.409 C 24.072,3.465 24.019,3.521 23.966,3.579 C 23.925,3.62 23.925,3.688 23.966,3.729 L 24.116,3.729 C 24.218,3.63 24.32,3.532 24.424,3.436 L 24.676,3.216 L 24.808,3.256 C 24.873,3.275 24.938,3.296 25.001,3.328 C 25.133,3.395 25.262,3.448 25.386,3.533 C 25.424,3.559 25.467,3.591 25.511,3.623 C 25.497,3.63 25.484,3.637 25.471,3.644 C 25.37,3.595 25.268,3.548 25.166,3.502 C 24.877,3.372 24.535,3.502 24.405,3.791 C 24.35,3.912 24.341,4.042 24.371,4.163 C 24.342,4.176 24.313,4.188 24.284,4.201 C 24.186,4.242 24.14,4.358 24.181,4.456 C 24.222,4.554 24.338,4.6 24.436,4.559 C 24.487,4.536 24.539,4.514 24.59,4.492 C 24.622,4.515 24.656,4.535 24.694,4.552 C 24.974,4.672 25.23,4.802 25.47,4.949 C 25.278,5.091 25.087,5.235 24.906,5.386 C 24.2,5.974 23.532,6.65 22.899,7.315 C 22.85,7.365 22.852,7.447 22.902,7.496 C 22.952,7.545 23.034,7.543 23.083,7.493 C 23.271,7.286 23.495,7.063 23.705,6.879 C 23.804,6.793 23.898,6.698 23.998,6.612 C 24.347,6.312 24.702,6.019 25.074,5.748 C 25.233,5.632 25.39,5.502 25.546,5.381 C 25.634,5.312 25.724,5.245 25.815,5.178 C 26.047,5.347 26.268,5.537 26.488,5.757 C 26.683,5.953 26.863,6.166 27.002,6.433 C 26.393,6.926 25.784,7.424 25.163,7.902 C 24.994,8.032 24.84,8.188 24.669,8.318 C 24.497,8.448 24.303,8.578 24.14,8.714 C 23.838,8.965 23.549,9.186 23.232,9.418 C 23.185,9.45 23.173,9.516 23.205,9.563 C 23.237,9.61 23.303,9.622 23.35,9.59 C 23.669,9.371 23.999,9.177 24.324,8.968 C 24.51,8.848 24.682,8.703 24.861,8.573 C 25.027,8.452 25.201,8.346 25.365,8.224 C 25.823,7.884 26.264,7.513 26.713,7.16 C 26.891,7.019 27.071,6.878 27.25,6.737 C 27.396,6.98 27.523,7.235 27.63,7.499 C 27.654,7.999 27.617,8.49 27.528,8.997 C 27.518,9.048 27.507,9.099 27.495,9.15 C 27.308,9.301 27.12,9.451 26.931,9.598 C 26.32,10.069 25.725,10.515 25.076,10.934 C 24.889,11.055 24.673,11.188 24.477,11.293 C 24.302,11.387 24.118,11.473 23.946,11.572 C 23.86,11.616 23.819,11.713 23.841,11.803 C 23.109,11.783 22.377,11.772 21.647,11.765 C 20.907,11.756 20.162,11.75 19.422,11.762 C 17.89,11.786 16.358,11.872 14.828,11.951 C 13.865,12.001 12.901,12.075 11.94,12.15 C 9.775,12.319 7.621,12.542 5.466,12.797 C 5.365,12.716 5.269,12.629 5.205,12.551 C 5.033,12.343 4.877,12.141 4.779,11.885 C 4.755,11.823 4.74,11.755 4.715,11.694 C 4.691,11.635 4.68,11.557 4.666,11.494 C 4.585,11.14 4.612,10.679 4.682,10.324 C 4.758,9.937 4.882,9.551 5.043,9.177 L 5.168,8.907 L 5.322,8.866 C 5.42,8.818 5.499,8.734 5.537,8.624 C 5.562,8.534 5.634,8.398 5.677,8.312 C 5.78,8.107 5.898,7.867 6.026,7.678 C 6.068,7.614 6.105,7.544 6.143,7.478 C 6.972,6.744 7.956,6.072 8.925,5.551 C 9.186,5.409 9.451,5.256 9.719,5.122 C 9.816,5.095 9.913,5.069 10.011,5.042 C 10.953,4.844 11.895,4.647 12.835,4.441 C 13.181,4.364 13.529,4.288 13.879,4.212 C 15.013,4.009 16.151,3.825 17.293,3.658 C 18.191,3.526 19.098,3.427 19.994,3.289 C 20.296,3.242 20.598,3.197 20.9,3.153 C 21.42,3.218 21.939,3.283 22.458,3.33 Z M 9.413,4.694 L 9.411,4.696 L 9.395,4.699 C 9.401,4.697 9.407,4.695 9.413,4.694 Z M 8.397,4.979 C 8.397,4.941 8.392,4.903 8.383,4.866 C 8.634,4.827 8.886,4.789 9.137,4.749 L 9.395,4.699 C 9.062,4.792 8.729,4.885 8.397,4.979 Z M 56.147,5.115 L 57.043,5.241 C 57.214,5.26 57.386,5.277 57.558,5.293 C 57.536,5.307 57.514,5.322 57.492,5.336 C 56.991,5.444 56.489,5.57 56.001,5.716 L 56.147,5.115 Z M 63.294,5.512 C 62.873,5.893 62.457,6.279 62.044,6.67 C 61.353,7.322 60.667,7.973 59.991,8.635 C 59.287,8.625 58.583,8.62 57.882,8.629 C 57.774,8.63 57.666,8.631 57.559,8.633 C 57.568,8.625 57.577,8.617 57.587,8.609 C 58.261,8.005 58.916,7.383 59.574,6.762 C 59.902,6.453 60.227,6.136 60.561,5.833 C 60.633,5.767 60.705,5.7 60.777,5.634 C 61.078,5.61 61.378,5.582 61.682,5.567 C 62.218,5.539 62.756,5.521 63.294,5.512 Z M 66.716,5.578 C 67.364,5.614 68.005,5.663 68.643,5.728 C 67.573,6.539 66.521,7.386 65.53,8.289 C 65.363,8.439 65.193,8.587 65.026,8.738 C 64.371,8.73 63.713,8.715 63.06,8.701 C 63.015,8.7 62.97,8.699 62.924,8.698 C 63.386,8.3 63.851,7.908 64.32,7.52 C 64.923,7.02 65.543,6.516 66.173,6.051 C 66.302,5.953 66.326,5.767 66.228,5.638 C 66.13,5.509 65.944,5.485 65.815,5.583 C 65.574,5.755 65.312,5.957 65.085,6.147 C 64.971,6.243 64.844,6.34 64.725,6.431 C 64.469,6.626 64.216,6.846 63.968,7.053 C 63.335,7.581 62.707,8.123 62.091,8.679 C 61.552,8.666 61.012,8.653 60.472,8.643 C 61.64,7.571 62.863,6.545 64.06,5.504 C 64.945,5.503 65.831,5.527 66.716,5.578 Z M 58.036,7.861 C 57.826,8.065 57.614,8.277 57.397,8.472 C 57.334,8.528 57.271,8.584 57.208,8.641 C 56.737,8.652 56.268,8.668 55.797,8.681 C 55.71,8.683 55.623,8.687 55.536,8.692 C 55.575,8.346 55.616,8.002 55.663,7.658 C 55.895,7.488 56.122,7.313 56.344,7.126 C 56.46,7.028 56.583,6.939 56.695,6.836 C 57.011,6.546 57.329,6.259 57.648,5.973 C 58.494,5.822 59.353,5.731 60.208,5.674 C 59.483,6.403 58.772,7.148 58.036,7.861 Z M 70.949,6.042 C 71.028,6.055 71.107,6.045 71.178,6.017 L 71.126,6.001 L 71.742,6.186 L 71.987,6.451 C 71.027,7.176 70.089,7.943 69.17,8.719 C 68.969,8.727 68.768,8.735 68.568,8.742 C 68.241,8.752 67.911,8.751 67.583,8.757 C 67.017,8.767 66.451,8.751 65.885,8.745 C 65.987,8.652 66.089,8.56 66.192,8.469 C 66.369,8.31 66.555,8.157 66.736,8.003 C 67.606,7.261 68.496,6.56 69.411,5.873 C 70.389,5.949 70.669,5.993 70.949,6.042 Z M 56.33,6.624 C 56.162,6.773 56.003,6.948 55.832,7.091 C 55.824,7.097 55.816,7.104 55.807,7.111 C 55.863,7.046 55.92,6.984 55.976,6.927 C 56.257,6.637 56.545,6.374 56.861,6.134 C 56.863,6.133 56.865,6.133 56.866,6.133 C 56.687,6.298 56.509,6.463 56.33,6.624 Z M 55.801,6.752 C 55.821,6.635 55.841,6.518 55.863,6.402 C 55.999,6.359 56.136,6.319 56.274,6.281 C 56.112,6.431 55.949,6.588 55.801,6.752 Z M 72.367,7.047 C 72.329,8.462 72.272,9.875 72.213,11.293 C 72.212,11.305 72.211,11.318 72.211,11.331 C 71.683,12.032 71.145,12.727 70.584,13.402 C 70.299,13.745 69.986,14.083 69.669,14.397 C 69.498,14.566 69.304,14.764 69.117,14.913 C 68.699,15.247 68.298,15.568 67.827,15.829 C 67.68,15.91 67.518,15.976 67.374,16.057 C 67.335,16.075 67.319,16.123 67.337,16.162 C 67.355,16.201 67.403,16.217 67.442,16.199 C 67.769,16.031 68.07,15.877 68.384,15.677 C 68.515,15.593 68.645,15.491 68.775,15.403 C 68.876,15.335 68.982,15.244 69.078,15.167 C 69.229,15.045 69.382,14.925 69.523,14.791 C 69.584,14.733 69.652,14.683 69.712,14.624 C 70.037,14.302 70.363,13.992 70.67,13.651 C 71.192,13.07 71.692,12.469 72.194,11.87 C 72.182,12.403 72.18,12.936 72.172,13.47 C 72.158,14.298 72.143,15.125 72.127,15.951 C 72.088,16.208 72.047,16.462 71.999,16.713 C 71.944,17.003 71.874,17.342 71.851,17.633 C 71.818,18.041 71.769,18.45 71.76,18.86 C 71.751,19.254 71.731,19.648 71.73,20.042 C 71.728,20.605 71.731,21.167 71.738,21.728 C 68.845,23.959 66.207,26.544 63.645,29.136 C 61.966,30.834 60.302,32.549 58.631,34.256 C 58.404,34.488 58.164,34.716 57.943,34.953 C 57.72,35.191 57.51,35.444 57.292,35.687 C 56.983,36.032 56.652,36.369 56.324,36.696 C 56.275,36.744 56.274,36.823 56.322,36.872 C 56.37,36.921 56.449,36.922 56.498,36.874 C 57.177,36.194 57.935,35.605 58.608,34.924 C 60.673,32.835 62.732,30.738 64.836,28.688 C 65.658,27.887 66.497,27.111 67.333,26.325 C 67.708,25.973 68.097,25.635 68.479,25.29 C 69.54,24.332 70.636,23.425 71.75,22.534 C 71.763,23.266 71.78,23.997 71.799,24.731 C 71.807,25.086 71.817,25.442 71.827,25.798 C 71.438,26.122 71.05,26.447 70.674,26.782 C 69.794,27.564 68.918,28.352 68.058,29.156 C 67.678,29.511 67.3,29.873 66.918,30.225 C 66.121,30.96 65.343,31.73 64.568,32.489 C 62.361,34.65 60.221,36.865 58.1,39.106 C 57.993,39.115 57.885,39.122 57.776,39.128 C 57.67,39.134 57.561,39.145 57.455,39.142 C 57.347,39.139 57.239,39.143 57.131,39.143 C 56.975,39.146 56.821,39.137 56.669,39.125 C 56.548,39.115 56.424,39.11 56.298,39.103 C 56.154,39.089 56.009,39.067 55.865,39.042 C 55.919,38.904 55.972,38.761 56.013,38.622 C 56.064,38.446 56.106,38.271 56.145,38.094 C 56.468,37.909 56.8,37.734 57.133,37.593 C 57.237,37.543 57.28,37.416 57.23,37.312 C 57.18,37.208 57.053,37.165 56.949,37.215 C 56.701,37.329 56.464,37.466 56.231,37.608 C 56.287,37.143 56.28,36.667 56.292,36.205 C 56.136,36.459 56.008,36.73 55.862,36.988 C 55.659,37.345 55.463,37.726 55.295,38.104 C 55.258,38.043 55.205,37.991 55.138,37.956 C 55.078,37.924 55.014,37.908 54.951,37.906 C 54.943,37.426 54.941,36.946 54.94,36.467 C 54.973,36.088 55.003,35.709 55.03,35.33 C 55.045,35.321 55.06,35.313 55.076,35.305 C 55.404,35.122 55.74,34.936 56.06,34.739 C 56.285,34.6 56.507,34.453 56.731,34.312 C 56.845,34.235 56.876,34.078 56.799,33.964 C 56.722,33.85 56.565,33.819 56.451,33.896 C 56.315,33.989 56.183,34.088 56.049,34.185 C 57.269,32.847 58.479,31.501 59.694,30.157 C 61.169,28.525 62.636,26.878 64.164,25.295 C 64.789,24.648 65.418,23.987 66.067,23.364 C 66.524,22.926 66.981,22.488 67.438,22.05 C 68.634,20.901 69.899,19.774 71.201,18.746 C 71.321,18.647 71.339,18.467 71.24,18.347 C 71.141,18.227 70.961,18.209 70.841,18.308 C 69.923,19.041 69.038,19.813 68.172,20.608 C 67.623,21.112 67.076,21.617 66.55,22.146 C 65.552,23.149 64.577,24.18 63.626,25.227 C 62.833,26.1 62.058,26.988 61.277,27.871 C 59.878,29.452 58.512,31.066 57.098,32.633 C 56.473,33.326 55.845,34.016 55.214,34.704 C 55.199,34.719 55.19,34.737 55.184,34.756 C 55.144,34.781 55.104,34.806 55.064,34.831 C 55.115,34.018 55.153,33.204 55.181,32.389 C 55.514,32.234 55.85,32.087 56.192,31.946 C 56.595,31.779 57.013,31.609 57.427,31.474 C 57.548,31.427 57.608,31.289 57.561,31.168 C 57.514,31.047 57.376,30.987 57.255,31.034 C 56.961,31.16 56.661,31.277 56.371,31.412 C 56.006,31.583 55.646,31.754 55.284,31.933 C 55.259,31.944 55.235,31.956 55.211,31.968 C 55.259,31.398 55.302,30.827 55.342,30.256 C 55.472,30.112 55.603,29.97 55.736,29.831 C 55.772,29.792 55.809,29.753 55.846,29.715 C 56.061,29.603 56.276,29.49 56.49,29.375 C 56.864,29.173 57.238,28.972 57.612,28.769 C 57.73,28.703 57.772,28.551 57.706,28.433 C 57.64,28.315 57.488,28.273 57.37,28.339 C 57.211,28.429 57.054,28.521 56.898,28.614 C 57.182,28.307 57.458,27.991 57.741,27.683 C 58.514,26.842 59.297,25.996 60.1,25.183 C 60.632,24.645 61.158,24.101 61.696,23.569 C 62.046,23.223 62.4,22.882 62.751,22.537 C 63.792,21.512 64.875,20.525 65.953,19.54 C 67.077,18.513 68.233,17.529 69.383,16.533 C 69.948,16.044 70.532,15.556 71.114,15.088 C 71.406,14.853 71.692,14.606 71.988,14.377 C 72.111,14.277 72.13,14.094 72.03,13.971 C 71.93,13.848 71.747,13.829 71.624,13.929 C 69.145,15.916 66.765,18.028 64.469,20.224 C 63.562,21.091 62.681,21.977 61.791,22.86 C 61.147,23.499 60.511,24.16 59.887,24.819 C 58.976,25.782 58.063,26.743 57.173,27.727 C 56.971,27.951 56.766,28.174 56.566,28.4 C 56.342,28.653 56.129,28.924 55.915,29.188 C 55.741,29.286 55.567,29.383 55.394,29.479 C 55.442,28.726 55.485,27.971 55.524,27.214 C 55.951,27.022 56.387,26.844 56.835,26.686 C 56.963,26.635 57.024,26.488 56.973,26.36 C 56.922,26.232 56.775,26.171 56.647,26.222 C 56.446,26.307 56.25,26.395 56.055,26.486 C 56.252,26.269 56.45,26.054 56.644,25.835 C 56.958,25.479 57.274,25.123 57.585,24.765 C 59.133,22.986 60.649,21.177 62.206,19.405 C 62.812,18.715 63.43,18.038 64.043,17.354 C 64.228,17.147 64.419,16.945 64.609,16.743 C 65.152,16.166 65.676,15.571 66.227,15 C 67.245,13.946 68.316,12.896 69.431,11.944 C 70.107,11.367 70.778,10.802 71.495,10.274 C 71.61,10.186 71.632,10.02 71.544,9.905 C 71.456,9.79 71.29,9.768 71.175,9.856 C 69.542,11.075 68.023,12.447 66.595,13.899 C 65.833,14.673 65.076,15.458 64.355,16.27 C 63.703,17.004 63.082,17.765 62.451,18.517 C 61.604,19.525 60.775,20.555 59.948,21.579 C 58.824,22.97 57.674,24.358 56.494,25.703 C 56.197,26.041 55.892,26.371 55.595,26.708 C 55.579,26.715 55.563,26.723 55.548,26.731 C 55.548,26.72 55.549,26.709 55.55,26.698 C 55.593,25.8 55.623,24.901 55.647,24.002 C 55.834,23.936 56.021,23.871 56.209,23.809 C 56.322,23.772 56.383,23.649 56.346,23.536 C 56.309,23.423 56.186,23.362 56.073,23.399 C 55.933,23.439 55.796,23.482 55.659,23.528 C 55.661,23.429 55.664,23.329 55.666,23.23 C 55.859,22.99 56.054,22.751 56.249,22.514 C 58.124,20.228 60.061,18.026 62.129,15.912 C 62.859,15.166 63.605,14.437 64.353,13.71 C 64.717,13.356 65.095,13.016 65.464,12.667 C 66.092,12.073 66.75,11.502 67.399,10.931 C 68.098,10.315 68.813,9.707 69.532,9.108 C 69.57,9.107 69.609,9.106 69.648,9.105 C 69.758,9.102 69.845,9.007 69.842,8.897 C 69.841,8.882 69.839,8.869 69.836,8.855 C 70.038,8.688 70.24,8.521 70.443,8.356 C 71.053,7.854 71.677,7.368 72.298,6.879 C 72.323,6.934 72.346,6.99 72.367,7.047 Z M 52.752,8.012 C 52.925,8.139 53.092,8.283 53.261,8.416 C 53.384,8.513 53.5,8.628 53.617,8.732 C 53.65,8.762 53.685,8.793 53.72,8.825 C 53.536,8.843 53.351,8.863 53.167,8.883 C 52.899,8.593 52.63,8.303 52.365,8.011 C 52.158,7.783 51.957,7.553 51.756,7.322 C 52.092,7.541 52.422,7.769 52.752,8.012 Z M 41.459,7.969 L 41.406,7.986 C 40.914,8.753 40.426,9.539 39.961,10.323 C 39.691,10.779 39.44,11.248 39.169,11.702 C 38.683,12.516 38.184,13.302 37.651,14.086 C 37.371,14.498 37.088,14.923 36.786,15.319 C 36.619,15.538 36.457,15.763 36.289,15.982 C 36.092,16.239 35.876,16.498 35.67,16.749 C 35.115,17.425 34.492,18.084 33.869,18.699 C 32.97,19.585 32.016,20.335 31.002,21.081 C 30.935,21.13 30.919,21.226 30.968,21.293 C 31.017,21.36 31.113,21.376 31.18,21.327 C 31.45,21.124 31.729,20.915 32.004,20.719 C 32.281,20.521 32.555,20.287 32.819,20.071 C 33.278,19.695 33.741,19.29 34.168,18.877 C 36.067,17.042 37.711,15.022 39.089,12.766 C 39.557,11.999 40.032,11.234 40.431,10.428 C 40.67,9.944 40.897,9.454 41.101,8.954 C 41.227,8.644 41.348,8.331 41.476,8.022 L 41.459,7.969 Z M 51.297,8.461 C 51.05,8.625 50.807,8.78 50.55,8.93 C 49.87,9.327 49.196,9.669 48.567,10.153 C 48.512,10.193 48.5,10.273 48.54,10.328 C 48.58,10.383 48.66,10.395 48.715,10.355 C 49.269,9.922 49.868,9.634 50.478,9.298 C 50.675,9.189 50.874,9.079 51.072,8.973 C 51.356,8.822 51.623,8.621 51.885,8.435 C 51.957,8.384 51.973,8.282 51.922,8.21 C 51.871,8.138 51.769,8.122 51.697,8.173 C 51.563,8.267 51.432,8.371 51.297,8.461 Z M 58.525,8.873 C 58.923,8.879 59.324,8.886 59.723,8.898 C 59.353,9.265 58.987,9.635 58.625,10.012 C 57.732,10.937 56.89,11.88 56.078,12.869 C 55.959,12.593 55.826,12.325 55.683,12.063 C 55.678,11.985 55.673,11.906 55.668,11.827 C 55.659,11.688 55.648,11.55 55.636,11.412 C 55.923,11.364 56.131,11.104 56.112,10.809 C 56.103,10.526 56.037,10.245 55.93,9.97 C 56.068,9.867 56.204,9.762 56.34,9.655 C 56.448,9.569 56.566,9.485 56.669,9.396 C 56.875,9.217 57.085,9.042 57.293,8.865 C 57.702,8.863 58.112,8.866 58.525,8.873 Z M 55.854,9.792 C 55.754,9.575 55.629,9.363 55.488,9.158 C 55.496,9.073 55.505,8.988 55.514,8.904 C 55.993,8.884 56.472,8.872 56.954,8.867 C 56.596,9.185 56.232,9.501 55.854,9.792 Z M 60.37,8.925 C 60.829,8.947 61.289,8.969 61.75,8.99 C 61.378,9.331 61.011,9.678 60.652,10.031 C 59.744,10.92 58.869,11.813 58,12.74 C 57.735,13.023 57.479,13.311 57.223,13.602 C 57.083,13.761 56.94,13.918 56.809,14.085 C 56.718,14.2 56.627,14.316 56.538,14.432 C 56.497,14.166 56.431,13.897 56.364,13.679 C 56.327,13.561 56.292,13.445 56.254,13.331 C 56.36,13.279 56.466,13.226 56.572,13.174 C 57.069,12.925 57.561,12.664 58.016,12.343 C 58.092,12.302 58.121,12.205 58.08,12.129 C 58.039,12.053 57.942,12.024 57.866,12.065 C 57.373,12.253 56.969,12.497 56.506,12.736 C 56.469,12.755 56.432,12.774 56.395,12.793 C 56.544,12.619 56.695,12.447 56.847,12.277 C 57.197,11.884 57.55,11.491 57.919,11.115 C 58.659,10.36 59.404,9.635 60.177,8.915 C 60.242,8.918 60.306,8.921 60.37,8.925 Z M 63.855,9.078 C 64.111,9.088 64.368,9.101 64.625,9.113 C 64.021,9.703 63.416,10.288 62.833,10.9 C 61.061,12.758 59.394,14.666 57.766,16.65 C 57.074,17.493 56.399,18.347 55.729,19.206 C 55.73,19.115 55.731,19.024 55.733,18.934 C 55.735,18.651 55.738,18.368 55.738,18.084 C 55.847,18.042 55.956,18.001 56.066,17.962 C 56.18,17.921 56.24,17.793 56.199,17.679 C 56.158,17.565 56.03,17.505 55.916,17.546 C 55.857,17.564 55.797,17.583 55.738,17.603 C 55.738,17.567 55.738,17.531 55.738,17.495 C 55.748,17.217 55.756,16.939 55.764,16.661 C 55.77,16.421 55.776,16.182 55.78,15.943 C 55.848,15.863 55.916,15.784 55.983,15.706 C 56.007,15.777 56.034,15.851 56.062,15.913 C 56.058,15.964 56.096,16.01 56.147,16.014 C 56.198,16.018 56.244,15.98 56.248,15.929 C 56.38,15.668 56.521,15.455 56.564,15.164 C 56.629,15.133 56.695,15.102 56.761,15.072 C 57.01,14.955 57.266,14.847 57.517,14.734 C 57.623,14.687 57.732,14.648 57.833,14.59 C 57.996,14.497 58.14,14.383 58.287,14.267 C 58.349,14.242 58.379,14.17 58.354,14.108 C 58.329,14.046 58.257,14.016 58.195,14.041 C 58.013,14.061 57.838,14.081 57.66,14.126 C 57.541,14.155 57.418,14.207 57.302,14.259 C 57.304,14.256 57.307,14.253 57.31,14.251 C 57.816,13.702 58.294,13.125 58.819,12.592 C 59.58,11.82 60.329,11.057 61.122,10.315 C 61.59,9.876 62.067,9.447 62.549,9.024 C 62.984,9.043 63.42,9.06 63.855,9.078 Z M 54.405,9.569 C 54.388,9.785 54.372,10 54.36,10.215 C 54.114,9.926 53.864,9.641 53.607,9.361 C 53.514,9.26 53.422,9.16 53.33,9.059 C 53.522,9.04 53.715,9.022 53.907,9.006 C 54.08,9.179 54.253,9.372 54.405,9.569 Z M 67.055,10.608 C 66.284,11.313 65.532,12.039 64.786,12.771 C 64.413,13.137 64.039,13.505 63.676,13.881 C 63.006,14.576 62.321,15.262 61.671,15.976 C 61.037,16.672 60.396,17.359 59.772,18.064 C 58.37,19.644 56.991,21.276 55.673,22.939 C 55.684,22.407 55.694,21.874 55.705,21.343 C 55.707,21.22 55.709,21.097 55.711,20.974 C 56.033,20.815 56.358,20.66 56.689,20.514 C 56.804,20.46 56.855,20.321 56.801,20.206 C 56.747,20.091 56.608,20.04 56.493,20.094 C 56.233,20.215 55.975,20.337 55.717,20.461 C 55.72,20.157 55.723,19.853 55.726,19.547 C 56.185,18.968 56.651,18.395 57.124,17.834 C 58.052,16.73 58.973,15.628 59.953,14.569 C 61.513,12.883 63.102,11.242 64.815,9.71 C 65.024,9.522 65.234,9.333 65.443,9.144 C 65.468,9.145 65.493,9.145 65.519,9.146 C 66.162,9.156 66.809,9.167 67.452,9.162 C 67.862,9.158 68.271,9.148 68.68,9.135 C 68.129,9.612 67.592,10.117 67.055,10.608 Z M 27.085,10.307 C 27.001,10.489 26.848,10.692 26.729,10.855 C 26.565,11.079 26.343,11.264 26.127,11.434 C 25.864,11.64 25.591,11.753 25.294,11.855 C 24.981,11.84 24.669,11.828 24.357,11.818 C 24.478,11.756 24.601,11.696 24.718,11.628 C 25.078,11.417 25.433,11.205 25.781,10.974 C 26.29,10.635 26.785,10.267 27.274,9.891 C 27.215,10.034 27.143,10.178 27.085,10.307 Z M 52.595,10.077 C 52.31,10.209 52.017,10.382 51.746,10.541 C 50.983,10.989 50.278,11.52 49.538,12.002 C 49.169,12.242 48.802,12.469 48.428,12.7 C 48.371,12.734 48.353,12.81 48.387,12.867 C 48.421,12.924 48.497,12.942 48.554,12.908 C 48.75,12.786 48.949,12.67 49.146,12.55 C 49.77,12.17 50.378,11.753 50.996,11.362 C 51.405,11.103 51.834,10.856 52.267,10.64 C 52.516,10.516 52.803,10.365 53.067,10.278 C 53.163,10.237 53.206,10.124 53.165,10.028 C 53.124,9.932 53.011,9.889 52.915,9.93 C 52.81,9.981 52.701,10.028 52.595,10.077 Z M 27.856,10.789 C 27.838,10.852 27.821,10.917 27.803,10.982 C 27.749,11.024 27.696,11.066 27.644,11.109 C 27.626,11.123 27.609,11.137 27.591,11.151 C 27.703,10.983 27.805,10.813 27.896,10.632 C 27.883,10.684 27.87,10.736 27.856,10.789 Z M 27.384,11.997 C 27.317,11.991 27.25,11.985 27.184,11.979 C 27.297,11.894 27.411,11.809 27.525,11.725 C 27.48,11.818 27.433,11.909 27.384,11.997 Z M 25.596,12.752 C 25.323,12.972 25.049,13.192 24.777,13.413 C 24.398,13.718 24.028,14.031 23.647,14.334 C 23.581,14.385 23.57,14.482 23.621,14.548 C 23.672,14.614 23.769,14.625 23.835,14.574 C 24.156,14.307 24.506,14.059 24.838,13.806 C 25.247,13.494 25.644,13.16 26.05,12.843 C 26.228,12.92 26.403,13.004 26.578,13.1 C 26.428,13.294 26.452,13.575 26.638,13.741 C 26.832,13.914 27.131,13.897 27.304,13.703 C 27.323,13.678 27.343,13.653 27.364,13.629 C 27.39,13.652 27.417,13.676 27.444,13.699 C 26.326,14.452 25.215,15.216 24.111,15.989 C 24.048,16.033 24.032,16.121 24.076,16.184 C 24.12,16.247 24.208,16.263 24.271,16.219 C 25.279,15.511 26.304,14.817 27.335,14.144 C 27.364,14.124 27.394,14.105 27.424,14.085 C 27.453,14.19 27.513,14.286 27.604,14.36 C 27.843,14.551 28.036,14.714 28.239,14.945 C 28.369,15.093 28.488,15.254 28.596,15.424 C 28.62,15.495 28.641,15.566 28.662,15.638 C 27.963,16.05 27.269,16.473 26.577,16.89 C 25.622,17.464 24.664,18.022 23.701,18.583 C 23.662,18.605 23.648,18.655 23.67,18.694 C 23.692,18.733 23.742,18.747 23.781,18.725 C 24.561,18.272 25.347,17.823 26.132,17.379 C 26.594,17.118 27.051,16.847 27.515,16.589 C 27.921,16.363 28.326,16.14 28.732,15.921 C 28.802,16.252 28.837,16.596 28.844,16.948 C 28.85,17.326 28.809,17.685 28.77,18.06 C 28.76,18.154 28.746,18.249 28.729,18.344 C 28.031,18.765 27.338,19.194 26.647,19.622 C 26.263,19.86 25.868,20.082 25.482,20.317 C 25.27,20.446 25.068,20.61 24.861,20.751 C 24.484,21.006 24.115,21.239 23.719,21.463 C 23.697,21.475 23.688,21.504 23.7,21.526 C 23.712,21.548 23.741,21.557 23.763,21.545 C 24.139,21.336 24.525,21.147 24.914,20.963 C 24.961,20.94 25.009,20.918 25.057,20.896 L 25.057,20.898 C 24.971,21.082 25.051,21.302 25.235,21.388 C 25.39,21.452 25.554,21.53 25.716,21.618 C 25.333,21.621 24.948,21.627 24.561,21.633 C 22.277,21.665 19.987,21.858 17.722,22.142 C 16.63,22.279 15.532,22.413 14.444,22.58 C 13.015,22.8 11.587,23.013 10.159,23.245 C 9.125,23.412 8.092,23.584 7.06,23.756 C 6.634,23.816 6.208,23.876 5.782,23.937 C 5.804,23.888 5.809,23.83 5.789,23.776 C 5.749,23.667 5.627,23.611 5.518,23.651 C 5.369,23.703 5.235,23.756 5.106,23.812 C 4.895,23.646 4.693,23.47 4.507,23.269 C 4.345,23.094 4.201,22.91 4.053,22.723 C 3.709,22.289 3.425,21.898 3.159,21.41 C 2.988,21.097 2.838,20.749 2.721,20.383 C 2.77,20.102 2.849,19.827 2.909,19.55 C 3.06,18.845 3.291,18.185 3.587,17.528 C 3.68,17.322 3.792,17.089 3.908,16.896 C 4.225,16.371 4.551,15.869 4.968,15.435 C 5.038,15.41 5.105,15.388 5.17,15.369 C 5.452,15.271 5.601,14.96 5.503,14.678 C 5.496,14.658 5.488,14.64 5.48,14.622 C 6.176,14.445 6.876,14.288 7.587,14.168 C 8.461,14.02 9.336,13.899 10.211,13.757 C 11.519,13.545 12.829,13.37 14.148,13.242 C 14.833,13.175 15.53,13.103 16.216,13.066 C 16.943,13.027 17.668,12.982 18.395,12.947 C 20.506,12.845 22.645,12.853 24.753,13.01 C 24.923,13.021 25.08,12.937 25.168,12.803 C 25.234,12.814 25.303,12.81 25.371,12.791 C 25.414,12.775 25.459,12.763 25.504,12.75 C 25.534,12.75 25.565,12.751 25.596,12.752 Z M 28.77,12.83 C 28.571,12.958 28.372,13.087 28.173,13.216 C 28.084,13.134 27.993,13.054 27.898,12.978 C 27.936,12.924 27.976,12.87 28.015,12.816 C 28.266,12.821 28.519,12.826 28.77,12.83 Z M 9.443,13.104 C 8.901,13.207 8.345,13.347 7.808,13.479 C 7.517,13.55 7.228,13.622 6.939,13.696 C 6.904,13.589 6.821,13.498 6.708,13.458 C 6.563,13.413 6.409,13.347 6.258,13.273 C 7.809,13.095 9.373,12.957 10.936,12.857 C 10.438,12.931 9.937,13.009 9.443,13.104 Z M 5.795,13.929 C 5.825,13.943 5.857,13.957 5.889,13.97 C 5.471,14.081 5.053,14.195 4.635,14.312 C 4.548,14.336 4.483,14.402 4.457,14.482 C 4.371,14.516 4.288,14.552 4.207,14.588 C 4.498,14.229 4.814,13.888 5.149,13.568 C 5.358,13.706 5.583,13.828 5.795,13.929 Z M 3.532,16.51 C 3.331,16.818 3.124,17.124 2.952,17.45 C 2.835,17.672 2.71,17.895 2.605,18.123 C 2.557,18.225 2.512,18.327 2.467,18.429 C 2.499,18.033 2.59,17.65 2.753,17.3 C 2.81,17.178 2.884,17.056 2.955,16.941 C 3.21,16.532 3.5,16.274 3.88,15.989 C 3.895,15.977 3.911,15.965 3.928,15.953 C 3.782,16.142 3.648,16.331 3.532,16.51 Z M 54.192,18.275 C 54.185,18.277 54.18,18.28 54.175,18.283 C 54.105,18.318 54.035,18.354 53.967,18.39 C 54.029,18.289 54.094,18.189 54.159,18.088 C 54.163,18.688 54.169,19.288 54.192,18.275 Z M 72.835,21.058 C 72.824,21.055 72.813,21.052 72.802,21.05 C 72.801,20.093 72.8,19.135 72.803,18.177 C 72.804,18.166 72.805,18.154 72.807,18.131 C 72.809,19.107 72.821,20.083 72.835,21.058 Z M 28.551,19.17 C 28.489,19.458 28.405,19.797 28.31,20.075 C 28.263,20.212 28.219,20.35 28.174,20.488 C 27.695,20.778 27.222,21.078 26.751,21.381 C 26.635,21.3 26.517,21.222 26.397,21.15 C 26.28,21.079 26.151,21.016 26.031,20.949 C 25.881,20.865 25.704,20.794 25.547,20.72 C 25.526,20.71 25.505,20.702 25.485,20.697 C 25.505,20.686 25.526,20.675 25.548,20.665 C 25.757,20.557 25.964,20.422 26.168,20.303 C 26.595,20.055 27.016,19.798 27.441,19.546 C 27.834,19.312 28.227,19.081 28.622,18.852 C 28.598,18.958 28.573,19.064 28.551,19.17 Z M 27.815,21.477 C 27.795,21.53 27.776,21.583 27.755,21.636 C 27.55,21.629 27.345,21.624 27.14,21.621 C 27.164,21.606 27.188,21.591 27.213,21.577 C 27.456,21.428 27.699,21.281 27.943,21.134 C 27.899,21.249 27.855,21.362 27.815,21.477 Z M 72.931,27.289 C 72.938,28.221 72.946,29.153 72.95,30.083 C 72.93,28.952 72.896,27.817 72.863,26.683 C 72.854,26.41 72.846,26.138 72.825,25.519 C 72.896,25.469 72.873,25.419 72.838,25.377 C 72.832,25.37 72.826,25.363 72.819,25.356 C 72.814,25.169 72.807,24.982 72.802,24.795 C 72.802,24.05 72.803,23.307 72.804,22.565 C 72.804,22.276 72.803,21.988 72.803,21.7 C 72.817,21.689 72.831,21.678 72.845,21.667 C 72.875,23.543 72.915,25.416 72.931,27.289 Z M 26.841,22.476 C 26.931,22.569 27.018,22.666 27.1,22.769 C 27.089,22.773 27.078,22.778 27.068,22.783 C 26.972,22.823 26.865,22.851 26.767,22.887 C 26.563,22.955 26.453,23.177 26.521,23.381 C 26.572,23.536 26.714,23.637 26.869,23.646 C 26.916,23.736 26.989,23.814 27.085,23.867 C 27.185,23.926 27.302,23.973 27.398,24.036 C 27.466,24.08 27.545,24.136 27.622,24.195 C 27.221,24.471 26.818,24.745 26.413,25.016 C 25.701,25.49 24.977,25.915 24.226,26.323 C 24.005,26.443 23.771,26.549 23.546,26.662 C 23.496,26.686 23.475,26.749 23.499,26.799 C 23.523,26.849 23.586,26.87 23.636,26.846 C 23.847,26.738 24.064,26.641 24.274,26.533 C 24.472,26.431 24.666,26.318 24.864,26.216 C 25.052,26.119 25.235,26.002 25.42,25.899 C 25.906,25.628 26.389,25.319 26.858,25.019 C 27.184,24.809 27.51,24.597 27.837,24.383 C 27.84,24.387 27.844,24.391 27.848,24.395 C 27.879,24.428 27.909,24.462 27.939,24.496 C 27.964,24.588 27.996,24.678 28.018,24.771 C 28.111,25.183 28.171,25.573 28.189,25.995 C 28.194,26.12 28.196,26.248 28.194,26.376 C 27.891,26.571 27.59,26.768 27.292,26.964 C 26.216,27.67 25.137,28.372 24.054,29.067 C 23.548,29.391 23.029,29.699 22.517,30.014 C 22.495,30.027 22.488,30.056 22.501,30.078 C 22.514,30.1 22.543,30.107 22.565,30.094 C 23.02,29.813 23.48,29.54 23.937,29.262 C 24.67,28.817 25.39,28.346 26.121,27.898 C 26.81,27.475 27.496,27.055 28.187,26.641 C 28.162,27.18 28.083,27.735 27.961,28.278 C 27.441,28.651 26.929,29.038 26.409,29.405 C 26.09,29.63 25.761,29.831 25.439,30.049 C 25.316,30.132 25.186,30.202 25.057,30.275 C 24.343,30.68 23.62,30.998 22.842,31.258 C 23.171,31.148 23.501,31.087 23.828,30.949 C 24.133,30.82 24.436,30.691 24.738,30.552 C 24.925,30.466 25.106,30.366 25.293,30.28 C 25.448,30.209 25.598,30.116 25.749,30.037 C 26.07,29.869 26.405,29.687 26.712,29.497 C 27.079,29.269 27.452,29.044 27.823,28.82 C 27.697,29.269 27.542,29.702 27.366,30.104 C 27.268,30.328 27.166,30.548 27.064,30.77 C 26.984,30.941 26.892,31.119 26.794,31.296 C 26.672,31.375 26.551,31.454 26.429,31.533 C 26.304,31.439 26.171,31.348 26.032,31.26 C 25.87,31.155 25.652,31.201 25.547,31.363 C 25.442,31.525 25.488,31.743 25.65,31.848 C 25.7,31.876 25.752,31.908 25.806,31.943 C 25.25,32.311 24.697,32.682 24.145,33.054 C 24.073,33.101 24.002,33.149 23.932,33.195 C 23.428,33.241 22.926,33.284 22.424,33.328 C 21.081,33.444 19.739,33.573 18.396,33.686 C 18.084,33.712 17.772,33.736 17.479,33.758 C 15.325,33.808 13.195,33.873 11.062,33.984 C 10.111,34.033 9.163,34.112 8.213,34.176 C 7.871,34.199 7.524,34.234 7.183,34.267 C 6.828,34.301 6.475,34.337 6.123,34.375 C 5.963,34.349 5.821,34.315 5.656,34.272 C 5.618,34.262 5.577,34.259 5.539,34.25 C 5.307,34.196 5.066,34.107 4.84,34.005 C 4.867,33.969 4.894,33.934 4.922,33.9 C 5,33.802 5.089,33.714 5.171,33.62 C 5.26,33.521 5.253,33.366 5.154,33.277 C 5.055,33.188 4.9,33.195 4.811,33.294 C 4.704,33.389 4.595,33.535 4.503,33.647 C 4.467,33.69 4.433,33.733 4.399,33.776 C 4.063,33.571 3.686,33.267 3.457,32.997 C 3.319,32.834 3.176,32.683 3.054,32.505 C 2.986,32.406 2.921,32.304 2.859,32.201 C 2.76,31.948 2.676,31.666 2.625,31.425 C 2.595,31.285 2.574,31.139 2.541,31.002 C 2.265,29.837 2.371,28.384 2.743,27.252 C 2.92,26.71 3.181,26.151 3.561,25.69 C 3.619,25.616 3.686,25.536 3.756,25.459 C 3.827,25.495 3.9,25.529 3.981,25.563 C 4.119,25.619 4.264,25.654 4.405,25.699 C 4.59,25.774 4.802,25.684 4.877,25.499 C 4.952,25.314 4.862,25.102 4.677,25.027 C 4.543,24.958 4.423,24.885 4.307,24.808 C 4.392,24.736 4.478,24.668 4.567,24.604 C 4.628,24.596 4.689,24.587 4.75,24.579 C 4.856,24.647 4.962,24.714 5.065,24.788 C 5.249,24.912 5.502,24.863 5.626,24.679 C 5.673,24.609 5.695,24.529 5.694,24.45 C 6.333,24.365 6.973,24.284 7.614,24.205 C 11.144,23.765 14.737,23.494 18.291,23.361 C 19.283,23.324 20.276,23.265 21.268,23.225 C 22.18,23.187 23.093,23.161 24.006,23.141 C 23.913,23.198 23.82,23.256 23.727,23.313 C 23.605,23.388 23.489,23.472 23.369,23.549 C 23.169,23.676 22.967,23.802 22.764,23.924 C 22.693,23.966 22.669,24.06 22.711,24.131 C 22.753,24.202 22.847,24.226 22.918,24.184 C 23.334,23.925 23.775,23.71 24.189,23.447 C 24.357,23.339 24.525,23.233 24.694,23.127 C 24.979,23.122 25.263,23.117 25.548,23.113 C 25.789,23.11 25.981,22.91 25.978,22.669 C 25.977,22.598 25.959,22.531 25.928,22.473 C 26.231,22.47 26.536,22.472 26.841,22.476 Z M 3.346,23.395 C 3.558,23.623 3.776,23.806 4.009,24.01 C 4.067,24.06 4.128,24.114 4.191,24.167 C 4.046,24.188 3.901,24.209 3.756,24.231 C 3.737,24.233 3.72,24.238 3.704,24.244 C 3.655,24.238 3.606,24.239 3.558,24.246 C 3.486,24.176 3.419,24.103 3.364,24.028 C 3.239,23.859 3.1,23.664 3.012,23.473 C 2.874,23.174 2.779,22.881 2.716,22.588 C 2.908,22.875 3.123,23.155 3.346,23.395 Z M 71.891,27.842 C 71.909,28.367 71.906,28.897 71.929,29.421 C 71.941,29.724 71.949,30.031 71.953,30.338 C 71.937,30.348 71.921,30.359 71.907,30.372 C 71.44,30.749 70.996,31.153 70.541,31.544 C 69.637,32.321 68.745,33.13 67.866,33.935 C 67.02,34.71 66.187,35.488 65.36,36.283 C 65.146,36.489 64.943,36.716 64.74,36.933 C 64.348,37.351 63.96,37.777 63.583,38.208 C 63.578,38.213 63.573,38.219 63.568,38.224 C 63.181,38.268 62.795,38.319 62.408,38.378 C 62.095,38.425 61.768,38.503 61.457,38.566 C 60.981,38.662 60.506,38.752 60.029,38.843 C 59.491,38.945 58.953,39.022 58.408,39.079 C 59.467,37.971 60.54,36.878 61.634,35.802 C 62.309,35.137 62.986,34.465 63.679,33.819 C 64.722,32.847 65.764,31.881 66.824,30.926 C 68.229,29.66 69.68,28.424 71.14,27.222 C 71.379,27.025 71.615,26.825 71.851,26.625 C 71.864,27.031 71.877,27.436 71.891,27.842 Z M 71.959,31.619 C 71.96,32.337 71.965,33.065 71.939,33.783 C 71.933,33.787 71.928,33.791 71.923,33.796 C 69.878,35.535 67.802,37.253 65.826,39.073 C 65.415,39.096 65.004,39.114 64.595,39.134 C 64.146,39.154 63.695,39.171 63.243,39.183 C 63.412,39.006 63.582,38.831 63.758,38.661 C 63.931,38.641 64.111,38.631 64.286,38.617 C 64.412,38.606 64.506,38.494 64.495,38.368 C 64.484,38.242 64.372,38.148 64.247,38.158 C 64.758,37.652 65.299,37.178 65.81,36.675 C 66.523,35.972 67.266,35.285 68.015,34.62 C 68.906,33.829 69.807,33.049 70.712,32.273 C 71.125,31.918 71.547,31.564 71.958,31.202 C 71.958,31.341 71.958,31.48 71.959,31.619 Z M 26.219,32.255 C 26.127,32.496 26.213,32.777 26.438,32.923 C 26.455,32.934 26.473,32.944 26.491,32.953 C 26.455,32.992 26.418,33.029 26.381,33.065 C 26.299,33.016 26.201,32.992 26.1,33.001 C 25.635,33.033 25.166,33.08 24.701,33.124 C 25.024,32.916 25.346,32.707 25.668,32.497 C 25.824,32.394 25.981,32.29 26.138,32.187 C 26.165,32.209 26.192,32.232 26.219,32.255 Z M 27.386,34.023 C 27.291,34.081 27.196,34.14 27.102,34.199 C 27.084,34.182 27.067,34.166 27.049,34.15 C 27.155,34.146 27.239,34.056 27.238,33.95 C 27.236,33.842 27.145,33.755 27.037,33.757 C 26.962,33.751 26.888,33.746 26.813,33.741 C 26.922,33.643 27.029,33.539 27.132,33.432 C 27.231,33.624 27.315,33.821 27.386,34.023 Z M 72.907,34.987 L 72.885,35.082 L 72.858,35.2 L 72.9,34.536 L 72.922,34.199 C 72.918,34.462 72.912,34.724 72.907,34.987 Z M 27.574,34.69 C 27.48,34.58 27.379,34.474 27.271,34.365 C 27.299,34.35 27.326,34.335 27.354,34.32 C 27.39,34.299 27.427,34.279 27.463,34.259 C 27.505,34.401 27.542,34.545 27.574,34.69 Z M 25.39,34.324 C 25.511,34.467 25.723,34.508 25.889,34.41 C 25.902,34.553 25.969,34.691 26.089,34.79 C 26.099,34.797 26.109,34.804 26.119,34.812 C 24.613,35.754 23.113,36.707 21.623,37.676 L 21.659,37.732 C 23.154,36.749 24.705,35.816 26.268,34.928 C 26.546,35.157 26.805,35.439 26.997,35.734 C 27.099,35.892 27.181,36.066 27.247,36.252 C 27.012,36.392 26.777,36.532 26.542,36.671 C 25.865,37.067 25.176,37.46 24.475,37.813 C 24.147,37.978 23.812,38.121 23.483,38.28 C 23.289,38.374 23.086,38.478 22.888,38.561 C 22.708,38.636 22.522,38.7 22.344,38.776 C 22.274,38.801 22.238,38.881 22.263,38.951 C 22.288,39.021 22.368,39.057 22.438,39.032 C 22.804,38.886 23.189,38.776 23.555,38.631 C 23.872,38.505 24.19,38.339 24.499,38.193 C 25.161,37.881 25.799,37.505 26.442,37.157 C 26.751,36.989 27.055,36.814 27.36,36.639 C 27.466,37.085 27.508,37.566 27.538,38.014 C 27.48,38.302 27.407,38.59 27.324,38.869 C 27.27,39.047 27.213,39.228 27.151,39.408 C 26.862,39.586 26.564,39.753 26.276,39.931 C 25.971,40.119 25.647,40.291 25.334,40.467 C 24.691,40.83 24.042,41.181 23.399,41.544 C 22.936,41.806 22.448,42.065 22.001,42.353 C 21.918,42.402 21.891,42.511 21.94,42.594 C 21.989,42.677 22.098,42.704 22.181,42.655 C 22.665,42.35 23.174,42.075 23.677,41.802 C 24.566,41.32 25.466,40.859 26.354,40.378 C 26.534,40.28 26.717,40.181 26.9,40.08 C 26.74,40.469 26.559,40.838 26.351,41.205 C 26.243,41.395 26.113,41.569 25.999,41.754 C 25.942,41.836 25.913,41.929 25.907,42.022 C 25.784,42.093 25.634,42.162 25.516,42.218 C 24.988,42.464 24.456,42.633 23.889,42.735 C 22.609,43.083 21.315,43.112 19.978,43.256 C 19.587,43.298 19.165,43.371 18.778,43.445 C 18.418,43.514 18.063,43.57 17.706,43.657 C 17.566,43.691 17.431,43.738 17.294,43.785 C 17.121,43.72 16.947,43.654 16.773,43.586 C 16.657,43.541 16.525,43.599 16.48,43.715 C 16.463,43.756 16.46,43.799 16.469,43.84 C 16.296,43.834 16.123,43.828 15.951,43.824 C 13.923,43.764 11.872,43.754 9.872,43.379 C 9.145,43.243 8.357,43.059 7.66,42.815 C 7.403,42.725 7.148,42.633 6.895,42.54 C 6.885,42.452 6.847,42.368 6.782,42.301 C 6.642,42.156 6.505,42.008 6.373,41.855 C 6.404,41.822 6.43,41.785 6.451,41.743 C 6.561,41.517 6.468,41.242 6.242,41.132 C 6.027,41.035 5.837,40.943 5.657,40.836 C 4.868,39.502 4.348,37.912 4.892,36.401 C 4.974,36.172 5.083,36.009 5.208,35.805 C 5.343,35.586 5.587,35.357 5.785,35.194 C 5.798,35.182 5.811,35.169 5.823,35.156 C 5.929,35.165 6.036,35.173 6.142,35.188 C 6.338,35.212 6.521,35.087 6.575,34.903 C 8.57,34.918 10.565,34.928 12.561,34.873 C 13.64,34.843 14.72,34.839 15.797,34.77 C 16.312,34.737 16.83,34.695 17.345,34.657 C 18.589,34.564 19.833,34.477 21.077,34.378 C 22.371,34.391 23.668,34.417 24.963,34.352 C 25.105,34.344 25.248,34.335 25.39,34.324 Z M 71.902,34.729 C 71.87,35.189 71.856,35.67 71.792,36.126 C 71.762,36.34 71.75,36.575 71.704,36.785 C 71.66,36.983 71.622,37.191 71.581,37.391 C 71.546,37.563 71.478,37.727 71.426,37.893 C 71.41,37.941 71.367,38.028 71.325,38.1 C 71.268,38.16 71.212,38.221 71.153,38.283 C 71.115,38.304 71.073,38.325 71.028,38.349 C 70.855,38.437 70.625,38.483 70.439,38.536 C 70.279,38.582 70.093,38.614 69.928,38.644 C 69.394,38.74 68.869,38.806 68.331,38.871 C 67.677,38.949 67.018,39.002 66.357,39.043 C 66.809,38.646 67.266,38.258 67.729,37.875 C 68.469,37.263 69.228,36.677 69.982,36.082 C 70.396,35.756 70.817,35.437 71.234,35.115 C 71.458,34.94 71.683,34.764 71.909,34.591 C 71.907,34.637 71.905,34.683 71.902,34.729 Z M 31.584,36.551 C 31.528,36.785 31.476,37.021 31.427,37.259 C 31.334,37.33 31.241,37.4 31.147,37.47 C 31.416,36.558 31.717,35.656 32.053,34.767 C 31.881,35.359 31.724,35.957 31.584,36.551 Z M 4.303,35.28 C 4.097,35.619 3.952,35.902 3.841,36.262 C 3.924,35.81 4.064,35.37 4.254,34.962 C 4.358,34.95 4.462,34.937 4.565,34.924 C 4.465,35.041 4.374,35.161 4.303,35.28 Z M 30.973,40.017 C 30.956,40.139 30.94,40.262 30.924,40.385 C 30.707,40.573 30.492,40.763 30.28,40.957 C 30.507,39.851 30.774,38.757 31.087,37.677 C 31.187,37.604 31.287,37.53 31.387,37.456 C 31.219,38.304 31.087,39.165 30.973,40.017 Z M 30.109,38.65 C 29.926,39.341 29.767,40.051 29.626,40.752 C 29.493,41.41 29.368,42.069 29.295,42.736 C 29.277,42.891 29.262,43.046 29.249,43.2 C 28.354,43.874 27.533,44.656 26.634,45.319 C 25.545,45.167 24.42,45.117 23.327,45.038 C 22.933,45.009 22.527,44.983 22.136,44.94 C 21.804,44.903 21.476,44.858 21.145,44.817 C 21.097,44.811 21.049,44.804 21.001,44.79 C 20.583,44.704 20.169,44.594 19.755,44.491 C 19.749,44.338 19.675,44.2 19.561,44.109 L 19.495,44.1 L 19.695,44.126 C 19.992,44.139 20.295,44.092 20.591,44.067 C 21.082,44.026 21.58,43.98 22.069,43.921 C 23.395,43.76 24.755,43.596 25.973,43.013 C 26.438,42.791 26.786,42.559 27.183,42.233 C 27.399,42.054 27.59,41.856 27.756,41.641 C 28.139,41.478 28.523,41.317 28.911,41.161 C 28.997,41.123 29.036,41.02 28.998,40.934 C 28.96,40.848 28.857,40.809 28.771,40.847 C 28.53,40.959 28.292,41.074 28.054,41.192 C 28.416,40.553 28.597,39.815 28.615,39.064 C 28.873,38.895 29.128,38.722 29.383,38.549 C 29.709,38.327 30.028,38.069 30.337,37.821 C 30.26,38.096 30.182,38.372 30.109,38.65 Z M 62.726,39.196 C 62.18,39.207 61.634,39.213 61.092,39.214 C 60.625,39.214 60.154,39.222 59.685,39.223 C 60.071,39.181 60.459,39.115 60.845,39.067 C 61.603,38.97 62.359,38.846 63.117,38.743 C 62.986,38.893 62.856,39.044 62.726,39.196 Z M 52.892,40.933 L 52.698,41.213 L 53.423,39.74 L 53.402,39.784 C 53.51,39.723 53.616,39.66 53.721,39.597 C 53.455,40.047 53.181,40.494 52.892,40.933 Z M 54.146,40.742 C 53.686,41.626 53.174,42.46 52.607,43.279 C 51.76,44.501 50.812,45.642 49.801,46.729 C 49.947,46.507 50.089,46.282 50.224,46.05 L 50.295,45.917 L 50.671,45.497 C 50.964,45.165 51.238,44.813 51.522,44.473 C 51.891,44.03 52.233,43.535 52.573,43.069 C 52.987,42.502 53.405,41.902 53.764,41.3 C 53.989,40.922 54.215,40.548 54.434,40.167 C 54.341,40.362 54.241,40.557 54.146,40.742 Z M 30.749,42.066 C 30.747,42.08 30.747,42.088 30.747,42.097 C 30.736,42.242 30.732,42.395 30.725,42.541 C 30.722,42.592 30.718,42.644 30.714,42.697 C 30.478,42.864 30.28,43.071 30.254,43.387 C 30.245,43.435 30.276,43.482 30.324,43.491 C 30.372,43.5 30.419,43.469 30.428,43.421 C 30.465,43.192 30.56,43.051 30.688,42.942 C 30.651,43.236 30.593,43.538 30.535,43.813 C 30.495,44.004 30.451,44.196 30.404,44.386 C 30.381,44.481 30.349,44.581 30.33,44.676 C 30.328,44.685 30.326,44.694 30.325,44.703 C 30.317,44.705 30.309,44.708 30.301,44.711 C 30.085,44.779 29.872,44.861 29.654,44.924 C 29.619,44.933 29.584,44.943 29.549,44.953 C 29.648,44.374 29.763,43.797 29.868,43.22 C 30.009,43.138 30.152,43.058 30.298,42.982 C 30.396,42.923 30.428,42.795 30.369,42.697 C 30.31,42.599 30.182,42.567 30.084,42.626 C 30.042,42.651 30,42.677 29.959,42.703 C 29.963,42.679 29.967,42.654 29.972,42.63 C 30.052,42.143 30.14,41.659 30.278,41.189 C 30.478,41 30.684,40.817 30.894,40.636 C 30.837,41.113 30.788,41.591 30.749,42.066 Z M 29.174,45.052 C 28.804,45.145 28.413,45.225 28.063,45.261 C 27.875,45.28 27.687,45.31 27.498,45.328 C 27.318,45.345 27.136,45.358 26.953,45.367 C 26.92,45.362 26.887,45.357 26.854,45.352 C 26.836,45.349 26.819,45.346 26.802,45.344 C 26.985,45.219 27.167,45.093 27.347,44.964 C 27.976,44.511 28.581,44.049 29.217,43.628 C 29.186,44.104 29.174,44.576 29.174,45.052 Z M 29.923,45.986 L 29.929,46.01 L 29.947,46.038 C 29.943,46.039 29.939,46.04 29.936,46.041 L 29.923,45.986 Z M 30.094,46.099 C 30.086,46.129 30.078,46.159 30.07,46.19 L 30.03,46.162 L 29.947,46.037 C 29.983,46.028 30.018,46.018 30.055,46.009 C 30.063,46.04 30.077,46.071 30.094,46.099 Z M 42.628,51.266 C 42.172,51.475 41.709,51.776 41.289,52.052 C 40.92,52.294 40.553,52.546 40.194,52.803 C 39.542,53.27 38.848,53.677 38.126,54.022 L 38.156,54.086 C 38.288,54.019 38.435,53.97 38.564,53.9 C 38.667,53.844 38.784,53.803 38.885,53.745 C 39.123,53.608 39.367,53.486 39.597,53.333 C 39.991,53.07 40.392,52.814 40.788,52.554 C 41.154,52.314 41.537,52.026 41.918,51.817 C 42.064,51.737 42.204,51.647 42.351,51.569 C 42.796,51.333 43.231,51.119 43.705,50.945 C 43.727,50.938 43.739,50.912 43.732,50.89 C 43.725,50.868 43.699,50.856 43.677,50.863 C 43.305,50.983 42.983,51.103 42.628,51.266 Z M 38.052,60.058 C 38.139,59.841 38.231,59.628 38.331,59.423 C 38.439,59.2 38.53,58.974 38.644,58.75 C 38.665,58.705 38.671,58.657 38.664,58.612 C 38.731,58.531 38.799,58.451 38.867,58.371 C 38.573,58.923 38.301,59.487 38.052,60.058 Z M 25.737,61.859 L 25.716,62.089 C 25.657,62.112 25.606,62.149 25.566,62.196 L 25.737,61.859 Z"
                      stroke="none" fill="#ffffff" stroke-width="0.5" fill-rule="evenodd" marker-start="none"
                      marker-end="none" stroke-miterlimit="79.8403193612775"/>
            </g>
        </g>
    </g>
</svg>