<svg xmlns:xlink="http://www.w3.org/1999/xlink" xmlns="http://www.w3.org/2000/svg" stroke-width="0.501"
     stroke-linejoin="bevel" fill-rule="evenodd" version="1.1" overflow="visible" viewBox="0 0 75 75" x="0px"
     y="0px">
    <g fill="none" stroke="white" transform="scale(1 -1)">
        <g transform="translate(0 -75)">
            <g>
                <path d="M 35.155,3.595 C 34.053,3.528 32.951,3.548 31.85,3.588 C 29.083,3.685 26.329,3.841 23.566,4.036 C 22.839,4.087 22.114,4.142 21.391,4.199 C 20.009,4.158 18.63,4.169 17.251,4.169 C 16.887,4.169 16.518,4.182 16.154,4.193 C 15.356,4.217 14.56,4.243 13.764,4.284 C 11.87,4.382 9.992,4.535 8.109,4.751 C 8.072,4.755 8.036,4.758 8.001,4.762 C 8.066,4.71 8.105,4.626 8.095,4.538 C 8.079,4.401 7.955,4.302 7.818,4.318 C 7.29,4.364 6.855,4.48 6.358,4.65 C 6.1,4.738 5.841,4.881 5.606,5.017 C 4.57,5.617 3.868,6.603 3.377,7.678 C 2.729,8.166 2.102,8.746 1.595,9.358 C 1.189,9.848 0.813,10.351 0.499,10.906 C 0.453,10.982 0.478,11.084 0.554,11.131 C 0.631,11.178 0.732,11.153 0.779,11.076 C 1.049,10.599 1.396,10.099 1.75,9.68 C 2.169,9.182 2.622,8.739 3.103,8.341 C 3.045,8.5 2.989,8.658 2.938,8.817 C 2.831,9.145 2.743,9.498 2.664,9.834 C 2.63,9.974 2.605,10.12 2.577,10.263 C 2.283,10.482 1.974,10.677 1.648,10.836 C 1.359,10.976 1.065,11.08 0.756,11.17 C 0.673,11.194 0.625,11.283 0.648,11.366 C 0.672,11.449 0.761,11.497 0.844,11.474 C 1.117,11.391 1.371,11.307 1.624,11.196 C 1.629,11.691 1.622,12.186 1.636,12.681 C 1.644,12.99 1.654,13.3 1.665,13.61 C 1.594,13.996 1.537,14.384 1.501,14.771 C 1.469,15.114 1.437,15.453 1.414,15.798 C 1.4,15.993 1.402,16.19 1.394,16.386 C 1.367,17.073 1.391,17.813 1.451,18.498 C 1.574,19.912 1.811,21.325 2.126,22.709 C 2.282,23.391 2.45,24.067 2.615,24.747 C 2.635,24.833 2.657,24.92 2.679,25.007 C 2.707,25.749 2.737,26.487 2.768,27.227 C 2.825,28.664 2.866,30.1 2.902,31.537 C 2.902,31.552 2.906,31.566 2.912,31.578 C 2.878,31.588 2.845,31.598 2.812,31.609 C 2.767,31.621 2.739,31.67 2.752,31.715 C 2.765,31.761 2.814,31.788 2.859,31.775 C 3.112,31.7 3.367,31.628 3.622,31.56 C 3.644,31.731 3.666,31.902 3.689,32.073 C 3.65,32.082 3.61,32.09 3.571,32.1 C 3.461,32.128 3.334,32.133 3.243,32.211 C 3.101,32.331 3.111,32.513 3.1,32.684 C 3.078,33.025 3.046,33.366 3.025,33.708 C 2.977,34.494 2.92,35.286 2.901,36.073 C 2.887,36.629 2.89,37.187 2.89,37.744 C 2.888,37.731 2.885,37.718 2.883,37.706 C 2.534,36.008 2.131,34.323 1.757,32.631 L 1.722,32.639 C 2.093,34.273 2.445,35.904 2.765,37.55 C 2.807,37.771 2.849,37.992 2.891,38.214 C 2.892,38.54 2.895,38.867 2.9,39.195 C 2.778,38.708 2.646,38.222 2.503,37.742 C 2.35,37.225 2.179,36.718 2.018,36.205 C 1.999,36.137 1.927,36.098 1.859,36.117 C 1.792,36.135 1.752,36.208 1.771,36.275 C 1.884,36.789 2.021,37.303 2.138,37.817 C 2.459,39.227 2.74,40.646 2.996,42.068 C 3.057,43.321 3.131,44.571 3.251,45.819 C 3.384,47.203 3.532,48.614 3.769,49.993 C 3.817,50.531 3.868,51.069 3.924,51.61 C 4.156,53.896 4.474,56.177 4.832,58.448 C 4.723,58.425 4.612,58.409 4.492,58.399 C 4.381,58.387 4.279,58.467 4.266,58.579 C 4.261,58.614 4.267,58.648 4.28,58.679 C 4.255,58.669 4.23,58.659 4.207,58.649 C 4.091,58.599 3.972,58.557 3.857,58.507 C 3.748,58.46 3.638,58.404 3.527,58.362 C 3.446,58.327 3.35,58.364 3.315,58.445 C 3.28,58.527 3.317,58.623 3.398,58.658 C 3.54,58.723 3.686,58.786 3.833,58.848 C 3.603,58.875 3.372,58.907 3.144,58.93 C 3.117,58.932 3.096,58.957 3.098,58.985 C 3.099,59.012 3.125,59.034 3.152,59.032 C 3.474,59.005 3.79,59.001 4.113,58.998 C 4.143,58.998 4.174,58.997 4.206,58.996 C 4.466,59.093 4.732,59.186 5.001,59.273 C 5.078,59.387 5.209,59.46 5.351,59.46 C 5.421,59.88 5.493,60.299 5.563,60.72 C 5.571,60.772 5.621,60.808 5.673,60.801 C 5.698,60.796 5.721,60.781 5.736,60.762 C 5.741,60.8 5.745,60.839 5.75,60.879 C 5.759,61 5.867,61.092 5.988,61.084 C 6.11,61.075 6.202,60.967 6.193,60.846 C 6.174,60.428 6.156,60.012 6.135,59.595 C 7.076,59.831 8.034,60 8.95,60.122 C 9.408,60.183 9.869,60.254 10.328,60.297 C 10.989,60.357 11.648,60.424 12.311,60.476 C 12.806,60.515 13.313,60.54 13.81,60.561 C 14.488,60.588 15.163,60.622 15.842,60.637 C 17.585,60.677 19.33,60.692 21.074,60.668 C 21.005,61.113 20.849,61.544 20.769,61.986 C 20.742,62.13 20.724,62.263 20.707,62.409 C 20.699,62.475 20.685,62.544 20.69,62.611 C 20.696,62.694 20.74,62.768 20.795,62.829 C 20.867,62.909 21.19,63.047 21.3,63.082 C 21.63,63.185 21.984,63.282 22.322,63.357 C 22.528,63.401 22.734,63.443 22.941,63.481 C 22.933,63.65 22.93,63.824 22.933,64 C 22.919,64.125 22.907,64.251 22.896,64.379 C 22.54,64.592 22.184,64.807 21.832,65.025 C 21.73,65.085 21.697,65.218 21.757,65.32 C 21.818,65.422 21.951,65.455 22.053,65.395 C 22.321,65.226 22.596,65.066 22.871,64.906 C 22.875,65.052 22.885,65.203 22.893,65.339 C 22.9,65.477 22.907,65.616 22.913,65.753 C 22.912,65.786 22.912,65.819 22.912,65.851 C 22.909,66.223 22.903,66.606 22.923,66.986 C 22.842,67.093 22.764,67.203 22.687,67.317 C 22.635,67.392 22.654,67.496 22.728,67.548 C 22.803,67.6 22.908,67.582 22.959,67.507 C 22.962,67.502 22.965,67.497 22.968,67.492 C 22.989,67.655 23.017,67.816 23.055,67.976 C 23.062,68.076 23.07,68.176 23.078,68.276 C 23.09,68.423 23.09,68.573 23.098,68.722 C 23.108,68.889 23.09,69.066 23.193,69.207 C 23.236,69.265 23.306,69.322 23.358,69.372 C 23.567,69.574 23.804,69.733 24.051,69.885 C 24.212,69.985 24.382,70.071 24.556,70.146 C 25.05,70.517 25.613,70.806 26.185,71.04 C 26.922,71.341 27.713,71.575 28.525,71.757 C 28.499,71.775 28.473,71.794 28.447,71.813 C 28.364,71.869 28.343,71.984 28.399,72.067 C 28.455,72.15 28.57,72.171 28.653,72.115 C 28.778,72.031 28.902,71.945 29.027,71.862 C 30.115,72.077 31.225,72.206 32.278,72.289 C 33.052,72.35 33.838,72.398 34.615,72.41 C 35.478,72.425 36.33,72.431 37.193,72.417 C 38.794,72.392 40.391,72.279 41.985,72.13 C 43,72.036 43.993,71.9 44.999,71.759 C 45.867,71.636 46.756,71.475 47.608,71.269 C 47.89,71.202 48.175,71.132 48.453,71.051 C 48.48,71.042 48.509,71.033 48.551,71.02 C 48.62,71.003 48.704,70.981 48.787,70.965 C 48.896,70.942 49.005,70.896 49.114,70.871 C 49.467,70.786 49.803,70.642 50.141,70.513 C 50.276,70.462 50.589,70.295 50.682,70.185 C 50.746,70.11 50.801,70.043 50.862,69.963 C 50.927,69.878 51.024,69.699 51.061,69.599 C 51.09,69.521 51.129,69.438 51.162,69.36 C 51.218,69.226 51.27,69.039 51.308,68.896 C 51.401,68.539 51.475,68.189 51.533,67.824 C 51.541,67.773 51.548,67.722 51.555,67.673 C 51.559,67.661 51.563,67.65 51.567,67.639 C 51.617,67.478 51.674,67.322 51.718,67.158 C 51.738,67.082 51.749,67.002 51.77,66.926 C 51.797,66.797 51.77,66.669 51.703,66.566 C 51.774,65.982 51.843,65.399 51.937,64.82 C 51.963,64.799 51.989,64.775 52.015,64.757 C 52.272,64.574 52.478,64.299 52.649,64.012 C 52.926,63.951 53.225,63.871 53.495,63.785 C 53.642,63.738 53.749,63.731 53.857,63.605 C 53.963,63.481 54.008,63.291 54.062,63.135 C 54.146,62.893 54.201,62.647 54.271,62.404 C 54.298,62.307 54.287,62.207 54.305,62.116 C 54.3,61.84 54.071,61.621 53.795,61.626 C 53.683,61.628 53.583,61.665 53.5,61.728 C 53.583,61.389 53.658,61.05 53.732,60.72 C 53.736,60.702 53.74,60.683 53.744,60.666 C 53.857,60.667 53.969,60.668 54.082,60.668 C 54.793,60.668 55.506,60.681 56.218,60.678 C 57.156,60.674 58.092,60.662 59.031,60.641 C 60.383,60.612 61.746,60.551 63.094,60.442 C 63.379,60.419 63.664,60.394 63.949,60.367 C 64.585,60.352 65.221,60.328 65.85,60.298 C 66.158,60.282 66.463,60.252 66.768,60.231 C 66.948,60.215 67.097,60.1 67.166,59.944 C 67.379,59.907 67.592,59.866 67.804,59.823 C 67.667,60.324 67.518,60.816 67.361,61.314 C 67.318,61.45 67.393,61.596 67.529,61.639 C 67.665,61.682 67.811,61.606 67.854,61.47 C 67.996,61.015 68.145,60.562 68.272,60.102 C 68.308,59.968 68.343,59.834 68.379,59.7 C 68.545,59.662 68.71,59.623 68.877,59.583 C 68.857,60.004 68.84,60.424 68.823,60.846 C 68.814,60.967 68.906,61.075 69.028,61.084 C 69.149,61.092 69.257,61 69.266,60.879 C 69.269,60.839 69.273,60.799 69.277,60.759 C 69.292,60.78 69.315,60.796 69.343,60.801 C 69.395,60.808 69.445,60.772 69.452,60.72 C 69.522,60.269 69.599,59.82 69.678,59.37 C 69.739,59.352 69.801,59.334 69.863,59.317 C 69.99,59.278 70.118,59.237 70.245,59.194 C 70.397,59.199 70.549,59.204 70.701,59.21 C 71.086,59.225 71.477,59.188 71.866,59.203 C 71.894,59.203 71.918,59.181 71.918,59.153 C 71.918,59.126 71.896,59.101 71.868,59.101 C 71.52,59.087 71.177,59.047 70.832,59.029 C 70.796,59.027 70.76,59.025 70.727,59.024 C 70.789,59 70.851,58.978 70.915,58.954 C 71.152,58.865 71.383,58.755 71.618,58.659 C 71.699,58.624 71.737,58.527 71.702,58.445 C 71.667,58.364 71.57,58.326 71.489,58.361 C 71.374,58.407 71.262,58.463 71.148,58.511 C 71.041,58.556 70.931,58.595 70.824,58.641 C 70.663,58.711 70.477,58.769 70.311,58.827 C 70.139,58.887 69.961,58.947 69.783,58.999 C 69.769,58.998 69.755,58.998 69.741,58.998 C 69.815,58.573 69.886,58.147 69.95,57.721 C 70.001,57.378 70.04,57.029 70.082,56.684 C 70.192,55.778 70.316,54.873 70.417,53.966 C 70.466,53.523 70.513,53.082 70.561,52.641 C 70.569,52.645 70.578,52.649 70.589,52.652 C 70.645,52.665 70.702,52.63 70.714,52.574 C 71.534,49.106 71.834,45.586 72.018,42.031 C 72.169,41.191 72.332,40.354 72.512,39.52 C 72.744,38.435 72.965,37.35 73.245,36.275 C 73.263,36.208 73.224,36.135 73.157,36.117 C 73.089,36.098 73.017,36.137 72.998,36.205 C 72.853,36.61 72.729,37.026 72.602,37.437 C 72.421,38.024 72.256,38.616 72.107,39.212 C 72.109,38.989 72.112,38.767 72.115,38.542 C 72.178,38.324 72.243,38.106 72.312,37.888 C 72.353,37.75 72.329,37.608 72.256,37.496 C 72.567,35.873 72.911,34.252 73.294,32.639 L 73.258,32.631 C 72.884,34.222 72.529,35.819 72.192,37.418 C 72.172,37.398 72.149,37.379 72.126,37.364 C 72.129,36.911 72.127,36.455 72.11,36.01 C 72.07,34.963 72.012,33.909 71.928,32.866 C 71.913,32.684 71.928,32.364 71.796,32.233 C 71.69,32.13 71.536,32.123 71.399,32.09 C 71.372,32.084 71.346,32.078 71.319,32.073 C 71.342,31.901 71.364,31.731 71.387,31.56 C 71.643,31.629 71.9,31.702 72.157,31.775 C 72.202,31.788 72.251,31.761 72.264,31.715 C 72.277,31.67 72.249,31.621 72.204,31.609 C 72.17,31.599 72.136,31.589 72.101,31.579 C 72.109,31.567 72.113,31.552 72.114,31.537 C 72.124,31.081 72.136,30.625 72.148,30.17 C 72.236,30.112 72.324,30.053 72.412,29.995 C 72.654,29.83 72.9,29.671 73.144,29.508 C 73.478,29.285 73.869,29.053 74.137,28.75 C 74.192,28.713 74.208,28.635 74.171,28.579 C 74.134,28.523 74.055,28.508 74,28.545 C 73.643,28.663 73.287,28.916 72.978,29.126 C 72.736,29.291 72.492,29.454 72.247,29.615 C 72.219,29.632 72.191,29.651 72.163,29.669 C 72.212,28.11 72.276,26.553 72.333,24.994 C 72.507,24.31 72.675,23.623 72.834,22.933 C 73.019,22.127 73.175,21.323 73.311,20.509 C 73.38,20.1 73.448,19.666 73.488,19.254 C 73.51,19.009 73.539,18.764 73.559,18.519 C 73.579,18.273 73.589,18.026 73.606,17.78 C 73.634,17.376 73.627,16.939 73.619,16.533 C 73.615,16.34 73.608,16.148 73.599,15.957 C 73.992,15.744 74.407,15.576 74.85,15.477 C 74.956,15.451 75.021,15.343 74.994,15.238 C 74.968,15.132 74.86,15.067 74.754,15.094 C 74.346,15.176 73.953,15.328 73.574,15.522 C 73.53,14.887 73.455,14.259 73.346,13.632 C 73.358,13.291 73.373,12.949 73.38,12.608 C 73.39,12.124 73.383,11.638 73.392,11.154 C 73.394,11.033 73.317,10.929 73.21,10.891 C 73.228,10.634 73.248,10.375 73.268,10.117 C 73.348,10.047 73.394,9.943 73.389,9.834 C 73.438,9.898 73.486,9.961 73.532,10.023 C 73.788,10.362 74.021,10.71 74.236,11.076 C 74.283,11.153 74.385,11.178 74.462,11.131 C 74.538,11.084 74.563,10.982 74.516,10.906 C 74.418,10.748 74.325,10.577 74.219,10.425 C 73.938,10.019 73.651,9.625 73.331,9.254 C 73.368,8.735 73.401,8.215 73.436,7.698 C 73.462,7.48 73.306,7.281 73.088,7.255 C 72.87,7.228 72.671,7.384 72.645,7.602 C 72.615,7.755 72.588,7.908 72.561,8.06 C 72.445,7.93 72.31,7.787 72.187,7.682 C 72.092,7.601 72.001,7.515 71.906,7.434 C 71.643,7.21 71.339,6.991 71.045,6.81 C 70.681,6.585 70.276,6.369 69.857,6.216 C 69.738,6.069 69.616,5.928 69.489,5.796 C 69.494,5.797 69.499,5.797 69.505,5.798 C 69.582,5.803 69.649,5.745 69.654,5.669 C 69.659,5.592 69.601,5.525 69.525,5.52 C 69.408,5.51 69.292,5.501 69.176,5.493 C 69.108,5.43 69.036,5.364 68.97,5.315 C 68.926,5.283 68.881,5.252 68.836,5.222 C 69.004,5.245 69.173,5.269 69.343,5.294 C 69.401,5.302 69.455,5.261 69.463,5.203 C 69.471,5.145 69.43,5.09 69.372,5.082 C 69.027,5.033 68.682,4.985 68.338,4.938 C 68.27,4.899 68.202,4.86 68.138,4.82 C 68.108,4.801 68.067,4.811 68.049,4.841 C 68.037,4.857 68.036,4.879 68.043,4.897 C 67.685,4.849 67.326,4.803 66.967,4.758 C 65.415,4.565 63.855,4.452 62.296,4.341 C 61.64,4.294 60.983,4.27 60.326,4.242 C 59.514,4.206 58.695,4.181 57.882,4.171 C 56.465,4.153 55.048,4.166 53.629,4.201 C 51.704,4.05 49.776,3.912 47.846,3.802 C 46.553,3.728 45.257,3.658 43.963,3.614 C 41.731,3.538 39.51,3.504 37.277,3.538 C 36.57,3.548 35.86,3.561 35.155,3.595 Z M 38.451,3.997 C 37.731,4.02 37.012,4.063 36.295,4.129 C 35.813,4.166 35.333,4.204 34.853,4.242 C 34.914,4.176 34.974,4.11 35.033,4.043 C 36.006,4.009 36.978,3.986 37.95,3.986 C 38.118,3.99 38.285,3.993 38.451,3.997 Z M 34.301,4.198 C 34.243,4.229 34.189,4.261 34.136,4.295 C 33.684,4.328 33.231,4.357 32.777,4.383 C 31.396,4.458 30.013,4.506 28.631,4.546 C 28.402,4.53 28.173,4.516 27.945,4.501 C 27.224,4.453 26.5,4.422 25.778,4.38 C 25.458,4.361 25.138,4.344 24.817,4.33 C 26.328,4.238 27.84,4.159 29.352,4.099 C 29.249,4.121 29.147,4.144 29.045,4.166 C 29.001,4.17 28.968,4.211 28.972,4.255 C 28.976,4.299 29.017,4.333 29.061,4.329 C 29.575,4.331 30.087,4.33 30.601,4.309 C 31.031,4.291 31.462,4.244 31.892,4.216 C 32.797,4.156 33.702,4.095 34.608,4.059 C 34.504,4.1 34.4,4.146 34.301,4.198 Z M 50.157,4.33 C 49.546,4.358 48.937,4.389 48.326,4.424 C 48.001,4.396 47.676,4.369 47.352,4.344 C 46.915,4.31 46.478,4.277 46.033,4.263 C 46.042,4.264 46.043,4.26 46.044,4.255 C 46.048,4.211 46.015,4.17 45.971,4.166 C 45.875,4.145 45.78,4.124 45.683,4.104 C 47.177,4.165 48.668,4.241 50.157,4.33 Z M 8.474,5.24 C 8.382,5.251 8.292,5.262 8.202,5.274 C 8,5.302 7.795,5.329 7.592,5.353 C 7.52,5.36 7.449,5.37 7.374,5.381 C 7.012,5.407 6.647,5.433 6.282,5.459 C 6.364,5.369 6.479,5.263 6.6,5.165 C 8.019,4.975 9.439,4.823 10.868,4.711 C 10.058,4.847 9.257,5.021 8.474,5.24 Z M 68.412,5.165 C 68.53,5.261 68.643,5.364 68.73,5.459 C 68.171,5.419 67.612,5.382 67.055,5.339 C 66.972,5.332 66.889,5.325 66.807,5.319 C 65.955,5.063 65.082,4.867 64.201,4.716 C 65.608,4.827 67.009,4.979 68.412,5.165 Z M 19.632,4.75 C 19.258,4.755 18.883,4.761 18.509,4.77 C 18.685,4.756 18.86,4.743 19.036,4.73 C 19.234,4.731 19.431,4.734 19.632,4.75 Z M 55.305,5.083 C 55.294,5.091 55.282,5.099 55.27,5.108 C 54.42,5.022 53.571,4.935 52.721,4.848 C 52.725,4.846 52.729,4.842 52.733,4.839 C 53.751,4.794 54.769,4.752 55.786,4.734 C 55.624,4.848 55.465,4.969 55.305,5.083 Z M 58.527,4.932 C 60.111,5.062 61.696,5.182 63.28,5.316 C 64.001,5.377 64.723,5.435 65.446,5.491 C 65.678,5.541 65.909,5.593 66.141,5.65 C 66.575,5.755 67.017,5.878 67.451,6.017 C 66.901,6.008 66.35,5.986 65.804,5.965 C 65.476,5.953 65.147,5.938 64.819,5.92 C 64.898,5.855 64.927,5.741 64.883,5.644 C 64.83,5.528 64.69,5.476 64.574,5.529 C 64.305,5.615 64.032,5.73 63.768,5.861 C 63.556,5.847 63.343,5.833 63.133,5.819 C 62.591,5.779 62.05,5.738 61.51,5.694 C 61.547,5.613 61.537,5.514 61.477,5.442 C 61.393,5.341 61.241,5.326 61.141,5.41 C 61.05,5.487 60.959,5.564 60.868,5.64 C 59.276,5.505 57.685,5.351 56.095,5.191 C 56.112,5.178 56.13,5.167 56.147,5.155 C 56.286,5.056 56.447,4.965 56.572,4.851 C 56.598,4.828 56.623,4.803 56.648,4.78 C 57.276,4.829 57.901,4.879 58.527,4.932 Z M 39.886,4.98 C 39.929,4.94 39.971,4.9 40.013,4.86 C 40.436,4.864 40.858,4.873 41.281,4.886 C 40.815,4.917 40.351,4.948 39.886,4.98 Z M 39.19,5.027 C 38.622,5.064 38.054,5.101 37.487,5.137 C 37.231,5.121 36.975,5.104 36.72,5.087 C 36.763,5.046 36.807,5.004 36.85,4.963 C 37.168,4.947 37.49,4.927 37.808,4.908 C 38.326,4.877 38.847,4.863 39.368,4.86 C 39.308,4.915 39.249,4.971 39.19,5.027 Z M 36.108,5.047 C 36.059,5.044 36.009,5.041 35.96,5.038 C 36.018,5.033 36.077,5.028 36.135,5.023 C 36.126,5.032 36.117,5.039 36.108,5.047 Z M 44.859,5.114 C 45.016,5.115 45.175,5.116 45.334,5.107 C 45.131,5.281 44.928,5.455 44.722,5.627 C 44.527,5.571 44.238,5.571 44.078,5.558 C 43.721,5.529 43.366,5.499 43.009,5.472 C 43.015,5.423 43.004,5.372 42.977,5.329 C 42.912,5.228 42.775,5.199 42.675,5.264 C 42.587,5.317 42.501,5.372 42.415,5.428 C 42.396,5.426 42.376,5.425 42.356,5.424 C 41.562,5.367 40.77,5.331 39.977,5.287 C 40.916,5.224 41.858,5.163 42.8,5.095 C 42.872,5.089 42.945,5.084 43.018,5.079 C 43.632,5.097 44.243,5.107 44.859,5.114 Z M 50.921,5.568 C 50.418,5.928 49.942,6.309 49.459,6.702 C 48.917,7.141 48.395,7.633 47.89,8.116 C 47.344,8.638 46.815,9.173 46.294,9.72 C 45.912,10.12 45.525,10.515 45.151,10.923 C 44.71,11.403 44.275,11.89 43.835,12.371 C 43.766,12.445 43.77,12.56 43.843,12.629 C 43.917,12.697 44.032,12.693 44.101,12.62 C 44.611,12.065 45.144,11.539 45.661,10.992 C 46.936,9.642 48.247,8.35 49.673,7.163 C 49.986,6.902 50.302,6.645 50.626,6.397 C 50.788,6.274 50.954,6.155 51.115,6.03 C 51.291,5.891 51.482,5.767 51.672,5.641 C 52.517,5.725 53.362,5.81 54.207,5.896 C 53.864,6.159 53.528,6.429 53.199,6.706 C 52.616,7.196 52.032,7.682 51.458,8.183 C 49.808,9.623 48.206,11.139 46.654,12.685 C 46.596,12.74 46.596,12.834 46.652,12.892 C 46.708,12.95 46.802,12.95 46.859,12.894 C 47.647,12.128 48.432,11.371 49.244,10.629 C 50.198,9.756 51.193,8.921 52.198,8.107 C 52.488,7.873 52.781,7.633 53.077,7.407 C 53.715,6.922 54.359,6.452 55.002,5.977 C 55.506,6.029 56.01,6.082 56.514,6.135 C 56.659,6.149 56.805,6.164 56.95,6.179 C 55.826,7.042 54.738,7.966 53.665,8.883 C 52.857,9.572 52.063,10.278 51.265,10.978 C 50.564,11.594 49.857,12.209 49.161,12.83 C 49.103,12.88 49.097,12.97 49.147,13.028 C 49.197,13.086 49.287,13.092 49.345,13.042 C 50.128,12.342 50.932,11.658 51.727,10.97 C 52.616,10.199 53.514,9.435 54.428,8.693 C 55.086,8.159 55.745,7.639 56.416,7.123 C 56.803,6.825 57.198,6.527 57.597,6.241 C 58.322,6.31 59.048,6.375 59.773,6.448 C 59.813,6.452 59.854,6.456 59.895,6.46 C 58.779,7.398 57.662,8.333 56.568,9.3 C 56.101,9.711 55.651,10.129 55.202,10.557 C 55.041,10.711 54.873,10.865 54.723,11.029 C 54.18,11.625 53.644,12.241 53.136,12.868 C 53.099,12.912 53.105,12.98 53.149,13.017 C 53.193,13.055 53.261,13.049 53.299,13.005 C 53.593,12.646 53.905,12.311 54.228,11.979 C 54.544,11.654 54.887,11.352 55.211,11.034 C 56.475,9.795 57.844,8.669 59.223,7.561 C 59.655,7.213 60.086,6.865 60.519,6.518 C 61.145,6.572 61.771,6.618 62.397,6.666 C 62.283,6.739 62.171,6.815 62.061,6.895 C 61.878,7.027 61.702,7.17 61.521,7.306 C 61.389,7.404 61.264,7.519 61.137,7.624 C 60.629,8.041 60.168,8.497 59.705,8.961 C 58.436,10.232 57.362,11.683 56.319,13.139 C 56.269,13.209 56.286,13.309 56.357,13.359 C 56.427,13.409 56.527,13.391 56.577,13.321 C 56.924,12.8 57.328,12.269 57.719,11.78 C 58.893,10.317 60.141,8.974 61.648,7.844 C 62.172,7.449 62.736,7.069 63.307,6.733 C 64.225,6.797 65.144,6.851 66.064,6.883 C 66.068,6.883 66.074,6.883 66.08,6.883 C 65.779,7.076 65.491,7.29 65.203,7.502 C 64.158,8.269 63.192,9.101 62.247,9.986 C 61.505,10.68 60.806,11.42 60.151,12.196 C 59.943,12.443 59.752,12.698 59.552,12.95 C 59.356,13.197 59.153,13.477 58.981,13.74 C 58.939,13.8 58.954,13.885 59.013,13.927 C 59.073,13.969 59.158,13.954 59.2,13.895 C 59.44,13.552 59.684,13.228 59.94,12.897 C 60.149,12.625 60.389,12.354 60.622,12.101 C 60.843,11.86 61.064,11.611 61.299,11.383 C 61.621,11.07 61.942,10.764 62.273,10.461 C 62.661,10.105 63.086,9.76 63.497,9.431 C 64.263,8.817 65.069,8.243 65.857,7.657 C 66.201,7.4 66.555,7.162 66.9,6.906 C 67.576,6.921 68.247,6.928 68.92,6.93 C 69.408,6.94 69.922,7.234 70.343,7.481 C 70.401,7.588 70.461,7.696 70.518,7.804 C 70.565,7.893 70.6,7.989 70.644,8.08 C 70.662,8.118 70.68,8.157 70.699,8.197 C 70.617,8.282 70.535,8.367 70.447,8.448 C 69.936,8.914 69.394,9.344 68.834,9.75 C 68.048,10.32 67.231,10.851 66.456,11.436 C 65.524,12.139 64.514,12.989 63.954,14.036 C 63.914,14.107 63.938,14.2 64.009,14.24 C 64.079,14.28 64.172,14.256 64.212,14.185 C 64.307,14.034 64.388,13.886 64.491,13.737 C 64.632,13.536 64.785,13.368 64.939,13.181 C 65.055,13.039 65.206,12.919 65.328,12.784 C 65.442,12.661 65.615,12.521 65.745,12.415 C 65.91,12.281 66.065,12.146 66.238,12.021 C 66.493,11.835 66.748,11.652 67.004,11.467 C 67.298,11.255 67.621,11.057 67.923,10.857 C 68.478,10.492 69.067,10.133 69.602,9.74 C 69.92,9.507 70.248,9.274 70.544,9.013 C 70.603,8.96 70.662,8.906 70.722,8.851 C 70.725,8.863 70.73,8.875 70.737,8.886 C 70.886,9.146 71.06,9.452 71.155,9.735 C 71.2,9.872 71.25,10.007 71.296,10.143 C 70.735,10.492 70.186,10.861 69.638,11.231 C 68.21,12.191 66.734,13.347 65.74,14.767 C 65.696,14.824 65.709,14.908 65.767,14.951 C 65.825,14.994 65.908,14.981 65.951,14.923 C 66.149,14.658 66.34,14.413 66.556,14.163 C 66.711,13.984 66.89,13.809 67.061,13.646 C 68.24,12.516 69.73,11.616 71.142,10.817 C 71.238,10.762 71.333,10.705 71.428,10.648 C 71.432,10.671 71.436,10.694 71.44,10.716 C 71.493,11.043 71.548,11.373 71.592,11.701 C 71.636,12.029 71.677,12.356 71.715,12.683 C 71.666,12.683 71.617,12.697 71.575,12.728 C 70.865,13.211 70.189,13.754 69.516,14.288 C 68.983,14.712 68.447,15.129 67.913,15.55 C 67.816,15.624 67.797,15.764 67.872,15.861 C 67.946,15.958 68.086,15.977 68.183,15.902 C 68.369,15.752 68.564,15.61 68.753,15.464 C 69.057,15.23 69.358,14.989 69.663,14.755 C 70.348,14.228 71.044,13.67 71.772,13.201 C 71.876,14.163 71.956,15.123 72.02,16.098 C 72.03,16.253 72.038,16.408 72.046,16.564 C 71.731,16.822 71.433,17.089 71.151,17.344 C 71.072,17.414 71.065,17.536 71.134,17.615 C 71.204,17.695 71.326,17.701 71.405,17.632 C 71.621,17.437 71.841,17.24 72.066,17.049 C 72.067,17.07 72.068,17.091 72.069,17.112 C 72.085,17.461 72.099,17.81 72.11,18.147 C 72.105,19.498 72.08,20.849 71.969,22.181 C 71.801,24.193 71.471,26.178 70.881,28.111 C 70.672,28.795 70.44,29.46 70.193,30.13 C 70.115,30.337 70.03,30.551 69.945,30.755 L 69.944,30.756 C 69.87,30.725 69.787,30.696 69.742,30.68 C 69.488,30.584 69.206,30.503 68.943,30.428 C 68.403,30.276 67.862,30.128 67.318,29.984 C 66.993,29.899 66.667,29.825 66.343,29.741 C 65.95,29.639 65.553,29.553 65.156,29.463 C 64.821,29.388 64.482,29.297 64.145,29.237 C 64.092,29.227 64.039,29.216 63.986,29.205 C 64.005,29.186 64.023,29.167 64.043,29.149 C 64.453,29.183 64.862,29.228 65.271,29.278 C 65.785,29.339 66.297,29.406 66.799,29.486 C 66.827,29.559 66.889,29.566 66.945,29.541 C 66.967,29.529 66.99,29.517 67.013,29.505 C 67.471,29.57 67.928,29.635 68.387,29.702 C 68.5,29.718 68.607,29.638 68.622,29.526 C 68.638,29.413 68.559,29.306 68.446,29.291 C 68.189,29.254 67.932,29.214 67.675,29.175 C 67.83,29.089 67.985,29.002 68.142,28.915 C 68.339,28.805 68.528,28.674 68.719,28.555 C 69.325,28.174 69.899,27.743 70.469,27.312 C 70.642,27.181 70.805,27.038 70.976,26.903 C 71.066,26.828 71.077,26.691 71.002,26.601 C 70.927,26.511 70.79,26.499 70.7,26.574 C 70.613,26.641 70.509,26.732 70.429,26.806 C 70.329,26.901 70.206,26.982 70.103,27.075 C 70.018,27.153 69.906,27.241 69.813,27.31 C 69.663,27.422 69.516,27.539 69.366,27.651 C 69.214,27.765 69.051,27.872 68.901,27.989 C 68.777,28.086 68.635,28.167 68.505,28.258 C 68.054,28.571 67.577,28.847 67.085,29.088 C 67,29.075 66.916,29.064 66.832,29.053 C 66.048,28.946 65.264,28.846 64.478,28.754 C 64.765,28.51 65.069,28.276 65.369,28.064 C 66.262,27.432 67.207,26.899 68.151,26.343 C 68.64,26.055 69.148,25.769 69.619,25.452 C 69.889,25.271 70.146,25.091 70.409,24.901 C 70.529,24.814 70.556,24.645 70.469,24.524 C 70.381,24.404 70.212,24.378 70.092,24.465 C 69.759,24.681 69.448,24.953 69.113,25.169 C 68.842,25.343 68.571,25.535 68.303,25.716 C 67.983,25.931 67.645,26.132 67.321,26.343 C 66.202,27.072 65.046,27.792 64.065,28.706 C 63.989,28.698 63.913,28.689 63.838,28.681 C 62.976,28.585 62.114,28.501 61.25,28.427 C 61.333,28.354 61.418,28.281 61.502,28.21 C 61.791,27.961 62.095,27.711 62.404,27.49 C 63.012,27.055 63.608,26.63 64.25,26.243 C 65.082,25.742 65.931,25.28 66.787,24.822 C 67.197,24.603 67.603,24.377 68.014,24.158 C 68.13,24.096 68.173,23.951 68.11,23.835 C 68.048,23.72 67.903,23.677 67.787,23.739 C 67.404,23.943 67.016,24.15 66.638,24.362 C 66.039,24.7 65.45,25.061 64.863,25.42 C 63.447,26.286 62.083,27.258 60.874,28.395 C 60.105,28.332 59.335,28.279 58.565,28.233 C 58.828,27.967 59.104,27.715 59.384,27.48 C 59.659,27.25 59.941,27.04 60.225,26.823 C 60.811,26.376 61.476,25.986 62.107,25.602 C 62.764,25.202 63.447,24.845 64.102,24.439 C 64.286,24.326 64.475,24.22 64.66,24.107 C 64.802,24.021 64.93,23.917 65.06,23.814 C 65.147,23.761 65.176,23.646 65.123,23.559 C 65.07,23.472 64.955,23.444 64.868,23.497 C 64.504,23.644 64.203,23.848 63.869,24.048 C 63.409,24.323 62.947,24.592 62.493,24.879 C 61.705,25.378 60.947,25.874 60.194,26.427 C 59.483,26.949 58.803,27.551 58.191,28.211 C 57.346,28.163 56.502,28.126 55.657,28.097 C 55.716,28.047 55.774,27.997 55.834,27.948 C 56.128,27.702 56.421,27.468 56.723,27.233 C 57.043,26.983 57.377,26.759 57.708,26.523 C 58.666,25.84 59.696,25.22 60.689,24.588 C 60.799,24.517 60.829,24.369 60.758,24.259 C 60.686,24.15 60.539,24.119 60.429,24.191 C 60.273,24.289 60.125,24.399 59.972,24.501 C 59.592,24.755 59.21,25.01 58.835,25.271 C 58.506,25.501 58.173,25.727 57.844,25.959 C 57.482,26.213 57.133,26.484 56.778,26.746 C 56.531,26.927 56.3,27.134 56.058,27.322 C 55.843,27.49 55.63,27.685 55.427,27.867 C 55.346,27.939 55.267,28.01 55.189,28.083 C 54.364,28.058 53.537,28.04 52.712,28.04 C 52.613,28.04 52.516,28.04 52.418,28.04 C 53.151,27.265 53.989,26.594 54.855,25.967 C 56.007,25.133 57.24,24.415 58.481,23.724 C 58.599,23.655 58.641,23.502 58.572,23.384 C 58.503,23.266 58.351,23.224 58.232,23.293 C 57.933,23.46 57.612,23.655 57.326,23.844 C 57.189,23.934 57.044,24.016 56.905,24.104 C 56.618,24.287 56.333,24.476 56.049,24.665 C 54.715,25.553 53.424,26.542 52.306,27.693 C 52.195,27.807 52.086,27.924 51.979,28.045 C 51.43,28.052 50.88,28.067 50.334,28.085 C 49.898,28.097 49.457,28.109 49.018,28.127 C 50.428,26.693 52.105,25.606 53.817,24.56 C 54.217,24.315 54.619,24.066 55.014,23.815 C 55.236,23.673 55.457,23.525 55.682,23.388 C 55.777,23.324 55.804,23.194 55.74,23.099 C 55.676,23.004 55.546,22.978 55.451,23.041 C 55.099,23.276 54.752,23.523 54.402,23.761 C 53.979,24.047 53.55,24.324 53.13,24.613 C 52.522,25.031 51.899,25.439 51.309,25.882 C 51.051,26.076 50.775,26.269 50.529,26.477 C 50.22,26.74 49.904,26.988 49.605,27.264 C 49.323,27.525 49.064,27.791 48.797,28.065 C 48.772,28.09 48.749,28.114 48.725,28.14 C 48.444,28.153 48.164,28.17 47.887,28.193 C 47.532,28.222 47.175,28.25 46.818,28.283 C 47.124,27.94 47.445,27.611 47.788,27.302 C 49.028,26.183 50.382,25.267 51.723,24.276 C 51.923,24.127 52.118,23.97 52.317,23.82 C 52.407,23.75 52.423,23.618 52.354,23.528 C 52.284,23.438 52.152,23.421 52.062,23.491 C 51.742,23.733 51.438,23.988 51.125,24.239 C 50.786,24.512 50.444,24.784 50.106,25.059 C 49.064,25.911 48.015,26.755 47.091,27.738 C 46.915,27.925 46.748,28.114 46.585,28.307 C 46.471,28.319 46.357,28.331 46.245,28.345 C 45.628,28.419 45.014,28.501 44.401,28.591 C 44.397,28.458 44.39,28.325 44.378,28.19 C 44.713,27.736 45.09,27.331 45.488,26.927 C 46.049,26.356 46.666,25.822 47.281,25.311 C 47.85,24.838 48.426,24.374 49.004,23.915 C 49.227,23.737 49.45,23.539 49.678,23.37 C 49.763,23.299 49.774,23.169 49.702,23.083 C 49.631,22.998 49.5,22.988 49.415,23.059 C 49.322,23.13 49.226,23.222 49.138,23.301 C 48.995,23.43 48.841,23.56 48.692,23.683 C 48.205,24.084 47.726,24.512 47.25,24.927 C 46.211,25.832 45.187,26.763 44.339,27.849 C 44.317,27.693 44.289,27.538 44.255,27.382 C 44.178,27.036 44.06,26.672 43.916,26.349 C 43.896,26.307 43.877,26.265 43.855,26.224 C 43.893,26.181 43.931,26.141 43.971,26.104 C 44.201,25.885 44.412,25.649 44.656,25.44 C 45.068,25.085 45.49,24.742 45.899,24.385 C 46.043,24.261 46.23,24.104 46.356,23.967 C 46.469,23.845 46.588,23.713 46.705,23.595 C 46.753,23.544 46.749,23.461 46.697,23.413 C 46.645,23.365 46.563,23.369 46.515,23.421 C 46.137,23.838 45.721,24.259 45.299,24.63 C 45.087,24.817 44.881,25.015 44.673,25.206 C 44.374,25.479 44.068,25.779 43.791,26.098 C 43.768,26.053 43.745,26.009 43.724,25.965 C 43.622,25.753 43.438,25.51 43.298,25.317 C 43.236,25.232 43.172,25.13 43.094,25.061 C 42.871,24.864 42.582,24.997 42.323,25.009 C 42.277,25.01 42.232,25.013 42.187,25.016 C 42.405,24.806 42.626,24.597 42.859,24.403 C 43.438,23.919 44.028,23.486 44.65,23.057 C 44.724,23.005 44.743,22.9 44.691,22.826 C 44.639,22.752 44.535,22.733 44.46,22.785 C 43.521,23.402 42.731,24.159 41.919,24.926 C 41.91,24.934 41.901,24.941 41.892,24.95 C 41.885,24.943 41.877,24.937 41.869,24.931 C 41.399,24.545 40.493,24.597 39.941,24.678 L 39.623,24.728 C 39.842,24.52 40.11,24.313 40.302,24.163 C 40.948,23.656 41.625,23.221 42.299,22.764 C 42.374,22.713 42.394,22.61 42.343,22.534 C 42.292,22.459 42.188,22.439 42.113,22.49 C 41.922,22.61 41.733,22.77 41.551,22.905 C 41.202,23.164 40.862,23.434 40.521,23.704 C 40.23,23.935 39.92,24.18 39.652,24.436 C 39.537,24.544 39.407,24.659 39.297,24.781 L 39.322,24.777 L 39.192,24.799 L 38.951,24.778 C 38.637,24.762 38.326,24.768 38.015,24.786 C 37.791,24.77 37.567,24.756 37.342,24.745 C 37.716,24.455 38.074,24.145 38.431,23.826 C 39.002,23.317 39.546,22.838 40.213,22.458 C 40.35,22.38 40.532,22.288 40.681,22.239 C 40.79,22.19 40.838,22.06 40.789,21.95 C 40.74,21.84 40.61,21.792 40.5,21.841 C 39.68,22.204 39.066,22.759 38.413,23.358 C 38.1,23.644 37.787,23.928 37.472,24.212 C 37.276,24.387 37.06,24.562 36.835,24.723 C 36.645,24.716 36.454,24.711 36.263,24.709 C 35.986,24.706 35.691,24.706 35.398,24.718 C 35.348,24.712 35.299,24.707 35.25,24.702 C 35.124,24.688 34.999,24.673 34.874,24.661 C 35.466,24.3 36.059,23.943 36.654,23.594 C 37.083,23.342 37.495,23.069 37.914,22.803 C 38.01,22.74 38.038,22.61 37.976,22.514 C 37.913,22.418 37.783,22.389 37.687,22.452 C 37.328,22.68 36.985,22.924 36.631,23.158 C 36.003,23.573 35.38,23.993 34.752,24.409 C 34.643,24.48 34.534,24.553 34.425,24.625 C 34.114,24.614 33.805,24.634 33.499,24.739 C 33.432,24.761 33.327,24.804 33.268,24.845 C 33.117,24.947 33.032,25.025 32.921,25.165 C 32.809,25.304 32.712,25.451 32.629,25.605 C 32.623,25.612 32.617,25.62 32.612,25.627 C 32.563,25.692 32.503,25.754 32.452,25.82 C 32.395,25.891 32.322,26.003 32.257,26.114 C 31.369,26.752 30.506,27.422 29.682,28.158 C 29.655,28.182 29.652,28.224 29.676,28.25 C 29.699,28.277 29.741,28.28 29.768,28.256 C 30.509,27.587 31.293,26.988 32.105,26.426 C 32.043,26.579 31.979,26.724 31.926,26.885 C 31.77,27.346 31.685,27.838 31.635,28.332 C 31.593,28.296 31.54,28.275 31.482,28.276 C 31.312,28.272 31.116,28.279 30.947,28.29 C 30.591,28.314 30.212,28.318 29.854,28.326 C 29.48,28.333 29.103,28.341 28.729,28.355 C 28.639,28.358 28.55,28.36 28.46,28.36 C 28.056,28.275 27.646,28.233 27.235,28.201 C 28.762,26.959 30.351,25.796 31.98,24.693 C 32.774,24.154 33.584,23.616 34.403,23.115 C 34.51,23.045 34.54,22.901 34.47,22.795 C 34.401,22.688 34.257,22.658 34.15,22.727 C 33.319,23.271 32.492,23.846 31.687,24.429 C 30.883,25.011 30.079,25.593 29.291,26.198 C 28.45,26.842 27.627,27.5 26.809,28.171 C 26.675,28.163 26.541,28.155 26.406,28.148 C 26.684,27.754 26.996,27.387 27.342,27.028 C 27.563,26.797 27.772,26.553 28.001,26.33 C 28.681,25.667 29.405,25.075 30.186,24.533 C 30.674,24.195 31.171,23.889 31.681,23.587 C 31.915,23.449 32.188,23.327 32.408,23.176 C 32.52,23.099 32.627,22.996 32.725,22.901 C 32.795,22.867 32.823,22.78 32.789,22.711 C 32.754,22.641 32.667,22.613 32.598,22.647 C 32.436,22.668 32.267,22.701 32.115,22.759 C 32.047,22.786 31.989,22.82 31.925,22.855 C 31.757,22.948 31.588,23.039 31.421,23.134 C 31.105,23.315 30.77,23.515 30.474,23.726 C 30.159,23.949 29.848,24.16 29.541,24.395 C 28.954,24.844 28.395,25.331 27.867,25.846 C 27.613,26.093 27.355,26.348 27.124,26.616 C 26.96,26.806 26.813,27.009 26.666,27.211 C 26.442,27.512 26.243,27.817 26.055,28.131 C 25.53,28.108 25.003,28.094 24.481,28.079 C 24.141,28.069 23.803,28.061 23.465,28.056 C 23.494,28.024 23.522,27.993 23.551,27.963 C 23.713,27.789 23.863,27.599 24.028,27.425 C 24.283,27.157 24.537,26.906 24.806,26.651 C 25.405,26.079 26.04,25.546 26.67,25.008 C 27.117,24.626 27.548,24.228 27.991,23.843 C 28.094,23.747 28.1,23.583 28.004,23.48 C 27.908,23.377 27.743,23.371 27.641,23.467 C 27.41,23.686 27.185,23.918 26.951,24.132 C 26.428,24.613 25.902,25.089 25.377,25.568 C 24.686,26.198 23.959,26.87 23.355,27.588 C 23.229,27.737 23.112,27.892 22.999,28.05 C 22.291,28.043 21.585,28.046 20.877,28.057 C 21.039,27.847 21.2,27.638 21.371,27.435 C 22.599,25.954 24.173,24.592 25.789,23.548 C 26.201,23.283 26.611,23.037 27.033,22.791 C 27.123,22.737 27.152,22.619 27.098,22.529 C 27.044,22.439 26.927,22.41 26.837,22.464 C 25.95,22.972 25.139,23.596 24.329,24.215 C 23.958,24.499 23.607,24.818 23.258,25.128 C 22.287,25.991 21.357,27.016 20.584,28.062 C 19.963,28.075 19.343,28.095 18.723,28.121 C 18.485,28.131 18.248,28.141 18.01,28.152 C 18.486,27.596 18.998,27.071 19.537,26.575 C 19.967,26.18 20.407,25.768 20.864,25.403 C 21.403,24.973 21.926,24.544 22.482,24.135 C 22.68,23.988 22.895,23.816 23.103,23.687 C 23.201,23.613 23.222,23.473 23.148,23.375 C 23.075,23.277 22.935,23.257 22.837,23.33 C 21.577,24.323 20.413,25.351 19.265,26.478 C 18.723,27.01 18.196,27.575 17.711,28.166 C 16.831,28.209 15.95,28.261 15.069,28.323 C 16.144,27.01 17.351,25.783 18.679,24.737 C 19.285,24.258 19.925,23.83 20.584,23.428 C 20.775,23.312 20.971,23.206 21.164,23.094 C 21.259,23.038 21.29,22.913 21.235,22.818 C 21.179,22.723 21.054,22.692 20.959,22.748 C 19.51,23.62 18.272,24.626 17.067,25.805 C 16.584,26.278 16.142,26.779 15.692,27.282 C 15.442,27.561 15.198,27.857 14.963,28.148 C 14.91,28.213 14.858,28.278 14.805,28.342 C 14.045,28.397 13.285,28.462 12.526,28.536 C 12.612,28.438 12.7,28.341 12.786,28.248 C 13.351,27.633 13.909,27.064 14.527,26.498 C 15.573,25.542 16.688,24.672 17.797,23.792 C 17.872,23.731 17.883,23.618 17.821,23.543 C 17.76,23.467 17.647,23.456 17.572,23.518 C 15.694,25.077 13.838,26.703 12.273,28.58 C 12.266,28.587 12.26,28.594 12.255,28.602 C 11.272,28.669 11.204,28.677 11.136,28.686 C 10.634,28.744 10.133,28.802 9.632,28.864 C 11.215,27.135 12.8,25.459 14.678,24.048 C 14.732,24.006 14.742,23.925 14.699,23.872 C 14.657,23.818 14.577,23.808 14.523,23.85 C 14.114,24.158 13.737,24.495 13.348,24.826 C 13.044,25.083 12.749,25.37 12.462,25.646 C 11.775,26.306 11.11,27.008 10.47,27.713 C 10.112,28.104 9.757,28.5 9.402,28.892 C 9.045,28.937 8.69,28.983 8.336,29.032 C 7.746,29.113 7.158,29.205 6.57,29.291 C 6.457,29.306 6.378,29.413 6.393,29.526 C 6.409,29.638 6.516,29.718 6.628,29.702 C 7.406,29.588 8.181,29.48 8.957,29.38 C 8.852,29.496 8.746,29.612 8.64,29.726 C 8.604,29.732 8.568,29.738 8.532,29.745 C 8.389,29.771 8.243,29.786 8.1,29.81 C 7.767,29.864 7.439,29.92 7.109,29.986 C 6.945,30.018 6.761,30.052 6.601,30.098 C 6.355,30.17 5.929,30.262 5.73,30.422 L 5.234,30.948 C 5.04,30.996 4.845,31.045 4.65,31.096 C 4.545,30.401 4.417,29.708 4.274,29.019 C 4.538,28.787 4.805,28.549 5.056,28.306 C 5.816,27.57 6.563,26.805 7.349,26.097 C 7.399,26.048 7.4,25.964 7.351,25.914 C 7.302,25.865 7.219,25.864 7.169,25.913 C 6.988,26.083 6.79,26.287 6.624,26.472 C 6.423,26.696 6.206,26.914 5.999,27.133 C 5.803,27.342 5.609,27.555 5.411,27.76 C 5.117,28.063 4.813,28.385 4.5,28.667 C 4.417,28.742 4.333,28.82 4.25,28.897 C 4.161,28.471 4.067,28.048 3.97,27.627 C 3.961,27.59 3.953,27.555 3.944,27.52 C 3.84,26.394 3.733,25.268 3.634,24.143 C 3.586,23.6 3.539,23.056 3.495,22.511 C 3.547,22.452 3.572,22.372 3.56,22.29 C 3.519,21.877 3.513,21.464 3.457,21.049 C 3.414,20.734 3.367,20.42 3.324,20.108 C 3.206,18.153 3.151,16.195 3.23,14.257 C 3.244,13.889 3.249,13.522 3.275,13.155 C 3.307,12.688 3.358,12.222 3.42,11.758 C 3.527,11.66 3.636,11.563 3.745,11.464 C 3.942,11.284 4.13,11.087 4.319,10.898 C 6.038,9.182 7.776,7.492 9.716,6.024 C 9.776,5.976 9.795,5.895 9.77,5.826 C 9.985,5.818 10.199,5.807 10.414,5.794 C 11.361,5.733 12.313,5.708 13.261,5.672 C 13.52,5.661 13.779,5.652 14.039,5.644 C 13.759,5.853 13.473,6.078 13.212,6.306 C 12.865,6.608 12.51,6.9 12.175,7.214 C 11.4,7.943 10.644,8.685 9.893,9.44 C 9.557,9.777 9.22,10.117 8.879,10.451 C 8.726,10.601 8.567,10.744 8.415,10.895 C 8.237,11.072 8.052,11.252 7.867,11.423 C 7.552,11.713 7.221,11.994 6.91,12.287 C 6.877,12.317 6.874,12.37 6.903,12.404 C 6.933,12.437 6.987,12.44 7.02,12.411 C 7.331,12.117 7.664,11.836 7.981,11.545 C 8.626,10.954 9.255,10.333 9.883,9.725 C 11.382,8.275 12.908,6.798 14.645,5.628 C 15.265,5.612 15.886,5.601 16.507,5.593 C 16.462,5.636 16.418,5.679 16.373,5.72 C 16.222,5.858 16.069,5.995 15.917,6.133 C 15.38,6.621 14.797,7.072 14.237,7.534 C 13.365,8.253 12.464,8.937 11.602,9.671 C 11.08,10.115 10.54,10.591 10.065,11.085 C 9.78,11.382 9.51,11.68 9.24,11.991 C 9.205,12.031 9.21,12.094 9.25,12.13 C 9.29,12.165 9.354,12.16 9.389,12.12 C 9.665,11.775 10.001,11.425 10.318,11.118 C 11.337,10.134 12.418,9.292 13.545,8.431 C 14.375,7.797 15.207,7.174 16.019,6.518 C 16.241,6.339 16.46,6.149 16.675,5.962 C 16.806,5.848 16.933,5.722 17.067,5.611 C 17.833,5.578 18.828,5.571 19.825,5.562 C 19.722,5.621 19.621,5.682 19.522,5.746 C 19.233,5.929 18.969,6.147 18.696,6.352 C 18.149,6.762 17.622,7.217 17.104,7.664 C 16.492,8.19 15.893,8.754 15.32,9.323 C 14.685,9.954 14.066,10.588 13.455,11.242 C 13.317,11.39 13.17,11.539 13.038,11.692 C 12.79,11.979 12.544,12.266 12.297,12.553 C 12.248,12.608 12.254,12.694 12.309,12.743 C 12.364,12.792 12.45,12.786 12.499,12.732 C 12.721,12.469 12.971,12.231 13.2,11.977 C 13.733,11.384 14.297,10.793 14.873,10.24 C 15.178,9.947 15.491,9.663 15.799,9.372 C 16.256,8.939 16.748,8.547 17.222,8.134 C 17.977,7.475 18.809,6.873 19.604,6.262 C 19.887,6.045 20.141,5.796 20.41,5.564 C 20.413,5.561 20.416,5.559 20.42,5.556 C 21.088,5.548 21.755,5.54 22.424,5.526 C 22.778,5.518 23.134,5.511 23.489,5.505 C 23.316,5.635 23.144,5.769 22.98,5.896 C 22.368,6.367 21.778,6.846 21.189,7.345 C 19.133,9.083 17.207,11.001 15.275,12.874 C 15.241,12.906 15.24,12.962 15.272,12.996 C 15.304,13.03 15.36,13.031 15.394,12.999 C 17.296,11.141 19.255,9.334 21.334,7.677 C 21.938,7.194 22.573,6.717 23.211,6.279 C 23.405,6.146 23.599,6.012 23.793,5.879 C 23.924,5.79 24.061,5.709 24.186,5.615 C 24.24,5.574 24.294,5.533 24.347,5.492 C 25.142,5.48 25.938,5.469 26.733,5.456 C 25.509,6.567 24.202,7.574 22.95,8.653 C 22.361,9.161 21.804,9.681 21.257,10.231 C 20.776,10.716 20.321,11.264 19.908,11.808 C 19.853,11.876 19.864,11.979 19.933,12.034 C 20.001,12.088 20.104,12.078 20.159,12.009 C 20.465,11.615 20.792,11.251 21.135,10.888 C 21.852,10.129 22.607,9.4 23.425,8.748 C 23.747,8.493 24.065,8.231 24.385,7.973 C 24.817,7.624 25.261,7.283 25.688,6.927 C 25.974,6.687 26.266,6.45 26.546,6.202 C 26.826,5.955 27.095,5.696 27.371,5.446 C 27.557,5.442 27.743,5.438 27.929,5.435 C 28.507,5.422 29.085,5.404 29.663,5.383 C 29.074,5.803 28.49,6.232 27.912,6.669 C 27.505,6.977 27.113,7.307 26.717,7.629 C 26.21,8.042 25.69,8.473 25.205,8.912 C 24.915,9.174 24.621,9.432 24.332,9.695 C 24.041,9.959 23.757,10.232 23.468,10.499 C 23.114,10.826 22.774,11.175 22.427,11.509 C 22.369,11.565 22.368,11.66 22.424,11.717 C 22.48,11.775 22.575,11.776 22.633,11.72 C 23.093,11.257 23.577,10.808 24.061,10.369 C 25.348,9.202 26.701,8.11 28.105,7.085 C 28.314,6.933 28.518,6.77 28.728,6.617 C 29.318,6.189 29.912,5.766 30.513,5.352 C 31.022,5.331 31.531,5.311 32.041,5.293 C 32.296,5.283 32.552,5.271 32.809,5.259 C 32.739,5.312 32.668,5.367 32.599,5.421 C 31.781,5.477 30.958,5.546 30.15,5.626 C 30.211,5.651 30.273,5.691 30.339,5.695 C 30.587,5.708 30.849,5.705 31.098,5.708 C 31.476,5.712 31.854,5.712 32.232,5.708 C 31.987,5.9 31.745,6.096 31.506,6.295 C 29.433,8.025 27.541,9.875 25.683,11.834 C 25.643,11.876 25.644,11.946 25.686,11.986 C 25.728,12.026 25.797,12.025 25.837,11.983 C 27.636,10.08 29.512,8.326 31.573,6.71 C 32.014,6.364 32.467,6.023 32.924,5.695 C 33.067,5.691 33.21,5.687 33.353,5.683 C 34.082,5.656 34.813,5.62 35.543,5.577 C 35.21,5.886 34.873,6.19 34.522,6.482 C 33.654,7.205 32.778,7.916 31.898,8.625 C 30.448,9.792 29.067,10.981 27.858,12.404 C 27.808,12.461 27.813,12.55 27.871,12.6 C 27.928,12.65 28.017,12.645 28.067,12.588 C 28.523,12.053 28.998,11.548 29.508,11.065 C 30.335,10.282 31.211,9.586 32.102,8.881 C 33.099,8.092 34.113,7.327 35.098,6.523 C 35.487,6.204 35.868,5.874 36.24,5.535 C 36.663,5.508 37.085,5.48 37.507,5.452 C 37.891,5.477 38.275,5.501 38.658,5.525 C 38.123,6.029 37.585,6.534 37.055,7.045 C 35.69,8.357 34.339,9.725 33.088,11.147 C 32.764,11.515 32.475,11.923 32.172,12.31 C 32.15,12.336 32.155,12.376 32.182,12.398 C 32.208,12.419 32.248,12.414 32.27,12.388 C 32.495,12.094 32.758,11.808 33.016,11.541 C 33.091,11.463 33.157,11.374 33.231,11.295 C 33.371,11.144 33.502,10.981 33.643,10.831 C 34.083,10.362 34.53,9.906 34.988,9.455 C 35.789,8.665 36.656,7.916 37.497,7.168 C 38.092,6.638 38.68,6.101 39.263,5.56 C 39.667,5.584 40.072,5.606 40.477,5.627 C 40.988,5.652 41.499,5.679 42.01,5.695 C 41.875,5.785 41.74,5.876 41.605,5.968 C 41.306,6.169 40.993,6.383 40.711,6.606 C 40.211,7 39.693,7.395 39.219,7.819 C 38.927,8.082 38.625,8.334 38.339,8.604 C 37.706,9.2 37.083,9.79 36.466,10.406 C 35.999,10.873 35.533,11.343 35.074,11.818 C 34.834,12.069 34.582,12.314 34.347,12.568 C 34.307,12.61 34.307,12.679 34.349,12.719 C 34.391,12.759 34.46,12.759 34.5,12.717 C 34.784,12.414 35.084,12.112 35.38,11.821 C 35.604,11.601 35.82,11.372 36.048,11.155 C 36.539,10.688 37.018,10.198 37.524,9.747 C 37.99,9.331 38.454,8.923 38.93,8.517 C 39.576,7.967 40.256,7.475 40.938,6.972 C 41.538,6.528 42.159,6.11 42.787,5.71 C 43.405,5.715 44.023,5.705 44.64,5.695 C 44.194,6.067 43.746,6.44 43.297,6.807 C 42.764,7.243 42.244,7.691 41.719,8.137 C 41.205,8.572 40.669,9.041 40.19,9.516 C 39.724,9.979 39.278,10.432 38.834,10.918 C 38.574,11.203 38.346,11.527 38.117,11.837 C 37.869,12.174 37.622,12.504 37.381,12.846 C 37.332,12.916 37.347,13.014 37.417,13.062 C 37.486,13.111 37.584,13.096 37.633,13.026 C 37.78,12.817 37.928,12.596 38.084,12.393 C 38.387,11.996 38.731,11.615 39.076,11.254 C 39.243,11.081 39.4,10.896 39.567,10.722 C 39.996,10.271 40.446,9.818 40.911,9.404 C 42.58,7.915 44.349,6.543 46.087,5.134 C 47.698,5.248 49.314,5.409 50.921,5.568 Z M 35.026,5.285 C 34.524,5.311 34.025,5.336 33.526,5.364 C 33.478,5.366 33.43,5.369 33.381,5.372 C 33.456,5.319 33.531,5.266 33.606,5.215 C 33.674,5.21 33.741,5.206 33.809,5.202 C 34.213,5.229 34.619,5.257 35.026,5.285 Z M 5.836,5.493 C 5.823,5.494 5.809,5.495 5.795,5.496 C 5.82,5.48 5.845,5.464 5.871,5.462 C 5.859,5.472 5.847,5.482 5.836,5.493 Z M 45.508,7.412 C 43.812,8.83 42.249,10.241 41.051,12.117 C 41.004,12.186 41.023,12.282 41.093,12.329 C 41.162,12.376 41.258,12.357 41.305,12.287 C 41.647,11.765 42.004,11.277 42.408,10.802 C 43.525,9.49 44.88,8.434 46.229,7.374 C 46.536,7.132 46.853,6.901 47.161,6.66 C 47.469,6.42 47.778,6.175 48.091,5.94 C 48.2,5.853 48.217,5.691 48.13,5.582 C 48.043,5.472 47.881,5.455 47.772,5.543 C 47.015,6.161 46.257,6.786 45.508,7.412 Z M 69.072,5.765 C 69.15,5.837 69.227,5.915 69.294,5.988 C 69.318,6.015 69.344,6.044 69.368,6.071 C 69.322,6.06 69.276,6.052 69.23,6.044 C 69.075,6.016 68.912,6.02 68.753,6.021 C 68.464,5.895 68.165,5.781 67.87,5.674 C 68.27,5.703 68.671,5.733 69.072,5.765 Z M 5.511,5.798 C 5.517,5.797 5.524,5.796 5.531,5.796 C 5.464,5.869 5.397,5.943 5.327,6.015 C 5.199,6.147 5.08,6.315 4.967,6.462 C 4.885,6.567 4.808,6.676 4.733,6.786 C 4.654,6.833 4.574,6.88 4.494,6.927 C 4.499,6.889 4.483,6.851 4.449,6.832 C 4.571,6.643 4.721,6.474 4.862,6.302 C 5.009,6.122 5.208,5.931 5.413,5.767 C 5.439,5.788 5.473,5.8 5.511,5.798 Z M 6.763,8.16 C 6.233,8.679 5.698,9.191 5.172,9.714 C 4.791,10.092 4.417,10.481 4.032,10.856 C 3.836,11.047 3.648,11.248 3.462,11.449 C 3.503,11.161 3.547,10.875 3.593,10.588 C 3.633,10.329 3.672,10.072 3.714,9.815 C 3.726,9.775 3.739,9.736 3.751,9.697 C 4.38,9.107 4.957,8.455 5.543,7.831 C 6.034,7.307 6.536,6.787 7.1,6.339 C 7.157,6.289 7.181,6.215 7.169,6.146 C 7.388,6.07 7.61,6 7.834,5.932 C 7.891,5.927 7.948,5.923 8.005,5.918 C 8.463,5.877 8.926,5.86 9.389,5.841 C 8.486,6.576 7.594,7.346 6.763,8.16 Z M 9.546,7.513 C 8.218,8.584 6.892,9.664 5.699,10.883 C 5.419,11.17 5.146,11.484 4.89,11.792 C 4.785,11.917 4.688,12.051 4.584,12.178 L 4.591,12.233 L 4.647,12.226 C 6.004,10.47 7.698,9.204 9.441,7.851 C 9.862,7.524 10.29,7.204 10.709,6.874 C 11.013,6.636 11.307,6.383 11.611,6.147 C 11.673,6.097 11.681,6.003 11.63,5.941 C 11.579,5.879 11.485,5.871 11.423,5.922 C 10.798,6.454 10.186,6.997 9.546,7.513 Z M 5.662,6.277 C 5.662,6.282 5.663,6.287 5.664,6.293 C 5.544,6.351 5.425,6.411 5.307,6.472 C 5.408,6.338 5.514,6.208 5.627,6.084 C 5.634,6.149 5.655,6.219 5.662,6.277 Z M 5.938,6.163 L 6.059,6.136 C 6.065,6.135 6.071,6.134 6.077,6.134 C 6.023,6.124 5.981,6.144 5.938,6.163 Z M 4.517,8.408 C 4.351,8.588 4.182,8.77 4.01,8.952 C 4.033,8.889 4.058,8.827 4.083,8.765 C 4.238,8.376 4.385,7.982 4.59,7.617 C 4.673,7.469 4.75,7.318 4.832,7.172 C 5.116,7.014 5.407,6.867 5.704,6.73 C 5.707,6.792 5.709,6.852 5.71,6.916 C 5.71,6.96 5.746,6.996 5.79,6.996 C 5.835,6.996 5.871,6.96 5.871,6.916 C 5.87,6.829 5.873,6.741 5.878,6.652 C 6.037,6.58 6.199,6.512 6.361,6.446 C 5.708,7.067 5.137,7.731 4.517,8.408 Z M 66.89,8.564 C 66.303,8.987 65.727,9.444 65.171,9.907 C 63.688,11.142 62.319,12.461 61.189,14.033 C 61.146,14.09 61.157,14.173 61.215,14.216 C 61.273,14.259 61.355,14.247 61.398,14.189 C 62.4,12.805 63.578,11.672 64.907,10.606 C 65.296,10.295 65.696,9.992 66.1,9.7 C 66.39,9.49 66.688,9.29 66.976,9.077 C 67.756,8.503 68.561,7.955 69.357,7.402 C 69.462,7.329 69.489,7.181 69.415,7.075 C 69.342,6.97 69.194,6.943 69.088,7.017 C 68.351,7.526 67.616,8.041 66.89,8.564 Z M 4.094,7.904 C 4.079,7.93 4.066,7.957 4.053,7.985 C 4.068,7.895 4.082,7.805 4.098,7.716 C 4.121,7.666 4.146,7.616 4.169,7.567 C 4.22,7.535 4.271,7.502 4.322,7.471 C 4.244,7.614 4.168,7.758 4.094,7.904 Z M 70.94,7.876 C 70.943,7.894 70.946,7.912 70.949,7.93 C 70.945,7.934 70.942,7.938 70.938,7.941 C 70.922,7.906 70.904,7.871 70.887,7.837 C 70.905,7.85 70.923,7.864 70.94,7.876 Z M 71.796,8.633 C 71.946,8.784 72.066,8.959 72.199,9.123 C 72.262,9.201 72.319,9.275 72.372,9.35 C 72.366,9.397 72.361,9.444 72.356,9.492 C 72.333,9.693 72.315,9.896 72.297,10.099 C 72.283,10.07 72.271,10.041 72.258,10.012 C 72.26,9.964 72.249,9.914 72.223,9.871 C 72.207,9.845 72.188,9.823 72.164,9.805 C 72.089,9.636 72.011,9.467 71.933,9.3 C 71.881,9.19 71.828,9.082 71.773,8.974 C 71.746,8.825 71.721,8.674 71.688,8.525 C 71.725,8.561 71.76,8.597 71.796,8.633 Z M 70.926,8.745 C 70.911,8.729 70.892,8.717 70.872,8.711 C 70.882,8.701 70.891,8.692 70.901,8.683 C 70.909,8.703 70.917,8.724 70.926,8.745 Z M 2.309,11.079 C 2.261,11.197 2.235,11.307 2.197,11.426 C 2.19,11.446 2.183,11.467 2.176,11.488 C 2.172,11.373 2.169,11.257 2.165,11.142 C 2.163,11.07 2.134,11.007 2.088,10.96 C 2.21,10.89 2.329,10.817 2.447,10.74 C 2.4,10.853 2.354,10.966 2.309,11.079 Z M 72.213,11.395 C 72.212,11.419 72.211,11.442 72.21,11.464 C 72.18,11.364 72.149,11.262 72.12,11.16 C 72.112,11.092 72.104,11.025 72.097,10.963 C 72.135,11.105 72.173,11.25 72.213,11.395 Z M 2.97,22.173 C 2.985,22.445 3.001,22.718 3.017,22.991 C 2.984,22.654 2.951,22.316 2.918,21.978 C 2.935,22.043 2.952,22.108 2.97,22.173 Z M 9.884,25.869 C 9.468,26.188 9.063,26.517 8.652,26.842 C 7.951,27.395 7.274,28.005 6.607,28.599 C 6.018,29.122 5.428,29.664 4.863,30.214 C 4.837,30.238 4.836,30.282 4.861,30.309 C 4.885,30.335 4.929,30.336 4.955,30.312 C 6.76,28.566 8.779,26.931 10.88,25.555 C 10.955,25.502 10.974,25.396 10.921,25.32 C 10.868,25.245 10.761,25.226 10.686,25.279 C 10.419,25.475 10.148,25.668 9.884,25.869 Z M 35.45,25.621 C 35.482,25.702 35.574,25.743 35.655,25.712 C 35.776,25.658 35.912,25.621 36.031,25.563 C 36.11,25.625 36.187,25.626 36.275,25.656 C 36.478,25.728 36.89,25.732 37.107,25.729 C 37.245,25.728 37.381,25.721 37.519,25.71 C 37.832,25.73 38.15,25.73 38.483,25.702 C 38.655,25.717 38.827,25.733 39.001,25.752 C 39.694,25.821 40.402,25.894 41.105,25.928 C 41.106,25.928 41.107,25.929 41.108,25.93 C 41.115,25.937 41.123,25.942 41.134,25.929 L 41.141,25.93 C 41.163,25.946 41.186,25.961 41.207,25.977 C 41.4,26.119 41.552,26.244 41.722,26.413 C 41.815,26.505 41.91,26.628 41.984,26.735 L 42.036,26.815 L 41.949,26.83 C 41.776,26.895 41.69,27.091 41.755,27.264 C 41.937,27.721 42.089,28.184 42.214,28.652 C 41.426,28.71 40.639,28.775 39.85,28.79 C 39.348,28.798 38.844,28.822 38.342,28.825 C 37.149,28.831 35.95,28.81 34.76,28.728 C 34.116,28.683 33.46,28.643 32.819,28.562 C 32.939,28.119 33.085,27.683 33.259,27.264 C 33.325,27.092 33.239,26.896 33.067,26.831 L 32.978,26.816 L 33.126,26.599 C 33.242,26.457 33.366,26.326 33.501,26.211 C 33.652,26.082 33.845,25.931 34.024,25.846 C 34.271,25.728 34.476,25.629 34.718,25.549 C 34.961,25.527 35.208,25.518 35.446,25.518 C 35.437,25.55 35.437,25.587 35.45,25.621 Z M 42.572,25.916 L 42.637,26.01 C 42.689,26.084 42.734,26.177 42.778,26.256 C 42.93,26.528 43.101,26.877 43.185,27.176 C 43.242,27.385 43.33,27.646 43.35,27.861 C 43.358,27.95 43.376,28.039 43.386,28.128 C 43.407,28.322 43.418,28.524 43.418,28.721 C 43.385,28.692 43.351,28.667 43.313,28.648 C 43.264,28.352 43.2,28.061 43.116,27.781 L 42.864,27.114 C 42.791,26.717 42.686,26.298 42.533,25.918 L 42.572,25.916 Z M 3.366,29.597 C 3.443,30.191 3.521,30.785 3.599,31.379 C 3.364,31.445 3.13,31.513 3.079,31.535 C 3.082,31.535 3.082,31.534 3.082,31.533 C 3.068,31.083 3.062,30.632 3.051,30.182 C 3.023,28.991 2.987,27.801 2.955,26.61 C 2.953,26.573 2.952,26.536 2.951,26.494 C 3.09,27.531 3.23,28.563 3.366,29.597 Z M 71.971,29.797 C 71.842,29.883 71.714,29.97 71.587,30.058 C 71.605,29.917 71.624,29.776 71.643,29.635 C 71.781,28.592 71.922,27.549 72.061,26.508 C 72.031,27.603 71.998,28.7 71.971,29.797 Z M 71.192,30.331 C 71.099,30.396 71.007,30.46 70.914,30.525 C 71.042,30.003 71.174,29.483 71.308,28.961 C 71.336,28.852 71.363,28.744 71.391,28.636 C 71.324,29.201 71.258,29.765 71.192,30.331 Z M 54.578,28.666 C 54.544,28.7 54.51,28.735 54.475,28.769 C 54.34,28.769 54.206,28.769 54.072,28.769 C 53.306,28.768 52.541,28.772 51.776,28.78 C 51.802,28.746 51.828,28.714 51.855,28.681 C 52.234,28.676 52.613,28.674 52.991,28.672 C 53.521,28.668 54.049,28.666 54.578,28.666 Z M 57.579,28.712 C 57.634,28.713 57.689,28.715 57.744,28.717 C 57.722,28.743 57.701,28.769 57.679,28.794 C 56.761,28.786 55.844,28.776 54.925,28.771 C 54.961,28.737 54.996,28.701 55.032,28.667 C 55.881,28.671 56.729,28.684 57.579,28.712 Z M 19.98,28.693 C 19.127,28.753 18.275,28.814 17.425,28.877 C 17.468,28.821 17.511,28.765 17.554,28.709 C 17.777,28.702 18,28.697 18.224,28.692 C 18.809,28.677 19.394,28.669 19.98,28.693 Z M 51.378,28.784 C 50.421,28.794 49.464,28.81 48.509,28.827 C 48.474,28.827 48.438,28.828 48.404,28.828 C 48.412,28.818 48.421,28.807 48.429,28.796 C 49.24,28.764 50.051,28.732 50.862,28.704 C 51.058,28.698 51.255,28.692 51.451,28.688 C 51.427,28.72 51.402,28.752 51.378,28.784 Z M 60.413,28.844 C 60.411,28.846 60.409,28.848 60.407,28.85 C 59.638,28.818 58.833,28.806 58.038,28.798 C 58.058,28.775 58.078,28.752 58.098,28.73 C 58.878,28.759 59.657,28.797 60.413,28.844 Z M 17.158,28.877 C 17.153,28.883 17.149,28.89 17.145,28.898 C 15.515,29.019 13.886,29.149 12.257,29.307 C 12.125,29.319 11.994,29.333 11.862,29.347 C 11.943,29.241 12.026,29.135 12.11,29.031 C 12.333,29.011 12.556,28.991 14.381,28.924 C 14.351,28.959 14.364,28.995 14.393,29.019 C 14.435,29.052 14.498,29.044 14.531,29.002 C 14.572,28.947 14.614,28.893 14.656,28.838 C 15.53,28.787 16.404,28.746 17.276,28.718 C 17.236,28.771 17.197,28.823 17.158,28.877 Z M 48.15,28.834 C 47.532,28.849 46.915,28.877 46.298,28.904 C 46.306,28.893 46.314,28.884 46.323,28.873 C 46.556,28.866 46.79,28.858 47.024,28.85 C 47.406,28.836 47.788,28.822 48.171,28.806 C 48.163,28.816 48.156,28.825 48.15,28.834 Z M 60.801,28.87 C 60.791,28.869 60.781,28.868 60.773,28.868 C 60.782,28.868 60.791,28.869 60.801,28.87 Z M 46.108,28.892 C 46.102,28.898 46.098,28.905 46.096,28.913 C 45.934,28.92 45.773,28.927 45.612,28.933 C 45.239,28.948 44.863,28.959 44.491,28.981 C 44.461,28.982 44.431,28.984 44.4,28.987 C 44.4,28.97 44.401,28.952 44.401,28.934 C 44.973,28.915 45.545,28.897 46.116,28.88 C 46.113,28.884 46.111,28.887 46.108,28.892 Z M 30.258,28.925 C 30.3,28.955 30.35,28.976 30.405,28.985 C 30.796,29.046 31.183,29.12 31.573,29.191 C 31.571,29.232 31.569,29.273 31.567,29.315 C 31.548,29.693 31.556,30.087 31.562,30.465 C 31.563,30.564 31.565,30.663 31.567,30.763 C 31.39,30.766 31.214,30.772 31.037,30.781 C 30.838,30.785 30.679,30.953 30.683,31.153 C 30.687,31.352 30.855,31.511 31.055,31.507 C 31.233,31.498 31.412,31.492 31.591,31.49 C 31.607,31.849 31.628,32.207 31.654,32.561 C 31.654,32.57 31.655,32.579 31.655,32.588 C 31.645,32.587 31.635,32.587 31.624,32.588 C 31.449,32.593 31.31,32.74 31.315,32.916 C 31.319,33.013 31.332,33.106 31.352,33.197 L 31.345,33.318 C 31.342,33.364 31.337,33.411 31.331,33.461 C 31.318,33.561 31.281,33.753 31.291,33.845 C 31.333,34.24 31.338,34.643 31.495,35.014 C 31.501,35.031 31.509,35.049 31.519,35.068 L 31.389,35.059 C 31.119,35.033 30.877,35.23 30.85,35.5 C 30.824,35.77 31.021,36.012 31.291,36.038 C 31.5,36.055 31.709,36.078 31.918,36.095 C 32.534,36.145 33.182,36.181 33.799,36.183 C 34.144,36.184 34.492,36.203 34.837,36.201 C 35.596,36.196 36.357,36.215 37.115,36.215 C 37.769,36.214 38.437,36.218 39.09,36.251 C 39.597,36.276 40.133,36.28 40.636,36.341 C 40.763,36.356 40.894,36.36 41.021,36.377 C 41.172,36.397 41.325,36.419 41.475,36.435 C 41.519,36.439 41.565,36.445 41.612,36.451 C 41.624,36.606 41.755,36.729 41.913,36.729 C 42.031,36.729 42.134,36.658 42.182,36.556 C 42.317,36.588 42.463,36.636 42.599,36.601 C 42.788,36.551 42.918,36.436 42.964,36.241 C 43.003,36.077 42.945,35.959 42.889,35.818 C 42.868,35.768 42.856,35.681 42.848,35.6 C 42.899,35.597 42.948,35.587 42.993,35.565 C 43.208,35.451 43.208,35.138 42.992,35.028 L 42.92,34.996 L 42.892,34.982 C 42.903,34.926 42.913,34.87 42.925,34.816 L 43.032,34.764 C 43.086,34.725 43.13,34.674 43.151,34.598 C 43.176,34.512 43.186,34.354 43.195,34.26 L 43.213,34.027 L 43.297,34.211 L 43.352,34.193 C 43.285,33.994 43.257,33.8 43.278,33.591 C 43.355,33.324 43.468,33.041 43.558,32.777 C 43.818,31.997 44.065,31.219 44.224,30.432 C 44.294,30.435 44.363,30.437 44.435,30.437 C 44.705,30.436 45.003,30.396 45.275,30.371 C 45.758,30.328 46.242,30.292 46.726,30.256 C 48.4,30.133 50.093,30.05 51.772,30.01 C 53.902,29.959 56.03,29.951 58.155,30.012 C 57.682,30.132 57.237,30.288 56.779,30.477 C 56.714,30.495 56.677,30.563 56.694,30.628 C 56.712,30.693 56.781,30.73 56.845,30.712 C 57.075,30.656 57.323,30.622 57.557,30.588 C 58.196,30.496 58.812,30.464 59.456,30.444 C 60.04,30.425 60.64,30.439 61.224,30.48 C 61.477,30.498 61.755,30.516 62.006,30.555 C 62.278,30.599 62.552,30.626 62.824,30.674 C 63.303,30.759 63.786,30.852 64.259,30.961 C 65.46,31.237 66.637,31.575 67.824,31.903 C 68.368,32.053 68.907,32.195 69.451,32.329 C 69.477,32.364 69.512,32.394 69.555,32.413 C 69.628,32.445 69.709,32.442 69.777,32.41 C 69.814,32.418 69.851,32.427 69.888,32.436 C 69.979,32.723 70.039,33.017 70.092,33.314 C 70.089,33.352 70.085,33.39 70.083,33.429 C 70.043,33.947 69.993,34.465 69.973,34.985 C 70.049,34.815 70.083,34.47 70.115,34.274 C 70.138,34.137 70.161,34 70.186,33.862 C 70.324,34.721 70.369,35.596 70.485,36.455 C 70.597,37.286 70.756,38.06 71.057,38.83 C 71.01,39.005 70.964,39.18 70.92,39.354 C 70.644,40.431 70.409,41.555 70.231,42.653 C 70.042,43.818 69.908,44.998 69.769,46.17 C 69.448,48.87 69.242,51.583 68.87,54.278 C 68.735,55.255 68.587,56.236 68.402,57.205 C 68.316,57.659 68.212,58.11 68.12,58.562 C 68.094,58.692 68.062,58.824 68.029,58.956 C 66.412,58.922 64.794,58.898 63.177,58.871 C 59.619,58.813 56.06,58.766 52.502,58.765 C 50.505,58.764 48.504,58.76 46.507,58.794 C 45.448,58.813 44.386,58.813 43.328,58.848 C 41.695,58.902 40.054,58.894 38.423,58.985 C 38.069,59.004 37.716,59.027 37.364,59.053 C 37.345,59.052 37.328,59.051 37.312,59.051 C 37.102,59.026 36.892,59.002 36.683,58.981 C 36.011,58.91 35.335,58.862 34.66,58.821 C 33.691,58.762 32.723,58.696 31.754,58.645 C 29.08,58.505 26.401,58.408 23.723,58.375 C 23.063,58.366 22.405,58.36 21.748,58.356 C 21.709,58.279 21.629,58.226 21.538,58.229 C 21.451,58.231 21.378,58.282 21.341,58.354 C 18.002,58.339 14.672,58.376 11.331,58.476 C 9.904,58.518 8.477,58.572 7.053,58.643 C 6.972,58.642 6.895,58.641 6.818,58.641 C 6.578,58.638 6.328,58.629 6.082,58.617 C 6.04,57.895 5.988,57.175 5.921,56.456 C 5.849,55.707 5.766,54.961 5.689,54.213 C 5.63,53.643 5.573,53.063 5.491,52.497 C 5.195,50.453 4.895,48.397 4.53,46.364 C 4.47,46.035 4.412,45.706 4.354,45.376 C 4.32,44.953 4.289,44.53 4.261,44.108 C 4.244,43.843 4.226,43.577 4.21,43.312 C 4.194,43.065 4.191,42.813 4.169,42.568 C 4.136,42.198 4.122,41.806 4.111,41.434 C 4.093,40.89 4.07,40.347 4.061,39.803 C 4.044,38.72 4.066,37.664 4.12,36.583 C 4.138,36.22 4.166,35.834 4.21,35.453 C 4.227,35.457 4.246,35.459 4.265,35.457 C 4.351,35.447 4.414,35.367 4.404,35.281 C 4.377,35.073 4.351,34.866 4.325,34.658 C 4.413,34.156 4.495,33.684 4.673,33.199 C 4.678,33.182 4.684,33.165 4.69,33.149 C 4.75,33.439 4.806,33.73 4.856,34.021 C 4.91,34.342 4.957,34.668 5.019,34.987 C 5.051,34.853 5.015,34.662 5.012,34.521 C 5.007,34.32 4.989,34.105 4.972,33.904 C 4.939,33.511 4.901,33.121 4.858,32.731 C 4.895,32.652 4.936,32.577 4.982,32.508 C 4.99,32.495 4.999,32.482 5.008,32.467 C 5.816,32.28 6.62,32.066 7.418,31.84 C 9.282,31.31 11.115,30.808 13.038,30.551 C 13.593,30.476 14.148,30.461 14.706,30.442 C 15.089,30.429 15.515,30.428 15.897,30.453 C 16.66,30.502 17.421,30.538 18.171,30.712 C 18.235,30.73 18.304,30.693 18.321,30.628 C 18.339,30.563 18.302,30.495 18.237,30.477 C 17.776,30.294 17.326,30.136 16.861,30.013 C 17.096,30.006 17.329,29.999 17.563,29.995 C 18.449,29.972 19.334,29.971 20.22,29.97 C 21.378,29.969 22.546,29.977 23.703,30.023 C 25.18,30.082 26.644,30.149 28.118,30.245 C 28.651,30.28 29.186,30.322 29.718,30.369 C 30.035,30.398 30.381,30.444 30.697,30.436 C 30.926,30.43 31.141,30.406 31.368,30.38 C 31.423,30.385 31.473,30.345 31.478,30.29 C 31.483,30.235 31.443,30.185 31.388,30.181 C 31.135,30.097 30.886,30.014 30.622,29.969 C 30.386,29.929 30.139,29.916 29.9,29.895 C 29.373,29.847 28.846,29.808 28.319,29.768 C 26.637,29.645 24.937,29.563 23.251,29.523 C 22.576,29.506 21.901,29.495 21.228,29.515 C 21.301,29.508 21.374,29.503 21.447,29.498 C 22.003,29.46 22.56,29.421 23.116,29.389 C 23.619,29.359 24.138,29.338 24.638,29.28 C 26.024,29.119 27.414,29.005 28.804,28.881 C 29.289,28.896 29.774,28.91 30.258,28.925 Z M 11.637,29.37 C 11.096,29.428 10.555,29.491 10.013,29.552 C 9.668,29.59 9.318,29.633 8.975,29.684 C 8.937,29.689 8.899,29.694 8.861,29.699 C 8.969,29.583 9.077,29.467 9.184,29.351 C 9.873,29.264 10.565,29.184 11.26,29.114 C 11.468,29.092 11.677,29.071 11.886,29.052 C 11.802,29.157 11.719,29.263 11.637,29.37 Z M 63.644,29.119 C 63.641,29.122 63.638,29.125 63.635,29.129 C 63.629,29.128 63.623,29.127 63.618,29.126 C 63.599,29.122 63.578,29.118 63.556,29.115 C 63.585,29.116 63.614,29.117 63.644,29.119 Z M 32.966,29.398 C 33.419,29.442 33.871,29.489 34.325,29.524 C 36.135,29.66 37.954,29.716 39.769,29.695 C 39.958,29.692 40.147,29.689 40.336,29.685 C 40.301,29.751 40.291,29.83 40.314,29.906 C 40.36,30.058 40.523,30.144 40.675,30.098 C 40.712,30.08 40.786,30.063 40.828,30.055 C 41.054,30.013 41.261,29.981 41.491,29.952 C 41.812,29.913 42.145,29.895 42.477,29.885 C 42.485,29.928 42.492,29.971 42.498,30.014 L 42.545,30.371 L 42.573,30.83 L 42.602,31.142 C 42.56,31.148 42.518,31.155 42.477,31.159 C 42.143,31.197 41.815,31.234 41.479,31.254 C 41.001,31.284 40.517,31.299 40.037,31.298 C 39.574,31.297 39.109,31.267 38.646,31.249 C 37.992,31.222 37.315,31.155 36.661,31.093 C 35.269,30.961 33.848,30.801 32.437,30.767 L 32.464,30.49 L 32.476,30.271 L 32.584,29.588 C 32.598,29.512 32.612,29.436 32.628,29.359 C 32.741,29.374 32.853,29.387 32.966,29.398 Z M 45.112,29.895 C 44.862,29.917 44.598,29.929 44.352,29.976 C 44.336,29.979 44.32,29.982 44.304,29.985 C 44.31,29.949 44.315,29.911 44.321,29.875 C 44.359,29.876 44.396,29.878 44.434,29.88 C 44.569,29.887 44.732,29.869 44.869,29.862 C 45.192,29.846 45.516,29.84 45.84,29.828 C 45.873,29.826 45.906,29.825 45.941,29.824 C 45.662,29.846 45.387,29.869 45.112,29.895 Z M 71.934,31.53 C 71.759,31.481 71.585,31.432 71.41,31.382 C 71.446,31.113 71.481,30.846 71.517,30.578 C 71.665,30.484 71.812,30.389 71.958,30.294 C 71.95,30.706 71.941,31.118 71.934,31.53 Z M 4.262,31.198 C 4.152,31.227 4.04,31.256 3.93,31.287 C 3.914,31.152 3.898,31.017 3.883,30.881 L 3.894,30.881 C 3.992,30.875 4.067,30.788 4.06,30.691 C 4.073,30.64 4.089,30.586 4.102,30.53 C 4.157,30.752 4.21,30.974 4.262,31.198 Z M 6.822,31.284 C 6.533,31.363 6.246,31.443 5.958,31.523 L 6.232,31.22 L 6.497,31.099 C 6.619,31.06 6.745,31.027 6.814,31.012 C 7.074,30.951 7.333,30.895 7.596,30.845 C 7.563,30.879 7.532,30.914 7.501,30.948 C 7.474,30.976 7.475,31.022 7.504,31.049 C 7.532,31.075 7.578,31.074 7.604,31.046 C 7.679,30.965 7.754,30.883 7.83,30.802 C 7.954,30.781 8.079,30.76 8.204,30.742 C 8.594,30.685 8.985,30.631 9.374,30.58 C 8.523,30.801 7.676,31.045 6.822,31.284 Z M 71.08,31.289 C 70.972,31.257 70.863,31.227 70.753,31.196 C 70.765,31.144 70.777,31.093 70.79,31.042 C 70.798,31.036 70.807,31.03 70.817,31.025 C 70.922,30.957 71.029,30.889 71.134,30.822 C 71.116,30.977 71.098,31.133 71.08,31.289 Z M 4.946,31.242 L 4.932,31.25 L 4.778,31.348 C 4.75,31.371 4.722,31.393 4.696,31.417 C 4.69,31.378 4.684,31.339 4.679,31.3 C 4.768,31.28 4.857,31.261 4.946,31.242 Z M 71.059,31.473 C 71.038,31.655 71.017,31.838 70.996,32.02 C 70.963,32.015 70.929,32.009 70.896,32.004 C 70.836,31.829 70.766,31.661 70.681,31.506 C 70.691,31.466 70.7,31.425 70.709,31.385 C 70.826,31.413 70.942,31.442 71.059,31.473 Z M 4.387,31.739 C 4.325,31.816 4.269,31.897 4.216,31.982 C 4.149,31.994 4.08,32.006 4.013,32.017 C 3.998,31.887 3.983,31.757 3.969,31.627 C 3.963,31.576 3.957,31.526 3.951,31.475 C 4.07,31.444 4.188,31.415 4.306,31.387 C 4.333,31.504 4.36,31.621 4.387,31.739 Z M 38.965,32.148 C 39.314,32.174 39.665,32.202 40.016,32.217 C 40.198,32.225 40.382,32.223 40.565,32.228 L 41.245,32.228 C 41.337,32.226 41.437,32.23 41.528,32.224 C 41.809,32.203 42.091,32.185 42.371,32.153 C 42.468,32.141 42.566,32.127 42.663,32.112 L 42.667,32.322 C 42.495,32.851 42.324,33.38 42.154,33.908 C 42.106,34.053 42.057,34.222 42.032,34.419 C 41.976,34.502 41.927,34.591 41.884,34.683 L 41.66,34.669 C 41.543,34.669 41.426,34.683 41.322,34.722 C 41.297,34.73 41.241,34.777 41.225,34.798 C 41.185,34.849 41.162,34.903 41.155,34.955 L 41.166,35.018 L 39.232,35.185 C 38.977,35.212 38.723,35.236 38.47,35.26 C 37.748,35.242 37.026,35.24 36.301,35.236 C 36.053,35.211 35.801,35.189 35.549,35.154 C 35.214,35.109 34.856,35.093 34.517,35.064 L 33.857,35.011 C 33.863,34.924 33.841,34.846 33.779,34.781 C 33.715,34.714 33.489,34.663 33.381,34.667 L 33.097,34.685 C 33.01,34.658 32.923,34.611 32.839,34.558 L 32.638,34.421 L 32.557,34.01 L 32.327,32.538 L 32.323,32.439 L 32.352,31.689 L 32.369,31.51 L 32.37,31.496 C 34.57,31.56 36.778,31.988 38.965,32.148 Z M 71.229,32.77 L 71.236,32.858 L 71.303,33.723 C 71.307,33.778 71.31,33.834 71.314,33.89 C 71.292,33.769 71.269,33.649 71.244,33.517 C 71.235,33.453 71.223,33.378 71.209,33.304 C 71.199,33.256 71.189,33.209 71.179,33.161 C 71.196,33.031 71.213,32.9 71.229,32.77 Z M 3.795,32.897 C 3.795,32.903 3.796,32.91 3.797,32.918 C 3.789,32.887 3.78,32.915 3.771,32.942 L 3.782,32.798 C 3.787,32.83 3.791,32.864 3.795,32.897 Z M 71.538,41.939 C 71.323,43.12 71.127,44.297 70.98,45.483 C 70.838,46.612 70.723,47.739 70.615,48.871 C 70.536,49.35 70.459,49.83 70.395,50.315 C 70.381,50.388 70.407,50.46 70.456,50.51 C 70.364,51.422 70.264,52.331 70.167,53.243 C 70.011,54.687 69.868,56.127 69.678,57.568 C 69.615,58.042 69.568,58.518 69.509,58.992 C 69.496,58.992 69.482,58.992 69.468,58.991 C 69.558,58.166 69.65,57.342 69.735,56.518 C 69.827,55.622 69.915,54.728 70.012,53.833 C 70.052,53.472 70.099,53.112 70.137,52.751 C 70.213,52.029 70.283,51.302 70.352,50.579 C 70.396,50.127 70.45,49.672 70.502,49.221 C 70.611,48.285 70.716,47.351 70.84,46.417 C 71.063,44.719 71.308,43.026 71.582,41.338 C 71.568,41.541 71.553,41.743 71.538,41.939 Z M 42.718,45.737 C 42.219,46.03 41.733,46.383 41.266,46.725 C 39.368,48.111 37.497,49.751 36.542,51.954 C 36.52,52 36.54,52.057 36.586,52.079 C 36.632,52.1 36.689,52.081 36.71,52.035 C 36.876,51.675 37.051,51.341 37.251,51 C 37.341,50.849 37.446,50.702 37.542,50.554 C 37.682,50.338 37.876,50.098 38.042,49.901 C 38.7,49.116 39.448,48.413 40.254,47.781 C 40.668,47.456 41.08,47.137 41.508,46.83 C 41.881,46.562 42.265,46.307 42.63,46.027 C 42.892,45.825 43.136,45.611 43.389,45.4 C 43.192,45.439 42.898,45.632 42.718,45.737 Z M 38.629,46.284 C 38.197,46.606 37.768,46.928 37.354,47.272 C 36.344,48.111 35.359,49.034 34.466,49.996 C 33.853,50.658 33.259,51.353 32.752,52.101 C 32.731,52.131 32.738,52.176 32.768,52.197 C 32.798,52.219 32.842,52.212 32.864,52.181 C 34.097,50.401 35.694,48.963 37.354,47.59 C 37.813,47.212 38.298,46.838 38.778,46.485 C 38.98,46.336 39.2,46.196 39.396,46.042 C 39.52,45.945 39.632,45.841 39.746,45.733 C 39.774,45.714 39.782,45.673 39.762,45.644 C 39.743,45.616 39.702,45.608 39.673,45.628 C 39.297,45.773 38.95,46.044 38.629,46.284 Z M 50.074,46.835 C 49.777,47.072 49.495,47.323 49.207,47.572 C 48.804,47.919 48.388,48.326 48.021,48.71 C 47.743,49.002 47.46,49.29 47.193,49.591 C 46.399,50.489 45.642,51.423 44.948,52.4 C 44.929,52.426 44.934,52.464 44.96,52.483 C 44.987,52.502 45.025,52.497 45.044,52.47 C 45.621,51.658 46.272,50.835 46.945,50.099 C 47.369,49.635 47.8,49.199 48.248,48.758 C 48.675,48.338 49.134,47.959 49.587,47.57 C 49.986,47.226 50.396,46.888 50.817,46.57 C 51.102,46.356 51.383,46.132 51.677,45.929 C 51.732,45.889 51.744,45.809 51.704,45.753 C 51.664,45.697 51.584,45.685 51.528,45.726 C 51.034,46.088 50.553,46.453 50.074,46.835 Z M 44.281,46.883 C 43.691,47.352 43.143,47.821 42.586,48.326 C 42.371,48.519 42.168,48.733 41.963,48.935 C 41.727,49.169 41.502,49.429 41.284,49.679 C 40.625,50.436 40.034,51.254 39.524,52.119 C 39.513,52.139 39.52,52.168 39.54,52.179 C 39.561,52.191 39.589,52.184 39.601,52.164 C 39.8,51.832 40.003,51.492 40.228,51.178 C 40.313,51.06 40.401,50.943 40.485,50.824 C 40.637,50.607 40.822,50.395 40.991,50.189 C 41.335,49.769 41.73,49.356 42.121,48.978 C 42.572,48.542 43.022,48.13 43.495,47.716 C 43.833,47.42 44.196,47.15 44.542,46.865 C 44.893,46.577 45.257,46.295 45.614,46.016 C 45.637,45.999 45.642,45.964 45.624,45.942 C 45.606,45.919 45.572,45.914 45.55,45.932 C 45.116,46.236 44.695,46.554 44.281,46.883 Z M 35.286,46.555 C 34.773,46.969 34.241,47.356 33.735,47.783 C 33.56,47.931 33.376,48.074 33.199,48.22 C 32.76,48.581 32.341,48.963 31.911,49.332 C 31.637,49.566 31.382,49.824 31.122,50.072 C 30.415,50.743 29.804,51.462 29.227,52.247 C 29.205,52.278 29.212,52.322 29.243,52.345 C 29.274,52.367 29.318,52.361 29.341,52.329 C 29.874,51.54 30.602,50.781 31.3,50.134 C 32.767,48.773 34.403,47.61 35.981,46.383 C 36.044,46.334 36.056,46.242 36.007,46.179 C 35.958,46.115 35.866,46.103 35.803,46.152 C 35.629,46.284 35.455,46.419 35.286,46.555 Z M 53.468,46.992 C 53.157,47.21 52.847,47.418 52.547,47.651 C 52.064,48.025 51.589,48.409 51.143,48.827 C 49.815,50.069 48.689,51.442 47.691,52.961 C 47.658,53.012 47.672,53.082 47.723,53.115 C 47.774,53.149 47.844,53.135 47.877,53.084 C 49.056,51.253 50.514,49.702 52.187,48.316 C 52.689,47.9 53.225,47.507 53.769,47.149 C 54.095,46.934 54.43,46.746 54.737,46.502 C 54.785,46.474 54.8,46.412 54.773,46.364 C 54.745,46.316 54.683,46.3 54.635,46.328 C 54.219,46.497 53.836,46.736 53.468,46.992 Z M 46.881,47.481 C 46.453,47.811 46.022,48.135 45.6,48.471 C 44.372,49.447 43.259,50.385 42.364,51.683 C 42.177,51.954 42.011,52.261 41.859,52.553 C 41.843,52.582 41.855,52.619 41.884,52.635 C 41.912,52.65 41.949,52.639 41.965,52.61 C 42.122,52.311 42.294,51.983 42.493,51.711 C 42.673,51.465 42.848,51.239 43.039,51.002 C 43.143,50.874 43.264,50.754 43.372,50.629 C 43.436,50.553 43.513,50.485 43.582,50.414 C 43.801,50.189 44.03,49.969 44.269,49.765 C 44.871,49.252 45.476,48.772 46.108,48.294 C 46.64,47.891 47.16,47.476 47.69,47.071 C 47.728,47.042 47.735,46.986 47.706,46.949 C 47.678,46.912 47.622,46.905 47.585,46.934 C 47.348,47.113 47.116,47.299 46.881,47.481 Z M 56.668,47.802 C 56.293,48.035 55.935,48.273 55.572,48.523 C 55.083,48.86 54.61,49.254 54.157,49.637 C 52.792,50.791 51.559,52.08 50.39,53.43 C 50.373,53.45 50.376,53.482 50.395,53.5 C 50.415,53.518 50.447,53.515 50.465,53.495 C 52.627,50.996 55.152,48.754 58.113,47.246 C 58.166,47.218 58.187,47.152 58.16,47.099 C 58.132,47.046 58.066,47.025 58.013,47.052 C 57.56,47.271 57.096,47.536 56.668,47.802 Z M 59.521,48.251 C 57.859,49.394 56.353,50.832 54.931,52.253 C 54.615,52.569 54.317,52.905 54.006,53.227 C 53.957,53.277 53.959,53.359 54.009,53.408 C 54.059,53.457 54.141,53.455 54.19,53.405 C 54.557,53.016 54.942,52.642 55.321,52.266 C 57.145,50.45 59.133,48.715 61.374,47.43 C 61.447,47.386 61.471,47.289 61.427,47.215 C 61.383,47.142 61.286,47.118 61.213,47.162 C 60.632,47.482 60.067,47.875 59.521,48.251 Z M 29.818,48.54 C 29.457,48.792 29.088,49.061 28.744,49.334 C 28.619,49.434 28.485,49.526 28.362,49.627 C 28.141,49.81 27.923,49.995 27.702,50.179 C 27.435,50.401 27.177,50.642 26.925,50.881 C 26.766,51.033 26.588,51.193 26.442,51.355 C 26.414,51.384 26.414,51.431 26.442,51.459 L 26.546,51.459 C 27.347,50.627 28.339,49.834 29.297,49.193 C 29.65,48.956 30.009,48.728 30.361,48.492 C 30.905,48.127 31.453,47.766 32.001,47.407 C 32.061,47.367 32.079,47.283 32.039,47.222 C 31.999,47.162 31.914,47.144 31.854,47.184 C 31.172,47.63 30.485,48.072 29.818,48.54 Z M 25.931,49.624 C 25.785,49.77 25.62,49.914 25.485,50.073 C 25.238,50.362 25.004,50.629 24.778,50.937 C 24.683,51.065 24.575,51.21 24.496,51.348 C 24.464,51.397 24.478,51.464 24.527,51.496 C 24.576,51.528 24.642,51.515 24.675,51.466 C 24.853,51.171 25.106,50.832 25.334,50.573 C 25.507,50.377 25.669,50.179 25.856,49.995 C 26.182,49.672 26.53,49.345 26.889,49.062 C 27.395,48.663 27.914,48.315 28.467,47.987 C 28.524,47.953 28.541,47.876 28.507,47.819 C 28.473,47.763 28.396,47.745 28.34,47.779 C 27.498,48.279 26.623,48.93 25.931,49.624 Z M 24.953,48.241 C 24.66,48.428 24.384,48.645 24.086,48.829 C 23.417,49.243 22.73,49.626 22.061,50.035 C 22.033,50.05 22.023,50.087 22.038,50.114 C 22.054,50.141 22.09,50.152 22.118,50.136 C 22.713,49.774 23.362,49.476 23.955,49.103 C 24.185,48.958 24.431,48.823 24.666,48.686 C 24.963,48.512 25.247,48.313 25.542,48.14 C 25.602,48.098 25.617,48.014 25.576,47.955 C 25.535,47.895 25.451,47.879 25.391,47.92 C 25.242,48.02 25.102,48.145 24.953,48.241 Z M 62.271,49.322 C 61.964,49.524 61.658,49.721 61.363,49.94 C 60.341,50.694 59.383,51.532 58.452,52.396 C 57.998,52.817 57.539,53.235 57.096,53.665 C 57.046,53.712 57.044,53.793 57.091,53.843 C 57.138,53.893 57.218,53.894 57.268,53.848 C 57.704,53.426 58.158,53.017 58.607,52.609 C 59.871,51.462 61.223,50.331 62.681,49.435 C 62.997,49.241 63.328,49.051 63.66,48.885 C 63.964,48.735 64.274,48.601 64.577,48.449 C 64.645,48.42 64.677,48.339 64.649,48.271 C 64.621,48.202 64.539,48.17 64.471,48.198 C 63.726,48.442 62.926,48.892 62.271,49.322 Z M 71.216,48.493 C 71.19,48.75 71.148,49.006 71.117,49.262 C 71.096,49.432 71.074,49.611 71.042,49.778 C 70.979,50.119 70.936,50.466 70.872,50.809 C 70.797,51.212 70.716,51.612 70.628,52.012 C 70.683,51.496 70.741,50.982 70.801,50.468 C 70.815,50.447 70.825,50.421 70.83,50.395 C 70.922,49.997 71.017,49.597 71.097,49.197 C 71.145,48.952 71.189,48.706 71.219,48.457 C 71.218,48.468 71.217,48.48 71.216,48.493 Z M 2.851,48.629 L 2.819,48.631 C 2.875,49.289 2.916,49.948 2.935,50.608 C 2.951,51.157 2.953,51.709 2.967,52.258 C 2.988,53.035 2.987,53.819 3.043,54.595 C 3.092,55.267 3.187,55.995 3.331,56.653 C 3.345,56.725 3.417,56.772 3.488,56.759 C 3.56,56.745 3.608,56.674 3.594,56.602 C 3.406,55.795 3.333,54.919 3.251,54.095 C 3.07,52.275 3.005,50.451 2.851,48.629 Z M 71.895,52.563 C 71.873,52.873 71.852,53.188 71.823,53.499 C 71.784,53.513 71.745,53.525 71.704,53.539 C 71.604,53.571 71.497,53.593 71.4,53.631 C 71.316,53.663 71.204,53.688 71.128,53.729 C 70.901,53.853 70.727,53.953 70.59,54.187 C 70.564,54.232 70.543,54.284 70.516,54.329 L 70.572,54.358 C 70.8,53.812 71.326,53.726 71.818,53.556 C 71.813,53.61 71.807,53.663 71.802,53.717 C 71.771,54.009 71.73,54.307 71.709,54.598 C 71.66,55.267 71.547,55.944 71.422,56.603 C 71.409,56.675 71.457,56.746 71.529,56.759 C 71.6,56.771 71.672,56.724 71.684,56.652 C 71.81,56.01 71.909,55.349 71.963,54.697 C 71.997,54.298 72.009,53.883 72.018,53.478 C 72.183,53.408 72.338,53.318 72.47,53.188 L 72.422,53.161 C 72.293,53.284 72.164,53.362 72.02,53.425 C 72.021,53.38 72.022,53.336 72.023,53.291 C 72.029,52.99 72.042,52.689 72.043,52.388 C 72.044,51.957 72.059,51.526 72.067,51.095 C 72.082,50.273 72.119,49.449 72.196,48.631 L 72.165,48.629 C 72.042,49.938 71.985,51.251 71.895,52.563 Z M 64.056,50.363 C 63.604,50.777 63.197,51.257 62.756,51.685 C 62.542,51.892 62.331,52.092 62.113,52.295 C 61.974,52.424 61.819,52.536 61.679,52.663 C 61.644,52.692 61.639,52.748 61.668,52.783 C 61.698,52.819 61.753,52.824 61.789,52.794 C 62.132,52.49 62.509,52.211 62.833,51.884 C 63.058,51.657 63.309,51.432 63.545,51.214 C 64.026,50.77 64.519,50.311 65.053,49.931 C 65.456,49.644 65.901,49.397 66.343,49.177 C 66.408,49.146 66.436,49.067 66.405,49.001 C 66.374,48.935 66.295,48.907 66.229,48.938 C 65.426,49.274 64.696,49.776 64.056,50.363 Z M 67.674,51.529 C 67.514,51.579 67.352,51.664 67.2,51.733 C 67.013,51.819 66.831,51.904 66.651,52.002 C 66.329,52.177 65.993,52.392 65.688,52.596 C 65.14,52.964 64.585,53.322 64.048,53.705 C 64.02,53.723 64.013,53.763 64.031,53.792 C 64.05,53.82 64.09,53.827 64.118,53.808 C 64.887,53.269 65.761,52.766 66.615,52.374 C 66.895,52.246 67.173,52.11 67.452,51.978 C 67.575,51.919 67.735,51.868 67.847,51.799 C 67.929,51.747 67.998,51.671 68.067,51.604 C 68.095,51.593 68.108,51.562 68.098,51.534 C 68.087,51.507 68.056,51.493 68.028,51.504 C 67.912,51.5 67.786,51.494 67.674,51.529 Z M 4.87,52.706 C 4.915,53.149 4.967,53.591 5.019,54.05 C 4.956,53.585 4.897,53.137 4.84,52.688 C 4.796,52.346 4.752,52.003 4.708,51.66 C 4.727,51.647 4.746,51.634 4.765,51.62 C 4.799,51.982 4.833,52.344 4.87,52.706 Z M 69.021,57.264 C 68.975,57.835 68.939,58.405 68.908,58.977 C 68.794,58.974 68.679,58.971 68.565,58.968 C 68.586,58.885 68.607,58.801 68.628,58.718 C 68.725,58.326 68.807,57.922 68.889,57.526 C 68.957,57.192 69.022,56.859 69.084,56.524 C 69.061,56.771 69.04,57.017 69.021,57.264 Z M 8.992,59.198 C 10.518,59.27 12.043,59.36 13.568,59.43 C 14.404,59.468 15.249,59.459 16.086,59.469 C 17.145,59.484 18.205,59.483 19.264,59.5 C 19.737,59.508 20.212,59.498 20.684,59.498 C 20.896,59.498 21.107,59.498 21.319,59.499 C 21.316,59.679 21.313,59.858 21.31,60.037 C 21.297,59.995 21.254,59.963 21.205,59.964 C 21.147,59.964 21.102,60.013 21.101,60.07 C 19.212,60.131 17.321,60.189 15.433,60.162 C 13.711,60.138 11.979,60.087 10.265,59.917 C 9.629,59.853 8.992,59.771 8.359,59.683 C 7.748,59.599 7.087,59.476 6.487,59.331 C 6.364,59.302 6.241,59.269 6.117,59.238 C 6.114,59.171 6.11,59.104 6.106,59.038 C 7.067,59.099 8.031,59.152 8.992,59.198 Z M 65.144,59.125 C 66.049,59.132 66.951,59.14 67.856,59.152 C 67.897,59.152 67.938,59.152 67.98,59.153 C 67.953,59.256 67.926,59.359 67.9,59.46 C 67.66,59.507 67.42,59.55 67.179,59.59 C 67.109,59.388 66.906,59.252 66.684,59.272 C 66.338,59.295 65.994,59.326 65.645,59.344 C 63.804,59.437 61.934,59.441 60.087,59.443 C 58.034,59.445 55.981,59.435 53.928,59.415 C 53.877,59.33 53.805,59.26 53.715,59.213 C 54.811,59.195 55.908,59.182 57.006,59.167 C 58.016,59.153 59.029,59.135 60.039,59.135 C 61.034,59.135 62.031,59.112 63.026,59.121 C 63.732,59.127 64.439,59.119 65.144,59.125 Z M 68.898,59.165 C 68.896,59.191 68.896,59.217 68.895,59.243 C 68.753,59.278 68.612,59.312 68.471,59.344 C 68.486,59.282 68.502,59.221 68.517,59.159 C 68.644,59.161 68.771,59.163 68.898,59.165 Z M 53.023,59.405 C 52.842,59.403 52.662,59.401 52.482,59.399 C 50.796,59.377 49.11,59.354 47.425,59.324 C 49.097,59.295 50.769,59.273 52.44,59.237 C 52.699,59.231 52.957,59.227 53.213,59.222 C 53.138,59.265 53.071,59.327 53.023,59.405 Z M 69.331,60.251 C 69.36,59.98 69.389,59.711 69.418,59.442 C 69.429,59.439 69.441,59.436 69.452,59.433 C 69.413,59.705 69.372,59.977 69.331,60.251 Z M 5.592,59.451 C 5.616,59.682 5.641,59.914 5.666,60.146 C 5.63,59.911 5.595,59.677 5.561,59.442 C 5.571,59.445 5.581,59.448 5.592,59.451 Z M 22.772,59.514 C 24.034,59.531 25.297,59.557 26.56,59.59 C 26.569,59.689 26.582,59.789 26.599,59.89 C 26.365,59.899 26.132,59.909 25.899,59.92 C 24.526,59.978 23.151,60.006 21.778,60.049 C 21.777,59.867 21.777,59.684 21.779,59.503 C 22.11,59.506 22.441,59.509 22.772,59.514 Z M 29.096,59.663 C 29.09,59.714 29.083,59.765 29.078,59.815 C 28.564,59.825 28.05,59.838 27.536,59.856 C 27.522,59.768 27.513,59.686 27.512,59.616 C 28.041,59.631 28.569,59.647 29.096,59.663 Z M 34.581,59.857 C 36.189,59.917 37.8,59.991 39.406,60.05 C 39.422,60.071 39.439,60.092 39.455,60.113 C 41.695,60.168 43.93,60.335 46.171,60.425 C 46.404,60.434 46.637,60.442 46.87,60.451 C 46.674,60.942 46.564,61.456 46.528,62.004 C 46.511,62.254 46.481,62.589 46.503,62.85 C 46.215,63.271 45.944,63.706 45.676,64.139 C 45.561,64.323 45.424,64.513 45.318,64.699 C 45.218,64.873 45.066,65.093 44.944,65.254 C 44.792,65.453 44.657,65.671 44.487,65.857 C 44.434,65.914 44.375,65.988 44.318,66.04 C 44.284,66.071 44.242,66.103 44.211,66.137 L 44.042,66.253 L 43.498,66.518 C 43.28,66.622 43.047,66.713 42.823,66.808 C 42.708,66.857 42.576,66.892 42.456,66.937 L 42.194,67.027 L 41.468,67.133 C 40.981,67.192 40.492,67.233 40.01,67.266 C 38.799,67.35 37.524,67.351 36.285,67.25 L 35.154,67.126 L 34.975,67.082 C 34.732,67.018 34.493,66.948 34.26,66.878 C 33.398,66.614 32.554,66.303 31.714,65.98 L 29.433,65.09 L 29.429,65.088 C 29.129,64.717 28.871,64.306 28.653,63.879 C 28.786,63.884 28.928,63.883 29.032,63.833 C 29.118,63.791 29.187,63.725 29.229,63.638 C 29.268,63.557 29.289,63.447 29.314,63.359 C 29.362,63.182 29.403,63.004 29.451,62.828 C 29.64,62.141 29.774,61.421 29.889,60.718 C 29.908,60.603 29.925,60.487 29.943,60.372 C 31.833,60.276 33.722,60.158 35.612,60.112 C 35.594,60.089 35.578,60.064 35.561,60.039 C 33.738,59.869 31.907,59.795 30.076,59.804 C 30.059,59.804 30.043,59.804 30.026,59.804 C 30.03,59.777 30.035,59.75 30.043,59.725 C 33.176,59.804 33.878,59.831 34.581,59.857 Z M 28.927,60.829 C 28.846,61.359 28.756,61.896 28.651,62.421 L 28.506,63.013 L 28.491,63.012 L 28.484,63.012 C 28.478,62.791 28.493,62.564 28.522,62.368 C 28.534,62.246 28.444,62.134 28.322,62.121 C 28.235,62.111 28.154,62.154 28.109,62.223 C 28.066,62.023 28.017,61.827 27.959,61.641 C 27.942,61.588 27.923,61.543 27.893,61.504 C 27.842,61.154 27.761,60.812 27.672,60.467 L 27.671,60.465 C 28.017,60.457 28.363,60.445 28.709,60.431 C 28.802,60.426 28.896,60.422 28.99,60.418 C 28.969,60.555 28.947,60.692 28.927,60.829 Z M 50.428,60.57 C 51.177,60.591 51.931,60.623 52.684,60.645 C 52.643,60.839 52.604,61.034 52.562,61.227 C 52.521,61.415 52.488,61.606 52.447,61.794 C 52.4,62.009 52.356,62.222 52.303,62.434 C 52.245,62.664 52.169,62.939 52.061,63.205 C 51.81,63.26 51.562,63.305 51.307,63.344 C 50.373,63.485 49.251,63.513 48.346,63.201 C 48.229,63.113 48.112,63.024 47.993,62.936 C 47.956,62.907 47.915,62.878 47.874,62.846 C 47.875,62.842 47.876,62.838 47.877,62.835 C 47.94,62.643 48,62.448 48.063,62.257 C 48.133,62.048 48.028,61.827 47.843,61.73 C 47.909,61.365 48.012,61.001 48.156,60.68 C 48.184,60.618 48.21,60.558 48.235,60.5 C 48.966,60.525 49.696,60.547 50.428,60.57 Z M 26.978,61.302 C 27.035,61.504 27.135,61.943 27.111,62.145 C 27.105,62.191 27.111,62.243 27.107,62.289 L 27.092,62.388 L 27.076,62.412 C 26.989,62.506 26.902,62.576 26.797,62.649 C 26.563,62.807 26.242,62.904 25.892,62.956 C 25.747,62.948 25.603,62.94 25.459,62.931 C 24.987,62.899 24.485,62.87 24.016,62.798 C 23.48,62.715 22.922,62.652 22.398,62.513 C 22.366,62.504 22.336,62.496 22.305,62.488 C 22.255,62.469 22.206,62.447 22.157,62.426 L 21.991,62.34 L 21.968,62.272 C 21.832,61.784 21.81,61.14 21.793,60.688 C 21.792,60.677 21.792,60.667 21.791,60.656 C 23.008,60.631 24.231,60.588 25.448,60.541 C 25.878,60.524 26.309,60.511 26.74,60.497 C 26.819,60.782 26.908,61.057 26.978,61.302 Z M 21.38,62.238 L 21.366,62.236 L 21.334,62.094 C 21.326,62.041 21.32,61.989 21.332,61.935 C 21.344,62.043 21.36,62.146 21.38,62.238 Z M 53.209,62.751 L 53.159,62.922 L 53.151,62.924 C 53.199,62.789 53.244,62.653 53.265,62.504 C 53.252,62.589 53.229,62.674 53.209,62.751 Z M 23.779,63.616 C 23.851,63.629 23.907,63.639 23.962,63.647 C 24.005,63.653 24.049,63.66 24.094,63.666 C 23.929,63.764 23.762,63.863 23.597,63.961 C 23.594,63.837 23.591,63.713 23.589,63.59 C 23.657,63.599 23.726,63.609 23.779,63.616 Z M 47.79,63.864 C 47.891,63.937 47.995,64.01 48.099,64.083 C 47.656,64.629 47.206,65.156 46.739,65.685 C 46.658,65.776 46.576,65.868 46.494,65.959 C 46.535,65.837 46.527,65.708 46.479,65.597 C 46.604,65.421 46.715,65.235 46.831,65.052 C 47.064,64.68 47.3,64.236 47.471,63.832 C 47.485,63.798 47.499,63.765 47.513,63.731 C 47.604,63.778 47.696,63.822 47.79,63.864 Z M 24.96,63.748 C 25.354,63.781 25.754,63.806 26.162,63.824 C 26.346,63.831 26.531,63.839 26.716,63.846 C 26.61,63.915 26.505,63.984 26.401,64.055 C 26.384,64.05 26.366,64.046 26.348,64.042 C 26.156,63.989 25.955,64.102 25.902,64.294 C 25.891,64.332 25.887,64.369 25.889,64.406 C 25.76,64.495 25.633,64.585 25.506,64.676 C 24.89,65.112 24.31,65.542 23.787,66.036 C 23.731,65.904 23.679,65.766 23.633,65.627 C 23.626,65.448 23.621,65.269 23.619,65.09 C 23.615,64.887 23.611,64.684 23.607,64.481 C 24.042,64.232 24.48,63.988 24.919,63.746 C 24.933,63.746 24.947,63.747 24.96,63.748 Z M 27.404,63.862 L 27.479,63.862 C 27.493,64.037 27.507,64.213 27.525,64.389 C 27.385,64.341 27.246,64.296 27.106,64.253 C 27.219,64.164 27.246,64.001 27.166,63.88 C 27.16,63.872 27.155,63.865 27.15,63.859 C 27.233,63.86 27.319,63.861 27.404,63.862 Z M 50.913,65.176 C 50.837,65.469 50.747,65.761 50.662,66.05 C 50.659,66.062 50.655,66.075 50.651,66.088 C 50.609,66.098 50.567,66.117 50.531,66.146 C 50.237,66.376 49.946,66.657 49.682,66.921 C 49.164,67.436 48.669,67.958 48.167,68.488 C 47.677,69.005 47.176,69.53 46.645,70.005 C 46.453,70.178 46.25,70.336 46.057,70.506 C 46.015,70.54 45.992,70.59 45.992,70.641 C 45.536,70.731 45.077,70.813 44.614,70.886 C 44.864,70.603 45.117,70.323 45.388,70.055 C 46.225,69.222 47.096,68.428 47.935,67.6 C 48.368,67.172 48.773,66.731 49.19,66.289 C 49.3,66.162 49.285,65.969 49.158,65.86 C 49.031,65.75 48.838,65.765 48.728,65.892 C 48.324,66.386 47.927,66.896 47.488,67.36 C 47.177,67.688 46.874,68.021 46.561,68.348 C 45.855,69.084 45.115,69.808 44.442,70.572 C 44.326,70.702 44.213,70.833 44.099,70.966 C 43.513,71.052 42.921,71.126 42.332,71.172 C 42.771,70.613 43.249,70.083 43.73,69.56 C 44.443,68.782 45.184,68.025 45.924,67.273 C 46.573,66.614 47.207,65.946 47.834,65.268 C 48.093,64.989 48.333,64.692 48.582,64.406 C 49.284,64.845 50.101,65.216 50.913,65.176 Z M 27.189,65.052 C 26.874,65.252 26.567,65.467 26.27,65.698 C 25.631,66.194 25.053,66.717 24.492,67.269 C 24.489,67.264 24.485,67.259 24.481,67.255 C 24.275,66.99 24.095,66.689 23.944,66.383 C 24.584,65.821 25.328,65.38 26.069,64.926 C 26.146,64.878 26.223,64.83 26.299,64.782 C 26.599,64.868 26.895,64.958 27.189,65.052 Z M 27.692,65.475 C 27.72,65.646 27.807,65.756 27.909,65.805 C 27.349,66.28 26.839,66.808 26.333,67.355 C 26.053,67.657 25.776,67.963 25.505,68.274 C 25.234,68.132 25.042,67.931 24.868,67.72 C 24.811,67.649 24.752,67.581 24.693,67.512 C 24.911,67.302 25.137,67.098 25.373,66.907 C 25.898,66.483 26.428,66.071 27.008,65.726 C 27.227,65.595 27.448,65.474 27.672,65.357 C 27.679,65.397 27.686,65.436 27.692,65.475 Z M 28.386,65.464 C 28.355,65.447 28.347,65.452 28.363,65.482 C 28.37,65.479 28.371,65.469 28.373,65.459 C 28.377,65.46 28.381,65.462 28.386,65.464 Z M 29.312,66.1 C 29.457,66.256 29.609,66.404 29.765,66.545 C 29.686,66.534 29.603,66.556 29.54,66.611 C 29.126,66.971 28.7,67.32 28.272,67.666 C 27.875,67.986 27.443,68.321 27.078,68.676 C 26.902,68.845 26.738,69.011 26.575,69.182 C 26.301,69.009 26.038,68.822 25.788,68.621 C 25.811,68.597 25.834,68.571 25.856,68.547 C 26.777,67.487 27.824,66.527 28.974,65.722 C 29.083,65.85 29.194,65.976 29.312,66.1 Z M 30.983,67.452 C 30.419,67.809 29.885,68.205 29.377,68.641 C 28.902,69.046 28.425,69.47 27.994,69.926 C 27.658,69.781 27.32,69.616 26.992,69.431 C 27.252,69.165 27.524,68.92 27.818,68.679 C 28.175,68.384 28.554,68.114 28.921,67.832 C 29.117,67.682 29.35,67.524 29.531,67.36 C 29.643,67.258 29.789,67.127 29.91,67.038 C 29.995,66.964 30.025,66.848 29.995,66.746 C 30.309,67.008 30.639,67.243 30.983,67.452 Z M 49.574,68.556 C 49.378,68.859 49.169,69.082 48.908,69.329 C 48.792,69.439 48.646,69.536 48.52,69.636 C 48.341,69.777 48.026,69.925 47.815,70.018 C 47.442,70.181 47.056,70.323 46.668,70.451 C 46.863,70.285 47.058,70.12 47.25,69.942 C 47.351,69.848 47.458,69.76 47.554,69.661 C 47.808,69.399 48.092,69.152 48.353,68.894 C 48.966,68.291 49.585,67.721 50.232,67.155 C 50.258,67.13 50.286,67.108 50.313,67.084 C 50.112,67.597 49.871,68.093 49.574,68.556 Z M 42.113,70.794 C 41.992,70.94 41.882,71.092 41.775,71.247 C 41.31,71.291 40.846,71.329 40.383,71.361 C 40.684,71.003 41,70.655 41.331,70.321 C 41.518,70.133 41.712,69.949 41.902,69.763 C 42.034,69.633 42.177,69.511 42.313,69.386 C 42.77,68.965 43.244,68.559 43.71,68.152 C 43.811,68.116 43.909,68.079 44.005,68.037 C 44.219,67.94 44.428,67.84 44.64,67.742 C 44.764,67.684 44.902,67.61 45.041,67.527 C 44.042,68.597 43.042,69.658 42.113,70.794 Z M 23.857,67.532 L 23.859,67.533 L 23.859,67.535 C 23.858,67.534 23.857,67.533 23.857,67.532 Z M 23.996,67.769 C 23.975,67.792 23.953,67.814 23.932,67.835 L 23.859,67.536 C 23.895,67.605 23.943,67.687 23.996,67.769 Z M 33.075,68.403 C 32.859,68.546 32.645,68.693 32.43,68.846 C 31.805,69.293 31.195,69.775 30.577,70.233 C 30.422,70.349 30.264,70.462 30.109,70.58 C 30.087,70.597 30.064,70.614 30.043,70.632 C 29.757,70.556 29.471,70.475 29.197,70.378 C 28.928,70.283 28.666,70.192 28.4,70.09 C 28.756,69.733 29.161,69.38 29.539,69.087 C 30.173,68.593 30.811,68.123 31.515,67.753 C 32.013,68.012 32.536,68.226 33.075,68.403 Z M 35.262,67.974 L 35.289,67.976 L 35.625,68.007 L 35.866,68.058 C 35.665,68.034 35.463,68.006 35.262,67.974 Z M 24.248,68.123 C 24.481,68.404 24.728,68.664 24.99,68.905 C 24.916,68.998 24.841,69.09 24.763,69.181 C 24.512,68.958 24.297,68.707 24.153,68.43 L 24.045,68.177 L 24.04,68.166 C 24.084,68.121 24.129,68.075 24.174,68.03 C 24.199,68.063 24.224,68.094 24.248,68.123 Z M 40.702,70.432 C 40.409,70.746 40.127,71.06 39.86,71.395 C 39.262,71.432 38.661,71.462 38.059,71.479 C 38.803,70.386 39.883,69.576 41.005,68.861 C 41.22,68.826 41.44,68.785 41.651,68.742 C 41.968,68.676 42.302,68.599 42.629,68.509 C 41.967,69.131 41.322,69.764 40.702,70.432 Z M 34.545,68.79 C 34.71,68.825 34.879,68.857 35.049,68.887 C 34.326,69.41 33.605,69.935 32.92,70.514 C 32.694,70.703 32.471,70.899 32.256,71.103 C 32.226,71.099 32.195,71.094 32.166,71.09 C 31.677,71.017 31.144,70.91 30.664,70.789 C 30.651,70.785 30.637,70.783 30.623,70.779 C 30.937,70.552 31.249,70.322 31.561,70.095 C 32.006,69.772 32.467,69.466 32.924,69.16 C 33.204,68.973 33.485,68.788 33.769,68.607 C 34.024,68.675 34.283,68.736 34.545,68.79 Z M 36.083,69.025 C 36.338,69.045 36.593,69.067 36.847,69.084 C 36.491,69.405 36.135,69.726 35.79,70.06 C 35.36,70.474 34.898,70.906 34.512,71.368 C 34.305,71.352 34.096,71.335 33.888,71.316 C 33.469,71.277 33.054,71.221 32.64,71.16 C 32.971,70.872 33.316,70.606 33.68,70.338 C 34.19,69.961 34.733,69.607 35.27,69.271 C 35.417,69.179 35.564,69.082 35.713,68.988 C 35.836,69.003 35.959,69.016 36.083,69.025 Z M 37.516,71.488 C 37.461,71.489 37.406,71.489 37.352,71.49 C 37.011,71.49 36.66,71.487 36.321,71.474 C 35.876,71.453 35.438,71.431 34.998,71.402 C 35.669,70.7 36.405,70.048 37.156,69.432 C 37.281,69.328 37.406,69.222 37.531,69.116 C 37.581,69.117 37.632,69.118 37.683,69.119 C 38.057,69.122 38.437,69.114 38.811,69.093 C 39.052,69.08 39.298,69.073 39.537,69.043 C 39.666,69.025 39.8,69.019 39.932,69.009 C 38.985,69.69 38.123,70.493 37.516,71.488 Z M 27.268,70.415 C 27.332,70.446 27.399,70.477 27.464,70.507 C 27.458,70.516 27.451,70.524 27.443,70.533 C 27.266,70.45 27.087,70.364 26.91,70.28 C 26.591,70.131 26.255,70.007 25.932,69.865 C 25.71,69.766 25.497,69.675 25.291,69.582 C 25.206,69.526 25.123,69.468 25.042,69.407 C 25.118,69.321 25.196,69.238 25.276,69.155 C 25.875,69.657 26.54,70.068 27.268,70.415 Z"
                      stroke="none" fill="#ffffff" stroke-width="0.5" fill-rule="evenodd" marker-start="none"
                      marker-end="none" stroke-miterlimit="79.8403193612775"/>
            </g>
        </g>
    </g>
</svg>