<svg xmlns:xlink="http://www.w3.org/1999/xlink" xmlns="http://www.w3.org/2000/svg" stroke-width="0.501"
     stroke-linejoin="bevel" fill-rule="evenodd" version="1.1" overflow="visible" viewBox="0 0 75 75" x="0px"
     y="0px">
    <g fill="none" stroke="white"  transform="scale(1 -1)">
        <g transform="translate(0 -75)">
            <g>
                <path d="M 13.074,4.785 C 12.868,4.572 12.667,4.355 12.467,4.137 C 12.439,4.105 12.389,4.103 12.357,4.133 C 12.325,4.162 12.322,4.212 12.351,4.243 C 12.542,4.452 12.733,4.661 12.924,4.869 C 12.888,4.889 12.852,4.908 12.817,4.928 C 12.318,4.689 11.808,4.481 11.26,4.346 C 11.129,4.314 10.97,4.258 10.836,4.249 C 10.758,4.245 10.679,4.242 10.602,4.242 C 10.595,4.121 10.508,4.008 10.371,3.986 C 10.219,3.96 9.883,4.178 9.738,4.26 C 9.681,4.291 9.625,4.323 9.567,4.356 C 9.518,4.339 9.464,4.336 9.41,4.35 C 7.406,4.766 5.88,6.476 5.062,8.284 C 4.579,8.869 4.14,9.489 3.752,10.13 C 3.414,10.684 3.076,11.277 2.818,11.873 C 2.756,12.017 2.586,12.305 2.651,12.451 C 2.714,12.596 2.886,12.676 3.036,12.592 C 3.071,12.57 3.111,12.53 3.151,12.486 L 3.029,12.835 C 3.007,12.896 3.028,12.963 3.077,13.002 C 3.054,13.035 3.031,13.069 3.009,13.102 C 2.684,12.787 2.36,12.471 2.035,12.156 L 1.976,12.157 C 1.97,12.15 1.963,12.145 1.958,12.139 C 1.874,12.051 1.731,12.05 1.642,12.137 C 1.553,12.224 1.549,12.367 1.634,12.454 C 1.99,12.819 2.342,13.191 2.706,13.552 C 2.684,13.586 2.663,13.618 2.641,13.651 C 2.437,13.96 2.222,14.27 2.028,14.584 C 1.991,14.64 2.006,14.716 2.061,14.752 C 2.117,14.788 2.193,14.771 2.23,14.714 C 2.435,14.381 2.664,14.055 2.887,13.73 C 2.944,13.785 3,13.838 3.057,13.892 C 3.265,14.09 3.475,14.286 3.686,14.481 C 3.677,14.781 3.683,15.081 3.675,15.38 C 3.675,15.419 3.706,15.451 3.745,15.45 C 3.784,15.449 3.816,15.417 3.816,15.378 C 3.807,15.125 3.81,14.866 3.821,14.606 C 5.001,15.693 6.207,16.738 7.422,17.794 C 7.876,18.188 8.326,18.587 8.779,18.984 C 9.007,19.203 9.235,19.422 9.463,19.642 C 10.481,20.62 11.501,21.598 12.528,22.58 C 12.843,22.921 13.156,23.274 13.453,23.644 C 14.134,24.463 14.812,25.274 15.511,26.08 C 16.453,27.162 17.445,28.199 18.433,29.239 C 19.855,30.735 21.321,32.197 22.794,33.642 C 25.567,36.362 28.4,39.019 31.185,41.728 C 33.259,43.747 35.293,45.811 37.274,47.921 C 38.104,48.792 38.92,49.678 39.749,50.551 C 41.676,52.579 43.616,54.596 45.582,56.586 C 49.086,60.134 52.613,63.661 56.184,67.144 C 58.302,69.21 60.431,71.267 62.555,73.327 C 62.752,73.518 63.072,73.508 63.266,73.308 C 63.46,73.107 63.457,72.787 63.26,72.597 C 58.997,68.521 54.797,64.373 50.61,60.22 C 49.751,59.369 48.906,58.503 48.051,57.65 C 46.024,55.627 44.022,53.57 42.043,51.501 C 40.69,50.086 39.324,48.675 37.997,47.237 C 35.226,44.273 32.3,41.469 29.375,38.657 C 27.831,37.172 26.278,35.7 24.728,34.211 C 27.073,36.442 29.409,38.668 31.742,40.897 C 34.399,43.436 37.041,45.991 39.681,48.547 C 41.68,50.483 43.658,52.439 45.644,54.387 C 47.718,56.42 49.798,58.451 51.848,60.51 C 52.933,61.598 54.018,62.687 55.097,63.78 C 56.05,64.746 56.993,65.72 57.952,66.68 C 59.495,68.223 61.08,69.73 62.657,71.237 C 62.681,71.263 62.722,71.264 62.747,71.24 C 62.773,71.216 62.775,71.175 62.751,71.15 C 61.93,70.199 61.111,69.244 60.276,68.306 C 60.82,68.748 61.417,69.131 62.043,69.415 C 62.615,69.674 63.238,69.881 63.865,69.968 C 64.067,69.996 64.258,70.014 64.447,70.025 C 64.355,70.101 64.267,70.178 64.181,70.257 C 63.929,70.487 63.706,70.713 63.474,70.964 C 63.38,71.065 63.271,71.187 63.242,71.323 C 63.222,71.418 63.226,71.478 63.25,71.573 L 63.28,71.627 C 63.362,71.779 63.492,71.856 63.663,71.858 L 63.758,71.855 C 63.89,71.816 64.031,71.716 64.15,71.642 C 64.278,71.562 64.406,71.482 64.535,71.402 C 64.712,71.339 65.092,71.144 65.196,71.093 C 66.643,70.375 68.159,69.383 69.128,68.041 C 70.079,67.143 70.883,66.104 71.244,64.829 C 71.375,64.362 71.429,63.88 71.408,63.401 C 71.532,63.322 71.656,63.243 71.782,63.164 C 72.022,63.012 72.289,62.859 72.538,62.722 C 72.721,62.621 72.932,62.526 73.101,62.407 C 73.376,62.211 73.576,62.01 73.804,61.765 C 73.829,61.752 73.84,61.72 73.828,61.696 C 73.816,61.672 73.784,61.661 73.76,61.674 C 73.498,61.697 73.158,61.74 72.914,61.836 C 72.728,61.911 72.587,62.004 72.416,62.101 C 72.18,62.234 71.954,62.386 71.725,62.529 C 71.596,62.609 71.468,62.692 71.341,62.777 C 71.323,62.683 71.3,62.592 71.264,62.504 C 71.134,62.189 70.833,61.972 70.566,61.783 C 70.543,61.894 70.517,62.013 70.492,62.131 C 70.49,62.117 70.488,62.103 70.487,62.089 C 70.45,61.816 70.371,61.56 70.312,61.294 C 70.293,61.157 70.164,61.064 70.028,61.086 C 69.891,61.108 69.795,61.239 69.814,61.375 C 69.819,61.625 69.829,61.871 69.821,62.122 C 69.815,62.273 69.807,62.432 69.795,62.593 C 69.524,62.312 69.253,62.031 68.983,61.751 C 68.892,61.656 68.801,61.563 68.711,61.47 C 68.927,61.35 69.138,61.227 69.364,61.123 C 69.409,61.11 69.435,61.061 69.423,61.016 C 69.411,60.971 69.362,60.946 69.317,60.959 C 68.989,61.006 68.695,61.063 68.398,61.148 C 68.289,61.035 68.178,60.922 68.069,60.811 C 67.688,60.385 67.307,59.959 66.926,59.534 C 66.953,59.518 66.981,59.501 67.008,59.486 C 67.138,59.417 67.191,59.257 67.126,59.129 C 67.06,59.001 66.901,58.951 66.771,59.019 C 66.696,59.051 66.622,59.082 66.55,59.115 C 66.039,58.545 65.528,57.975 65.016,57.407 C 65.05,57.322 65.045,57.225 64.995,57.144 C 64.925,57.033 64.791,56.987 64.67,57.021 C 55.457,46.784 46.077,36.687 36.166,27.131 C 33.59,24.652 30.98,22.206 28.39,19.743 C 25.715,16.681 23.048,13.613 20.344,10.578 C 19.843,10.031 19.299,9.499 18.738,9.012 C 18.492,8.798 18.248,8.584 17.999,8.372 C 17.182,7.676 16.294,7.025 15.403,6.425 C 15.275,6.339 15.146,6.254 15.016,6.168 C 15.374,5.952 15.732,5.732 16.092,5.518 C 16.142,5.488 16.159,5.424 16.131,5.375 C 16.102,5.325 16.038,5.308 15.988,5.338 C 15.595,5.57 15.201,5.801 14.809,6.034 C 14.429,5.793 14.04,5.559 13.653,5.355 C 13.524,5.236 13.398,5.115 13.275,4.991 C 14.102,4.544 14.93,4.102 15.785,3.708 C 15.847,3.68 15.875,3.605 15.847,3.543 C 15.819,3.482 15.745,3.455 15.683,3.484 C 14.792,3.875 13.924,4.313 13.074,4.785 Z M 50.52,3.777 C 50.421,3.847 50.319,3.921 50.222,3.997 L 50.24,3.993 L 50.167,4.008 C 48.604,4.425 47.125,5.162 45.825,6.283 C 45.048,6.953 44.408,7.738 43.854,8.597 C 42.961,9.986 42.454,11.523 42.111,13.117 C 42.031,13.495 41.988,13.879 41.924,14.258 C 42.021,13.624 42.213,12.973 42.395,12.357 C 42.787,11.022 43.443,9.701 44.263,8.574 C 44.413,8.367 44.579,8.145 44.751,7.956 C 44.971,7.713 45.18,7.477 45.413,7.245 C 45.527,7.133 45.65,7.03 45.767,6.92 C 45.923,6.771 46.102,6.647 46.264,6.508 C 46.481,6.32 46.751,6.155 46.99,5.994 C 47.137,5.895 47.296,5.807 47.45,5.72 L 48.188,5.39 C 48.185,5.427 48.194,5.465 48.217,5.499 C 48.219,5.502 48.222,5.506 48.225,5.51 C 48.121,5.593 48.02,5.677 48.245,5.557 C 48.099,5.665 47.949,5.766 47.806,5.878 C 47.606,6.031 47.418,6.19 47.223,6.349 C 46.873,6.635 46.526,6.971 46.215,7.297 C 45.997,7.526 45.769,7.769 45.578,8.02 C 45.284,8.407 44.992,8.842 44.752,9.266 C 44.616,9.506 44.494,9.747 44.364,9.988 C 44.334,10.044 44.337,10.109 44.365,10.161 C 44.22,10.462 44.09,10.771 43.975,11.076 C 43.762,11.634 43.594,12.204 43.465,12.783 C 43.438,12.859 43.411,12.937 43.386,13.016 C 43.012,14.146 42.851,15.298 42.866,16.446 C 42.797,16.825 42.745,17.206 42.705,17.582 C 42.669,17.922 42.647,18.27 42.639,18.618 C 42.515,18.763 42.393,18.911 42.277,19.063 C 42.228,19.122 42.237,19.211 42.295,19.259 C 42.353,19.307 42.442,19.296 42.491,19.237 C 42.538,19.173 42.587,19.112 42.636,19.052 C 42.638,19.316 42.647,19.579 42.662,19.839 C 42.823,22.75 43.813,25.671 45.684,27.9 C 46.427,28.785 47.321,29.553 48.336,30.114 C 48.724,30.33 49.109,30.496 49.52,30.66 C 49.903,30.812 50.478,30.996 50.917,31.041 C 51.767,31.584 52.687,32.017 53.658,32.314 C 56.432,33.162 59.357,33.039 62.049,32.06 C 62.179,32.026 62.31,31.987 62.442,31.946 C 63.034,31.757 63.643,31.538 64.198,31.254 C 64.429,31.136 64.667,31.022 64.891,30.892 C 64.978,30.841 65.068,30.787 65.156,30.739 C 65.395,30.611 65.621,30.438 65.85,30.293 C 66.14,30.111 66.476,29.852 66.739,29.629 C 67.146,29.283 67.531,28.95 67.91,28.57 C 68.339,28.141 68.73,27.675 69.122,27.191 C 69.58,26.569 69.966,25.972 70.28,25.265 C 70.694,24.328 70.955,23.4 71.098,22.435 C 71.421,22.149 71.739,21.852 72.04,21.551 C 72.423,21.166 72.795,20.771 73.169,20.377 C 72.509,20.782 71.84,21.194 71.189,21.626 C 71.208,21.398 71.22,21.169 71.228,20.936 C 71.234,20.76 71.228,20.569 71.217,20.394 C 71.205,20.203 71.201,20.011 71.185,19.82 C 71.175,19.698 71.159,19.576 71.149,19.454 C 71.119,19.094 71.047,18.724 70.985,18.369 C 70.732,16.889 70.18,15.344 69.417,14 C 69.391,13.898 69.352,13.807 69.311,13.719 C 69.263,13.616 69.216,13.515 68.857,12.877 C 68.854,12.867 68.849,12.859 68.845,12.852 C 68.842,12.848 68.84,12.845 68.838,12.842 C 68.794,12.666 68.624,12.355 68.438,12.041 C 68.427,11.973 68.417,11.905 68.408,11.838 C 68.338,11.338 68.19,10.827 67.988,10.336 C 68.05,10.317 68.11,10.299 68.169,10.285 C 68.292,10.253 68.368,10.127 68.339,10.004 C 68.309,9.883 68.183,9.808 68.061,9.84 C 67.972,9.853 67.882,9.873 67.791,9.897 C 67.588,9.48 67.348,9.084 67.088,8.733 C 66.941,8.535 66.788,8.314 66.624,8.13 C 66.539,8.036 66.455,7.942 66.371,7.847 C 66.479,7.794 66.527,7.663 66.479,7.555 C 66.43,7.444 66.299,7.397 66.187,7.448 C 66.144,7.467 66.102,7.485 66.061,7.505 C 65.848,7.281 65.608,7.056 65.384,6.866 C 65.017,6.558 64.655,6.26 64.258,5.986 C 63.184,5.247 62.056,4.667 60.86,4.222 C 60.071,3.772 59.198,3.452 58.287,3.259 C 57.805,3.158 57.344,3.101 56.854,3.052 C 56.344,3.001 55.782,2.994 55.243,3.099 C 54.3,3.076 53.357,3.194 52.441,3.425 L 52.273,3.478 C 52.246,3.485 52.22,3.491 52.193,3.498 C 51.949,3.56 51.709,3.624 51.465,3.689 C 51.462,3.689 51.46,3.69 51.458,3.691 C 51.627,3.5 51.782,3.3 51.938,3.1 C 51.975,3.068 51.98,3.01 51.948,2.973 C 51.917,2.937 51.858,2.933 51.822,2.966 C 51.37,3.211 50.938,3.478 50.52,3.777 Z M 10.24,4.805 L 10.253,4.807 C 10.342,4.828 10.475,4.863 10.559,4.898 C 10.615,4.92 10.704,4.958 10.762,4.965 C 10.835,4.973 10.923,5.004 10.995,5.022 C 11.205,5.078 11.408,5.146 11.611,5.227 C 11.745,5.28 11.879,5.337 12.011,5.397 C 11.876,5.477 11.741,5.557 11.606,5.639 C 11.397,5.696 11.189,5.763 10.982,5.84 C 10.566,5.994 10.164,6.202 9.774,6.412 C 8.869,6.898 7.98,7.547 7.21,8.228 C 6.932,8.473 6.67,8.729 6.4,8.983 C 6.086,9.281 5.785,9.606 5.49,9.922 C 5.281,10.147 5.072,10.37 4.876,10.607 C 4.666,10.859 4.464,11.114 4.264,11.373 C 4.28,11.305 4.297,11.236 4.314,11.167 L 4.47,10.993 C 6,9.274 7.533,7.538 9.136,5.888 L 9.405,5.609 C 9.461,5.794 9.587,5.928 9.888,6.066 C 9.919,6.078 9.956,6.064 9.97,6.033 C 9.983,6.003 9.97,5.965 9.939,5.953 C 9.911,5.934 9.851,5.912 9.819,5.897 C 9.749,5.867 9.663,5.784 9.622,5.722 C 9.579,5.658 9.557,5.586 9.548,5.509 L 10.06,5.255 C 10.225,5.177 10.305,4.981 10.24,4.805 Z M 57.964,4.081 C 58.428,4.116 58.867,4.25 59.15,4.395 C 59.678,4.555 60.207,4.801 60.656,5.128 C 61,5.221 61.29,5.4 61.301,5.483 C 61.457,5.567 61.595,5.666 61.73,5.767 L 61.148,5.448 C 60.2,4.977 59.214,4.587 58.211,4.287 C 57.695,4.131 57.17,4 56.641,3.894 C 57.086,3.892 57.541,3.956 57.964,4.081 Z M 58.889,5.195 C 60.255,5.683 61.583,6.346 62.817,7.16 C 62.746,7.145 62.668,7.157 62.604,7.205 C 62.595,7.213 62.587,7.219 62.578,7.225 C 61.935,6.957 61.274,6.754 60.618,6.644 C 60.367,6.601 60.122,6.565 59.869,6.535 C 59.776,6.522 59.688,6.59 59.675,6.683 C 59.662,6.777 59.727,6.862 59.82,6.874 C 60.113,6.908 60.422,6.95 60.718,7.012 C 60.341,7.198 59.971,7.393 59.602,7.61 C 58.82,8.068 58.083,8.587 57.373,9.14 C 57.342,9.124 57.307,9.113 57.27,9.111 C 56.281,8.98 55.014,9.045 54.05,9.347 C 53.525,9.512 52.966,9.743 52.516,10.069 C 52.239,10.27 52.017,10.447 51.773,10.687 C 51.298,11.153 50.932,11.722 50.666,12.339 L 50.547,12.658 L 50.465,12.707 C 50.108,12.952 49.775,13.23 49.476,13.548 C 49.228,13.812 48.974,14.142 48.809,14.462 C 48.618,14.837 48.469,15.194 48.394,15.61 C 48.313,16.052 48.308,16.489 48.364,16.917 C 47.954,17.235 47.547,17.56 47.157,17.899 C 46.847,18.169 46.559,18.445 46.261,18.728 C 45.933,19.039 45.624,19.413 45.338,19.765 C 45.287,19.826 45.294,19.916 45.354,19.966 C 45.414,20.016 45.505,20.007 45.556,19.945 C 45.692,19.782 45.827,19.608 45.968,19.45 C 46.091,19.312 46.223,19.179 46.351,19.044 C 46.592,18.787 46.859,18.559 47.117,18.32 C 47.273,18.176 47.441,18.041 47.604,17.904 C 47.869,17.679 48.143,17.461 48.419,17.249 C 48.566,17.97 48.882,18.662 49.295,19.3 C 48.148,20.422 47.005,21.55 45.862,22.676 C 45.567,21.758 45.241,20.847 44.965,19.926 C 44.701,19.044 44.435,18.179 44.289,17.27 C 44.855,16.731 45.458,16.234 46.081,15.762 C 46.418,15.507 46.771,15.257 47.129,15.031 C 47.47,14.814 47.781,14.63 48.092,14.365 C 48.134,14.342 48.15,14.289 48.127,14.247 C 48.105,14.206 48.052,14.191 48.01,14.214 C 47.59,14.33 47.242,14.557 46.882,14.795 C 46.695,14.918 46.504,15.04 46.324,15.173 C 46.141,15.308 45.957,15.433 45.778,15.575 C 45.255,15.992 44.733,16.436 44.238,16.906 C 44.196,16.567 44.175,16.231 44.17,15.898 C 44.183,15.768 44.198,15.641 44.217,15.511 L 44.299,15 L 44.42,14.529 C 44.483,14.311 44.552,14.096 44.619,13.879 C 44.725,13.536 44.855,13.194 44.99,12.861 C 45.568,11.44 46.267,10.188 47.113,8.907 C 47.463,8.377 47.846,7.865 48.244,7.37 C 49.535,6.612 50.987,6.164 52.471,5.866 C 53.211,5.717 54.005,5.611 54.761,5.56 C 54.653,5.617 54.544,5.677 54.445,5.732 C 53.871,6.049 53.323,6.365 52.788,6.747 C 51.273,7.83 49.907,8.976 48.583,10.287 C 48.059,10.805 47.519,11.372 47.053,11.942 C 47.015,11.986 47.02,12.053 47.062,12.09 C 47.105,12.127 47.173,12.122 47.21,12.078 C 48.021,11.131 48.917,10.199 49.856,9.379 C 50.338,8.96 50.826,8.564 51.316,8.157 C 51.568,7.947 51.863,7.726 52.132,7.538 C 52.635,7.187 53.131,6.82 53.637,6.472 C 54.075,6.171 54.501,5.849 54.94,5.548 C 54.944,5.548 54.947,5.548 54.95,5.548 C 54.951,5.547 54.952,5.547 54.952,5.545 C 55.002,5.506 55.054,5.472 55.106,5.437 C 55.093,5.436 55.081,5.435 55.068,5.435 C 55.068,5.428 55.069,5.421 55.069,5.413 C 55.066,5.345 55.004,5.293 54.936,5.297 C 53.151,5.398 51.317,5.77 49.644,6.427 C 49.29,6.566 48.967,6.727 48.632,6.893 C 48.87,6.603 49.114,6.315 49.366,6.047 C 49.587,5.813 49.804,5.567 50.031,5.337 C 50.134,5.232 50.236,5.129 50.336,5.024 C 50.802,4.817 51.283,4.633 51.786,4.474 C 52.068,4.384 52.354,4.31 52.64,4.241 C 54.771,4.124 56.897,4.48 58.889,5.195 Z M 8.062,5.443 L 8.028,5.476 L 7.506,5.96 L 7.133,6.235 C 6.832,6.476 6.54,6.732 6.261,6.997 C 6.658,6.5 7.087,6.09 7.642,5.703 C 7.772,5.613 7.917,5.521 8.062,5.443 Z M 13.189,5.983 C 13.476,6.131 13.77,6.312 14.046,6.491 C 13.444,6.853 12.848,7.221 12.259,7.603 C 10.486,8.747 8.799,9.909 7.274,11.383 C 7.254,11.403 7.252,11.438 7.271,11.458 C 7.29,11.478 7.325,11.479 7.346,11.459 C 9.372,9.472 11.826,8.055 14.249,6.623 C 14.508,6.793 14.764,6.963 15.015,7.138 C 15.604,7.774 16.193,8.407 16.783,9.04 C 16.454,9.26 16.132,9.495 15.811,9.723 C 15.145,10.198 14.491,10.697 13.848,11.204 C 12.876,11.969 11.907,12.74 10.932,13.499 C 10.627,13.736 10.315,13.963 10.01,14.199 C 9.967,14.23 9.957,14.293 9.988,14.336 C 10.019,14.377 10.081,14.386 10.124,14.354 C 10.479,14.076 10.846,13.808 11.205,13.535 C 12.024,12.912 12.837,12.279 13.652,11.652 C 14.397,11.078 15.157,10.527 15.93,9.992 C 16.28,9.75 16.639,9.505 17.004,9.276 C 17.261,9.552 17.52,9.828 17.778,10.104 C 17.962,10.3 18.145,10.495 18.33,10.691 C 18.291,10.715 18.253,10.736 18.216,10.759 C 17.3,11.284 16.524,12.071 15.783,12.812 C 15.006,13.589 14.22,14.451 13.321,15.088 C 13.188,15.182 13.034,15.288 12.896,15.372 C 12.75,15.462 12.59,15.538 12.446,15.631 C 12.374,15.671 12.349,15.763 12.388,15.834 C 12.426,15.904 12.517,15.928 12.589,15.888 C 12.74,15.798 12.9,15.716 13.049,15.624 C 13.567,15.307 14.124,14.859 14.567,14.443 C 15.061,13.975 15.542,13.499 16.024,13.018 C 16.831,12.212 17.606,11.493 18.587,10.962 C 19.556,11.982 20.535,12.991 21.509,14.007 C 21.99,14.509 22.495,14.985 22.992,15.471 C 23.218,15.694 23.446,15.916 23.676,16.137 C 23.31,16.316 22.955,16.51 22.6,16.724 C 21.531,17.365 20.553,18.145 19.586,18.929 C 18.774,19.588 18.006,20.276 17.233,20.978 C 16.962,21.223 16.687,21.471 16.424,21.725 C 16.378,21.767 16.375,21.84 16.416,21.884 C 16.457,21.929 16.529,21.931 16.575,21.89 C 16.931,21.545 17.309,21.201 17.683,20.876 C 18.277,20.359 18.856,19.84 19.474,19.35 C 19.907,19.006 20.339,18.668 20.778,18.334 C 21.216,18.002 21.677,17.706 22.132,17.398 C 22.693,17.016 23.288,16.666 23.892,16.347 C 24.415,16.851 24.94,17.352 25.464,17.854 C 24.873,18.11 24.271,18.458 23.735,18.8 C 22.026,19.889 20.543,21.255 19.179,22.752 C 19.139,22.795 19.141,22.865 19.183,22.903 C 19.225,22.942 19.294,22.939 19.334,22.896 C 19.482,22.723 19.659,22.539 19.822,22.379 C 20.171,22.034 20.505,21.688 20.866,21.353 C 21.494,20.769 22.18,20.198 22.888,19.716 C 23.172,19.523 23.457,19.322 23.755,19.151 C 24.016,19 24.271,18.844 24.537,18.706 C 24.936,18.502 25.335,18.311 25.738,18.118 C 25.791,18.169 25.844,18.22 25.899,18.272 C 26.05,18.443 26.2,18.616 26.351,18.789 C 26.563,19.033 26.777,19.277 26.99,19.52 C 26.909,19.564 26.83,19.608 26.754,19.651 C 26.164,19.984 25.582,20.399 25.07,20.846 C 24.771,21.108 24.468,21.373 24.186,21.654 C 23.85,21.991 23.518,22.329 23.184,22.669 C 22.754,23.107 22.336,23.56 21.895,23.989 C 21.495,24.377 21.093,24.742 20.67,25.105 C 20.592,25.172 20.581,25.29 20.646,25.366 C 20.711,25.443 20.829,25.451 20.906,25.385 C 21.12,25.196 21.338,25.015 21.551,24.823 C 21.727,24.663 21.896,24.495 22.072,24.333 C 22.218,24.198 22.356,24.051 22.498,23.911 C 22.911,23.505 23.308,23.083 23.719,22.675 C 24.71,21.688 25.731,20.69 26.977,20.031 C 27.079,19.976 27.184,19.92 27.291,19.865 C 29.015,21.836 30.737,23.809 32.471,25.771 C 32.273,25.9 32.075,26.031 31.879,26.163 C 31.694,26.285 31.507,26.405 31.327,26.534 C 31.063,26.721 30.786,26.899 30.528,27.091 C 29.816,27.622 29.12,28.164 28.475,28.777 C 27.789,29.427 27.202,30.093 26.617,30.834 C 26.554,30.914 26.567,31.031 26.646,31.093 C 26.725,31.155 26.842,31.139 26.905,31.059 C 27.2,30.65 27.553,30.262 27.891,29.888 C 28.875,28.798 30.078,27.864 31.287,27.038 C 31.764,26.712 32.25,26.388 32.74,26.074 C 33.441,26.867 34.145,27.659 34.851,28.448 C 34.482,28.609 34.114,28.775 33.749,28.938 C 33.334,29.121 32.93,29.311 32.52,29.505 C 32.249,29.634 31.962,29.766 31.699,29.911 C 29.859,30.93 28.212,32.062 26.982,33.789 C 26.947,33.837 26.957,33.904 27.004,33.937 C 27.051,33.972 27.119,33.96 27.153,33.913 C 27.303,33.687 27.49,33.462 27.667,33.257 C 28.493,32.295 29.511,31.547 30.6,30.904 C 31.029,30.648 31.478,30.429 31.922,30.202 C 32.674,29.819 33.428,29.479 34.198,29.135 C 34.499,28.999 34.8,28.862 35.1,28.726 C 35.49,29.16 35.879,29.592 36.27,30.024 C 34.252,31.154 32.558,32.725 30.805,34.282 C 30.747,34.333 30.739,34.424 30.789,34.481 C 30.84,34.539 30.93,34.544 30.989,34.493 C 32.409,33.232 33.856,31.941 35.46,30.921 C 35.802,30.703 36.159,30.498 36.525,30.307 C 36.985,30.815 37.446,31.321 37.909,31.826 C 37,32.471 36.135,33.19 35.302,33.916 C 34.59,34.536 33.883,35.162 33.173,35.782 C 32.834,36.077 32.488,36.365 32.148,36.659 C 32.063,36.731 32.051,36.859 32.121,36.941 C 32.191,37.025 32.318,37.034 32.403,36.963 C 32.719,36.686 33.044,36.415 33.365,36.144 C 34.083,35.535 34.787,34.902 35.503,34.288 C 36.367,33.548 37.266,32.812 38.211,32.154 C 38.518,32.488 38.826,32.823 39.136,33.157 C 39.731,33.796 40.33,34.433 40.933,35.067 C 40.243,35.424 39.691,36.003 39.194,36.593 C 38.835,37.019 38.52,37.473 38.2,37.929 C 37.895,38.364 37.588,38.785 37.269,39.21 C 36.897,39.705 36.375,40.283 35.852,40.628 C 35.645,40.765 35.456,40.861 35.236,40.972 C 35.115,41.031 35.061,41.178 35.117,41.298 C 35.173,41.419 35.319,41.47 35.441,41.412 C 35.591,41.333 35.747,41.266 35.892,41.176 C 36.194,40.989 36.487,40.769 36.747,40.525 C 37.603,39.725 38.307,38.633 38.992,37.686 C 39.489,36.997 40.199,36.115 40.949,35.68 C 41.056,35.618 41.17,35.543 41.282,35.495 C 41.294,35.488 41.308,35.48 41.319,35.472 C 41.843,36.02 42.369,36.568 42.896,37.112 C 42.892,37.114 42.887,37.116 42.883,37.119 C 41.772,37.589 40.776,38.486 39.955,39.357 C 39.524,39.814 39.13,40.286 38.713,40.753 C 38.467,41.03 38.24,41.331 37.996,41.61 C 37.724,41.921 37.453,42.246 37.188,42.563 C 37.12,42.642 37.128,42.762 37.206,42.828 C 37.284,42.894 37.404,42.884 37.471,42.804 C 37.907,42.283 38.361,41.763 38.811,41.252 C 39.697,40.249 40.613,39.256 41.698,38.462 C 41.907,38.308 42.114,38.152 42.336,38.015 C 42.592,37.856 42.842,37.741 43.11,37.609 C 43.171,37.579 43.217,37.528 43.244,37.47 C 43.723,37.964 44.205,38.458 44.688,38.949 C 42.345,40.36 40.37,42.551 38.7,44.668 C 38.627,44.759 38.64,44.891 38.728,44.962 C 38.817,45.032 38.95,45.018 39.022,44.927 C 39.613,44.176 40.247,43.438 40.902,42.743 C 42.154,41.413 43.496,40.245 45.086,39.351 C 46.123,40.404 47.166,41.45 48.213,42.494 C 47.768,42.754 47.324,43.017 46.883,43.284 C 44.866,44.5 42.957,45.798 41.364,47.56 C 41.311,47.617 41.312,47.708 41.367,47.76 C 41.422,47.812 41.513,47.809 41.566,47.752 C 41.809,47.472 42.094,47.201 42.361,46.942 C 43.929,45.431 45.744,44.347 47.623,43.281 C 47.916,43.115 48.213,42.952 48.508,42.788 C 48.968,43.244 49.429,43.701 49.89,44.157 C 48.329,45.428 46.813,46.703 45.486,48.241 C 45.43,48.304 45.436,48.402 45.498,48.456 C 45.56,48.511 45.658,48.503 45.715,48.44 C 46.84,47.125 48.162,46.006 49.516,44.936 C 49.729,44.767 49.945,44.595 50.161,44.426 C 50.737,44.993 51.312,45.561 51.889,46.127 C 51.447,46.391 51.072,46.657 50.677,46.994 C 50.243,47.362 49.824,47.819 49.448,48.246 C 49.061,48.683 48.668,49.117 48.266,49.541 C 47.878,49.951 47.476,50.29 47.043,50.649 C 46.982,50.7 46.971,50.791 47.02,50.851 C 47.069,50.912 47.159,50.921 47.221,50.871 C 47.479,50.657 47.754,50.45 47.995,50.218 C 48.215,50.007 48.428,49.788 48.647,49.575 C 48.744,49.48 48.839,49.372 48.932,49.272 C 49.166,49.021 49.4,48.764 49.64,48.519 C 49.771,48.386 49.895,48.238 50.03,48.107 C 50.225,47.919 50.414,47.718 50.618,47.539 C 51.117,47.103 51.619,46.731 52.212,46.443 C 52.702,46.925 53.192,47.405 53.682,47.886 C 51.686,49.184 49.8,50.812 48.37,52.689 C 48.142,52.989 47.918,53.298 47.71,53.612 C 47.594,53.785 47.488,53.966 47.376,54.14 C 47.324,54.222 47.324,54.322 47.428,54.38 C 47.417,54.37 47.406,54.359 47.394,54.35 C 45.81,52.893 44.248,51.4 42.7,49.904 C 37.693,45.065 32.82,40.088 27.885,35.177 C 26.416,33.716 24.953,32.248 23.471,30.8 C 20.601,27.997 17.715,25.226 14.764,22.507 C 13.579,21.416 12.372,20.351 11.17,19.278 C 10.214,18.423 9.215,17.616 8.225,16.801 C 7.289,16.033 6.348,15.275 5.401,14.523 C 5.733,14.192 6.084,13.901 6.48,13.622 C 6.994,13.257 7.541,12.932 8.054,12.569 C 8.291,12.403 8.539,12.228 8.762,12.044 C 8.837,11.981 8.916,11.903 8.995,11.847 C 8.381,12.329 7.723,12.71 7.058,13.119 C 6.788,13.285 6.487,13.463 6.235,13.652 C 5.953,13.864 5.663,14.071 5.41,14.319 C 5.369,14.357 5.33,14.396 5.292,14.436 C 5.13,14.307 4.967,14.178 4.806,14.05 C 5.218,13.682 5.632,13.316 6.06,12.969 C 7.711,11.629 9.475,10.457 11.46,9.72 C 11.059,9.992 10.668,10.277 10.3,10.581 C 9.561,11.188 8.919,11.829 8.309,12.564 C 8.276,12.605 8.28,12.666 8.32,12.699 C 8.359,12.731 8.421,12.726 8.454,12.687 C 8.608,12.488 8.795,12.273 8.969,12.093 C 9.187,11.867 9.411,11.609 9.648,11.405 C 9.903,11.185 10.149,10.956 10.412,10.742 C 10.559,10.622 10.718,10.509 10.869,10.393 C 11.26,10.094 11.686,9.823 12.102,9.562 C 12.518,9.301 12.934,9.046 13.359,8.797 C 13.974,8.437 14.578,8.068 15.184,7.693 C 15.242,7.658 15.26,7.581 15.225,7.525 C 15.19,7.469 15.115,7.451 15.058,7.487 C 14.54,7.8 14.03,8.124 13.512,8.438 C 13.094,8.689 12.669,8.944 12.249,9.209 C 12.225,9.202 12.201,9.202 12.176,9.209 C 11.222,9.436 10.18,9.886 9.322,10.371 C 8.73,10.705 8.16,11.047 7.6,11.435 C 6.524,12.179 5.547,12.997 4.572,13.865 C 4.355,13.693 4.137,13.522 3.921,13.351 C 3.968,12.922 4.035,12.478 4.122,12.031 C 4.32,11.776 4.521,11.525 4.727,11.275 C 4.879,11.091 5.039,10.915 5.193,10.733 C 5.54,10.324 5.898,9.922 6.273,9.541 C 7.83,8.285 9.518,7.133 11.261,6.173 C 11.617,6.002 11.993,5.84 12.36,5.7 C 12.405,5.686 12.437,5.645 12.443,5.6 C 12.691,5.724 12.937,5.852 13.189,5.983 Z M 48.241,5.366 L 48.187,5.39 L 48.188,5.389 L 48.241,5.366 Z M 55.36,6.718 C 52.697,8.216 50.361,10.291 48.118,12.354 C 48.065,12.402 48.06,12.484 48.107,12.536 C 48.154,12.589 48.237,12.592 48.29,12.544 C 49.837,11.135 51.432,9.708 53.159,8.525 C 53.706,8.15 54.276,7.756 54.857,7.438 C 55.288,7.201 55.728,6.944 56.175,6.74 C 56.617,6.539 57.072,6.315 57.527,6.148 C 57.765,6.06 58.002,5.973 58.24,5.885 C 58.362,5.839 58.425,5.701 58.381,5.58 C 58.337,5.459 58.2,5.399 58.079,5.445 C 57.139,5.807 56.239,6.224 55.36,6.718 Z M 7.327,6.94 L 6.806,7.498 C 6.288,8.075 5.775,8.66 5.266,9.24 L 4.944,9.608 L 5.336,9.037 C 5.493,8.821 5.655,8.608 5.822,8.4 L 6.243,7.901 L 7.023,7.185 L 7.327,6.94 Z M 65.303,7.901 C 65.221,7.949 65.141,7.997 65.06,8.048 L 64.623,7.698 L 64.532,7.568 C 64.279,7.235 64.008,6.914 63.712,6.61 C 63.46,6.351 63.199,6.104 62.89,5.924 C 62.887,5.919 62.883,5.914 62.88,5.91 C 63.767,6.473 64.59,7.141 65.303,7.901 Z M 8.218,7.881 C 8.303,7.818 8.394,7.752 8.486,7.683 C 8.681,7.537 8.905,7.41 9.11,7.278 C 9.117,7.273 9.124,7.268 9.133,7.264 C 8.819,7.451 8.515,7.666 8.218,7.881 Z M 17.156,8.762 C 17.165,8.768 17.174,8.776 17.184,8.783 C 17.182,8.784 17.18,8.785 17.179,8.787 C 17.125,8.819 17.073,8.851 17.021,8.884 C 16.671,8.538 16.323,8.189 15.978,7.838 C 16.376,8.139 16.77,8.446 17.156,8.762 Z M 8.01,9.915 C 7.403,10.285 6.826,10.682 6.268,11.124 C 6.063,11.287 5.841,11.466 5.656,11.65 C 5.425,11.877 5.209,12.095 4.991,12.335 C 4.865,12.473 4.743,12.64 4.626,12.788 C 4.591,12.833 4.597,12.897 4.641,12.933 C 4.685,12.967 4.75,12.959 4.786,12.915 C 5.113,12.5 5.45,12.113 5.84,11.753 C 6.079,11.534 6.332,11.336 6.582,11.13 C 6.829,10.928 7.116,10.748 7.377,10.563 C 8.127,10.036 8.97,9.614 9.734,9.107 C 9.985,8.939 10.243,8.772 10.488,8.595 C 10.764,8.397 11.022,8.178 11.292,7.972 C 10.203,8.629 9.098,9.254 8.01,9.915 Z M 61.869,7.342 C 61.995,7.382 62.123,7.429 62.252,7.479 C 61.809,7.825 61.368,8.173 60.928,8.524 C 60.491,8.869 60.07,9.235 59.638,9.587 C 59.168,9.967 58.723,10.385 58.274,10.79 C 57.725,10.715 57.165,10.712 56.619,10.788 C 56.336,10.826 56.078,10.873 55.801,10.933 C 57.483,9.455 59.243,8.099 61.292,7.163 C 61.484,7.219 61.673,7.277 61.869,7.342 Z M 63.561,7.679 L 63.607,7.717 C 63.411,7.612 63.213,7.512 63.011,7.417 C 63.014,7.362 62.998,7.306 62.965,7.258 C 63.166,7.394 63.365,7.535 63.561,7.679 Z M 64.285,8.58 C 63.05,9.503 61.967,10.678 60.954,11.832 C 60.798,11.723 60.641,11.621 60.468,11.524 C 59.898,11.204 59.269,10.975 58.618,10.849 C 58.74,10.742 58.864,10.638 58.989,10.536 C 60.211,9.524 61.481,8.613 62.778,7.706 C 63.306,7.956 63.826,8.262 64.285,8.58 Z M 18.801,10.217 C 18.865,10.274 18.929,10.335 18.992,10.397 C 18.953,10.389 18.913,10.393 18.876,10.411 C 18.811,10.435 18.747,10.464 18.682,10.496 C 18.561,10.381 18.441,10.266 18.32,10.15 C 17.964,9.809 17.61,9.466 17.259,9.12 C 17.29,9.102 17.32,9.083 17.352,9.066 C 17.385,9.044 17.407,9.015 17.419,8.981 C 17.892,9.38 18.342,9.799 18.801,10.217 Z M 65.835,8.512 C 66.043,8.771 66.223,9.038 66.407,9.314 C 66.427,9.345 66.449,9.377 66.468,9.409 C 66.125,9.035 65.763,8.677 65.388,8.335 C 65.455,8.297 65.523,8.259 65.592,8.221 C 65.675,8.317 65.755,8.413 65.835,8.512 Z M 64.738,8.915 L 64.74,8.918 L 65.882,10.958 C 65.745,11.071 65.618,11.188 65.505,11.301 C 65.299,11.506 65.089,11.702 64.887,11.914 C 64.456,12.367 64.041,12.849 63.601,13.292 C 63.505,13.389 63.411,13.49 63.313,13.584 C 63.227,13.666 63.134,13.743 63.051,13.83 C 63.013,13.869 62.968,13.904 62.925,13.939 C 62.868,13.844 62.808,13.751 62.747,13.661 C 62.362,13.086 61.816,12.458 61.256,12.049 C 61.244,12.04 61.232,12.031 61.221,12.023 C 61.534,11.674 61.852,11.329 62.174,10.988 C 62.75,10.381 63.376,9.76 64.04,9.252 C 64.236,9.101 64.428,8.959 64.621,8.823 C 64.66,8.854 64.7,8.884 64.738,8.915 Z M 56.811,9.589 C 56.29,10.013 55.781,10.454 55.276,10.9 C 55.171,10.992 55.066,11.084 54.96,11.177 C 54.849,11.218 54.736,11.262 54.633,11.298 C 54.626,11.3 54.619,11.302 54.615,11.304 C 54.35,11.305 54.088,11.32 53.799,11.356 C 53.628,11.378 53.454,11.408 53.28,11.476 C 53.292,11.464 53.305,11.457 53.319,11.451 C 53.549,11.324 53.755,11.228 53.996,11.126 C 54.373,10.964 54.868,10.859 55.274,10.808 C 55.375,10.792 55.446,10.696 55.433,10.596 C 55.42,10.495 55.326,10.426 55.225,10.441 C 54.693,10.511 54.207,10.64 53.709,10.842 C 53.341,10.992 53,11.199 52.679,11.433 C 52.557,11.522 52.428,11.631 52.307,11.745 C 52.06,11.84 51.818,11.946 51.59,12.058 L 51.292,12.229 L 51.401,12.002 C 51.801,11.282 52.372,10.664 53.132,10.259 C 53.647,9.985 54.165,9.808 54.736,9.697 C 55.38,9.572 56.13,9.539 56.811,9.589 Z M 19.473,10.898 C 19.55,10.979 19.623,11.07 19.702,11.15 C 20.208,11.738 20.721,12.321 21.232,12.906 C 21.214,12.89 21.196,12.872 21.179,12.857 C 20.438,12.166 19.702,11.469 18.968,10.77 C 18.987,10.762 19.005,10.753 19.025,10.744 C 19.104,10.708 19.146,10.62 19.131,10.538 C 19.246,10.657 19.36,10.778 19.473,10.898 Z M 66.473,10.519 C 66.434,10.544 66.397,10.57 66.36,10.595 C 66.289,10.455 66.218,10.316 66.149,10.177 C 66.26,10.288 66.368,10.401 66.473,10.519 Z M 4.044,11.488 C 4.028,11.565 4.013,11.645 3.998,11.724 C 3.839,11.935 3.683,12.148 3.528,12.364 C 3.57,12.229 3.621,12.099 3.674,11.972 L 3.752,11.802 L 4.048,11.466 C 4.046,11.474 4.045,11.481 4.044,11.488 Z M 67.36,11.621 C 67.434,11.722 67.506,11.824 67.579,11.93 C 67.606,12.02 67.63,12.111 67.648,12.199 C 67.695,12.43 67.742,12.654 67.784,12.885 C 67.802,12.985 67.817,13.086 67.829,13.19 C 67.73,13.257 67.632,13.328 67.536,13.4 C 67.517,13.348 67.497,13.296 67.48,13.245 C 67.217,12.506 66.918,11.763 66.583,11.053 C 66.654,11.004 66.726,10.955 66.8,10.908 C 66.992,11.141 67.18,11.373 67.36,11.621 Z M 3.81,12.958 C 3.799,13.052 3.79,13.146 3.781,13.24 C 3.662,13.147 3.544,13.053 3.426,12.96 C 3.579,12.748 3.734,12.537 3.893,12.327 C 3.86,12.54 3.831,12.749 3.81,12.958 Z M 67.074,13.775 C 66.786,14.021 66.51,14.28 66.245,14.532 C 65.602,15.139 64.982,15.774 64.364,16.405 C 64.232,16.539 64.097,16.667 63.965,16.797 C 63.837,15.943 63.558,15.11 63.158,14.351 C 63.209,14.308 63.259,14.264 63.308,14.22 C 63.762,13.804 64.165,13.365 64.593,12.92 C 65.107,12.386 65.581,11.863 66.119,11.41 C 66.476,12.176 66.796,12.974 67.074,13.775 Z M 57.369,11.648 C 57.307,11.709 57.246,11.773 57.184,11.836 C 57.056,11.779 56.919,11.725 56.777,11.675 C 56.973,11.655 57.171,11.647 57.369,11.648 Z M 59.641,12.163 C 59.884,12.284 60.098,12.412 60.321,12.558 C 60.275,12.611 60.229,12.664 60.184,12.716 C 60.126,12.784 60.131,12.886 60.197,12.943 C 60.262,13 60.365,12.993 60.423,12.927 C 60.476,12.864 60.53,12.803 60.585,12.741 C 60.715,12.84 60.846,12.952 60.955,13.055 C 61.106,13.198 61.251,13.334 61.39,13.49 C 61.705,13.844 61.982,14.231 62.216,14.644 C 62.221,14.685 62.236,14.725 62.261,14.758 C 62.272,14.775 62.287,14.789 62.302,14.8 C 62.49,15.152 62.647,15.52 62.771,15.9 C 61.973,14.759 60.752,13.874 59.476,13.264 L 59.25,13.171 L 59.221,13.142 C 58.811,12.807 58.399,12.468 57.93,12.216 C 57.76,12.125 57.598,12.038 57.427,11.951 C 57.526,11.853 57.625,11.756 57.727,11.66 C 58.393,11.705 59.047,11.867 59.641,12.163 Z M 19.285,12.683 C 19.075,12.775 18.863,12.918 18.671,13.046 C 18.421,13.211 18.15,13.392 17.92,13.584 C 17.807,13.677 17.685,13.766 17.57,13.859 C 17.333,14.048 17.088,14.266 16.867,14.474 C 16.128,15.175 15.431,15.915 14.731,16.654 C 14.422,16.981 14.099,17.293 13.788,17.616 C 13.727,17.677 13.727,17.775 13.786,17.834 C 13.846,17.893 13.944,17.891 14.004,17.831 C 14.239,17.584 14.486,17.347 14.725,17.105 C 14.983,16.843 15.232,16.572 15.493,16.312 C 15.726,16.08 15.947,15.836 16.183,15.608 C 16.496,15.304 16.806,14.997 17.122,14.698 C 17.352,14.482 17.598,14.277 17.84,14.075 C 18.107,13.853 18.404,13.629 18.691,13.436 C 18.915,13.284 19.15,13.149 19.374,12.999 C 19.553,12.879 19.726,12.729 19.887,12.588 L 19.906,12.531 L 19.851,12.514 C 19.668,12.554 19.457,12.609 19.285,12.683 Z M 55.72,12.112 L 56.111,12.217 L 55.41,12.124 C 55.273,12.111 55.137,12.098 55,12.09 C 55.057,12.068 55.117,12.046 55.178,12.026 C 55.367,12.043 55.552,12.071 55.72,12.112 Z M 3.75,13.569 C 3.743,13.647 3.737,13.725 3.731,13.805 C 3.552,13.631 3.374,13.456 3.195,13.284 C 3.218,13.249 3.242,13.216 3.266,13.183 C 3.428,13.31 3.589,13.44 3.75,13.569 Z M 4.405,14.092 C 4.407,14.123 4.418,14.154 4.441,14.178 C 4.473,14.216 4.523,14.232 4.57,14.225 C 4.745,14.366 4.917,14.506 5.091,14.647 C 5.048,14.694 5.005,14.742 4.961,14.79 C 4.936,14.819 4.938,14.863 4.965,14.888 C 4.993,14.914 5.038,14.91 5.063,14.882 C 5.107,14.832 5.152,14.783 5.198,14.734 C 5.793,15.219 6.385,15.71 6.97,16.209 C 8.191,17.252 9.384,18.327 10.591,19.385 C 20.051,27.677 28.653,36.857 37.567,45.716 C 38.087,46.234 38.609,46.751 39.124,47.259 C 38.799,46.952 38.467,46.636 38.135,46.322 C 31.351,39.895 24.491,33.549 17.686,27.144 C 17.126,26.545 16.57,25.941 16.013,25.338 C 15.345,24.613 14.678,23.889 14.033,23.143 C 13.819,22.91 13.613,22.67 13.394,22.44 C 13.037,22.063 12.665,21.692 12.291,21.333 C 12.147,21.195 12.005,21.052 11.856,20.92 C 11.636,20.723 11.425,20.518 11.205,20.322 C 10.615,19.797 10.021,19.269 9.413,18.765 C 8.688,18.163 7.97,17.552 7.245,16.951 C 6.708,16.504 6.165,16.057 5.64,15.597 C 5.409,15.393 5.175,15.19 4.943,14.987 C 4.584,14.636 4.223,14.286 3.864,13.935 C 3.871,13.849 3.878,13.762 3.887,13.677 C 4.06,13.815 4.232,13.954 4.405,14.092 Z M 56.151,13.002 C 56.356,13.044 56.563,13.079 56.766,13.127 C 57.141,13.215 57.502,13.323 57.87,13.441 C 58.163,13.536 58.467,13.651 58.772,13.784 L 58.973,13.883 L 59.5,14.395 C 59.735,14.65 59.955,14.92 60.158,15.197 C 60.329,15.433 60.477,15.67 60.637,15.913 C 60.886,16.293 61.115,16.762 61.292,17.181 C 61.364,17.35 61.445,17.532 61.5,17.707 C 61.61,18.052 61.719,18.373 61.802,18.728 C 61.84,18.895 61.874,19.067 61.902,19.242 C 61.894,19.889 61.804,20.547 61.642,21.104 L 61.43,21.727 L 61.398,21.757 C 61.243,21.878 61.08,21.991 60.892,22.113 C 60.756,22.201 60.607,22.266 60.464,22.34 C 59.851,22.654 59.124,22.795 58.453,22.893 L 57.554,22.953 L 56.968,22.932 C 56.699,22.91 56.442,22.863 56.19,22.797 L 55.695,22.636 L 55.348,22.347 C 54.899,21.962 54.476,21.544 54.093,21.094 C 53.122,19.952 52.262,18.615 51.921,17.13 C 51.743,16.357 51.712,15.527 51.975,14.762 C 52.183,14.153 52.532,13.664 52.977,13.259 C 53.047,13.323 53.158,13.323 53.232,13.256 C 53.376,13.123 53.522,12.989 53.668,12.855 C 53.845,12.841 54.02,12.835 54.185,12.834 C 54.831,12.825 55.521,12.874 56.151,13.002 Z M 51.684,13.446 L 51.486,13.779 L 51.574,13.511 C 51.59,13.467 51.608,13.425 51.627,13.382 C 51.678,13.356 51.729,13.332 51.781,13.307 C 51.747,13.352 51.715,13.399 51.684,13.446 Z M 51.024,13.889 C 50.714,14.891 50.693,16.043 50.873,17.087 C 50.773,16.635 50.703,16.174 50.681,15.733 C 50.658,15.267 50.649,14.836 50.693,14.369 L 50.763,14.038 C 50.842,13.946 50.956,13.837 51.069,13.743 C 51.053,13.793 51.039,13.841 51.024,13.889 Z M 68.985,14.54 C 69.336,15.449 69.609,16.383 69.763,17.351 C 69.791,17.522 69.824,17.694 69.842,17.868 C 69.902,18.464 69.971,19.067 69.957,19.67 C 69.947,20.087 69.94,20.5 69.901,20.917 L 69.594,22.77 C 69.402,22.918 69.212,23.068 69.022,23.219 C 68.931,23.289 68.841,23.36 68.75,23.431 C 68.872,22.635 68.926,21.818 68.925,21.038 C 68.939,21.023 68.953,21.009 68.969,20.995 C 69.031,20.932 69.104,20.85 69.163,20.782 C 69.221,20.713 69.272,20.627 69.331,20.558 C 69.388,20.478 69.37,20.366 69.291,20.311 C 69.213,20.255 69.1,20.275 69.043,20.355 C 68.998,20.411 68.957,20.469 68.918,20.528 C 68.904,19.951 68.872,19.353 68.798,18.792 C 68.759,18.498 68.716,18.198 68.681,17.903 C 68.662,17.749 68.627,17.588 68.598,17.435 C 68.593,17.409 68.588,17.384 68.584,17.358 C 68.752,17.172 68.974,16.944 69.177,16.798 C 69.271,16.718 69.283,16.577 69.205,16.484 C 69.126,16.392 68.985,16.383 68.891,16.463 C 68.747,16.581 68.612,16.707 68.485,16.835 C 68.42,16.507 68.352,16.184 68.274,15.855 C 68.228,15.663 68.178,15.473 68.126,15.284 C 68.241,14.914 68.345,14.535 68.407,14.153 C 68.438,13.956 68.463,13.744 68.476,13.529 C 68.697,13.839 68.848,14.185 68.985,14.54 Z M 67.881,14.246 C 67.881,14.306 67.881,14.377 67.88,14.447 C 67.824,14.265 67.768,14.082 67.712,13.901 C 67.708,13.888 67.704,13.876 67.7,13.865 C 67.747,13.83 67.796,13.795 67.846,13.761 C 67.879,13.998 67.881,14.122 67.881,14.246 Z M 49.639,14.478 L 49.509,14.853 C 49.49,14.922 49.461,15.027 49.453,15.096 C 49.424,15.353 49.375,15.621 49.394,15.88 C 49.412,16.133 49.421,16.361 49.461,16.615 C 49.546,17.156 49.724,17.665 49.929,18.17 C 50.03,18.42 50.222,18.706 50.374,18.929 C 50.441,19.067 50.612,19.121 50.751,19.052 L 50.784,19.011 L 50.846,19.187 C 51.016,19.615 51.214,20.033 51.469,20.423 C 51.468,20.423 51.467,20.423 51.466,20.424 C 51.414,20.439 51.356,20.463 51.299,20.49 L 50.973,20.199 C 50.645,19.863 50.334,19.495 50.059,19.102 C 50.099,19.062 50.139,19.023 50.18,18.986 C 50.258,18.908 50.26,18.781 50.185,18.704 C 50.109,18.627 49.983,18.627 49.904,18.705 C 49.882,18.725 49.86,18.747 49.839,18.767 C 49.632,18.433 49.454,18.083 49.315,17.719 C 49.225,17.484 49.171,17.254 49.113,17.009 C 49.094,16.932 49.079,16.845 49.067,16.755 C 49.167,16.679 49.267,16.604 49.367,16.53 C 49.434,16.479 49.449,16.383 49.399,16.316 C 49.349,16.25 49.253,16.238 49.185,16.289 C 49.136,16.326 49.088,16.362 49.04,16.399 C 49.031,16.06 49.065,15.702 49.154,15.443 C 49.238,15.195 49.314,14.962 49.453,14.736 L 49.639,14.478 Z M 67.411,14.836 C 67.548,15.258 67.646,15.692 67.758,16.12 C 67.86,16.515 67.946,16.932 68.021,17.344 C 67.901,17.486 67.782,17.63 67.663,17.777 C 67.484,17.996 67.296,18.209 67.12,18.428 C 66.789,18.842 66.228,19.378 65.712,19.53 C 65.469,19.602 65.324,19.577 65.082,19.561 C 64.967,19.548 64.858,19.631 64.841,19.746 C 64.825,19.862 64.906,19.97 65.021,19.983 C 65.085,19.982 65.196,20.002 65.266,20.008 C 65.48,20.025 65.719,19.973 65.922,19.906 C 66.363,19.759 66.72,19.439 67.054,19.125 C 67.262,18.93 67.44,18.702 67.629,18.488 C 67.796,18.299 67.956,18.103 68.117,17.907 C 68.119,17.922 68.121,17.936 68.124,17.951 C 68.192,18.377 68.244,18.804 68.289,19.233 C 68.309,19.433 68.316,19.636 68.339,19.835 C 68.366,20.08 68.364,20.352 68.371,20.599 C 68.375,20.764 68.378,20.929 68.378,21.093 C 68.341,21.126 68.304,21.159 68.266,21.193 C 68.04,21.395 67.741,21.584 67.495,21.761 C 66.783,22.274 66.21,22.708 65.869,23.541 C 65.844,23.598 65.87,23.663 65.926,23.687 C 65.982,23.71 66.048,23.684 66.073,23.626 C 66.452,22.631 67.405,22.174 68.225,21.592 C 68.274,21.557 68.323,21.521 68.373,21.485 C 68.372,21.526 68.371,21.566 68.37,21.607 C 68.366,21.705 68.369,21.807 68.359,21.904 C 68.338,22.111 68.334,22.325 68.314,22.535 C 68.274,22.971 68.216,23.42 68.129,23.85 C 68.123,23.877 68.118,23.903 68.112,23.931 C 67.812,24.167 67.51,24.401 67.209,24.638 C 65.274,26.154 63.401,27.717 61.629,29.421 C 61.508,29.537 61.5,29.73 61.614,29.85 C 61.727,29.968 61.92,29.972 62.042,29.856 C 62.529,29.364 63.07,28.887 63.589,28.426 C 64.954,27.214 66.395,26.078 67.858,24.984 C 67.766,25.272 67.676,25.549 67.568,25.832 C 67.186,26.827 66.556,27.878 65.794,28.634 C 65.372,29.053 64.935,29.418 64.43,29.732 C 64.255,29.84 64.073,29.945 63.886,30.045 C 63.969,29.981 64.05,29.914 64.135,29.85 C 64.224,29.78 64.306,29.69 64.387,29.61 C 64.667,29.329 64.874,29.042 65.116,28.735 C 65.16,28.699 65.166,28.634 65.131,28.59 C 65.097,28.547 65.031,28.542 64.987,28.578 C 64.769,28.678 64.559,28.798 64.342,28.902 C 64.049,29.041 63.751,29.186 63.467,29.344 C 63.192,29.497 62.925,29.671 62.647,29.818 C 62.018,30.149 61.407,30.397 60.733,30.615 C 60.602,30.657 60.459,30.708 60.326,30.737 C 60.152,30.776 59.971,30.834 59.796,30.866 C 59.629,30.896 59.458,30.926 59.292,30.963 C 59.159,30.991 59.011,31.003 58.875,31.021 C 58.557,31.062 58.23,31.095 57.905,31.111 L 56.669,31.008 L 54.833,30.639 C 54.395,30.5 53.951,30.376 53.527,30.198 C 53.11,30.022 52.714,29.843 52.308,29.645 C 52.097,29.541 51.89,29.42 51.686,29.306 C 51.578,29.241 51.473,29.169 51.371,29.099 C 50.892,28.776 50.45,28.436 50,28.074 C 49.624,27.772 49.272,27.424 48.925,27.09 C 48.644,26.819 48.372,26.517 48.117,26.222 L 47.823,25.905 L 47.779,25.837 L 47.789,25.87 L 47.642,25.712 C 47.562,25.658 47.448,25.634 47.35,25.653 C 47.328,25.657 47.305,25.654 47.283,25.659 L 47.273,25.663 L 46.641,24.861 L 46.048,23.273 C 46.029,23.21 46.011,23.149 45.991,23.086 C 46.011,23.077 46.028,23.064 46.044,23.049 C 47.202,21.909 48.358,20.767 49.519,19.63 C 49.859,20.103 50.248,20.543 50.657,20.939 C 50.196,21.383 49.877,21.983 49.517,22.505 C 49.258,22.881 48.846,23.511 48.425,23.727 C 48.347,23.766 48.275,23.819 48.193,23.847 C 48.022,23.904 47.909,23.934 47.729,23.957 C 47.652,23.967 47.595,24.039 47.604,24.117 C 47.612,24.193 47.682,24.248 47.76,24.239 C 47.819,24.223 47.886,24.226 47.946,24.214 C 48.038,24.195 48.122,24.164 48.21,24.139 C 48.238,24.131 48.31,24.107 48.332,24.092 C 48.363,24.072 48.422,24.05 48.458,24.033 C 48.52,24.004 48.639,23.931 48.692,23.887 C 48.768,23.825 48.879,23.756 48.942,23.684 C 48.977,23.643 49.03,23.606 49.066,23.565 C 49.248,23.36 49.436,23.143 49.587,22.914 C 49.799,22.588 50.022,22.263 50.238,21.938 C 50.395,21.7 50.622,21.398 50.881,21.151 C 51.092,21.344 51.305,21.526 51.518,21.695 C 51.942,22.029 52.374,22.308 52.827,22.599 C 52.838,22.605 52.848,22.612 52.858,22.62 C 52.598,22.829 52.341,23.043 52.085,23.261 C 51.225,23.986 50.337,24.886 49.676,25.797 C 49.424,26.145 49.165,26.505 48.954,26.879 C 48.897,26.972 48.925,27.096 49.018,27.151 C 49.111,27.206 49.234,27.177 49.291,27.083 C 49.526,26.66 49.832,26.242 50.125,25.858 C 50.987,24.724 52.096,23.732 53.232,22.84 C 53.303,22.879 53.374,22.918 53.446,22.955 L 53.621,23.038 L 53.886,23.255 C 54.093,23.407 54.307,23.549 54.524,23.674 C 53.053,24.79 51.754,26.099 50.653,27.595 C 50.586,27.682 50.603,27.806 50.687,27.871 C 50.772,27.935 50.897,27.917 50.963,27.83 C 52.081,26.319 53.4,24.989 54.902,23.873 C 54.992,23.916 55.083,23.955 55.173,23.992 C 55.365,24.067 55.545,24.143 55.743,24.206 C 56.121,24.325 56.498,24.399 56.881,24.451 C 56.89,24.457 56.901,24.462 56.911,24.467 C 56.791,24.564 56.673,24.665 56.555,24.763 C 56.195,25.061 55.85,25.374 55.504,25.688 C 54.844,26.287 54.213,26.914 53.559,27.518 C 53.215,27.834 52.868,28.144 52.525,28.46 C 52.45,28.529 52.441,28.645 52.508,28.719 C 52.574,28.793 52.691,28.799 52.766,28.731 C 53.198,28.333 53.633,27.938 54.066,27.538 C 54.674,26.979 55.26,26.396 55.874,25.843 C 56.254,25.502 56.638,25.17 57.03,24.844 C 57.115,24.772 57.202,24.703 57.29,24.635 C 57.379,24.671 57.468,24.703 57.557,24.731 C 57.818,24.814 58.166,24.934 58.44,24.945 C 58.545,24.948 58.646,24.959 58.746,24.965 C 58.328,25.293 57.915,25.633 57.517,25.976 C 56.836,26.561 56.179,27.147 55.521,27.76 C 55.181,28.075 54.831,28.397 54.506,28.729 C 54.432,28.801 54.428,28.923 54.5,28.996 C 54.571,29.069 54.693,29.07 54.767,28.997 C 55.182,28.572 55.636,28.157 56.072,27.755 C 57.146,26.765 58.249,25.8 59.402,24.902 C 59.506,24.872 59.613,24.85 59.715,24.816 C 59.947,24.736 60.193,24.619 60.405,24.492 C 60.964,24.154 61.42,23.654 61.777,23.089 C 61.878,22.964 61.974,22.825 62.062,22.68 L 62.145,22.499 L 62.178,22.466 C 62.257,22.377 62.331,22.282 62.409,22.193 C 62.542,22.044 62.689,21.808 62.795,21.635 C 62.821,21.593 62.915,21.425 62.935,21.409 C 63.002,21.271 63.077,21.134 63.146,20.996 C 63.169,20.949 63.191,20.903 63.202,20.843 C 63.331,20.741 63.403,20.606 63.466,20.471 C 63.718,19.929 63.904,19.358 63.985,18.767 C 64.054,18.25 64.062,17.729 64.015,17.211 C 64.047,17.204 64.079,17.188 64.104,17.163 C 64.392,16.865 64.698,16.57 64.997,16.281 C 65.456,15.837 65.902,15.38 66.383,14.956 C 66.669,14.702 66.943,14.464 67.227,14.235 C 67.289,14.434 67.346,14.637 67.411,14.836 Z M 20.915,15.612 L 20.865,15.634 C 20.589,15.807 20.328,15.998 20.06,16.183 C 19.9,16.294 19.732,16.399 19.572,16.51 C 18.993,16.913 18.422,17.321 17.853,17.738 C 16.929,18.414 15.995,19.163 15.228,20.017 C 15.071,20.191 14.893,20.376 14.754,20.564 C 14.726,20.598 14.73,20.649 14.763,20.676 C 14.795,20.704 14.846,20.699 14.875,20.666 C 15.412,20.027 15.968,19.472 16.613,18.942 C 18,17.803 19.574,16.921 21.018,15.858 C 21.08,15.814 21.096,15.728 21.055,15.667 C 21.033,15.635 21.001,15.617 20.967,15.611 L 20.915,15.612 Z M 62.319,16.576 C 62.384,16.683 62.447,16.791 62.505,16.903 C 62.455,16.75 62.4,16.604 62.271,16.502 C 62.29,16.527 62.305,16.551 62.319,16.576 Z M 62.898,18.021 C 62.913,18.105 62.934,18.19 62.938,18.277 C 62.943,18.375 62.965,18.484 62.962,18.58 C 62.959,18.679 62.965,18.778 62.963,18.875 C 62.958,19.047 62.934,19.225 62.881,19.395 C 62.885,19.533 62.847,19.654 62.806,19.768 L 62.847,19.329 C 62.86,18.589 62.771,17.852 62.554,17.162 C 62.792,17.559 62.859,17.784 62.898,18.021 Z M 43.018,18.186 C 43.013,18.192 43.008,18.197 43.003,18.203 C 43.004,18.174 43.005,18.143 43.007,18.114 C 43.01,18.137 43.014,18.162 43.018,18.186 Z M 43.427,19.945 C 43.465,20.157 43.507,20.367 43.556,20.579 C 43.964,22.374 44.904,24.193 46.076,25.607 L 46.463,26.145 C 46.534,26.239 46.606,26.333 46.681,26.426 L 46.666,26.394 L 46.674,26.411 C 47.379,27.751 48.336,28.963 49.478,29.962 C 48.67,29.621 47.863,29.15 47.214,28.579 C 46.914,28.315 46.627,28.059 46.355,27.766 C 46.118,27.511 45.9,27.241 45.685,26.967 C 45.574,26.825 45.461,26.681 45.363,26.53 C 45.27,26.387 45.167,26.251 45.076,26.107 C 44.744,25.577 44.458,25.025 44.201,24.454 C 44.076,24.175 43.939,23.864 43.843,23.574 C 43.696,23.129 43.533,22.676 43.428,22.218 C 43.38,22.01 43.328,21.802 43.284,21.592 C 43.241,21.383 43.211,21.17 43.17,20.959 C 43.103,20.609 43.072,20.217 43.041,19.86 C 43.006,19.451 42.989,19.043 42.992,18.637 C 43.021,18.606 43.051,18.572 43.079,18.538 C 43.169,19.012 43.286,19.481 43.427,19.945 Z M 51.67,20.82 L 51.566,20.729 L 51.563,20.724 C 51.567,20.723 51.572,20.722 51.577,20.721 C 51.586,20.718 51.595,20.716 51.604,20.714 C 51.626,20.75 51.647,20.785 51.67,20.82 Z M 44.778,21.354 L 44.807,21.433 C 44.82,21.473 44.832,21.512 44.848,21.558 C 44.831,21.512 44.817,21.473 44.804,21.434 L 44.778,21.354 Z M 24.918,24.913 C 24.441,25.396 23.952,25.856 23.455,26.317 C 23.4,26.367 23.396,26.454 23.445,26.508 C 23.494,26.562 23.58,26.564 23.635,26.514 C 23.953,26.215 24.273,25.915 24.593,25.617 C 24.929,25.305 25.262,24.973 25.589,24.651 C 25.932,24.312 26.291,23.991 26.646,23.666 C 27.175,23.184 27.741,22.761 28.335,22.365 C 28.492,22.26 28.691,22.128 28.858,22.044 C 28.954,21.986 28.985,21.857 28.928,21.762 C 28.871,21.667 28.743,21.638 28.647,21.698 C 27.228,22.576 26.087,23.727 24.918,24.913 Z M 53.571,22.062 C 53.568,22.064 53.566,22.066 53.563,22.067 L 53.265,21.778 C 53.253,21.765 53.241,21.752 53.234,21.734 C 53.341,21.85 53.454,21.959 53.571,22.062 Z M 62.843,24.397 C 62.047,25.042 61.377,25.728 60.671,26.469 C 60.383,26.772 60.091,27.068 59.801,27.369 C 59.586,27.592 59.348,27.834 59.116,28.039 C 58.827,28.297 58.543,28.546 58.246,28.794 C 58.072,28.94 57.883,29.075 57.705,29.219 C 57.598,29.303 57.575,29.458 57.657,29.563 C 57.739,29.669 57.894,29.689 58.001,29.605 C 58.169,29.467 58.348,29.341 58.516,29.205 C 58.68,29.07 58.847,28.929 59.009,28.791 C 59.302,28.544 59.594,28.264 59.871,27.997 C 60.73,27.17 61.514,26.269 62.394,25.458 C 62.632,25.24 62.876,25.03 63.129,24.83 C 63.223,24.756 63.324,24.67 63.423,24.604 C 63.616,24.472 63.832,24.328 64.016,24.186 C 64.155,24.079 64.296,23.977 64.436,23.87 C 64.562,23.774 64.684,23.671 64.814,23.584 C 64.885,23.545 64.912,23.455 64.875,23.383 C 64.838,23.313 64.749,23.288 64.677,23.326 C 63.956,23.566 63.436,23.916 62.843,24.397 Z M 29.341,24.523 C 29.229,24.603 29.113,24.675 29.005,24.759 C 28.711,24.985 28.444,25.214 28.166,25.46 C 28.009,25.6 27.833,25.76 27.692,25.916 C 27.267,26.38 26.855,26.864 26.423,27.321 C 26.242,27.512 26.062,27.711 25.876,27.897 C 25.685,28.09 25.474,28.257 25.281,28.444 C 25.061,28.655 24.768,28.833 24.523,29.015 C 24.447,29.067 24.427,29.172 24.478,29.248 C 24.529,29.324 24.634,29.34 24.711,29.288 C 25.212,28.941 25.725,28.557 26.163,28.132 C 26.643,27.666 27.121,27.197 27.602,26.733 C 28.076,26.275 28.551,25.793 29.068,25.384 C 29.405,25.117 29.744,24.901 30.116,24.687 C 30.247,24.61 30.293,24.438 30.218,24.307 C 30.142,24.178 29.972,24.135 29.84,24.212 C 29.682,24.294 29.486,24.419 29.341,24.523 Z M 69.032,24.762 C 68.912,25.036 68.799,25.324 68.659,25.591 C 68.27,26.327 67.832,27.046 67.289,27.682 L 67.031,27.973 L 67.198,27.726 C 67.552,27.193 67.805,26.647 68.053,26.062 C 68.221,25.662 68.347,25.231 68.461,24.814 C 68.495,24.687 68.528,24.561 68.557,24.433 C 68.826,24.23 69.093,24.024 69.362,23.819 C 69.27,24.127 69.158,24.47 69.032,24.762 Z M 35.656,27.656 C 35.77,27.77 35.886,27.885 36,28 C 35.964,27.989 35.923,27.99 35.886,28.008 C 35.84,28.026 35.795,28.045 35.749,28.063 C 35.032,27.264 34.316,26.466 33.603,25.663 C 34.289,26.326 34.973,26.99 35.656,27.656 Z M 37.455,29.433 C 37.342,29.482 37.229,29.533 37.117,29.585 C 36.74,29.166 36.363,28.746 35.986,28.326 C 35.996,28.322 36.006,28.318 36.016,28.314 C 36.095,28.278 36.135,28.189 36.111,28.11 C 36.558,28.552 37.007,28.991 37.455,29.433 Z M 51.277,30.356 C 51.734,30.621 52.213,30.855 52.708,31.055 L 53.426,31.292 L 53.587,31.371 C 54.448,31.731 55.348,32.016 56.268,32.207 C 56.073,32.188 55.879,32.164 55.687,32.136 C 55.13,32.051 54.574,31.942 54.036,31.775 C 53.519,31.613 53.01,31.438 52.522,31.202 C 52.348,31.118 52.173,31.032 52,30.942 C 52.063,30.927 52.125,30.912 52.186,30.903 C 52.001,30.835 51.811,30.747 51.63,30.67 C 51.52,30.624 51.411,30.584 51.3,30.545 C 51.178,30.468 51.057,30.388 50.939,30.304 C 50.524,30.008 50.13,29.711 49.786,29.339 C 50.231,29.723 50.775,30.064 51.277,30.356 Z M 37.893,29.865 C 38.291,30.259 38.688,30.657 39.083,31.055 C 38.95,31.135 38.818,31.216 38.688,31.301 C 38.253,30.831 37.817,30.363 37.389,29.888 C 37.51,29.834 37.633,29.779 37.754,29.728 C 37.8,29.773 37.846,29.819 37.893,29.865 Z M 39.946,31.926 C 42.213,34.218 44.451,36.538 46.683,38.864 C 47.608,39.83 48.53,40.799 49.448,41.771 C 49.323,41.843 49.199,41.918 49.075,41.99 C 49.067,41.995 49.059,41.999 49.05,42.005 C 47.91,40.87 46.782,39.725 45.643,38.589 C 43.658,36.608 41.742,34.556 39.813,32.522 C 39.542,32.223 39.27,31.927 38.996,31.633 C 39.132,31.547 39.269,31.463 39.406,31.381 C 39.586,31.562 39.766,31.744 39.946,31.926 Z M 38.542,34.391 C 37.943,34.869 37.387,35.396 36.854,35.948 C 36.067,36.762 35.332,37.608 34.575,38.446 C 34.377,38.665 34.175,38.881 33.978,39.102 C 33.91,39.176 33.914,39.295 33.988,39.362 C 34.061,39.429 34.179,39.422 34.248,39.348 C 34.963,38.56 35.674,37.756 36.413,36.991 C 36.939,36.446 37.477,35.897 38.052,35.401 C 38.339,35.154 38.626,34.93 38.924,34.698 C 39.048,34.602 39.187,34.519 39.311,34.424 C 39.423,34.343 39.449,34.185 39.371,34.075 C 39.292,33.966 39.135,33.942 39.023,34.023 C 38.861,34.131 38.695,34.268 38.542,34.391 Z M 8.342,44.741 C 7.97,44.927 7.604,45.128 7.305,45.349 C 7.304,45.344 7.3,45.341 7.297,45.34 C 7.062,45.221 6.939,45.413 6.794,45.561 C 6.734,45.621 6.676,45.683 6.617,45.744 C 6.028,46.141 5.467,46.579 4.936,47.059 C 4.884,47.102 4.875,47.181 4.916,47.232 C 4.958,47.283 5.037,47.291 5.089,47.248 C 5.301,47.07 5.547,46.905 5.773,46.744 C 5.801,46.722 5.829,46.703 5.859,46.681 C 5.848,46.696 5.836,46.709 5.826,46.724 C 5.603,47.008 5.373,47.357 5.185,47.667 C 5.182,47.67 5.18,47.673 5.181,47.673 C 5.015,47.866 4.859,48.063 4.713,48.266 C 4.319,48.809 3.984,49.338 3.68,49.937 C 2.112,53.021 2.02,56.673 2.796,60.067 C 2.359,58.6 2.11,57.076 2.069,55.505 C 2.034,54.241 2.176,52.968 2.407,51.722 C 2.703,50.123 3.188,48.476 3.94,47.021 C 3.795,47.21 3.634,47.405 3.5,47.601 C 3.302,47.893 3.113,48.175 2.925,48.474 C 2.441,49.244 1.986,50.254 1.73,51.124 C 1.567,51.675 1.447,52.188 1.346,52.753 C 1.286,53.081 1.256,53.431 1.228,53.764 C 1.123,55.046 1.151,56.365 1.342,57.634 C 1.952,61.688 3.675,65.254 6.511,68.181 C 6.617,68.29 6.727,68.401 6.87,68.484 C 6.884,68.508 6.901,68.529 6.919,68.551 C 7.406,69.172 8.002,69.818 8.584,70.35 C 8.959,70.693 9.328,71.01 9.723,71.328 C 10.531,71.983 11.465,72.55 12.448,72.906 C 12.558,72.946 12.672,72.996 12.784,73.028 C 13.159,73.138 13.521,73.248 13.905,73.334 C 14.758,73.521 15.662,73.6 16.538,73.599 C 16.871,73.598 17.252,73.603 17.582,73.564 C 17.737,73.547 17.897,73.537 18.054,73.522 C 18.247,73.504 18.444,73.474 18.637,73.451 C 19.018,73.405 19.402,73.309 19.779,73.239 C 19.84,73.232 19.938,73.199 20.005,73.182 C 20.197,73.137 20.389,73.085 20.579,73.032 C 21.251,72.846 21.876,72.621 22.524,72.363 C 23.409,72.013 24.414,71.466 25.178,70.892 C 26.08,70.214 26.875,69.482 27.537,68.563 C 27.871,68.098 28.166,67.61 28.422,67.103 L 28.335,67.317 C 28.638,66.878 28.912,66.427 29.142,65.987 C 29.328,65.631 29.493,65.284 29.663,64.922 C 29.693,64.857 29.722,64.792 29.74,64.715 C 29.755,64.693 29.763,64.675 29.772,64.657 C 29.932,64.304 30.123,63.946 30.251,63.58 C 30.359,63.276 30.475,62.98 30.574,62.671 C 30.742,62.153 30.87,61.582 30.965,61.047 C 31.162,59.931 31.194,58.817 31.097,57.71 C 31.096,57.359 31.085,57.003 31.056,56.662 C 30.975,55.722 30.863,54.789 30.629,53.875 C 30.53,53.488 30.432,53.116 30.31,52.735 C 29.687,50.796 28.576,48.834 27.086,47.445 C 26.734,47.103 26.351,46.797 25.97,46.488 C 25.613,46.197 25.225,45.913 24.84,45.659 C 24.04,45.132 23.196,44.622 22.319,44.23 C 21.475,43.853 20.643,43.532 19.757,43.27 C 16.027,42.165 11.587,42.274 8.342,44.741 Z M 54.625,47.3 C 54.584,47.325 54.543,47.349 54.502,47.374 C 54.047,46.927 53.592,46.481 53.138,46.035 C 53.183,45.974 53.199,45.894 53.175,45.819 C 53.135,45.697 53.001,45.634 52.878,45.676 C 52.852,45.685 52.826,45.694 52.801,45.704 C 52.152,45.067 51.505,44.43 50.859,43.792 C 50.858,43.749 50.844,43.706 50.817,43.67 C 50.777,43.62 50.718,43.594 50.657,43.593 C 50.245,43.186 49.834,42.78 49.423,42.373 C 49.399,42.35 49.375,42.325 49.351,42.303 C 49.479,42.226 49.608,42.152 49.737,42.076 C 51.372,43.811 52.998,45.556 54.625,47.3 Z M 12.572,43.539 L 12.253,43.616 L 11.904,43.637 C 11.664,43.668 11.408,43.711 11.165,43.762 C 11.57,43.637 11.971,43.525 12.399,43.451 C 13.044,43.335 13.693,43.275 14.341,43.295 C 13.757,43.318 13.139,43.421 12.572,43.539 Z M 17.054,44.084 L 18.049,44.209 C 18.257,44.248 18.464,44.292 18.669,44.341 C 18.548,44.408 18.428,44.478 18.312,44.551 L 17.054,44.084 Z M 12.6,44.243 L 12.685,44.239 L 12.154,44.262 C 12.314,44.244 12.476,44.229 12.641,44.218 C 12.627,44.228 12.613,44.235 12.6,44.243 Z M 14.921,44.313 C 15.153,44.344 15.389,44.383 15.626,44.431 C 15.563,44.479 15.501,44.527 15.439,44.575 C 15.187,44.767 14.942,44.991 14.709,45.205 C 14.07,45.788 13.463,46.41 12.819,46.985 C 12.326,47.423 11.845,47.831 11.298,48.2 C 11.139,48.307 10.952,48.426 10.785,48.518 C 10.629,48.604 10.467,48.68 10.313,48.767 C 10.247,48.802 10.222,48.883 10.255,48.948 C 10.287,49.012 10.368,49.036 10.433,49.002 C 10.602,48.907 10.782,48.827 10.949,48.729 C 11.255,48.549 11.565,48.347 11.851,48.136 C 12.582,47.597 13.239,46.955 13.9,46.334 C 14.3,45.958 14.693,45.558 15.11,45.203 C 15.394,44.961 15.672,44.728 15.964,44.503 C 16.534,44.635 17.106,44.811 17.649,45.022 C 17.039,45.502 16.484,46.067 15.934,46.655 C 15.315,47.315 14.705,47.994 14.053,48.621 C 13.683,48.977 13.209,49.389 12.767,49.658 C 12.61,49.754 12.448,49.838 12.291,49.932 C 12.252,49.953 12.224,49.988 12.213,50.028 C 11.075,50.542 10.267,51.242 9.535,52.3 L 9.506,52.346 C 9.193,52.716 8.882,53.19 8.752,53.571 C 8.678,53.781 8.618,53.959 8.562,54.176 C 8.515,54.358 8.483,54.57 8.468,54.784 L 8.466,54.709 C 8.357,54.868 8.253,55.035 8.153,55.207 C 7.626,55.656 7.153,56.164 6.67,56.706 C 6.058,57.392 5.47,58.143 4.93,58.886 C 4.896,58.932 4.905,58.998 4.95,59.031 C 4.995,59.064 5.061,59.053 5.095,59.008 C 5.897,57.905 6.842,56.748 7.847,55.831 C 7.858,55.82 7.87,55.81 7.885,55.803 C 7.257,57.021 6.973,58.508 7.099,59.85 C 7.111,59.97 7.122,60.092 7.136,60.217 C 7.069,60.298 7.002,60.385 6.936,60.473 C 6.651,60.847 6.399,61.26 6.125,61.645 C 6.034,61.773 5.94,61.916 5.837,62.033 C 5.671,62.225 5.532,62.402 5.345,62.578 C 5.298,62.622 5.256,62.674 5.204,62.712 C 5.121,62.774 5.031,62.861 4.946,62.916 C 4.9,62.945 4.852,62.974 4.804,63.002 C 4.661,62.632 4.52,62.262 4.399,61.881 C 4.053,60.797 3.769,59.658 3.619,58.525 C 3.563,58.11 3.504,57.696 3.482,57.276 C 3.48,57.238 3.477,57.2 3.475,57.161 C 4.286,55.485 5.583,54.002 6.966,52.766 C 7.507,52.283 8.052,51.781 8.632,51.347 C 8.704,51.293 8.718,51.189 8.665,51.119 C 8.612,51.049 8.51,51.036 8.438,51.091 C 7.419,51.835 6.417,52.673 5.588,53.629 C 5.391,53.856 5.184,54.075 4.998,54.312 C 4.687,54.708 4.367,55.099 4.095,55.525 C 3.867,55.882 3.644,56.234 3.443,56.6 C 3.443,56.594 3.443,56.588 3.443,56.583 C 3.425,55.955 3.444,55.326 3.498,54.7 C 3.514,54.509 3.529,54.315 3.555,54.127 C 3.588,53.901 3.609,53.666 3.652,53.442 C 3.694,53.224 3.727,52.998 3.776,52.782 L 3.89,52.312 L 3.96,52.146 C 4.152,51.711 4.362,51.282 4.584,50.859 C 4.592,50.905 4.625,50.943 4.673,50.956 C 4.739,50.972 4.808,50.931 4.826,50.866 C 4.833,50.836 4.84,50.806 4.847,50.776 C 4.875,50.778 4.902,50.77 4.925,50.75 C 5.505,50.213 6.091,49.688 6.681,49.165 C 7.367,48.556 8.065,47.951 8.788,47.386 C 9.355,46.944 9.92,46.498 10.513,46.092 C 11.104,45.687 11.691,45.291 12.309,44.926 C 12.531,44.794 12.752,44.658 12.976,44.531 C 13.167,44.422 13.358,44.315 13.547,44.203 C 14.01,44.214 14.472,44.253 14.921,44.313 Z M 11.414,45.008 C 11.089,45.233 10.774,45.473 10.453,45.703 C 10.164,45.909 9.89,46.138 9.609,46.357 C 9.311,46.589 9.007,46.836 8.721,47.083 C 8.221,47.515 7.719,47.938 7.227,48.379 C 6.452,49.074 5.69,49.783 4.925,50.487 C 4.981,50.287 5.044,50.083 5.112,49.882 C 5.537,49.123 5.98,48.371 6.405,47.609 C 6.45,47.559 6.495,47.512 6.539,47.464 C 6.858,47.109 7.21,46.783 7.579,46.482 L 7.846,46.285 L 8.533,45.831 C 9.589,45.233 10.683,44.78 11.837,44.46 C 12.098,44.383 12.374,44.319 12.641,44.263 L 12.647,44.262 L 12.544,44.276 C 12.158,44.504 11.781,44.75 11.414,45.008 Z M 19.728,44.642 C 20.023,44.741 20.348,44.839 20.632,44.964 C 20.772,45.025 20.918,45.077 21.058,45.139 C 21.168,45.189 21.278,45.239 21.386,45.29 C 21.252,45.328 21.118,45.368 20.981,45.412 C 20.793,45.472 20.608,45.545 20.426,45.626 C 19.892,45.295 19.34,44.993 18.763,44.73 C 18.921,44.642 19.083,44.563 19.247,44.492 C 19.41,44.539 19.57,44.589 19.728,44.642 Z M 18.552,45.421 C 18.877,45.583 19.216,45.743 19.527,45.929 C 19.576,45.957 19.625,45.986 19.674,46.015 C 19.532,46.098 19.392,46.183 19.256,46.272 C 18.102,47.011 17.112,48.073 16.127,49.019 C 15.968,49.171 15.807,49.322 15.646,49.47 C 15.107,49.429 14.561,49.446 14.025,49.517 C 13.801,49.546 13.57,49.588 13.341,49.642 C 13.366,49.623 13.39,49.605 13.416,49.584 C 13.721,49.338 14.035,49.086 14.315,48.813 C 14.782,48.36 15.223,47.891 15.675,47.422 C 16.401,46.667 17.171,45.829 18.052,45.187 C 18.223,45.262 18.39,45.34 18.552,45.421 Z M 21.858,45.511 C 22.251,45.7 22.653,45.926 23.022,46.155 C 23.159,46.24 23.303,46.321 23.435,46.415 C 23.496,46.458 23.56,46.498 23.624,46.538 C 23.402,46.607 23.187,46.687 22.955,46.786 C 22.785,46.858 22.631,46.947 22.47,47.037 C 22.454,47.045 22.44,47.053 22.426,47.06 C 22.205,46.876 21.98,46.697 21.752,46.528 C 21.445,46.301 21.134,46.083 20.818,45.876 C 20.86,45.859 20.902,45.844 20.946,45.829 C 21.146,45.757 21.394,45.675 21.601,45.639 C 21.685,45.617 21.744,45.543 21.751,45.459 C 21.787,45.477 21.822,45.494 21.858,45.511 Z M 20.572,46.573 C 20.89,46.77 21.217,47.026 21.513,47.257 C 21.603,47.328 21.693,47.399 21.782,47.472 C 20.765,48.186 19.902,49.106 18.995,49.954 C 18.852,50.087 18.71,50.214 18.567,50.342 C 17.789,49.894 16.919,49.62 16.024,49.509 C 16.096,49.44 16.169,49.372 16.242,49.303 C 17.089,48.504 17.918,47.657 18.857,46.965 C 19.232,46.687 19.61,46.445 20.118,46.278 C 20.27,46.373 20.418,46.478 20.572,46.573 Z M 24.763,47.378 C 24.95,47.533 25.134,47.69 25.314,47.848 C 24.931,48.137 24.545,48.424 24.159,48.714 C 24.068,48.616 23.977,48.521 23.886,48.428 C 23.518,48.05 23.13,47.675 22.726,47.319 C 23.156,47.099 23.606,46.931 24.075,46.851 C 24.311,47.019 24.544,47.194 24.763,47.378 Z M 45.431,53.28 C 46.065,53.89 46.695,54.506 47.338,55.138 C 44.542,52.556 41.824,49.925 39.124,47.259 C 41.237,49.264 43.34,51.264 45.431,53.28 Z M 23.526,49.085 C 23.544,49.104 23.563,49.124 23.583,49.144 C 22.573,49.9 21.562,50.657 20.553,51.415 C 20.441,51.498 20.33,51.581 20.217,51.665 C 19.845,51.266 19.426,50.907 18.957,50.587 C 18.907,50.552 18.857,50.52 18.806,50.487 L 18.808,50.487 C 19.49,49.889 20.126,49.228 20.823,48.644 C 21.209,48.319 21.623,47.992 22.063,47.705 C 22.574,48.139 23.055,48.597 23.526,49.085 Z M 26.887,49.421 C 26.912,49.45 26.939,49.482 26.965,49.513 C 26.823,49.617 26.682,49.723 26.543,49.827 C 26.244,50.051 25.951,50.284 25.662,50.522 C 25.543,50.361 25.424,50.201 25.302,50.042 C 25.044,49.701 24.759,49.366 24.465,49.043 C 24.702,48.869 24.94,48.696 25.173,48.52 C 25.318,48.41 25.509,48.253 25.664,48.162 C 26.094,48.556 26.503,48.969 26.887,49.421 Z M 56.258,49.054 C 56.249,49.058 56.241,49.062 56.233,49.067 C 56.202,49.037 56.172,49.007 54.939,47.793 C 54.972,47.779 54.998,47.754 55.021,47.727 C 55.433,48.169 55.846,48.612 56.258,49.054 Z M 55.344,49.513 C 55.028,49.681 54.718,49.862 54.418,50.069 C 53.641,50.604 52.942,51.143 52.229,51.764 C 51.205,52.657 50.293,53.677 49.43,54.722 C 49.36,54.808 49.371,54.933 49.455,55.002 C 49.539,55.071 49.664,55.057 49.735,54.971 C 50.009,54.615 50.347,54.223 50.661,53.9 C 50.992,53.56 51.308,53.22 51.654,52.893 C 52.633,51.967 53.786,51.072 54.956,50.407 C 55.053,50.352 55.146,50.288 55.243,50.233 C 55.416,50.134 55.594,50.031 55.774,49.933 C 56.39,50.536 57.006,51.139 57.62,51.743 C 57.176,52.007 56.742,52.274 56.309,52.571 C 55.975,52.799 55.658,53.049 55.334,53.292 C 54.901,53.616 54.454,54.011 54.059,54.38 C 53.456,54.945 52.858,55.51 52.293,56.113 C 51.84,56.595 51.37,57.067 50.91,57.545 C 50.692,57.35 50.476,57.155 50.257,56.962 C 49.357,56.165 48.475,55.344 47.589,54.529 C 47.674,54.527 47.758,54.484 47.807,54.408 C 47.961,54.136 48.154,53.856 48.335,53.6 C 48.632,53.18 48.948,52.757 49.289,52.371 C 49.534,52.093 49.774,51.818 50.032,51.552 C 51.231,50.308 52.631,49.219 54.104,48.298 C 54.517,48.703 54.931,49.107 55.344,49.513 Z M 25.119,50.976 C 24.68,51.351 24.246,51.732 23.81,52.107 C 23.311,52.537 22.81,52.957 22.303,53.379 C 22.1,53.548 21.887,53.706 21.675,53.868 C 21.653,53.818 21.63,53.77 21.607,53.721 C 21.296,53.078 20.926,52.493 20.487,51.969 C 20.792,51.748 21.096,51.525 21.398,51.298 C 22.215,50.677 23.054,50.071 23.884,49.467 C 24.316,49.943 24.729,50.448 25.119,50.976 Z M 28.085,50.976 C 28.344,51.357 28.572,51.749 28.802,52.147 C 28.823,52.182 28.843,52.22 28.864,52.254 C 28.779,52.219 28.676,52.227 28.595,52.288 C 28.192,52.599 27.775,52.909 27.394,53.254 C 27.242,52.97 27.085,52.691 26.924,52.42 C 26.709,52.059 26.491,51.693 26.254,51.348 C 26.141,51.182 26.026,51.021 25.911,50.862 C 26.35,50.518 26.796,50.185 27.259,49.87 C 27.548,50.228 27.822,50.592 28.085,50.976 Z M 14.698,50.304 L 14.615,50.3 L 14.688,50.295 L 14.713,50.293 C 14.708,50.297 14.703,50.3 14.698,50.304 Z M 15.107,50.299 L 15.999,50.345 C 16.397,50.395 16.789,50.482 17.151,50.62 C 17.403,50.716 17.652,50.809 17.892,50.932 C 17.809,51.004 17.718,51.069 17.63,51.135 C 16.867,50.725 16.039,50.443 15.173,50.332 L 15.077,50.326 L 15.104,50.328 C 15.114,50.318 15.124,50.31 15.134,50.301 L 15.107,50.299 Z M 19.539,52.169 C 19.463,52.226 19.386,52.281 19.31,52.337 C 18.869,51.933 18.388,51.574 17.874,51.273 C 17.939,51.222 18.006,51.172 18.07,51.121 C 18.091,51.103 18.113,51.085 18.134,51.068 C 18.666,51.379 19.132,51.747 19.539,52.169 Z M 14.959,51.228 C 15.451,51.297 15.89,51.398 16.313,51.547 L 15.718,51.543 L 15.166,51.428 C 14.86,51.386 14.551,51.367 14.243,51.373 C 13.717,51.382 13.201,51.457 12.693,51.598 C 12.514,51.648 12.333,51.718 12.166,51.777 C 11.793,51.933 11.401,52.093 11.054,52.303 C 10.963,52.358 10.867,52.412 10.778,52.47 C 10.873,52.282 11.047,52.155 11.23,52.04 C 11.512,51.859 11.795,51.73 12.1,51.596 C 12.642,51.358 13.21,51.276 13.788,51.205 C 14.133,51.162 14.616,51.18 14.959,51.228 Z M 26.86,53.772 C 26.787,53.844 26.712,53.915 26.64,53.987 C 26.337,54.282 26.047,54.602 25.756,54.911 C 24.992,55.723 24.249,56.563 23.428,57.317 C 23.128,56.529 22.71,55.783 22.224,55.113 C 22.181,55.054 22.137,54.996 22.093,54.938 C 22.01,54.682 21.918,54.432 21.816,54.188 C 22.038,54.02 22.262,53.855 22.478,53.679 C 22.984,53.266 23.49,52.854 23.992,52.435 C 24.448,52.054 24.9,51.674 25.356,51.304 C 25.914,52.091 26.419,52.922 26.86,53.772 Z M 12.979,52.313 L 12.286,52.731 C 12.183,52.805 12.083,52.882 11.984,52.962 C 11.791,53.072 11.597,53.194 11.399,53.328 C 11.179,53.477 10.984,53.664 10.779,53.832 C 10.719,53.882 10.662,53.95 10.607,54.006 C 10.406,54.207 10.241,54.405 10.07,54.629 C 9.811,54.966 9.605,55.336 9.448,55.726 L 9.343,56.041 L 9.285,55.551 L 9.299,55.042 L 9.349,54.793 L 9.355,54.765 C 9.376,54.737 9.398,54.707 9.419,54.679 C 9.506,54.631 9.595,54.587 9.678,54.556 C 9.756,54.515 9.789,54.419 9.75,54.34 C 9.745,54.331 9.739,54.322 9.732,54.313 C 9.81,54.229 9.887,54.142 9.97,54.063 C 10.177,53.86 10.387,53.682 10.613,53.5 C 10.986,53.198 11.494,52.889 11.978,52.664 L 12.434,52.476 L 12.979,52.313 Z M 15.652,52.282 L 15.681,52.286 L 15.75,52.299 C 16.838,52.57 17.866,53.129 18.703,53.853 C 19.114,54.21 19.463,54.562 19.81,54.981 C 19.88,55.066 19.965,55.161 20.026,55.252 C 20.109,55.374 20.207,55.491 20.286,55.615 C 20.352,55.719 20.415,55.826 20.486,55.927 C 20.558,56.031 20.627,56.167 20.688,56.279 C 20.971,56.801 21.228,57.386 21.371,57.965 C 21.382,58.013 21.397,58.062 21.41,58.108 C 21.426,58.349 21.425,58.589 21.404,58.826 C 21.366,58.848 21.328,58.872 21.291,58.894 C 21.187,58.957 21.152,59.092 21.212,59.195 C 21.24,59.243 21.286,59.276 21.337,59.291 C 21.242,59.784 21.091,60.284 20.833,60.718 C 20.509,61.262 20.19,61.689 19.693,62.109 C 18.539,63.088 17.107,63.567 15.617,63.531 C 15.392,63.525 15.112,63.514 14.892,63.469 C 14.664,63.421 14.426,63.397 14.202,63.327 C 14.04,63.276 13.871,63.235 13.713,63.173 L 13.013,62.872 L 12.34,62.47 L 12.33,62.464 C 11.2,61.068 10.629,59.279 11.228,57.433 C 11.36,57.024 11.572,56.592 11.817,56.236 C 12.162,55.734 12.549,55.283 13.02,54.893 C 13.118,54.806 13.128,54.657 13.043,54.56 C 12.958,54.464 12.809,54.457 12.711,54.544 C 12.04,55.147 11.484,55.755 11.078,56.567 C 11.006,56.711 10.921,56.876 10.869,57.027 C 10.81,57.199 10.746,57.362 10.694,57.538 C 10.582,57.917 10.524,58.33 10.505,58.723 C 10.459,59.651 10.693,60.617 11.089,61.453 C 11.017,61.381 10.949,61.306 10.882,61.23 L 10.566,60.814 L 10.553,60.796 C 10.47,60.617 10.391,60.442 10.32,60.255 C 10.1,59.684 9.95,58.947 9.947,58.31 L 9.966,58.331 L 10.1,58.483 C 10.152,58.547 10.25,58.555 10.316,58.501 C 10.381,58.448 10.391,58.35 10.339,58.286 C 10.215,58.108 10.094,57.922 9.98,57.728 C 10.073,56.826 10.352,56.026 10.868,55.231 C 10.999,55.029 11.143,54.812 11.299,54.628 L 11.807,54.055 L 12.656,53.303 C 12.766,53.218 12.885,53.149 12.996,53.066 C 13.174,52.936 13.391,52.836 13.584,52.731 C 13.631,52.705 13.685,52.678 13.743,52.651 C 13.94,52.589 14.145,52.535 14.327,52.495 C 14.773,52.393 15.212,52.321 15.652,52.282 Z M 20.357,53.201 C 20.226,53.099 20.092,52.999 19.951,52.9 C 19.878,52.85 19.806,52.8 19.727,52.749 C 19.685,52.705 19.642,52.66 19.601,52.617 C 19.669,52.566 19.738,52.516 19.808,52.464 C 20.005,52.694 20.188,52.941 20.357,53.201 Z M 29.587,53.759 C 29.649,53.997 29.708,54.235 29.76,54.478 C 29.969,55.462 30.085,56.504 30.099,57.526 C 30.028,57.474 29.924,57.475 29.852,57.535 C 29.733,57.632 29.62,57.739 29.5,57.832 C 29.403,57.906 29.304,57.981 29.205,58.055 C 29.113,57.669 29.013,57.291 28.899,56.906 C 28.749,56.398 28.575,55.889 28.378,55.387 C 28.532,55.283 28.689,55.182 28.842,55.095 C 28.921,55.044 28.944,54.939 28.895,54.861 C 28.846,54.784 28.741,54.762 28.663,54.812 C 28.527,54.898 28.391,54.989 28.256,55.083 C 28.067,54.624 27.861,54.171 27.639,53.728 C 27.796,53.587 27.957,53.448 28.123,53.312 C 28.369,53.11 28.643,52.889 28.91,52.718 C 28.97,52.672 29.008,52.608 29.018,52.538 C 29.222,52.923 29.413,53.335 29.587,53.759 Z M 59.89,53.974 L 60.817,54.912 C 58.689,56.027 57.083,57.767 55.44,59.488 C 55.09,59.853 54.743,60.219 54.392,60.581 C 53.888,60.147 53.386,59.712 52.885,59.278 C 53.036,59.098 53.195,58.92 53.346,58.756 C 53.842,58.212 54.361,57.691 54.916,57.207 C 56.106,56.166 57.344,55.192 58.627,54.269 C 58.745,54.177 58.768,54.009 58.679,53.893 C 58.59,53.777 58.422,53.757 58.304,53.848 C 57.708,54.321 57.125,54.812 56.54,55.3 C 55.932,55.809 55.31,56.347 54.74,56.898 C 54.093,57.526 53.443,58.146 52.868,58.843 C 52.801,58.924 52.732,59.005 52.663,59.085 C 52.366,58.828 52.068,58.57 51.772,58.312 C 51.558,58.127 51.348,57.939 51.138,57.751 C 51.351,57.532 51.566,57.317 51.779,57.1 C 52.63,56.227 53.488,55.379 54.416,54.589 C 54.666,54.376 54.926,54.158 55.189,53.963 C 55.627,53.638 56.059,53.329 56.518,53.031 C 57.004,52.713 57.524,52.425 58.043,52.156 C 58.659,52.762 59.275,53.367 59.89,53.974 Z M 27.534,55.203 C 27.578,55.308 27.622,55.414 27.664,55.521 C 27.441,55.693 27.226,55.87 27.02,56.047 C 26.515,56.477 26.021,56.908 25.532,57.355 C 24.971,57.866 24.416,58.385 23.846,58.885 C 23.789,58.507 23.7,58.135 23.585,57.769 C 24.161,57.263 24.685,56.702 25.225,56.16 C 25.674,55.707 26.097,55.217 26.551,54.769 C 26.734,54.59 26.913,54.412 27.094,54.237 C 27.25,54.558 27.397,54.88 27.534,55.203 Z M 48.291,56.012 C 49.019,56.677 49.749,57.337 50.485,57.993 C 50.453,58.026 50.423,58.059 50.392,58.093 C 50.382,58.103 50.374,58.115 50.367,58.127 C 50.264,58.024 50.16,57.922 50.057,57.821 C 49.144,56.923 48.236,56.02 47.338,55.138 C 47.644,55.421 47.967,55.717 48.291,56.012 Z M 28.075,56.638 C 28.19,56.962 28.3,57.325 28.382,57.66 C 28.423,57.827 28.472,57.995 28.514,58.162 C 28.539,58.266 28.564,58.372 28.587,58.48 C 28.581,58.483 28.575,58.487 28.569,58.491 C 28.303,58.653 28.041,58.824 27.779,58.992 C 27.326,59.286 26.902,59.571 26.503,59.935 C 25.877,60.505 25.463,61.1 25.085,61.844 C 25.044,61.925 25.076,62.023 25.155,62.062 C 25.235,62.102 25.334,62.068 25.375,61.987 C 25.789,61.083 26.476,60.328 27.277,59.742 C 27.715,59.421 28.197,59.149 28.664,58.864 C 28.685,58.979 28.705,59.094 28.725,59.208 C 28.802,59.668 28.878,60.153 28.906,60.62 C 28.92,60.875 28.933,61.133 28.941,61.39 C 28.594,61.752 28.264,62.132 27.947,62.515 C 27.655,62.865 27.353,63.207 27.057,63.554 C 26.777,63.884 26.483,64.202 26.176,64.507 C 26.081,64.601 25.981,64.709 25.879,64.795 C 25.659,64.982 25.454,65.168 25.225,65.347 C 25.102,65.442 24.93,65.562 24.796,65.641 C 24.677,65.712 24.545,65.778 24.43,65.853 C 24.398,65.872 24.385,65.915 24.404,65.948 C 24.422,65.981 24.465,65.992 24.498,65.973 C 24.632,65.886 24.782,65.814 24.917,65.728 C 25.163,65.568 25.446,65.373 25.669,65.182 C 25.912,64.975 26.152,64.765 26.384,64.543 C 26.486,64.445 26.584,64.34 26.686,64.243 C 26.864,64.072 27.043,63.877 27.212,63.695 C 27.538,63.342 27.87,62.99 28.2,62.64 C 28.442,62.382 28.691,62.122 28.948,61.87 C 28.947,62.198 28.935,62.524 28.904,62.852 C 28.828,63.617 28.706,64.34 28.496,65.068 C 28.213,65.647 27.9,66.196 27.546,66.718 C 27.531,66.671 27.498,66.63 27.451,66.61 C 27.361,66.57 27.252,66.611 27.211,66.701 C 26.973,67.296 26.553,67.9 26.098,68.397 C 25.761,68.669 25.406,68.928 25.031,69.183 C 24.776,69.354 24.481,69.532 24.21,69.674 C 23.731,69.922 23.271,70.166 22.769,70.367 C 22.288,70.559 21.822,70.72 21.342,70.861 C 21.414,70.782 21.485,70.704 21.556,70.627 C 22.334,69.768 23.151,68.963 23.998,68.173 C 24.438,67.763 24.897,67.358 25.327,66.941 C 25.745,66.533 26.132,66.101 26.504,65.651 C 26.696,65.418 26.875,65.173 27.068,64.942 C 26.59,65.295 26.108,65.642 25.643,66.011 C 24.901,66.602 24.219,67.272 23.53,67.924 C 22.465,68.93 21.451,69.966 20.511,71.088 C 19.88,71.24 19.205,71.341 18.568,71.405 C 17.157,71.545 15.739,71.494 14.36,71.243 C 14.451,71.117 14.542,70.989 14.636,70.866 C 15.116,70.217 15.581,69.557 16.06,68.908 C 16.855,67.833 17.676,66.809 18.588,65.833 C 18.629,65.787 18.672,65.741 18.716,65.695 C 19.189,65.621 19.656,65.492 20.125,65.305 C 20.435,65.181 20.718,65.018 21.008,64.858 C 21.107,64.776 21.274,64.692 21.388,64.607 C 21.595,64.457 21.86,64.27 22.039,64.093 C 22.158,63.973 22.284,63.867 22.399,63.743 C 22.859,63.246 23.196,62.757 23.466,62.138 C 23.534,61.984 23.608,61.806 23.654,61.644 C 23.747,61.317 23.825,61.015 23.87,60.677 C 23.936,60.174 23.938,59.67 23.872,59.122 C 23.873,59.121 23.874,59.12 23.876,59.119 C 24.492,58.58 25.104,58.037 25.718,57.495 C 26.387,56.903 27.065,56.345 27.778,55.815 C 27.88,56.086 27.977,56.362 28.075,56.638 Z M 61.194,55.294 L 63.615,57.745 C 62.766,58.393 61.974,59.131 61.247,59.902 C 60.919,60.249 60.595,60.602 60.266,60.949 C 59.646,61.602 59.049,62.286 58.413,62.925 C 58.213,63.125 58.009,63.321 57.808,63.518 C 57.29,63.074 56.771,62.629 56.252,62.182 C 56.345,62.098 56.437,62.012 56.529,61.926 C 56.913,61.564 57.295,61.196 57.679,60.832 C 58.565,59.992 59.458,59.128 60.428,58.386 C 60.604,58.251 60.779,58.11 60.959,57.984 C 61.237,57.791 61.512,57.605 61.798,57.422 C 61.954,57.322 62.123,57.233 62.284,57.139 C 62.419,57.059 62.465,56.883 62.388,56.749 C 62.31,56.614 62.136,56.571 62,56.652 C 61.735,56.802 61.479,56.977 61.227,57.147 C 60.237,57.817 59.333,58.637 58.467,59.459 C 57.934,59.965 57.419,60.491 56.885,60.995 C 56.565,61.298 56.246,61.6 55.926,61.903 C 55.5,61.535 55.073,61.168 54.646,60.801 C 55.136,60.303 55.623,59.801 56.109,59.3 C 57.636,57.723 59.199,56.272 61.189,55.314 C 61.194,55.31 61.199,55.307 61.204,55.304 L 61.194,55.294 Z M 8.703,58.952 C 8.37,59.084 8.087,59.265 7.83,59.484 C 7.791,58.499 7.961,57.506 8.323,56.581 C 8.331,57.386 8.46,58.186 8.703,58.952 Z M 22.544,56.808 C 22.695,57.113 22.83,57.424 22.944,57.741 C 22.903,57.775 22.863,57.809 22.822,57.843 C 22.746,57.902 22.67,57.964 22.59,58.027 C 22.586,57.586 22.553,57.146 22.494,56.71 C 22.512,56.743 22.528,56.776 22.544,56.808 Z M 30.092,58.25 C 30.085,58.459 30.086,58.665 30.072,58.874 C 30.037,59.374 30.005,59.91 29.916,60.405 C 29.91,60.435 29.905,60.466 29.899,60.497 C 29.813,60.565 29.725,60.635 29.646,60.707 C 29.633,60.717 29.619,60.729 29.607,60.741 C 29.58,60.346 29.548,59.954 29.491,59.564 C 29.46,59.357 29.419,59.15 29.391,58.941 C 29.369,58.783 29.331,58.616 29.296,58.455 C 29.472,58.337 29.654,58.209 29.811,58.078 C 29.906,57.996 30.002,57.915 30.1,57.839 C 30.099,57.975 30.096,58.112 30.092,58.25 Z M 23.316,59.338 C 23.217,59.419 23.119,59.502 23.023,59.587 C 22.982,59.621 22.976,59.685 23.01,59.725 C 23.044,59.764 23.107,59.77 23.148,59.735 C 23.209,59.681 23.272,59.627 23.336,59.573 C 23.384,60.353 23.272,61.14 22.949,61.914 C 22.805,62.259 22.592,62.634 22.359,62.927 C 22.057,63.306 21.765,63.601 21.389,63.91 L 20.72,64.378 L 20.329,64.593 L 19.812,64.827 L 19.92,64.752 C 20.087,64.618 20.245,64.473 20.404,64.314 C 20.419,64.297 20.436,64.282 20.584,64.072 C 20.595,64.063 20.608,64.054 20.622,64.044 C 20.63,64.038 20.638,64.03 20.626,64.016 C 20.896,63.761 21.143,63.413 21.303,63.114 C 21.377,62.974 21.455,62.83 21.53,62.691 C 21.619,62.527 21.738,62.271 21.796,62.097 C 21.846,61.946 21.917,61.8 21.962,61.655 C 21.993,61.554 22.023,61.453 22.05,61.354 C 22.204,60.914 22.324,60.461 22.407,60.041 C 22.501,59.562 22.56,59.072 22.581,58.577 C 22.582,58.576 22.583,58.575 22.585,58.575 C 22.753,58.446 22.921,58.318 23.087,58.184 C 23.198,58.564 23.276,58.95 23.316,59.338 Z M 51.968,59.301 C 52.628,59.877 53.291,60.453 53.963,61.018 C 53.892,61.09 53.823,61.16 53.753,61.231 C 53.687,61.297 53.686,61.405 53.752,61.469 C 53.817,61.533 53.924,61.532 53.989,61.466 C 54.066,61.388 54.143,61.311 54.218,61.234 C 54.516,61.482 54.816,61.729 55.119,61.973 C 55.249,62.078 55.382,62.184 55.514,62.29 C 55.48,62.321 55.446,62.352 55.413,62.384 C 55.326,62.465 55.319,62.601 55.397,62.686 C 55.476,62.771 55.612,62.776 55.699,62.695 C 55.748,62.647 55.798,62.601 55.847,62.554 C 56.401,62.992 56.96,63.424 57.521,63.851 C 57.513,63.904 57.528,63.96 57.568,64.002 C 57.62,64.057 57.703,64.07 57.77,64.04 C 58.342,64.471 58.917,64.897 59.495,65.319 C 59.303,65.551 59.112,65.786 58.925,66.024 C 58.857,66.108 58.869,66.235 58.953,66.301 C 59.037,66.369 59.163,66.353 59.232,66.269 C 59.421,66.027 59.615,65.787 59.813,65.55 C 60.185,65.819 60.56,66.088 60.936,66.356 C 60.968,66.381 61.019,66.375 61.044,66.342 C 61.07,66.308 61.064,66.258 61.032,66.234 C 60.682,65.94 60.328,65.648 59.977,65.355 C 60.852,64.324 61.803,63.337 62.803,62.446 C 63.113,62.169 63.432,61.91 63.753,61.647 C 64.012,61.435 64.296,61.23 64.571,61.036 C 64.861,60.831 65.16,60.623 65.463,60.439 C 65.632,60.337 65.804,60.235 65.974,60.132 L 65.972,60.13 L 67.387,61.563 C 67.165,61.687 66.952,61.829 66.751,61.975 C 66.58,62.098 66.402,62.212 66.239,62.347 C 65.936,62.598 65.637,62.836 65.343,63.099 C 64.581,63.782 63.888,64.558 63.203,65.316 C 62.877,65.675 62.561,66.044 62.236,66.403 C 61.952,66.716 61.663,67.026 61.382,67.342 C 61.307,67.425 61.312,67.552 61.392,67.626 C 61.473,67.698 61.602,67.692 61.676,67.609 C 61.961,67.296 62.25,66.985 62.536,66.673 C 62.907,66.269 63.268,65.857 63.646,65.459 C 64.321,64.749 64.99,64.043 65.744,63.415 C 66.198,63.038 66.712,62.634 67.222,62.337 C 67.415,62.223 67.622,62.111 67.814,61.993 L 67.812,61.992 L 69.572,63.774 L 69.567,63.814 L 69.563,63.792 L 69.559,63.879 L 69.552,63.933 C 69.548,63.984 69.546,64.035 69.544,64.084 C 68.052,65.238 66.638,66.473 65.225,67.731 C 64.795,68.113 64.364,68.495 63.931,68.874 C 63.709,69.069 63.476,69.261 63.261,69.463 C 63.224,69.494 63.205,69.54 63.204,69.586 C 63.085,69.561 62.967,69.533 62.847,69.505 C 62.499,69.422 62.082,69.253 61.76,69.099 C 60.664,68.574 59.835,67.884 59.068,66.975 C 58.963,66.861 58.82,66.709 58.676,66.556 C 58.577,66.425 58.483,66.287 58.386,66.155 L 58.337,66.191 C 58.341,66.197 58.346,66.203 58.35,66.209 C 57.113,64.902 55.85,63.625 54.584,62.343 C 53.254,60.998 51.919,59.66 50.574,58.331 C 50.587,58.324 50.599,58.313 50.611,58.303 C 50.643,58.268 50.677,58.231 50.711,58.194 C 51.128,58.565 51.547,58.933 51.968,59.301 Z M 64.017,58.152 L 65.495,59.647 C 65.269,59.787 65.042,59.95 64.833,60.103 C 64.344,60.46 63.881,60.822 63.42,61.214 C 63.19,61.409 62.973,61.616 62.749,61.818 C 62.094,62.407 61.434,63.086 60.851,63.748 C 60.632,63.997 60.402,64.24 60.188,64.493 C 60.016,64.697 59.845,64.899 59.674,65.104 C 59.368,64.848 59.063,64.592 58.761,64.334 C 58.535,64.14 58.31,63.948 58.084,63.754 C 58.141,63.701 58.199,63.647 58.255,63.592 C 58.388,63.463 58.518,63.329 58.651,63.199 C 59.055,62.805 59.449,62.377 59.84,61.969 C 60.706,61.065 61.563,60.176 62.489,59.336 C 62.774,59.076 63.079,58.832 63.378,58.59 C 63.578,58.427 63.786,58.276 63.996,58.13 L 64.017,58.152 Z M 9.483,60.677 C 9.72,61.069 9.979,61.427 10.265,61.754 C 10.271,61.766 10.278,61.778 10.285,61.79 C 9.805,62.133 9.367,62.506 8.96,62.912 C 8.585,62.329 8.294,61.786 8.092,61.093 C 7.981,60.714 7.905,60.327 7.863,59.938 C 7.87,59.931 7.878,59.924 7.886,59.918 C 8.005,59.804 8.144,59.711 8.273,59.611 C 8.4,59.512 8.634,59.395 8.829,59.32 C 9.004,59.791 9.221,60.245 9.483,60.677 Z M 7.508,61.732 C 7.662,62.173 7.897,62.676 8.162,63.058 C 8.259,63.199 8.353,63.324 8.454,63.45 C 8.339,63.581 8.226,63.715 8.114,63.854 C 7.957,64.049 7.789,64.267 7.653,64.477 C 7.607,64.541 7.621,64.633 7.685,64.678 C 7.748,64.722 7.84,64.705 7.886,64.642 C 7.99,64.482 8.12,64.309 8.239,64.159 C 8.372,63.991 8.505,63.83 8.642,63.674 C 9.113,64.211 9.719,64.591 10.349,64.919 C 9.846,65.431 9.401,66 8.948,66.616 C 8.614,67.068 8.277,67.529 7.954,67.989 C 7.905,68.057 7.92,68.152 7.987,68.2 C 8.053,68.247 8.148,68.23 8.197,68.163 C 8.51,67.716 8.838,67.278 9.157,66.836 C 9.964,65.718 10.813,64.725 11.989,64.001 C 12.031,63.973 12.057,63.93 12.064,63.883 C 13.102,64.772 14.409,65.464 15.763,65.713 C 14.797,66.69 13.862,67.705 13.004,68.78 C 12.559,69.336 12.119,69.902 11.722,70.493 C 11.485,70.4 11.251,70.299 11.02,70.193 C 10.441,69.924 9.835,69.605 9.31,69.243 C 9.037,69.055 8.781,68.867 8.515,68.672 C 8.318,68.527 8.141,68.364 7.954,68.207 C 7.709,68 7.446,67.748 7.23,67.522 C 7.083,67.312 6.939,67.103 6.802,66.891 C 6.293,66.102 5.826,65.282 5.424,64.432 C 5.252,64.07 5.07,63.694 4.927,63.32 C 4.923,63.309 4.918,63.298 4.914,63.287 C 4.984,63.245 5.053,63.203 5.124,63.157 C 5.168,63.129 5.223,63.08 5.265,63.045 C 5.533,62.829 5.727,62.624 5.959,62.372 C 6.111,62.206 6.265,61.988 6.398,61.803 C 6.647,61.457 6.888,61.101 7.143,60.759 C 7.166,60.728 7.188,60.698 7.212,60.668 C 7.291,61.038 7.38,61.369 7.508,61.732 Z M 29.634,61.867 C 29.633,61.871 29.632,61.875 29.63,61.88 C 29.638,61.666 29.641,61.454 29.635,61.242 C 29.689,61.198 29.742,61.154 29.796,61.11 C 29.748,61.364 29.69,61.615 29.634,61.867 Z M 10.474,62.095 C 10.754,62.537 11.13,62.976 11.493,63.349 C 11.612,63.471 11.736,63.591 11.865,63.708 C 11.848,63.713 11.834,63.719 11.82,63.728 C 11.34,64.027 10.921,64.362 10.539,64.729 C 10.534,64.723 10.527,64.717 10.521,64.713 C 10.337,64.545 10.157,64.383 9.977,64.209 C 9.675,63.918 9.358,63.512 9.121,63.158 C 9.521,62.754 9.95,62.384 10.435,62.033 C 10.449,62.054 10.461,62.074 10.474,62.095 Z M 20.934,62 L 20.871,62.136 C 20.684,62.479 20.49,62.767 20.257,63.08 C 20.147,63.229 20.011,63.352 19.896,63.491 L 19.484,63.88 L 18.855,64.314 C 18.823,64.335 18.765,64.356 18.73,64.374 C 18.497,64.488 18.293,64.57 18.043,64.638 C 17.807,64.703 17.569,64.745 17.327,64.768 C 17.568,64.571 17.824,64.377 18.044,64.165 C 18.143,64.069 18.23,63.968 18.316,63.866 C 18.409,63.831 18.499,63.794 18.588,63.752 C 18.94,63.582 19.315,63.405 19.632,63.174 C 19.746,63.09 19.868,63.018 19.977,62.931 C 20.172,62.776 20.377,62.601 20.567,62.413 L 20.934,62 Z M 17.214,64.343 C 17.051,64.487 16.888,64.634 16.726,64.783 C 16.012,64.754 15.302,64.57 14.656,64.293 L 14.499,64.211 L 14.881,64.288 C 15.191,64.329 15.503,64.348 15.81,64.344 C 16.157,64.339 16.485,64.307 16.829,64.259 C 17.029,64.231 17.241,64.195 17.443,64.143 C 17.363,64.209 17.288,64.277 17.214,64.343 Z M 21.509,65.395 C 20.984,65.881 20.45,66.363 19.93,66.853 C 18.945,67.783 17.921,68.739 17.245,69.929 C 17.185,70.025 17.214,70.153 17.309,70.211 C 17.404,70.269 17.532,70.237 17.592,70.141 C 17.699,69.947 17.84,69.734 17.972,69.556 C 18.622,68.673 19.338,67.933 20.158,67.199 C 20.693,66.72 21.22,66.229 21.748,65.742 C 21.993,65.515 22.228,65.266 22.467,65.032 C 22.549,64.949 22.551,64.815 22.471,64.733 C 22.39,64.652 22.255,64.653 22.173,64.735 C 21.948,64.951 21.737,65.184 21.509,65.395 Z M 17.306,65.793 L 17.502,65.754 L 17.934,65.767 C 17.979,65.765 18.025,65.763 18.071,65.761 C 17.949,65.898 17.831,66.037 17.715,66.178 C 16.383,67.78 15.203,69.487 13.983,71.17 C 13.297,71.027 12.623,70.833 11.967,70.587 C 12.373,69.998 12.813,69.45 13.266,68.887 C 13.526,68.561 13.827,68.208 14.115,67.908 C 14.361,67.65 14.599,67.38 14.845,67.12 C 15.247,66.699 15.662,66.295 16.082,65.891 C 16.121,65.853 16.16,65.815 16.2,65.778 C 16.568,65.818 16.939,65.825 17.306,65.793 Z M 67.463,67.886 C 66.682,68.438 65.876,68.948 65.106,69.516 C 65.023,69.575 64.94,69.637 64.858,69.701 C 64.806,69.706 64.754,69.712 64.704,69.717 C 64.575,69.728 64.403,69.722 64.272,69.72 C 64.018,69.715 63.775,69.688 63.534,69.647 C 63.786,69.418 64.053,69.198 64.309,68.974 C 65.006,68.361 65.714,67.759 66.42,67.156 C 67.13,66.549 67.851,65.967 68.587,65.394 C 68.834,65.201 69.084,65.008 69.338,64.818 C 68.921,65.959 68.254,66.96 67.463,67.886 Z M 28.428,67.091 L 28.425,67.1 C 28.424,67.101 28.423,67.102 28.423,67.103 L 28.428,67.091 Z M 11.165,71.477 L 11.263,71.531 C 11.73,71.743 12.204,71.954 12.695,72.096 C 12.858,72.143 13.02,72.198 13.182,72.246 C 13.384,72.305 13.594,72.353 13.798,72.408 C 13.983,72.457 14.179,72.482 14.363,72.531 C 14.488,72.563 14.62,72.579 14.746,72.601 C 15.201,72.683 15.649,72.728 16.109,72.767 C 17.154,72.856 18.235,72.794 19.292,72.632 L 19.409,72.609 L 19.042,72.684 C 18.497,72.766 17.928,72.869 17.378,72.884 C 17.034,72.894 16.699,72.909 16.355,72.907 C 16.055,72.906 15.757,72.876 15.46,72.856 C 14.308,72.776 13.104,72.471 12.036,71.966 L 11.165,71.477 Z M 19.804,72.516 L 19.646,72.561 L 19.642,72.561 L 19.804,72.516 Z M 19.642,72.561 L 19.518,72.597 C 19.442,72.609 19.368,72.622 19.292,72.632 L 19.642,72.561 Z"
                      stroke="none" fill="#ffffff" stroke-width="0.5" fill-rule="evenodd" marker-start="none"
                      marker-end="none" stroke-miterlimit="79.8403193612775"/>
            </g>
        </g>
    </g>
</svg>