<svg xmlns="http://www.w3.org/2000/svg" viewBox="0 0 512 512" width="512" height="512">
	<style>
		tspan { white-space:pre }
		.shp0 { fill: #ffffff } 
	</style>
	<g id="Layer">
		<g id="Layer">
			<path id="Layer" class="shp0" d="M236.19,287.94h-0.09c-2.2,0 -3.95,1.79 -3.95,4c0,2.21 1.83,4 4.04,4c2.2,0 4,-1.79 4,-4c0,-2.21 -1.8,-4 -4,-4z" />
		</g>
	</g>
	<g id="Layer">
		<g id="Layer">
			<path id="Layer" class="shp0" d="M486.53,290.93c-13.94,-12.22 -34.31,-29.14 -39.18,-33.18c-3.65,-16.77 -26.27,-113.77 -59.44,-113.77h-359.91c-2.21,0 -4,1.79 -4,4c0,2.21 1.79,4 4,4h359.92c20.94,0 42.95,66.74 51.91,108.81c0.19,0.88 0.67,1.68 1.37,2.25c0.24,0.2 24.32,20.1 40.08,33.91c14.43,12.64 14.64,50.61 14.64,50.99c0,2.21 1.79,4 4,4c2.21,0 4,-1.8 4,-4c0,-1.7 -0.21,-41.98 -17.37,-57z" />
		</g>
	</g>
	<g id="Layer">
		<g id="Layer">
			<path id="Layer" class="shp0" d="M12,159.97c-2.21,0 -4,1.79 -4,4v183.96c0,2.21 1.79,4 4,4c2.21,0 4,-1.79 4,-4v-183.96c0,-2.21 -1.79,-4 -4,-4z" />
		</g>
	</g>
	<g id="Layer">
		<g id="Layer">
			<path id="Layer" class="shp0" d="M379.91,367.92h-199.95c-2.21,0 -4,1.79 -4,4c0,2.21 1.79,4 4,4h199.95c2.21,0 4,-1.79 4,-4c0,-2.21 -1.79,-4 -4,-4z" />
		</g>
	</g>
	<g id="Layer">
		<g id="Layer">
			<path id="Layer" class="shp0" d="M507.88,367.92h-39.99c-2.21,0 -4,1.79 -4,4c0,2.21 1.79,4 4,4h39.99c2.21,0 4,-1.79 4,-4c0,-2.21 -1.79,-4 -4,-4z" />
		</g>
	</g>
	<g id="Layer">
		<g id="Layer">
			<path id="Layer" class="shp0" d="M507.9,351.93c-2.21,0 -4,1.79 -4,4l-0.02,16c0,2.2 1.79,4 4,4c2.21,0 4,-1.79 4,-4l0.02,-16c0,-2.2 -1.79,-4 -4,-4z" />
		</g>
	</g>
	<g id="Layer">
		<g id="Layer">
			<path id="Layer" class="shp0" d="M507.9,351.93h-16.01c-2.21,0 -4,1.79 -4,4c0,2.21 1.79,4 4,4h16.01c2.21,0 4,-1.79 4,-4c0,-2.21 -1.79,-4 -4,-4z" />
		</g>
	</g>
	<g id="Layer">
		<g id="Layer">
			<path id="Layer" class="shp0" d="M299.93,151.97c-2.21,0 -4,1.79 -4,4v207.61c0,2.21 1.79,4 4,4c2.21,0 4,-1.79 4,-4v-207.61c0,-2.21 -1.79,-4 -4,-4z" />
		</g>
	</g>
	<g id="Layer">
		<g id="Layer">
			<path id="Layer" class="shp0" d="M411.9,183.97c-2.21,0 -4,1.79 -4,4v71.98c0,2.21 1.79,4 4,4c2.21,0 4,-1.79 4,-4v-71.98c0,-2.21 -1.79,-4 -4,-4z" />
		</g>
	</g>
	<g id="Layer">
		<g id="Layer">
			<path id="Layer" class="shp0" d="M443.9,255.95h-31.99c-2.21,0 -4,1.79 -4,4c0,2.21 1.79,4 4,4h31.99c2.21,0 4,-1.79 4,-4c0,-2.21 -1.79,-4 -4,-4z" />
		</g>
	</g>
	<g id="Layer">
		<g id="Layer">
			<path id="Layer" class="shp0" d="M421.62,183.97h-9.72c-2.21,0 -4,1.79 -4,4c0,2.21 1.79,4 4,4h9.72c2.21,0 4,-1.79 4,-4c0,-2.21 -1.79,-4 -4,-4z" />
		</g>
	</g>
	<g id="Layer">
		<g id="Layer">
			<path id="Layer" class="shp0" d="M91.98,367.92h-87.98c-2.21,0 -4,1.79 -4,4c0,2.21 1.79,4 4,4h87.98c2.21,0 4,-1.79 4,-4c0,-2.21 -1.79,-4 -4,-4z" />
		</g>
	</g>
	<g id="Layer">
		<g id="Layer">
			<path id="Layer" class="shp0" d="M4,351.76c-2.21,0 -4,1.79 -4,4v16.16c0,2.21 1.79,4 4,4c2.21,0 4,-1.79 4,-4v-16.16c0,-2.21 -1.79,-4 -4,-4z" />
		</g>
	</g>
	<g id="Layer">
		<g id="Layer">
			<path id="Layer" class="shp0" d="M28.03,351.93l-23.99,-0.16c-0.01,0 -0.02,0 -0.03,0c-2.19,0 -3.98,1.77 -4,3.98c-0.01,2.2 1.77,4.01 3.97,4.02l24,0.16c0.02,0 0.02,0 0.03,0c2.2,0 3.98,-1.77 4,-3.97c0.02,-2.22 -1.76,-4.01 -3.97,-4.03z" />
		</g>
	</g>
	<g id="Layer">
		<g id="Layer">
			<path id="Layer" class="shp0" d="M28,143.98c-11.03,0 -20,8.97 -20,20c0,2.21 1.79,4 4,4c2.21,0 4,-1.79 4,-4c0,-6.62 5.38,-12 12,-12c2.21,0 4,-1.79 4,-4c0,-2.21 -1.79,-4 -4,-4z" />
		</g>
	</g>
	<g id="Layer">
		<g id="Layer">
			<path id="Layer" class="shp0" d="M391.91,195.96v55.99c0,6.62 -5.38,12 -12,12h-55.99c-6.62,0 -12,-5.38 -12,-12v-55.99c0,-6.62 5.38,-12 12,-12h55.99c6.62,0 12,5.38 12,12zM383.91,195.96c0,-2.21 -1.8,-4 -4,-4h-55.99c-2.2,0 -4,1.79 -4,4v55.99c0,2.21 1.8,4 4,4h55.99c2.2,0 4,-1.79 4,-4z" />
		</g>
	</g>
	<g id="Layer">
		<g id="Layer">
			<path id="Layer" class="shp0" d="M355.92,183.97c-2.21,0 -4,1.79 -4,4v71.81c0,2.21 1.79,4 4,4c2.21,0 4,-1.79 4,-4v-71.81c0,-2.21 -1.79,-4 -4,-4z" />
		</g>
	</g>
	<g id="Layer">
		<g id="Layer">
			<path id="Layer" class="shp0" d="M51.99,199.96c-2.21,0 -4,1.79 -4,4c0,2.21 -1.8,4 -4,4c-2.2,0 -4,-1.79 -4,-4c0,-2.21 -1.79,-4 -4,-4c-2.21,0 -4,1.79 -4,4c0,6.62 5.38,12 12,12c6.62,0 12,-5.38 12,-12c0,-2.21 -1.79,-4 -4,-4z" />
		</g>
	</g>
	<g id="Layer">
		<g id="Layer">
			<path id="Layer" class="shp0" d="M67.99,199.96c-2.21,0 -4,1.79 -4,4c0,2.21 -1.8,4 -4,4c-2.2,0 -4,-1.79 -4,-4c0,-2.21 -1.79,-4 -4,-4c-2.21,0 -4,1.79 -4,4c0,6.62 5.38,12 12,12c6.62,0 12,-5.38 12,-12c0,-2.21 -1.79,-4 -4,-4z" />
		</g>
	</g>
	<g id="Layer">
		<g id="Layer">
			<path id="Layer" class="shp0" d="M83.98,199.96c-2.21,0 -4,1.79 -4,4c0,2.21 -1.8,4 -4,4c-2.2,0 -4,-1.79 -4,-4c0,-2.21 -1.79,-4 -4,-4c-2.21,0 -4,1.79 -4,4c0,6.62 5.38,12 12,12c6.61,0 12,-5.38 12,-12c0,-2.21 -1.79,-4 -4,-4z" />
		</g>
	</g>
	<g id="Layer">
		<g id="Layer">
			<path id="Layer" class="shp0" d="M99.98,199.96c-2.21,0 -4,1.79 -4,4c0,2.21 -1.8,4 -4,4c-2.2,0 -4,-1.79 -4,-4c0,-2.21 -1.79,-4 -4,-4c-2.21,0 -4,1.79 -4,4c0,6.62 5.38,12 12,12c6.61,0 12,-5.38 12,-12c0,-2.21 -1.79,-4 -4,-4z" />
		</g>
	</g>
	<g id="Layer">
		<g id="Layer">
			<path id="Layer" class="shp0" d="M115.97,199.96c-2.21,0 -4,1.79 -4,4c0,2.21 -1.8,4 -4,4c-2.2,0 -4,-1.79 -4,-4c0,-2.21 -1.79,-4 -4,-4c-2.21,0 -4,1.79 -4,4c0,6.62 5.38,12 12,12c6.62,0 12,-5.38 12,-12c0,-2.21 -1.79,-4 -4,-4z" />
		</g>
	</g>
	<g id="Layer">
		<g id="Layer">
			<path id="Layer" class="shp0" d="M131.97,199.96c-2.21,0 -4,1.79 -4,4c0,2.21 -1.8,4 -4,4c-2.2,0 -4,-1.79 -4,-4c0,-2.21 -1.79,-4 -4,-4c-2.21,0 -4,1.79 -4,4c0,6.62 5.38,12 12,12c6.62,0 12,-5.38 12,-12c0,-2.21 -1.79,-4 -4,-4z" />
		</g>
	</g>
	<g id="Layer">
		<g id="Layer">
			<path id="Layer" class="shp0" d="M147.97,199.96c-2.21,0 -4,1.79 -4,4c0,2.21 -1.8,4 -4,4c-2.2,0 -4,-1.79 -4,-4c0,-2.21 -1.79,-4 -4,-4c-2.21,0 -4,1.79 -4,4c0,6.62 5.38,12 12,12c6.62,0 12,-5.38 12,-12c0,-2.21 -1.79,-4 -4,-4z" />
		</g>
	</g>
	<g id="Layer">
		<g id="Layer">
			<path id="Layer" class="shp0" d="M163.96,199.96c-2.21,0 -4,1.79 -4,4c0,2.21 -1.8,4 -4,4c-2.2,0 -4,-1.79 -4,-4c0,-2.21 -1.79,-4 -4,-4c-2.21,0 -4,1.79 -4,4c0,6.62 5.38,12 12,12c6.62,0 12,-5.38 12,-12c0,-2.21 -1.79,-4 -4,-4z" />
		</g>
	</g>
	<g id="Layer">
		<g id="Layer">
			<path id="Layer" class="shp0" d="M179.96,199.96c-2.21,0 -4,1.79 -4,4c0,2.21 -1.8,4 -4,4c-2.2,0 -4,-1.79 -4,-4c0,-2.21 -1.79,-4 -4,-4c-2.21,0 -4,1.79 -4,4c0,6.62 5.38,12 12,12c6.62,0 12,-5.38 12,-12c0,-2.21 -1.79,-4 -4,-4z" />
		</g>
	</g>
	<g id="Layer">
		<g id="Layer">
			<path id="Layer" class="shp0" d="M195.96,199.96c-2.21,0 -4,1.79 -4,4c0,2.21 -1.8,4 -4,4c-2.2,0 -4,-1.79 -4,-4c0,-2.21 -1.79,-4 -4,-4c-2.21,0 -4,1.79 -4,4c0,6.62 5.38,12 12,12c6.62,0 12,-5.38 12,-12c0,-2.21 -1.79,-4 -4,-4z" />
		</g>
	</g>
	<g id="Layer">
		<g id="Layer">
			<path id="Layer" class="shp0" d="M211.95,199.96c-2.21,0 -4,1.79 -4,4c0,2.21 -1.8,4 -4,4c-2.2,0 -4,-1.79 -4,-4c0,-2.21 -1.79,-4 -4,-4c-2.21,0 -4,1.79 -4,4c0,6.62 5.38,12 12,12c6.62,0 12,-5.38 12,-12c0,-2.21 -1.79,-4 -4,-4z" />
		</g>
	</g>
	<g id="Layer">
		<g id="Layer">
			<path id="Layer" class="shp0" d="M227.95,199.96c-2.21,0 -4,1.79 -4,4c0,2.21 -1.8,4 -4,4c-2.2,0 -4,-1.79 -4,-4c0,-2.21 -1.79,-4 -4,-4c-2.21,0 -4,1.79 -4,4c0,6.62 5.38,12 12,12c6.62,0 12,-5.38 12,-12c0,-2.21 -1.79,-4 -4,-4z" />
		</g>
	</g>
	<g id="Layer">
		<g id="Layer">
			<path id="Layer" class="shp0" d="M243.94,199.96c-2.21,0 -4,1.79 -4,4c0,2.21 -1.8,4 -4,4c-2.2,0 -4,-1.79 -4,-4c0,-2.21 -1.79,-4 -4,-4c-2.21,0 -4,1.79 -4,4c0,6.62 5.38,12 12,12c6.62,0 12,-5.38 12,-12c0,-2.21 -1.79,-4 -4,-4z" />
		</g>
	</g>
	<g id="Layer">
		<g id="Layer">
			<path id="Layer" class="shp0" d="M259.94,199.96c-2.21,0 -4,1.79 -4,4c0,2.21 -1.8,4 -4,4c-2.2,0 -4,-1.79 -4,-4c0,-2.21 -1.79,-4 -4,-4c-2.21,0 -4,1.79 -4,4c0,6.62 5.38,12 12,12c6.62,0 12,-5.38 12,-12c0,-2.21 -1.79,-4 -4,-4z" />
		</g>
	</g>
	<g id="Layer">
		<g id="Layer">
			<path id="Layer" class="shp0" d="M275.94,199.96c-2.21,0 -4,1.79 -4,4c0,2.21 -1.8,4 -4,4c-2.2,0 -4,-1.79 -4,-4c0,-2.21 -1.79,-4 -4,-4c-2.21,0 -4,1.79 -4,4c0,6.62 5.38,12 12,12c6.62,0 12,-5.38 12,-12c0,-2.21 -1.79,-4 -4,-4z" />
		</g>
	</g>
	<g id="Layer">
		<g id="Layer">
			<path id="Layer" class="shp0" d="M35.99,183.97c-2.21,0 -4,1.79 -4,4v16c0,2.21 1.79,4 4,4c2.21,0 4,-1.79 4,-4v-16c0,-2.21 -1.79,-4 -4,-4z" />
		</g>
	</g>
	<g id="Layer">
		<g id="Layer">
			<path id="Layer" class="shp0" d="M275.94,183.97c-2.21,0 -4,1.79 -4,4v16c0,2.21 1.79,4 4,4c2.21,0 4,-1.79 4,-4v-16c0,-2.21 -1.79,-4 -4,-4z" />
		</g>
	</g>
	<g id="Layer">
		<g id="Layer">
			<path id="Layer" class="shp0" d="M275.94,183.97h-239.94c-2.21,0 -4,1.79 -4,4c0,2.21 1.79,4 4,4h239.94c2.21,0 4,-1.79 4,-4c0,-2.21 -1.79,-4 -4,-4z" />
		</g>
	</g>
	<g id="Layer">
		<g id="Layer">
			<path id="Layer" class="shp0" d="M54.82,169.14c-1.56,-1.56 -4.09,-1.56 -5.66,0l-16,16c-1.56,1.56 -1.56,4.09 0,5.66c0.78,0.78 1.8,1.17 2.83,1.17c1.02,0 2.05,-0.39 2.83,-1.17l16,-16c1.56,-1.56 1.56,-4.09 0,-5.66z" />
		</g>
	</g>
	<g id="Layer">
		<g id="Layer">
			<path id="Layer" class="shp0" d="M278.76,185.14l-16,-16c-1.56,-1.56 -4.09,-1.56 -5.65,0c-1.56,1.56 -1.56,4.09 0,5.66l16,16c0.78,0.78 1.81,1.17 2.83,1.17c1.02,0 2.05,-0.39 2.83,-1.17c1.56,-1.56 1.56,-4.09 0,-5.65z" />
		</g>
	</g>
	<g id="Layer">
		<g id="Layer">
			<path id="Layer" class="shp0" d="M259.94,167.97h-207.95c-2.21,0 -4,1.79 -4,4c0,2.21 1.79,4 4,4h207.95c2.21,0 4,-1.79 4,-4c0,-2.21 -1.79,-4 -4,-4z" />
		</g>
	</g>
	<g id="Layer">
		<g id="Layer">
			<path id="Layer" class="shp0" d="M51.99,215.96c-2.21,0 -4,1.79 -4,4v87.98c0,2.21 1.79,4 4,4c2.21,0 4,-1.79 4,-4v-87.98c0,-2.21 -1.79,-4 -4,-4z" />
		</g>
	</g>
	<g id="Layer">
		<g id="Layer">
			<path id="Layer" class="shp0" d="M267.94,311.93h-223.95c-2.21,0 -4,1.79 -4,4c0,2.21 1.79,4 4,4h223.95c2.21,0 4,-1.79 4,-4c0,-2.21 -1.79,-4 -4,-4z" />
		</g>
	</g>
	<g id="Layer">
		<g id="Layer">
			<path id="Layer" class="shp0" d="M259.94,215.96c-2.21,0 -4,1.79 -4,4v87.98c0,2.21 1.79,4 4,4c2.21,0 4,-1.79 4,-4v-87.98c0,-2.21 -1.79,-4 -4,-4z" />
		</g>
	</g>
	<g id="Layer">
		<g id="Layer">
			<path id="Layer" class="shp0" d="M463.89,367.92c0,22.05 -17.94,39.99 -39.99,39.99c-22.05,0 -39.99,-17.94 -39.99,-39.99c0,-22.05 17.94,-39.99 39.99,-39.99c22.05,0 39.99,17.94 39.99,39.99zM455.89,367.92c0,-17.64 -14.35,-31.99 -31.99,-31.99c-17.64,0 -31.99,14.36 -31.99,31.99c0,17.64 14.35,31.99 31.99,31.99c17.64,0 31.99,-14.36 31.99,-31.99z" />
		</g>
	</g>
	<g id="Layer">
		<g id="Layer">
			<path id="Layer" class="shp0" d="M447.9,367.92c0,13.23 -10.76,23.99 -23.99,23.99c-13.23,0 -24,-10.76 -24,-23.99c0,-13.23 10.76,-23.99 24,-23.99c13.23,0 23.99,10.76 23.99,23.99zM439.9,367.92c0,-8.83 -7.18,-16 -16,-16c-8.82,0 -16,7.17 -16,16c0,8.83 7.18,16 16,16c8.82,0 16,-7.17 16,-16z" />
		</g>
	</g>
	<g id="Layer">
		<g id="Layer">
			<path id="Layer" class="shp0" d="M424.14,351.93h-0.09c-2.2,0 -3.95,1.79 -3.95,4c0,2.21 1.83,4 4.04,4c2.2,0 4,-1.79 4,-4c0,-2.21 -1.8,-4 -4,-4z" />
		</g>
	</g>
	<g id="Layer">
		<g id="Layer">
			<path id="Layer" class="shp0" d="M424.14,375.92h-0.09c-2.2,0 -3.95,1.79 -3.95,4c0,2.21 1.83,4 4.04,4c2.2,0 4,-1.79 4,-4c0,-2.21 -1.8,-4 -4,-4z" />
		</g>
	</g>
	<g id="Layer">
		<g id="Layer">
			<path id="Layer" class="shp0" d="M413.76,357.92h-0.09c-2.2,0 -3.95,1.79 -3.95,4c0,2.21 1.83,4 4.04,4c2.2,0 4,-1.79 4,-4c0,-2.21 -1.8,-4 -4,-4z" />
		</g>
	</g>
	<g id="Layer">
		<g id="Layer">
			<path id="Layer" class="shp0" d="M434.53,369.92h-0.09c-2.2,0 -3.95,1.79 -3.95,4c0,2.21 1.83,4 4.04,4c2.2,0 4,-1.79 4,-4c0,-2.21 -1.8,-4 -4,-4z" />
		</g>
	</g>
	<g id="Layer">
		<g id="Layer">
			<path id="Layer" class="shp0" d="M413.76,369.92h-0.09c-2.2,0 -3.95,1.79 -3.95,4c0,2.21 1.83,4 4.04,4c2.2,0 4,-1.79 4,-4c0,-2.21 -1.8,-4 -4,-4z" />
		</g>
	</g>
	<g id="Layer">
		<g id="Layer">
			<path id="Layer" class="shp0" d="M434.53,357.92h-0.09c-2.2,0 -3.95,1.79 -3.95,4c0,2.21 1.83,4 4.04,4c2.2,0 4,-1.79 4,-4c0,-2.21 -1.8,-4 -4,-4z" />
		</g>
	</g>
	<g id="Layer">
		<g id="Layer">
			<path id="Layer" class="shp0" d="M424.14,363.92h-0.09c-2.2,0 -3.95,1.79 -3.95,4c0,2.21 1.83,4 4.04,4c2.2,0 4,-1.79 4,-4c0,-2.21 -1.8,-4 -4,-4z" />
		</g>
	</g>
	<g id="Layer">
		<g id="Layer">
			<path id="Layer" class="shp0" d="M175.96,367.92c0,22.05 -17.94,39.99 -39.99,39.99c-22.05,0 -39.99,-17.94 -39.99,-39.99c0,-22.05 17.94,-39.99 39.99,-39.99c22.05,0 39.99,17.94 39.99,39.99zM167.96,367.92c0,-17.64 -14.35,-31.99 -31.99,-31.99c-17.64,0 -31.99,14.36 -31.99,31.99c0,17.64 14.35,31.99 31.99,31.99c17.65,0 31.99,-14.36 31.99,-31.99z" />
		</g>
	</g>
	<g id="Layer">
		<g id="Layer">
			<path id="Layer" class="shp0" d="M159.96,367.92c0,13.23 -10.76,23.99 -24,23.99c-13.23,0 -23.99,-10.76 -23.99,-23.99c0,-13.23 10.76,-23.99 23.99,-23.99c13.23,0 24,10.76 24,23.99zM151.97,367.92c0,-8.83 -7.18,-16 -16,-16c-8.82,0 -16,7.17 -16,16c0,8.83 7.18,16 16,16c8.82,0 16,-7.17 16,-16z" />
		</g>
	</g>
	<g id="Layer">
		<g id="Layer">
			<path id="Layer" class="shp0" d="M136.21,351.93h-0.09c-2.2,0 -3.95,1.79 -3.95,4c0,2.21 1.83,4 4.04,4c2.2,0 4,-1.79 4,-4c0,-2.21 -1.8,-4 -4,-4z" />
		</g>
	</g>
	<g id="Layer">
		<g id="Layer">
			<path id="Layer" class="shp0" d="M136.21,375.92h-0.09c-2.2,0 -3.95,1.79 -3.95,4c0,2.21 1.83,4 4.04,4c2.2,0 4,-1.79 4,-4c0,-2.21 -1.8,-4 -4,-4z" />
		</g>
	</g>
	<g id="Layer">
		<g id="Layer">
			<path id="Layer" class="shp0" d="M125.82,357.92h-0.09c-2.2,0 -3.95,1.79 -3.95,4c0,2.21 1.83,4 4.04,4c2.2,0 4,-1.79 4,-4c0,-2.21 -1.8,-4 -4,-4z" />
		</g>
	</g>
	<g id="Layer">
		<g id="Layer">
			<path id="Layer" class="shp0" d="M146.6,369.92h-0.09c-2.2,0 -3.95,1.79 -3.95,4c0,2.21 1.83,4 4.04,4c2.2,0 4,-1.79 4,-4c0,-2.21 -1.8,-4 -4,-4z" />
		</g>
	</g>
	<g id="Layer">
		<g id="Layer">
			<path id="Layer" class="shp0" d="M125.82,369.92h-0.09c-2.2,0 -3.95,1.79 -3.95,4c0,2.21 1.83,4 4.04,4c2.2,0 4,-1.79 4,-4c0,-2.21 -1.8,-4 -4,-4z" />
		</g>
	</g>
	<g id="Layer">
		<g id="Layer">
			<path id="Layer" class="shp0" d="M146.6,357.92h-0.09c-2.2,0 -3.95,1.79 -3.95,4c0,2.21 1.83,4 4.04,4c2.2,0 4,-1.79 4,-4c0,-2.21 -1.8,-4 -4,-4z" />
		</g>
	</g>
	<g id="Layer">
		<g id="Layer">
			<path id="Layer" class="shp0" d="M136.21,363.92h-0.09c-2.2,0 -3.95,1.79 -3.95,4c0,2.21 1.83,4 4.04,4c2.2,0 4,-1.79 4,-4c0,-2.21 -1.8,-4 -4,-4z" />
		</g>
	</g>
	<g id="Layer">
		<g id="Layer">
			<path id="Layer" class="shp0" d="M20,367.92c-2.21,0 -4,1.79 -4,4v16c0,2.21 1.79,4 4,4c2.21,0 4,-1.79 4,-4v-16c0,-2.21 -1.79,-4 -4,-4z" />
		</g>
	</g>
	<g id="Layer">
		<g id="Layer">
			<path id="Layer" class="shp0" d="M227.95,271.94c-2.21,0 -4,1.79 -4,4v31.99c0,2.21 1.79,4 4,4c2.21,0 4,-1.79 4,-4v-31.99c0,-2.21 -1.79,-4 -4,-4z" />
		</g>
	</g>
	<g id="Layer">
		<g id="Layer">
			<path id="Layer" class="shp0" d="M243.94,271.94c-2.21,0 -4,1.79 -4,4v31.99c0,2.21 1.79,4 4,4c2.21,0 4,-1.79 4,-4v-31.99c0,-2.21 -1.79,-4 -4,-4z" />
		</g>
	</g>
	<g id="Layer">
		<g id="Layer">
			<path id="Layer" class="shp0" d="M243.94,271.94h-16c-2.21,0 -4,1.79 -4,4c0,2.21 1.79,4 4,4h16c2.21,0 4,-1.79 4,-4c0,-2.21 -1.79,-4 -4,-4z" />
		</g>
	</g>
	<g id="Layer">
		<g id="Layer">
			<path id="Layer" class="shp0" d="M235.95,263.95c-2.21,0 -4,1.79 -4,4v8c0,2.21 1.79,4 4,4c2.21,0 4,-1.79 4,-4v-8c0,-2.21 -1.79,-4 -4,-4z" />
		</g>
	</g>
	<g id="Layer">
		<g id="Layer">
			<path id="Layer" class="shp0" d="M195.96,271.94c-2.21,0 -4,1.79 -4,4v31.99c0,2.21 1.79,4 4,4c2.21,0 4,-1.79 4,-4v-31.99c0,-2.21 -1.79,-4 -4,-4z" />
		</g>
	</g>
	<g id="Layer">
		<g id="Layer">
			<path id="Layer" class="shp0" d="M211.95,271.94c-2.21,0 -4,1.79 -4,4v31.99c0,2.21 1.79,4 4,4c2.21,0 4,-1.79 4,-4v-31.99c0,-2.21 -1.79,-4 -4,-4z" />
		</g>
	</g>
	<g id="Layer">
		<g id="Layer">
			<path id="Layer" class="shp0" d="M211.95,271.94h-16c-2.21,0 -4,1.79 -4,4c0,2.21 1.79,4 4,4h16c2.21,0 4,-1.79 4,-4c0,-2.21 -1.79,-4 -4,-4z" />
		</g>
	</g>
	<g id="Layer">
		<g id="Layer">
			<path id="Layer" class="shp0" d="M203.95,263.95c-2.21,0 -4,1.79 -4,4v8c0,2.21 1.79,4 4,4c2.21,0 4,-1.79 4,-4v-8c0,-2.21 -1.79,-4 -4,-4z" />
		</g>
	</g>
	<g id="Layer">
		<g id="Layer">
			<path id="Layer" class="shp0" d="M211.95,287.94h-16c-2.21,0 -4,1.79 -4,4c0,2.21 1.79,4 4,4h16c2.21,0 4,-1.79 4,-4c0,-2.21 -1.79,-4 -4,-4z" />
		</g>
	</g>
	<g id="Layer">
		<g id="Layer">
			<path id="Layer" class="shp0" d="M75.95,307.44l-4,-31.99c-0.27,-2.19 -2.34,-3.7 -4.47,-3.47c-2.19,0.27 -3.74,2.27 -3.47,4.47l4,31.99c0.25,2.02 1.98,3.5 3.96,3.5c0.17,0 0.34,-0.01 0.51,-0.03c2.19,-0.27 3.74,-2.27 3.47,-4.47z" />
		</g>
	</g>
	<g id="Layer">
		<g id="Layer">
			<path id="Layer" class="shp0" d="M92.48,271.98c-2.2,-0.23 -4.2,1.27 -4.47,3.47l-4,31.99c-0.27,2.19 1.28,4.19 3.47,4.47c0.17,0.01 0.34,0.03 0.51,0.03c1.98,0 3.71,-1.48 3.96,-3.5l4,-31.99c0.27,-2.19 -1.28,-4.19 -3.47,-4.47z" />
		</g>
	</g>
	<g id="Layer">
		<g id="Layer">
			<path id="Layer" class="shp0" d="M95.98,271.94h-31.99c-2.21,0 -4,1.79 -4,4c0,2.21 1.79,4 4,4h31.99c2.21,0 4,-1.79 4,-4c0,-2.21 -1.79,-4 -4,-4z" />
		</g>
	</g>
	<g id="Layer">
		<g id="Layer">
			<path id="Layer" class="shp0" d="M84.95,256.07c-2.19,-0.53 -4.32,0.76 -4.85,2.91l-4,16c-0.53,2.14 0.77,4.31 2.91,4.84c0.33,0.09 0.65,0.13 0.97,0.13c1.8,0 3.43,-1.21 3.88,-3.03l4,-16c0.53,-2.14 -0.77,-4.31 -2.91,-4.85z" />
		</g>
	</g>
	<g id="Layer">
		<g id="Layer">
			<path id="Layer" class="shp0" d="M267.94,103.98c-2.21,0 -4,1.79 -4,4c0,2.21 1.79,4 4,4c15.43,0 27.99,12.56 27.99,27.99c0,2.21 1.79,4 4,4c2.21,0 4,-1.79 4,-4c0,-19.85 -16.14,-35.99 -35.99,-35.99z" />
		</g>
	</g>
	<g id="Layer">
		<g id="Layer">
			<path id="Layer" class="shp0" d="M267.94,127.98c-2.21,0 -4,1.79 -4,4c0,2.21 1.79,4 4,4c2.2,0 4,1.79 4,4c0,2.21 1.79,4 4,4c2.21,0 4,-1.79 4,-4c0,-6.61 -5.38,-12 -12,-12z" />
		</g>
	</g>
	<g id="Layer">
		<g id="Layer">
			<path id="Layer" class="shp0" d="M267.94,103.98h-39.99c-2.21,0 -4,1.79 -4,4c0,2.21 1.79,4 4,4h39.99c2.21,0 4,-1.79 4,-4c0,-2.21 -1.79,-4 -4,-4z" />
		</g>
	</g>
	<g id="Layer">
		<g id="Layer">
			<path id="Layer" class="shp0" d="M227.95,103.98c-2.21,0 -4,1.79 -4,4v31.99c0,2.21 1.79,4 4,4c2.21,0 4,-1.79 4,-4v-31.99c0,-2.21 -1.79,-4 -4,-4z" />
		</g>
	</g>
	<g id="Layer">
		<g id="Layer">
			<path id="Layer" class="shp0" d="M267.94,127.98h-8c-2.21,0 -4,1.79 -4,4c0,2.21 1.79,4 4,4h8c2.21,0 4,-1.79 4,-4c0,-2.21 -1.79,-4 -4,-4z" />
		</g>
	</g>
	<g id="Layer">
		<g id="Layer">
			<path id="Layer" class="shp0" d="M243.94,111.98c-2.21,0 -4,1.79 -4,4v23.99c0,2.21 1.79,4 4,4c2.21,0 4,-1.79 4,-4v-23.99c0,-2.21 -1.79,-4 -4,-4z" />
		</g>
	</g>
	<g id="Layer">
		<g id="Layer">
			<path id="Layer" class="shp0" d="M103.98,107.98v23.99c0,2.21 -1.79,4 -4,4h-55.99c-2.21,0 -4,-1.79 -4,-4v-23.99c0,-2.21 1.79,-4 4,-4h55.99c2.21,0 4,1.79 4,4zM95.98,111.98h-47.99v16h47.99z" />
		</g>
	</g>
	<g id="Layer">
		<g id="Layer">
			<path id="Layer" class="shp0" d="M51.99,127.98c-2.21,0 -4,1.79 -4,4v8c0,2.21 1.79,4 4,4c2.21,0 4,-1.79 4,-4v-8c0,-2.21 -1.79,-4 -4,-4z" />
		</g>
	</g>
	<g id="Layer">
		<g id="Layer">
			<path id="Layer" class="shp0" d="M91.98,127.98c-2.21,0 -4,1.79 -4,4v8c0,2.21 1.79,4 4,4c2.21,0 4,-1.79 4,-4v-8c0,-2.21 -1.79,-4 -4,-4z" />
		</g>
	</g>
	<g id="Layer">
		<g id="Layer">
			<path id="Layer" class="shp0" d="M497.49,319.93h-13.6c-2.21,0 -4,1.79 -4,4c0,2.21 1.79,4 4,4h13.6c2.21,0 4,-1.79 4,-4c0,-2.21 -1.79,-4 -4,-4z" />
		</g>
	</g>
	<g id="Layer">
		<g id="Layer">
			<path id="Layer" class="shp0" d="M483.89,319.93c-2.21,0 -4,1.79 -4,4v16c0,2.21 1.79,4 4,4c2.21,0 4,-1.79 4,-4v-16c0,-2.21 -1.79,-4 -4,-4z" />
		</g>
	</g>
	<g id="Layer">
		<g id="Layer">
			<path id="Layer" class="shp0" d="M499.88,335.93h-16c-2.21,0 -4,1.79 -4,4c0,2.21 1.79,4 4,4h16c2.21,0 4,-1.79 4,-4c0,-2.21 -1.79,-4 -4,-4z" />
		</g>
	</g>
	<g id="Layer">
		<g id="Layer">
			<path id="Layer" class="shp0" d="M211.95,111.98h-47.99c-2.21,0 -4,1.79 -4,4c0,2.21 1.79,4 4,4h47.99c2.21,0 4,-1.79 4,-4c0,-2.21 -1.79,-4 -4,-4z" />
		</g>
	</g>
	<g id="Layer">
		<g id="Layer">
			<path id="Layer" class="shp0" d="M211.95,127.98h-16c-2.21,0 -4,1.79 -4,4c0,2.21 1.79,4 4,4h16c2.21,0 4,-1.79 4,-4c0,-2.21 -1.79,-4 -4,-4z" />
		</g>
	</g>
	<g id="Layer">
		<g id="Layer">
			<path id="Layer" class="shp0" d="M395.91,271.94c-2.21,0 -4,1.79 -4,4v47.99c0,2.21 1.79,4 4,4c2.21,0 4,-1.79 4,-4v-47.99c0,-2.21 -1.79,-4 -4,-4z" />
		</g>
	</g>
	<g id="Layer">
		<g id="Layer">
			<path id="Layer" class="shp0" d="M379.91,272.94c-2.21,0 -4,1.79 -4,4v15c0,2.21 1.79,4 4,4c2.21,0 4,-1.79 4,-4v-15c0,-2.21 -1.79,-4 -4,-4z" />
		</g>
	</g>
	<g id="Layer">
	</g>
	<g id="Layer">
	</g>
	<g id="Layer">
	</g>
	<g id="Layer">
	</g>
	<g id="Layer">
	</g>
	<g id="Layer">
	</g>
	<g id="Layer">
	</g>
	<g id="Layer">
	</g>
	<g id="Layer">
	</g>
	<g id="Layer">
	</g>
	<g id="Layer">
	</g>
	<g id="Layer">
	</g>
	<g id="Layer">
	</g>
	<g id="Layer">
	</g>
	<g id="Layer">
	</g>
</svg>