<svg xmlns="http://www.w3.org/2000/svg" viewBox="0 0 512 512" width="512" height="512">
	<style>
		tspan { white-space:pre }
		.shp0 { fill: #ffffff } 
	</style>
	<g id="Layer">
		<g id="Layer">
			<path id="Layer" class="shp0" d="M132.13,151.87h-0.09c-2.2,0 -3.95,1.79 -3.95,4c0,2.21 1.83,4 4.04,4c2.2,0 4,-1.79 4,-4c0,-2.21 -1.8,-4 -4,-4z" />
		</g>
	</g>
	<g id="Layer">
		<g id="Layer">
			<path id="Layer" class="shp0" d="M84.17,151.87h-0.09c-2.2,0 -3.95,1.79 -3.95,4c0,2.21 1.83,4 4.03,4c2.2,0 4,-1.79 4,-4c0,-2.21 -1.8,-4 -4,-4z" />
		</g>
	</g>
	<g id="Layer">
		<g id="Layer">
			<path id="Layer" class="shp0" d="M180.09,151.87h-0.09c-2.2,0 -3.95,1.79 -3.95,4c0,2.21 1.83,4 4.04,4c2.2,0 4,-1.79 4,-4c0,-2.21 -1.8,-4 -4,-4z" />
		</g>
	</g>
	<g id="Layer">
		<g id="Layer">
			<path id="Layer" class="shp0" d="M228.05,151.87h-0.09c-2.2,0 -3.95,1.79 -3.95,4c0,2.21 1.83,4 4.04,4c2.2,0 4,-1.79 4,-4c0,-2.21 -1.8,-4 -4,-4z" />
		</g>
	</g>
	<g id="Layer">
		<g id="Layer">
			<path id="Layer" class="shp0" d="M156.11,175.85h-0.09c-2.2,0 -3.95,1.79 -3.95,4c0,2.21 1.83,4 4.04,4c2.2,0 4,-1.79 4,-4c0,-2.21 -1.8,-4 -4,-4z" />
		</g>
	</g>
	<g id="Layer">
		<g id="Layer">
			<path id="Layer" class="shp0" d="M156.11,127.89h-0.09c-2.2,0 -3.95,1.79 -3.95,4c0,2.21 1.83,4 4.04,4c2.2,0 4,-1.79 4,-4c0,-2.21 -1.8,-4 -4,-4z" />
		</g>
	</g>
	<g id="Layer">
		<g id="Layer">
			<path id="Layer" class="shp0" d="M108.15,175.85h-0.08c-2.2,0 -3.95,1.79 -3.95,4c0,2.21 1.83,4 4.03,4c2.2,0 4,-1.79 4,-4c0,-2.21 -1.8,-4 -4,-4z" />
		</g>
	</g>
	<g id="Layer">
		<g id="Layer">
			<path id="Layer" class="shp0" d="M108.15,127.89h-0.08c-2.2,0 -3.95,1.79 -3.95,4c0,2.21 1.83,4 4.03,4c2.2,0 4,-1.79 4,-4c0,-2.21 -1.8,-4 -4,-4z" />
		</g>
	</g>
	<g id="Layer">
		<g id="Layer">
			<path id="Layer" class="shp0" d="M60.19,175.85h-0.09c-2.2,0 -3.95,1.79 -3.95,4c0,2.21 1.83,4 4.04,4c2.2,0 4,-1.79 4,-4c0,-2.21 -1.8,-4 -4,-4z" />
		</g>
	</g>
	<g id="Layer">
		<g id="Layer">
			<path id="Layer" class="shp0" d="M204.07,175.85h-0.09c-2.2,0 -3.95,1.79 -3.95,4c0,2.21 1.83,4 4.03,4c2.2,0 4,-1.79 4,-4c0,-2.21 -1.8,-4 -4,-4z" />
		</g>
	</g>
	<g id="Layer">
		<g id="Layer">
			<path id="Layer" class="shp0" d="M204.07,127.89h-0.09c-2.2,0 -3.95,1.79 -3.95,4c0,2.21 1.83,4 4.03,4c2.2,0 4,-1.79 4,-4c0,-2.21 -1.8,-4 -4,-4z" />
		</g>
	</g>
	<g id="Layer">
		<g id="Layer">
			<path id="Layer" class="shp0" d="M252.03,175.85h-0.09c-2.2,0 -3.95,1.79 -3.95,4c0,2.21 1.83,4 4.04,4c2.2,0 4,-1.79 4,-4c0,-2.21 -1.79,-4 -4,-4z" />
		</g>
	</g>
	<g id="Layer">
		<g id="Layer">
			<path id="Layer" class="shp0" d="M60.19,303.75h-0.09c-2.2,0 -3.95,1.79 -3.95,4c0,2.21 1.83,4 4.04,4c2.2,0 4,-1.79 4,-4c0,-2.21 -1.8,-4 -4,-4z" />
		</g>
	</g>
	<g id="Layer">
		<g id="Layer">
			<path id="Layer" class="shp0" d="M84.17,303.75h-0.09c-2.2,0 -3.95,1.79 -3.95,4c0,2.21 1.83,4 4.03,4c2.2,0 4,-1.79 4,-4c0,-2.21 -1.8,-4 -4,-4z" />
		</g>
	</g>
	<g id="Layer">
		<g id="Layer">
			<path id="Layer" class="shp0" d="M228.05,303.75h-0.09c-2.2,0 -3.95,1.79 -3.95,4c0,2.21 1.83,4 4.04,4c2.2,0 4,-1.79 4,-4c0,-2.21 -1.8,-4 -4,-4z" />
		</g>
	</g>
	<g id="Layer">
		<g id="Layer">
			<path id="Layer" class="shp0" d="M252.03,303.75h-0.09c-2.2,0 -3.95,1.79 -3.95,4c0,2.21 1.83,4 4.04,4c2.2,0 4,-1.79 4,-4c0,-2.21 -1.79,-4 -4,-4z" />
		</g>
	</g>
	<g id="Layer">
		<g id="Layer">
			<path id="Layer" class="shp0" d="M43.96,399.67c-28.53,0 -35.88,-20.4 -36.18,-21.26c-0.7,-2.08 -2.95,-3.2 -5.05,-2.51c-2.09,0.7 -3.22,2.97 -2.53,5.06c0.37,1.09 9.31,26.71 43.76,26.71c2.21,0 4,-1.79 4,-4c0,-2.21 -1.79,-4 -4,-4z" />
		</g>
	</g>
	<g id="Layer">
		<g id="Layer">
			<path id="Layer" class="shp0" d="M467.61,399.67h-423.64c-2.21,0 -4,1.79 -4,4c0,2.21 1.79,4 4,4h423.64c2.21,0 4,-1.79 4,-4c0,-2.21 -1.79,-4 -4,-4z" />
		</g>
	</g>
	<g id="Layer">
		<g id="Layer">
			<path id="Layer" class="shp0" d="M508.84,375.89c-2.08,-0.69 -4.36,0.44 -5.06,2.53c-0.07,0.21 -7.42,21.25 -36.17,21.25c-2.21,0 -4,1.79 -4,4c0,2.21 1.79,4 4,4c34.45,0 43.39,-25.62 43.76,-26.71c0.7,-2.09 -0.44,-4.36 -2.53,-5.06z" />
		</g>
	</g>
	<g id="Layer">
		<g id="Layer">
			<path id="Layer" class="shp0" d="M507.57,375.69h-503.57c-2.21,0 -4,1.79 -4,4c0,2.21 1.79,4 4,4h503.57c2.21,0 4,-1.79 4,-4c0,-2.21 -1.79,-4 -4,-4z" />
		</g>
	</g>
	<g id="Layer">
		<g id="Layer">
			<path id="Layer" class="shp0" d="M267.78,343.71h-223.81c-2.21,0 -4,1.79 -4,4v15.99c0,2.21 1.79,4 4,4c2.21,0 4,-1.79 4,-4v-11.99h215.82v11.99c0,2.21 1.79,4 4,4c2.21,0 4,-1.79 4,-4v-15.99c0,-2.21 -1.79,-4 -4,-4z" />
		</g>
	</g>
	<g id="Layer">
		<g id="Layer">
			<path id="Layer" class="shp0" d="M267.78,295.75c-2.21,0 -4,1.79 -4,4c0,2.21 1.79,4 4,4c2.2,0 4,1.8 4,4c0,2.2 -1.8,4 -4,4c-2.21,0 -4,1.79 -4,4c0,2.21 1.79,4 4,4c6.61,0 11.99,-5.38 11.99,-11.99c0,-6.61 -5.38,-11.99 -11.99,-11.99z" />
		</g>
	</g>
	<g id="Layer">
		<g id="Layer">
			<path id="Layer" class="shp0" d="M43.97,311.74c-2.2,0 -4,-1.8 -4,-4c0,-2.2 1.8,-4 4,-4c2.21,0 4,-1.79 4,-4c0,-2.21 -1.79,-4 -4,-4c-6.61,0 -11.99,5.38 -11.99,11.99c0,6.61 5.38,11.99 11.99,11.99c2.21,0 4,-1.79 4,-4c0,-2.21 -1.79,-4 -4,-4z" />
		</g>
	</g>
	<g id="Layer">
		<g id="Layer">
			<path id="Layer" class="shp0" d="M157.35,320.02l-79.93,-31.97c-2.05,-0.82 -4.37,0.18 -5.19,2.23c-0.82,2.05 0.17,4.37 2.22,5.19l79.93,31.97c0.48,0.19 0.99,0.29 1.48,0.29c1.59,0 3.08,-0.95 3.71,-2.51c0.82,-2.04 -0.17,-4.37 -2.22,-5.19z" />
		</g>
	</g>
	<g id="Layer">
		<g id="Layer">
			<path id="Layer" class="shp0" d="M239.51,290.27c-0.82,-2.05 -3.15,-3.05 -5.19,-2.23l-79.93,31.97c-2.05,0.82 -3.04,3.15 -2.22,5.19c0.63,1.56 2.12,2.51 3.71,2.51c0.49,0 1,-0.09 1.48,-0.29l79.93,-31.97c2.05,-0.82 3.04,-3.15 2.22,-5.19z" />
		</g>
	</g>
	<g id="Layer">
		<g id="Layer">
			<path id="Layer" class="shp0" d="M67.94,295.75h-23.98c-2.21,0 -4,1.79 -4,4c0,2.21 1.79,4 4,4h23.98c2.21,0 4,-1.79 4,-4c0,-2.21 -1.79,-4 -4,-4z" />
		</g>
	</g>
	<g id="Layer">
		<g id="Layer">
			<path id="Layer" class="shp0" d="M99.92,311.74h-55.95c-2.21,0 -4,1.79 -4,4c0,2.21 1.79,4 4,4h55.95c2.21,0 4,-1.79 4,-4c0,-2.21 -1.79,-4 -4,-4z" />
		</g>
	</g>
	<g id="Layer">
		<g id="Layer">
			<path id="Layer" class="shp0" d="M267.78,311.74h-55.95c-2.21,0 -4,1.79 -4,4c0,2.21 1.79,4 4,4h55.95c2.21,0 4,-1.79 4,-4c0,-2.21 -1.79,-4 -4,-4z" />
		</g>
	</g>
	<g id="Layer">
		<g id="Layer">
			<path id="Layer" class="shp0" d="M267.78,295.75h-23.98c-2.21,0 -4,1.79 -4,4c0,2.21 1.79,4 4,4h23.98c2.21,0 4,-1.79 4,-4c0,-2.21 -1.79,-4 -4,-4z" />
		</g>
	</g>
	<g id="Layer">
		<g id="Layer">
			<path id="Layer" class="shp0" d="M60.19,223.81h-0.09c-2.2,0 -3.95,1.79 -3.95,4c0,2.21 1.83,4 4.04,4c2.2,0 4,-1.79 4,-4c0,-2.21 -1.8,-4 -4,-4z" />
		</g>
	</g>
	<g id="Layer">
		<g id="Layer">
			<path id="Layer" class="shp0" d="M84.17,223.81h-0.09c-2.2,0 -3.95,1.79 -3.95,4c0,2.21 1.83,4 4.03,4c2.2,0 4,-1.79 4,-4c0,-2.21 -1.8,-4 -4,-4z" />
		</g>
	</g>
	<g id="Layer">
		<g id="Layer">
			<path id="Layer" class="shp0" d="M228.05,223.81h-0.09c-2.2,0 -3.95,1.79 -3.95,4c0,2.21 1.83,4 4.04,4c2.2,0 4,-1.79 4,-4c0,-2.21 -1.8,-4 -4,-4z" />
		</g>
	</g>
	<g id="Layer">
		<g id="Layer">
			<path id="Layer" class="shp0" d="M252.03,223.81h-0.09c-2.2,0 -3.95,1.79 -3.95,4c0,2.21 1.83,4 4.04,4c2.2,0 4,-1.79 4,-4c0,-2.21 -1.79,-4 -4,-4z" />
		</g>
	</g>
	<g id="Layer">
		<g id="Layer">
			<path id="Layer" class="shp0" d="M267.78,215.82c-2.21,0 -4,1.79 -4,4c0,2.21 1.79,4 4,4c2.2,0 4,1.8 4,4c0,2.2 -1.8,4 -4,4c-2.21,0 -4,1.79 -4,4c0,2.21 1.79,4 4,4c6.61,0 11.99,-5.38 11.99,-11.99c0,-6.61 -5.38,-11.99 -11.99,-11.99z" />
		</g>
	</g>
	<g id="Layer">
		<g id="Layer">
			<path id="Layer" class="shp0" d="M43.97,231.81c-2.2,0 -4,-1.79 -4,-4c0,-2.2 1.8,-4 4,-4c2.21,0 4,-1.79 4,-4c0,-2.21 -1.79,-4 -4,-4c-6.61,0 -11.99,5.38 -11.99,11.99c0,6.61 5.38,11.99 11.99,11.99c2.21,0 4,-1.79 4,-4c0,-2.21 -1.79,-4 -4,-4z" />
		</g>
	</g>
	<g id="Layer">
		<g id="Layer">
			<path id="Layer" class="shp0" d="M157.35,240.09l-79.93,-31.97c-2.05,-0.83 -4.37,0.18 -5.19,2.22c-0.82,2.04 0.17,4.37 2.22,5.19l79.93,31.97c0.48,0.19 0.99,0.29 1.48,0.29c1.59,0 3.08,-0.95 3.71,-2.51c0.82,-2.04 -0.17,-4.37 -2.22,-5.19z" />
		</g>
	</g>
	<g id="Layer">
		<g id="Layer">
			<path id="Layer" class="shp0" d="M239.51,210.34c-0.82,-2.05 -3.15,-3.06 -5.19,-2.22l-79.93,31.97c-2.05,0.82 -3.04,3.15 -2.22,5.19c0.63,1.56 2.12,2.51 3.71,2.51c0.49,0 1,-0.09 1.48,-0.29l79.93,-31.97c2.05,-0.82 3.04,-3.15 2.22,-5.19z" />
		</g>
	</g>
	<g id="Layer">
		<g id="Layer">
			<path id="Layer" class="shp0" d="M67.94,215.82h-23.98c-2.21,0 -4,1.79 -4,4c0,2.21 1.79,4 4,4h23.98c2.21,0 4,-1.79 4,-4c0,-2.21 -1.79,-4 -4,-4z" />
		</g>
	</g>
	<g id="Layer">
		<g id="Layer">
			<path id="Layer" class="shp0" d="M99.92,231.81h-55.95c-2.21,0 -4,1.79 -4,4c0,2.21 1.79,4 4,4h55.95c2.21,0 4,-1.79 4,-4c0,-2.21 -1.79,-4 -4,-4z" />
		</g>
	</g>
	<g id="Layer">
		<g id="Layer">
			<path id="Layer" class="shp0" d="M267.78,231.81h-55.95c-2.21,0 -4,1.79 -4,4c0,2.21 1.79,4 4,4h55.95c2.21,0 4,-1.79 4,-4c0,-2.21 -1.79,-4 -4,-4z" />
		</g>
	</g>
	<g id="Layer">
		<g id="Layer">
			<path id="Layer" class="shp0" d="M267.78,215.82h-23.98c-2.21,0 -4,1.79 -4,4c0,2.21 1.79,4 4,4h23.98c2.21,0 4,-1.79 4,-4c0,-2.21 -1.79,-4 -4,-4z" />
		</g>
	</g>
	<g id="Layer">
		<g id="Layer">
			<path id="Layer" class="shp0" d="M271.77,267.78v15.99c0,2.21 -1.79,4 -4,4h-223.81c-2.21,0 -4,-1.79 -4,-4v-15.99c0,-2.21 1.79,-4 4,-4h223.81c2.21,0 4,1.79 4,4zM263.78,271.77h-215.82v7.99h215.82z" />
		</g>
	</g>
	<g id="Layer">
		<g id="Layer">
			<path id="Layer" class="shp0" d="M83.93,247.79h-39.97c-2.21,0 -4,1.79 -4,4c0,2.21 1.79,4 4,4h39.97c2.21,0 4,-1.79 4,-4c0,-2.21 -1.79,-4 -4,-4z" />
		</g>
	</g>
	<g id="Layer">
		<g id="Layer">
			<path id="Layer" class="shp0" d="M139.88,247.79h-39.97c-2.21,0 -4,1.79 -4,4c0,2.21 1.79,4 4,4h39.97c2.21,0 4,-1.79 4,-4c0,-2.21 -1.79,-4 -4,-4z" />
		</g>
	</g>
	<g id="Layer">
		<g id="Layer">
			<path id="Layer" class="shp0" d="M211.82,247.79h-39.97c-2.21,0 -4,1.79 -4,4c0,2.21 1.79,4 4,4h39.97c2.21,0 4,-1.79 4,-4c0,-2.21 -1.79,-4 -4,-4z" />
		</g>
	</g>
	<g id="Layer">
		<g id="Layer">
			<path id="Layer" class="shp0" d="M267.78,247.79h-39.97c-2.21,0 -4,1.79 -4,4c0,2.21 1.79,4 4,4h39.97c2.21,0 4,-1.79 4,-4c0,-2.21 -1.79,-4 -4,-4z" />
		</g>
	</g>
	<g id="Layer">
		<g id="Layer">
			<path id="Layer" class="shp0" d="M83.93,327.73h-39.97c-2.21,0 -4,1.79 -4,4c0,2.21 1.79,4 4,4h39.97c2.21,0 4,-1.79 4,-4c0,-2.21 -1.79,-4 -4,-4z" />
		</g>
	</g>
	<g id="Layer">
		<g id="Layer">
			<path id="Layer" class="shp0" d="M139.88,327.73h-39.97c-2.21,0 -4,1.79 -4,4c0,2.21 1.79,4 4,4h39.97c2.21,0 4,-1.79 4,-4c0,-2.21 -1.79,-4 -4,-4z" />
		</g>
	</g>
	<g id="Layer">
		<g id="Layer">
			<path id="Layer" class="shp0" d="M211.82,327.73h-39.97c-2.21,0 -4,1.79 -4,4c0,2.21 1.79,4 4,4h39.97c2.21,0 4,-1.79 4,-4c0,-2.21 -1.79,-4 -4,-4z" />
		</g>
	</g>
	<g id="Layer">
		<g id="Layer">
			<path id="Layer" class="shp0" d="M267.78,327.73h-39.97c-2.21,0 -4,1.79 -4,4c0,2.21 1.79,4 4,4h39.97c2.21,0 4,-1.79 4,-4c0,-2.21 -1.79,-4 -4,-4z" />
		</g>
	</g>
	<g id="Layer">
		<g id="Layer">
			<path id="Layer" class="shp0" d="M267.78,199.83h-223.81c-2.21,0 -4,1.79 -4,4c0,2.21 1.79,4 4,4h223.81c2.21,0 4,-1.79 4,-4c0,-2.21 -1.79,-4 -4,-4z" />
		</g>
	</g>
	<g id="Layer">
		<g id="Layer">
			<path id="Layer" class="shp0" d="M155.87,103.91c-63.91,0 -115.9,44.82 -115.9,99.92c0,2.21 1.79,4 4,4c2.21,0 4,-1.79 4,-4c0,-50.68 48.4,-91.92 107.91,-91.92c59.51,0 107.91,41.24 107.91,91.92c0,2.21 1.79,4 4,4c2.21,0 4,-1.79 4,-4c0,-55.09 -52,-99.92 -115.9,-99.92z" />
		</g>
	</g>
	<g id="Layer">
		<g id="Layer">
			<path id="Layer" class="shp0" d="M327.7,363.25l-15.99,-143.88c-0.24,-2.19 -2.17,-3.78 -4.42,-3.53c-2.19,0.24 -3.77,2.22 -3.53,4.42l15.99,143.88c0.23,2.04 1.96,3.55 3.96,3.55c0.15,0 0.3,-0.01 0.45,-0.02c2.19,-0.24 3.77,-2.22 3.53,-4.42z" />
		</g>
	</g>
	<g id="Layer">
		<g id="Layer">
			<path id="Layer" class="shp0" d="M484.04,215.84c-2.32,-0.26 -4.18,1.34 -4.42,3.53l-15.99,143.88c-0.24,2.2 1.33,4.18 3.53,4.42c0.16,0.01 0.31,0.02 0.45,0.02c2.01,0 3.74,-1.51 3.96,-3.55l15.99,-143.88c0.24,-2.2 -1.33,-4.18 -3.53,-4.42z" />
		</g>
	</g>
	<g id="Layer">
		<g id="Layer">
			<path id="Layer" class="shp0" d="M355.7,247.79c-10.43,0 -33.22,-18.89 -45.13,-30.8c-1.56,-1.56 -4.09,-1.56 -5.65,0c-1.56,1.56 -1.56,4.09 0,5.65c3.39,3.4 33.64,33.14 50.79,33.14c2.21,0 4,-1.79 4,-4c0,-2.21 -1.79,-4 -4,-4z" />
		</g>
	</g>
	<g id="Layer">
		<g id="Layer">
			<path id="Layer" class="shp0" d="M435.64,247.79h-79.93c-2.21,0 -4,1.79 -4,4c0,2.21 1.79,4 4,4h79.93c2.21,0 4,-1.79 4,-4c0,-2.21 -1.79,-4 -4,-4z" />
		</g>
	</g>
	<g id="Layer">
		<g id="Layer">
			<path id="Layer" class="shp0" d="M486.42,216.99c-1.56,-1.56 -4.09,-1.56 -5.65,0c-11.91,11.91 -34.7,30.8 -45.13,30.8c-2.21,0 -4,1.79 -4,4c0,2.21 1.79,4 4,4c17.15,0 47.39,-29.75 50.78,-33.14c1.56,-1.56 1.56,-4.09 0,-5.65z" />
		</g>
	</g>
	<g id="Layer">
		<g id="Layer">
			<path id="Layer" class="shp0" d="M351.5,234.54l-23.98,-71.94c-0.7,-2.09 -2.96,-3.22 -5.06,-2.53c-2.09,0.7 -3.22,2.97 -2.53,5.06l23.98,71.94c0.56,1.67 2.12,2.73 3.79,2.73c0.42,0 0.84,-0.06 1.26,-0.2c2.09,-0.7 3.22,-2.97 2.53,-5.06z" />
		</g>
	</g>
	<g id="Layer">
		<g id="Layer">
			<path id="Layer" class="shp0" d="M343.29,154.08c-0.99,-1.97 -3.38,-2.78 -5.36,-1.79l-15.99,7.99c-1.98,0.99 -2.77,3.39 -1.79,5.36c0.7,1.4 2.12,2.21 3.57,2.21c0.6,0 1.21,-0.13 1.79,-0.42l15.99,-7.99c1.97,-0.99 2.77,-3.39 1.79,-5.36z" />
		</g>
	</g>
	<g id="Layer">
		<g id="Layer">
			<path id="Layer" class="shp0" d="M367.52,234.66l-23.98,-79.93c-0.63,-2.12 -2.87,-3.32 -4.97,-2.68c-2.12,0.63 -3.32,2.86 -2.68,4.97l23.98,79.93c0.51,1.73 2.11,2.85 3.82,2.85c0.38,0 0.76,-0.06 1.15,-0.17c2.12,-0.63 3.32,-2.86 2.68,-4.97z" />
		</g>
	</g>
	<g id="Layer">
		<g id="Layer">
			<path id="Layer" class="shp0" d="M383.56,234.84l-15.99,-63.95c-0.54,-2.15 -2.75,-3.44 -4.85,-2.91c-2.15,0.54 -3.44,2.71 -2.91,4.85l15.99,63.95c0.45,1.82 2.08,3.03 3.88,3.03c0.32,0 0.65,-0.04 0.97,-0.12c2.15,-0.54 3.44,-2.71 2.91,-4.85z" />
		</g>
	</g>
	<g id="Layer">
		<g id="Layer">
			<path id="Layer" class="shp0" d="M412.22,119.94c-2.15,-0.27 -4.21,1.2 -4.52,3.4l-15.99,111.91c-0.31,2.19 1.21,4.21 3.39,4.52c0.19,0.02 0.38,0.04 0.57,0.04c1.95,0 3.66,-1.44 3.95,-3.44l15.99,-111.9c0.31,-2.19 -1.21,-4.21 -3.4,-4.52z" />
		</g>
	</g>
	<g id="Layer">
		<g id="Layer">
			<path id="Layer" class="shp0" d="M429.43,128.32l-15.99,-7.99c-1.98,-0.98 -4.36,-0.18 -5.36,1.79c-0.98,1.97 -0.19,4.37 1.79,5.36l15.99,7.99c0.58,0.29 1.19,0.42 1.79,0.42c1.46,0 2.87,-0.81 3.57,-2.21c0.98,-1.97 0.19,-4.37 -1.79,-5.36z" />
		</g>
	</g>
	<g id="Layer">
		<g id="Layer">
			<path id="Layer" class="shp0" d="M428.25,127.94c-2.22,-0.33 -4.22,1.16 -4.56,3.34l-15.99,103.91c-0.34,2.19 1.16,4.22 3.34,4.56c0.21,0.03 0.41,0.05 0.62,0.05c1.94,0 3.64,-1.41 3.94,-3.39l15.99,-103.91c0.34,-2.19 -1.16,-4.22 -3.34,-4.56z" />
		</g>
	</g>
	<g id="Layer">
		<g id="Layer">
			<path id="Layer" class="shp0" d="M383.26,162.08c-0.99,-1.98 -3.39,-2.78 -5.36,-1.79l-15.99,7.99c-1.98,0.99 -2.77,3.39 -1.79,5.36c0.7,1.4 2.12,2.21 3.57,2.21c0.6,0 1.21,-0.13 1.79,-0.42l15.99,-7.99c1.98,-0.99 2.77,-3.39 1.79,-5.36z" />
		</g>
	</g>
	<g id="Layer">
		<g id="Layer">
			<path id="Layer" class="shp0" d="M391.56,194.87l-7.99,-31.97c-0.54,-2.15 -2.75,-3.44 -4.85,-2.91c-2.15,0.54 -3.44,2.71 -2.91,4.85l7.99,31.97c0.45,1.82 2.08,3.03 3.88,3.03c0.32,0 0.65,-0.04 0.97,-0.12c2.15,-0.54 3.44,-2.71 2.91,-4.85z" />
		</g>
	</g>
	<g id="Layer">
		<g id="Layer">
			<path id="Layer" class="shp0" d="M453.41,176.28l-15.99,-7.99c-1.97,-0.98 -4.36,-0.18 -5.36,1.79c-0.98,1.97 -0.19,4.37 1.79,5.36l15.99,7.99c0.58,0.29 1.19,0.42 1.79,0.42c1.46,0 2.87,-0.81 3.57,-2.21c0.98,-1.97 0.19,-4.37 -1.79,-5.36z" />
		</g>
	</g>
	<g id="Layer">
		<g id="Layer">
			<path id="Layer" class="shp0" d="M453.2,176.17c-2.02,-0.86 -4.37,0.06 -5.25,2.1l-23.98,55.95c-0.87,2.03 0.07,4.38 2.1,5.25c0.51,0.22 1.05,0.32 1.58,0.32c1.55,0 3.02,-0.91 3.68,-2.42l23.98,-55.95c0.87,-2.03 -0.07,-4.38 -2.1,-5.25z" />
		</g>
	</g>
	<g id="Layer">
		<g id="Layer">
			<path id="Layer" class="shp0" d="M485.38,192.26l-15.99,-7.99c-1.97,-0.99 -4.37,-0.19 -5.36,1.79c-0.98,1.97 -0.19,4.37 1.79,5.36l15.99,7.99c0.58,0.29 1.19,0.42 1.79,0.42c1.46,0 2.87,-0.81 3.57,-2.21c0.98,-1.97 0.19,-4.37 -1.79,-5.36z" />
		</g>
	</g>
	<g id="Layer">
		<g id="Layer">
			<path id="Layer" class="shp0" d="M485.81,192.51c-1.82,-1.22 -4.32,-0.73 -5.54,1.11l-15.99,23.98c-1.23,1.83 -0.73,4.32 1.11,5.54c0.68,0.45 1.45,0.67 2.22,0.67c1.29,0 2.55,-0.62 3.32,-1.78l15.99,-23.98c1.23,-1.83 0.73,-4.32 -1.11,-5.54z" />
		</g>
	</g>
	<g id="Layer">
		<g id="Layer">
			<path id="Layer" class="shp0" d="M469.66,184.42c-1.86,-1.13 -4.33,-0.52 -5.48,1.37l-23.98,39.97c-1.14,1.89 -0.52,4.35 1.37,5.48c0.64,0.39 1.35,0.57 2.05,0.57c1.35,0 2.68,-0.69 3.43,-1.94l23.98,-39.97c1.14,-1.89 0.52,-4.35 -1.37,-5.48z" />
		</g>
	</g>
	<g id="Layer">
		<g id="Layer">
			<path id="Layer" class="shp0" d="M326.55,193.01c-1.56,-1.56 -4.09,-1.56 -5.65,0l-7.99,7.99c-1.56,1.56 -1.56,4.09 0,5.65c0.78,0.78 1.8,1.17 2.82,1.17c1.02,0 2.05,-0.39 2.83,-1.17l7.99,-7.99c1.56,-1.56 1.56,-4.09 0,-5.65z" />
		</g>
	</g>
	<g id="Layer">
		<g id="Layer">
			<path id="Layer" class="shp0" d="M335.05,225.59l-15.99,-23.98c-1.23,-1.84 -3.72,-2.33 -5.54,-1.11c-1.83,1.22 -2.33,3.71 -1.11,5.54l15.99,23.98c0.77,1.16 2.04,1.78 3.33,1.78c0.76,0 1.54,-0.22 2.22,-0.67c1.83,-1.22 2.33,-3.71 1.11,-5.54z" />
		</g>
	</g>
	<g id="Layer">
		<g id="Layer">
			<path id="Layer" class="shp0" d="M391.43,283.8c-0.74,-2.08 -3.02,-3.17 -5.11,-2.44c-11.15,3.95 -18.63,14.55 -18.63,26.38c0,7.94 3.39,15.54 9.32,20.85c0.77,0.69 1.72,1.02 2.67,1.02c1.09,0 2.19,-0.44 2.97,-1.33c1.48,-1.65 1.33,-4.17 -0.3,-5.64c-4.24,-3.8 -6.67,-9.23 -6.67,-14.9c0,-8.44 5.35,-16.02 13.31,-18.83c2.08,-0.74 3.17,-3.02 2.44,-5.11z" />
		</g>
	</g>
	<g id="Layer">
		<g id="Layer">
			<path id="Layer" class="shp0" d="M414.36,286.92c-1.64,-1.47 -4.17,-1.33 -5.64,0.31c-1.48,1.64 -1.33,4.17 0.3,5.64c4.22,3.79 6.64,9.2 6.64,14.87c0,8.45 -5.36,16.03 -13.32,18.84c-2.08,0.74 -3.17,3.02 -2.44,5.11c0.59,1.64 2.12,2.66 3.77,2.66c0.44,0 0.89,-0.07 1.33,-0.23c11.15,-3.95 18.65,-14.55 18.65,-26.38c0,-7.93 -3.39,-15.52 -9.29,-20.82z" />
		</g>
	</g>
	<g id="Layer">
		<g id="Layer">
			<path id="Layer" class="shp0" d="M422.47,264.95c-1.56,-1.56 -4.09,-1.56 -5.65,0l-31.97,31.97c-1.56,1.56 -1.56,4.09 0,5.65c0.78,0.78 1.8,1.17 2.82,1.17c1.02,0 2.05,-0.39 2.82,-1.17l31.97,-31.97c1.56,-1.56 1.56,-4.09 0,-5.65z" />
		</g>
	</g>
	<g id="Layer">
		<g id="Layer">
			<path id="Layer" class="shp0" d="M406.49,312.91c-1.56,-1.56 -4.09,-1.56 -5.65,0l-31.97,31.97c-1.56,1.56 -1.56,4.09 0,5.65c0.78,0.78 1.8,1.17 2.83,1.17c1.02,0 2.05,-0.39 2.82,-1.17l31.97,-31.97c1.56,-1.56 1.56,-4.09 0,-5.65z" />
		</g>
	</g>
	<g id="Layer">
		<g id="Layer">
			<path id="Layer" class="shp0" d="M406.49,312.91l-15.99,-15.99c-1.56,-1.56 -4.09,-1.56 -5.65,0c-1.56,1.56 -1.56,4.09 0,5.65l15.99,15.99c0.78,0.78 1.8,1.17 2.82,1.17c1.02,0 2.05,-0.39 2.83,-1.17c1.56,-1.56 1.56,-4.09 0,-5.65z" />
		</g>
	</g>
	<g id="Layer">
	</g>
	<g id="Layer">
	</g>
	<g id="Layer">
	</g>
	<g id="Layer">
	</g>
	<g id="Layer">
	</g>
	<g id="Layer">
	</g>
	<g id="Layer">
	</g>
	<g id="Layer">
	</g>
	<g id="Layer">
	</g>
	<g id="Layer">
	</g>
	<g id="Layer">
	</g>
	<g id="Layer">
	</g>
	<g id="Layer">
	</g>
	<g id="Layer">
	</g>
	<g id="Layer">
	</g>
</svg>