<svg xmlns="http://www.w3.org/2000/svg" viewBox="0 0 512 512" width="512" height="512">
	<style>
		tspan { white-space:pre }
		.shp0 { fill: #fbc100 }
	</style>
	<g id="Layer">
		<g id="Layer">
			<path id="Layer" class="shp0" d="M107.91,222.73c-1.89,0 -3.47,1.31 -3.89,3.08c-3.54,3.77 -27.05,11.35 -36.01,14.24c-2.79,0.9 -5.23,1.69 -7.08,2.31c-11.05,3.77 -20.97,8.39 -20.97,23.2v14.2c0,2.21 1.79,4 4,4c2.21,0 4,-1.79 4,-4v-14.2c0,-8.1 3.35,-11.47 15.56,-15.63c1.81,-0.62 4.21,-1.39 6.95,-2.27c32.92,-10.61 41.44,-14.91 41.44,-20.93c0,-2.21 -1.79,-4 -4,-4z" />
		</g>
	</g>
	<g id="Layer">
		<g id="Layer">
			<path id="Layer" class="shp0" d="M218.82,242.35c-1.84,-0.62 -4.28,-1.41 -7.07,-2.31c-8.96,-2.89 -32.47,-10.46 -36.01,-14.24c-0.41,-1.76 -2,-3.08 -3.89,-3.08c-2.21,0 -4,1.79 -4,4c0,6.01 8.52,10.32 41.44,20.93c2.74,0.88 5.14,1.66 6.94,2.27c12.22,4.17 15.56,7.54 15.56,15.64v14.2c0,2.21 1.79,4 4,4c2.21,0 4,-1.79 4,-4v-14.2c0,-14.81 -9.92,-19.43 -20.97,-23.21z" />
		</g>
	</g>
	<g id="Layer">
		<g id="Layer">
			<path id="Layer" class="shp0" d="M107.91,202.86c-2.21,0 -4,1.79 -4,4v19.87c0,2.21 1.79,4 4,4c2.21,0 4,-1.79 4,-4v-19.87c0,-2.21 -1.79,-4 -4,-4z" />
		</g>
	</g>
	<g id="Layer">
		<g id="Layer">
			<path id="Layer" class="shp0" d="M171.85,203.45c-2.21,0 -4,1.79 -4,4v19.28c0,2.21 1.79,4 4,4c2.21,0 4,-1.79 4,-4v-19.28c0,-2.21 -1.79,-4 -4,-4z" />
		</g>
	</g>
	<g id="Layer">
		<g id="Layer">
			<path id="Layer" class="shp0" d="M339.71,211.81c-2.21,0 -4,1.79 -4,4c0,8.82 -20.24,14.26 -32.33,17.51c-4.24,1.14 -7.95,2.15 -10.55,3.12c-13.22,4.93 -20.87,10.61 -20.87,25.06v18.27c0,2.21 1.79,4 4,4c2.21,0 4,-1.79 4,-4v-18.27c0,-9.21 3.37,-12.98 15.67,-17.57c2.42,-0.9 5.88,-1.83 9.82,-2.88c16.15,-4.34 38.26,-10.28 38.26,-25.23c0,-2.21 -1.79,-4 -4,-4z" />
		</g>
	</g>
	<g id="Layer">
		<g id="Layer">
			<path id="Layer" class="shp0" d="M450.93,236.43c-2.7,-1.01 -6.4,-2 -10.69,-3.14c-12.19,-3.25 -32.6,-8.69 -32.6,-17.49c0,-2.21 -1.79,-4 -4,-4c-2.21,0 -4,1.79 -4,4c0,14.93 22.27,20.87 38.53,25.21c4,1.07 7.52,1.99 9.95,2.9c12.3,4.59 15.67,8.37 15.67,17.57v18.27c0,2.21 1.79,4 4,4c2.21,0 4,-1.79 4,-4v-18.27c0,-14.44 -7.65,-20.13 -20.87,-25.06z" />
		</g>
	</g>
	<g id="Layer">
		<g id="Layer">
			<path id="Layer" class="shp0" d="M339.71,194.96c-2.21,0 -4,1.79 -4,4v16.85c0,2.21 1.79,4 4,4c2.21,0 4,-1.79 4,-4v-16.85c0,-2.21 -1.79,-4 -4,-4z" />
		</g>
	</g>
	<g id="Layer">
		<g id="Layer">
			<path id="Layer" class="shp0" d="M403.65,195.16c-2.21,0 -4,1.79 -4,4v16.65c0,2.21 1.79,4 4,4c2.21,0 4,-1.79 4,-4v-16.65c0,-2.21 -1.79,-4 -4,-4z" />
		</g>
	</g>
	<g id="Layer">
		<g id="Layer">
			<path id="Layer" class="shp0" d="M166.68,364.86l-7.99,-7.99c-1.56,-1.56 -4.09,-1.56 -5.65,0l-5.17,5.17l-5.17,-5.17c-1.56,-1.56 -4.09,-1.56 -5.65,0l-5.17,5.17l-5.17,-5.17c-1.56,-1.56 -4.09,-1.56 -5.65,0l-5.17,5.17l-5.17,-5.17c-1.56,-1.56 -4.09,-1.56 -5.65,0l-5.17,5.17l-5.17,-5.17c-1.56,-1.56 -4.09,-1.56 -5.65,0l-7.99,7.99c-1.56,1.56 -1.56,4.09 0,5.65c1.56,1.56 4.09,1.56 5.65,0l5.17,-5.17l5.17,5.17c1.56,1.56 4.09,1.56 5.65,0l5.17,-5.17l5.17,5.17c1.56,1.56 4.09,1.56 5.65,0l5.17,-5.17l5.17,5.17c1.56,1.56 4.09,1.56 5.65,0l5.17,-5.17l5.17,5.17c1.56,1.56 4.09,1.56 5.65,0l5.17,-5.17l5.17,5.17c0.78,0.78 1.8,1.17 2.83,1.17c1.02,0 2.05,-0.39 2.82,-1.17c1.56,-1.56 1.56,-4.09 0,-5.65z" />
		</g>
	</g>
	<g id="Layer">
		<g id="Layer">
			<path id="Layer" class="shp0" d="M438.45,404.82l-7.99,-7.99c-1.56,-1.56 -4.09,-1.56 -5.65,0l-5.17,5.17l-5.17,-5.17c-1.56,-1.56 -4.09,-1.56 -5.65,0l-5.17,5.17l-5.17,-5.17c-1.56,-1.56 -4.09,-1.56 -5.65,0l-5.17,5.17l-5.17,-5.17c-1.56,-1.56 -4.09,-1.56 -5.65,0l-5.17,5.17l-5.17,-5.17c-1.56,-1.56 -4.09,-1.56 -5.65,0l-5.17,5.17l-5.17,-5.17c-1.56,-1.56 -4.09,-1.56 -5.65,0l-5.17,5.17l-5.17,-5.17c-1.56,-1.56 -4.09,-1.56 -5.65,0l-7.99,7.99c-1.56,1.56 -1.56,4.09 0,5.65c1.56,1.56 4.09,1.56 5.65,0l5.17,-5.17l5.17,5.17c1.56,1.56 4.09,1.56 5.65,0l5.17,-5.17l5.17,5.17c1.56,1.56 4.09,1.56 5.65,0l5.17,-5.17l5.17,5.17c1.56,1.56 4.09,1.56 5.65,0l5.17,-5.17l5.17,5.17c1.56,1.56 4.09,1.56 5.65,0l5.17,-5.17l5.17,5.17c1.56,1.56 4.09,1.56 5.65,0l5.17,-5.17l5.17,5.17c1.56,1.56 4.09,1.56 5.65,0l5.17,-5.17l5.17,5.17c0.78,0.78 1.8,1.17 2.83,1.17c1.02,0 2.05,-0.39 2.82,-1.17c1.56,-1.56 1.56,-4.09 0,-5.65z" />
		</g>
	</g>
	<g id="Layer">
		<g id="Layer">
			<path id="Layer" class="shp0" d="M254.61,444.79l-7.99,-7.99c-1.56,-1.56 -4.09,-1.56 -5.65,0l-5.17,5.17l-5.17,-5.17c-1.56,-1.56 -4.09,-1.56 -5.65,0l-5.17,5.17l-5.17,-5.17c-1.56,-1.56 -4.09,-1.56 -5.65,0l-5.17,5.17l-5.17,-5.17c-1.56,-1.56 -4.09,-1.56 -5.65,0l-7.99,7.99c-1.56,1.56 -1.56,4.09 0,5.65c1.56,1.56 4.09,1.56 5.65,0l5.17,-5.17l5.17,5.17c1.56,1.56 4.09,1.56 5.65,0l5.17,-5.17l5.17,5.17c1.56,1.56 4.09,1.56 5.65,0l5.17,-5.17l5.17,5.17c1.56,1.56 4.09,1.56 5.65,0l5.17,-5.17l5.17,5.17c0.78,0.78 1.8,1.17 2.83,1.17c1.02,0 2.04,-0.39 2.83,-1.17c1.56,-1.56 1.56,-4.09 0,-5.65z" />
		</g>
	</g>
	<g id="Layer">
		<g id="Layer">
			<path id="Layer" class="shp0" d="M486.4,292.92c-1.56,-1.56 -4.09,-1.56 -5.65,0l-5.17,5.17l-5.17,-5.17c-1.56,-1.56 -4.09,-1.56 -5.65,0l-5.17,5.17l-5.17,-5.17c-1.56,-1.56 -4.09,-1.56 -5.65,0l-5.17,5.17l-5.17,-5.17c-1.56,-1.56 -4.09,-1.56 -5.65,0l-5.17,5.17l-5.17,-5.17c-1.56,-1.56 -4.09,-1.56 -5.65,0l-5.17,5.17l-5.17,-5.17c-1.56,-1.56 -4.09,-1.56 -5.65,0l-5.17,5.17l-5.17,-5.17c-1.56,-1.56 -4.09,-1.56 -5.65,0l-5.17,5.17l-5.17,-5.17c-1.56,-1.56 -4.09,-1.56 -5.65,0l-5.17,5.17l-5.17,-5.17c-1.56,-1.56 -4.09,-1.56 -5.65,0l-5.17,5.17l-5.17,-5.17c-1.56,-1.56 -4.09,-1.56 -5.65,0l-5.17,5.17l-5.17,-5.17c-1.56,-1.56 -4.09,-1.56 -5.65,0l-5.17,5.17l-5.17,-5.17c-1.56,-1.56 -4.09,-1.56 -5.65,0l-5.17,5.17l-5.17,-5.17c-1.56,-1.56 -4.09,-1.56 -5.65,0l-5.17,5.17l-5.17,-5.17c-1.56,-1.56 -4.09,-1.56 -5.65,0l-5.17,5.17l-5.17,-5.17c-1.56,-1.56 -4.09,-1.56 -5.65,0l-5.18,5.17l-5.17,-5.17c-1.56,-1.56 -4.09,-1.56 -5.65,0l-5.17,5.17l-5.16,-5.17c-0.75,-0.75 -1.76,-1.17 -2.83,-1.17c-1.06,0 -2.08,0.42 -2.83,1.17l-5.17,5.17l-5.17,-5.17c-1.56,-1.56 -4.09,-1.56 -5.65,0l-5.18,5.17l-5.17,-5.17c-1.56,-1.56 -4.09,-1.56 -5.65,0l-5.17,5.17l-5.17,-5.17c-1.5,-1.5 -4.15,-1.5 -5.65,0l-5.16,5.17l-5.18,-5.17c-1.56,-1.56 -4.09,-1.56 -5.65,0l-5.17,5.17l-5.17,-5.17c-1.5,-1.5 -4.15,-1.5 -5.65,0l-5.16,5.17l-5.18,-5.17c-0.75,-0.75 -1.76,-1.17 -2.82,-1.17c-1.06,0 -2.08,0.42 -2.83,1.17l-5.16,5.17l-5.17,-5.17c-1.56,-1.56 -4.09,-1.56 -5.65,0l-5.17,5.17l-5.17,-5.17c-0.75,-0.75 -1.76,-1.17 -2.83,-1.17c-1.06,0 -2.08,0.42 -2.83,1.17l-5.16,5.17l-5.17,-5.17c-1.56,-1.56 -4.09,-1.56 -5.65,0l-5.17,5.17l-5.17,-5.17c-1.5,-1.5 -4.15,-1.5 -5.65,0l-5.16,5.17l-5.17,-5.17c-1.56,-1.56 -4.09,-1.56 -5.65,0l-5.18,5.17l-5.17,-5.17c-1.5,-1.5 -4.15,-1.5 -5.65,0l-5.16,5.17l-5.17,-5.17c-1.56,-1.56 -4.09,-1.56 -5.65,0c-1.56,1.56 -1.56,4.09 0,5.65l7.99,7.99c1.5,1.5 4.15,1.5 5.65,0l5.16,-5.17l5.17,5.17c1.56,1.56 4.09,1.56 5.65,0l5.19,-5.17l5.17,5.17c1.5,1.5 4.15,1.5 5.65,0l5.16,-5.17l5.17,5.17c1.56,1.56 4.09,1.56 5.65,0l5.17,-5.17l5.17,5.17c1.5,1.5 4.15,1.5 5.65,0l5.16,-5.17l5.17,5.17c1.56,1.56 4.09,1.56 5.65,0l5.17,-5.17l5.17,5.17c1.5,1.5 4.15,1.5 5.65,0l5.16,-5.17l5.18,5.17c0.75,0.75 1.76,1.17 2.83,1.17c1.06,0 2.08,-0.42 2.82,-1.17l5.16,-5.17l5.17,5.17c1.56,1.56 4.09,1.56 5.65,0l5.17,-5.17l5.18,5.17c0.75,0.75 1.76,1.17 2.83,1.17c1.06,0 2.08,-0.42 2.83,-1.17l5.16,-5.17l5.17,5.17c1.56,1.56 4.09,1.56 5.65,0l5.17,-5.17l5.17,5.17c1.56,1.56 4.09,1.56 5.65,0l5.18,-5.17l5.17,5.17c1.56,1.56 4.09,1.56 5.65,0l5.17,-5.17l5.16,5.17c0.75,0.75 1.76,1.17 2.83,1.17c1.06,0 2.08,-0.42 2.83,-1.17l5.17,-5.17l5.17,5.17c1.56,1.56 4.09,1.56 5.65,0l5.18,-5.17l5.17,5.17c1.56,1.56 4.09,1.56 5.65,0l5.17,-5.17l5.17,5.17c1.56,1.56 4.09,1.56 5.65,0l5.17,-5.17l5.17,5.17c1.56,1.56 4.09,1.56 5.65,0l5.17,-5.17l5.17,5.17c1.56,1.56 4.09,1.56 5.65,0l5.17,-5.17l5.17,5.17c1.56,1.56 4.09,1.56 5.65,0l5.17,-5.17l5.17,5.17c1.56,1.56 4.09,1.56 5.65,0l5.17,-5.17l5.17,5.17c1.56,1.56 4.09,1.56 5.65,0l5.17,-5.17l5.17,5.17c1.56,1.56 4.09,1.56 5.65,0l5.17,-5.17l5.17,5.17c1.56,1.56 4.09,1.56 5.65,0l5.17,-5.17l5.17,5.17c1.56,1.56 4.09,1.56 5.65,0l5.17,-5.17l5.17,5.17c1.56,1.56 4.09,1.56 5.65,0l5.17,-5.17l5.17,5.17c1.56,1.56 4.09,1.56 5.65,0l5.17,-5.17l5.17,5.17c1.56,1.56 4.09,1.56 5.65,0l5.17,-5.17l5.17,5.17c0.78,0.78 1.8,1.17 2.82,1.17c1.02,0 2.04,-0.39 2.81,-1.17l7.99,-7.99c1.56,-1.56 1.56,-4.09 0,-5.65z" />
		</g>
	</g>
	<g id="Layer">
		<g id="Layer">
			<path id="Layer" class="shp0" d="M22.81,292.92c-1.56,-1.56 -4.09,-1.56 -5.65,0l-7.99,8c-1.56,1.56 -1.56,4.09 0,5.65c0.78,0.78 1.8,1.17 2.83,1.17c1.02,0 2.05,-0.39 2.83,-1.17l7.99,-8c1.56,-1.56 1.56,-4.09 0,-5.65z" />
		</g>
	</g>
	<g id="Layer">
		<g id="Layer">
			<path id="Layer" class="shp0" d="M14.82,300.92l-7.99,-8c-1.56,-1.56 -4.09,-1.56 -5.65,0c-1.56,1.56 -1.56,4.09 0,5.65l7.99,8c0.78,0.78 1.8,1.17 2.83,1.17c1.02,0 2.05,-0.39 2.83,-1.17c1.56,-1.56 1.56,-4.09 0,-5.65z" />
		</g>
	</g>
	<g id="Layer">
		<g id="Layer">
			<path id="Layer" class="shp0" d="M494.4,300.91l-7.99,-7.99c-1.56,-1.56 -4.09,-1.56 -5.65,0c-1.56,1.56 -1.56,4.09 0,5.65l7.99,7.99c0.78,0.78 1.8,1.17 2.83,1.17c1.02,0 2.05,-0.39 2.83,-1.17c1.56,-1.56 1.56,-4.09 0,-5.65z" />
		</g>
	</g>
	<g id="Layer">
		<g id="Layer">
			<path id="Layer" class="shp0" d="M502.4,292.93c-1.56,-1.56 -4.09,-1.56 -5.65,0l-7.99,7.99c-1.56,1.56 -1.56,4.09 0,5.65c0.78,0.78 1.8,1.17 2.83,1.17c1.02,0 2.05,-0.39 2.83,-1.17l7.99,-7.99c1.56,-1.56 1.56,-4.09 0,-5.65z" />
		</g>
	</g>
	<g id="Layer">
		<g id="Layer">
			<path id="Layer" class="shp0" d="M510.39,300.91l-7.99,-7.99c-1.56,-1.56 -4.09,-1.56 -5.65,0c-1.56,1.56 -1.56,4.09 0,5.65l7.99,7.99c0.78,0.78 1.8,1.17 2.83,1.17c1.02,0 2.05,-0.39 2.83,-1.17c1.56,-1.56 1.56,-4.09 0,-5.65z" />
		</g>
	</g>
	<g id="Layer">
		<g id="Layer">
			<path id="Layer" class="shp0" d="M196.08,147.99c-2.21,0 -4,1.79 -4,4c0,35.53 -32.41,68.92 -51.95,68.92c-19.55,0 -51.96,-33.38 -51.96,-68.92c0,-2.21 -1.79,-4 -4,-4c-2.21,0 -4,1.79 -4,4c0,40.96 37.37,76.91 59.95,76.91c22.58,0 59.95,-35.95 59.95,-76.91c0,-2.21 -1.79,-4 -4,-4z" />
		</g>
	</g>
	<g id="Layer">
		<g id="Layer">
			<path id="Layer" class="shp0" d="M199.78,144.5c-0.26,1.63 -1.48,2.93 -3.09,3.29c-0.29,0.06 -0.58,0.09 -0.86,0.09c-1.32,0 -2.58,-0.65 -3.32,-1.78l-14.21,-21.32c-6.36,2.31 -21.6,7.11 -38.16,7.11c-16.63,0 -32.21,-4.84 -38.65,-7.13l-14.22,21.34c-0.94,1.41 -2.7,2.06 -4.3,1.66c-1.65,-0.41 -2.85,-1.82 -3,-3.5c-2.12,-22.75 2.85,-40.93 14.8,-54.05c17.61,-19.33 46.15,-23.39 66.99,-23.39c10.88,0 18.4,1.13 18.72,1.18c1.77,0.27 3.15,1.69 3.36,3.47c0.22,1.78 -0.79,3.49 -2.44,4.17c-8.76,3.6 -7.97,12.08 -6.87,16.45c4.08,0.16 12.28,1.47 18.53,8.77c7.6,8.88 9.87,23.57 6.75,43.63zM186.96,106.06c-4.47,-5.22 -10.34,-6 -13.43,-6c-0.78,0 -1.28,0.05 -1.38,0.07c-1.77,0.19 -3.55,-0.78 -4.24,-2.46c-2.21,-5.45 -3.72,-15.32 1.54,-22.67c-2.28,-0.12 -4.88,-0.2 -7.71,-0.2c-19.23,0 -45.44,3.6 -61.08,20.78c-8.2,9.01 -12.61,20.98 -13.14,35.7l9.07,-13.6c1.05,-1.58 3.08,-2.21 4.84,-1.48c0.19,0.07 19.01,7.69 38.7,7.69c19.72,0 37.98,-7.6 38.16,-7.68c0.51,-0.21 1.03,-0.31 1.55,-0.31c1.3,0 2.57,0.64 3.33,1.78l9.86,14.79c0.62,-11.98 -1.44,-21 -6.07,-26.41z" />
		</g>
	</g>
	<g id="Layer">
		<g id="Layer">
			<path id="Layer" class="shp0" d="M196.08,139.88c-2.21,0 -4,1.79 -4,4v8.11c0,2.21 1.79,4 4,4c2.21,0 4,-1.79 4,-4v-8.11c0,-2.21 -1.79,-4 -4,-4z" />
		</g>
	</g>
	<g id="Layer">
		<g id="Layer">
			<path id="Layer" class="shp0" d="M84.18,139.88c-2.21,0 -4,1.79 -4,4v8.11c0,2.21 1.79,4 4,4c2.21,0 4,-1.79 4,-4v-8.11c0,-2.21 -1.79,-4 -4,-4z" />
		</g>
	</g>
	<g id="Layer">
		<g id="Layer">
			<path id="Layer" class="shp0" d="M427.71,143.19c-2.21,0 -4,1.79 -4,4c0,33.33 -32.41,64.63 -51.95,64.63c-2.21,0 -4,1.79 -4,4c0,2.21 1.79,4 4,4c22.58,0 59.95,-33.94 59.95,-72.62c0,-2.21 -1.79,-4 -4,-4z" />
		</g>
	</g>
	<g id="Layer">
		<g id="Layer">
			<path id="Layer" class="shp0" d="M371.81,211.82c-17.2,0 -44.49,-24.87 -50.64,-52.81c-0.48,-2.15 -2.58,-3.52 -4.76,-3.04c-2.15,0.47 -3.52,2.61 -3.04,4.76c7.2,32.73 37.86,59.09 58.44,59.09c2.21,0 4,-1.79 4,-4c0,-2.21 -1.79,-4 -4,-4z" />
		</g>
	</g>
	<g id="Layer">
		<g id="Layer">
			<path id="Layer" class="shp0" d="M443.82,131.89c-2.21,0 -4,1.79 -4,4v87.92c0,2.21 1.79,4 4,4c2.21,0 4,-1.79 4,-4v-87.92c0,-2.21 -1.79,-4 -4,-4z" />
		</g>
	</g>
	<g id="Layer">
		<g id="Layer">
			<path id="Layer" class="shp0" d="M299.74,131.89c-2.21,0 -4,1.79 -4,4v87.92c0,2.21 1.79,4 4,4c2.21,0 4,-1.79 4,-4v-87.92c0,-2.21 -1.79,-4 -4,-4z" />
		</g>
	</g>
	<g id="Layer">
		<g id="Layer">
			<path id="Layer" class="shp0" d="M371.88,59.95c-2.21,0 -4,1.79 -4,4c0,2.21 1.79,4 4,4c37.46,0 67.94,30.48 67.94,67.94c0,2.21 1.79,4 4,4c2.21,0 4,-1.79 4,-4c0,-41.87 -34.06,-75.93 -75.93,-75.93z" />
		</g>
	</g>
	<g id="Layer">
		<g id="Layer">
			<path id="Layer" class="shp0" d="M371.68,59.95c-41.87,0 -75.93,34.07 -75.93,75.94c0,2.21 1.79,4 4,4c2.21,0 4,-1.79 4,-4c0,-37.46 30.48,-67.94 67.94,-67.94c2.21,0 4,-1.79 4,-4c0,-2.21 -1.79,-4 -4,-4z" />
		</g>
	</g>
	<g id="Layer">
		<g id="Layer">
			<path id="Layer" class="shp0" d="M428.56,85.34c-1.43,-1.68 -3.96,-1.89 -5.64,-0.46c-0.62,0.52 -62.8,52.71 -123.85,63.17c-2.18,0.37 -3.64,2.44 -3.27,4.61c0.34,1.95 2.03,3.32 3.94,3.32c0.23,0 0.45,-0.02 0.68,-0.06c63.24,-10.83 125.08,-62.75 127.68,-64.95c1.69,-1.42 1.89,-3.95 0.47,-5.63z" />
		</g>
	</g>
	<g id="Layer">
		<g id="Layer">
			<path id="Layer" class="shp0" d="M444.84,140.01c-36.34,-9.56 -54.83,-27.29 -55.01,-27.47c-1.58,-1.53 -4.1,-1.51 -5.65,0.07c-1.54,1.57 -1.51,4.1 0.06,5.64c0.8,0.78 20.03,19.34 58.58,29.49c0.34,0.09 0.68,0.13 1.01,0.13c1.77,0 3.4,-1.19 3.86,-2.98c0.56,-2.14 -0.71,-4.32 -2.85,-4.88z" />
		</g>
	</g>
	<g id="Layer">
		<g id="Layer">
			<path id="Layer" class="shp0" d="M427.71,134.71c-2.21,0 -4,1.79 -4,4v8.48c0,2.21 1.79,4 4,4c2.21,0 4,-1.79 4,-4v-8.48c0,-2.21 -1.79,-4 -4,-4z" />
		</g>
	</g>
	<g id="Layer">
		<g id="Layer">
			<path id="Layer" class="shp0" d="M427.63,229.88c-2.21,0 -4,1.79 -4,4v37.89c0,2.21 1.79,4 4,4c2.21,0 4,-1.79 4,-4v-37.89c0,-2.21 -1.79,-4 -4,-4z" />
		</g>
	</g>
	<g id="Layer">
		<g id="Layer">
			<path id="Layer" class="shp0" d="M315.82,229.88c-2.21,0 -4,1.79 -4,4v37.89c0,2.21 1.79,4 4,4c2.21,0 4,-1.79 4,-4v-37.89c0,-2.21 -1.79,-4 -4,-4z" />
		</g>
	</g>
	<g id="Layer">
	</g>
	<g id="Layer">
	</g>
	<g id="Layer">
	</g>
	<g id="Layer">
	</g>
	<g id="Layer">
	</g>
	<g id="Layer">
	</g>
	<g id="Layer">
	</g>
	<g id="Layer">
	</g>
	<g id="Layer">
	</g>
	<g id="Layer">
	</g>
	<g id="Layer">
	</g>
	<g id="Layer">
	</g>
	<g id="Layer">
	</g>
	<g id="Layer">
	</g>
	<g id="Layer">
	</g>
</svg>