<svg xmlns="http://www.w3.org/2000/svg" viewBox="0 0 512 512" width="512" height="512">
	<style>
		tspan { white-space:pre }
		.shp0 { fill: #ffffff } 
	</style>
	<g id="Layer">
		<g id="Layer">
			<path id="Layer" class="shp0" d="M45.81,152.43c-1.97,-0.99 -4.37,-0.18 -5.37,1.79l-8,16c-0.99,1.98 -0.19,4.38 1.79,5.37c0.57,0.29 1.18,0.42 1.78,0.42c1.47,0 2.88,-0.81 3.58,-2.21l8,-16c0.99,-1.98 0.19,-4.37 -1.79,-5.37z" />
		</g>
	</g>
	<g id="Layer">
		<g id="Layer">
			<path id="Layer" class="shp0" d="M479.56,170.22l-8,-16c-0.99,-1.97 -3.39,-2.78 -5.37,-1.79c-1.98,0.99 -2.77,3.39 -1.79,5.37l8,16c0.7,1.4 2.11,2.21 3.58,2.21c0.61,0 1.22,-0.13 1.79,-0.42c1.98,-0.99 2.77,-3.39 1.79,-5.37z" />
		</g>
	</g>
	<g id="Layer">
		<g id="Layer">
			<path id="Layer" class="shp0" d="M467.98,152.01h-423.96c-2.21,0 -4,1.79 -4,4c0,2.21 1.79,4 4,4h423.96c2.21,0 4,-1.79 4,-4c0,-2.21 -1.79,-4 -4,-4z" />
		</g>
	</g>
	<g id="Layer">
		<g id="Layer">
			<path id="Layer" class="shp0" d="M36.02,269.33c-2.21,0 -4,1.79 -4,4v194.65c0,2.21 1.79,4 4,4c2.21,0 4,-1.79 4,-4v-194.65c0,-2.21 -1.79,-4 -4,-4z" />
		</g>
	</g>
	<g id="Layer">
		<g id="Layer">
			<path id="Layer" class="shp0" d="M475.98,269.33c-2.21,0 -4,1.79 -4,4v194.65c0,2.21 1.79,4 4,4c2.21,0 4,-1.79 4,-4v-194.65c0,-2.21 -1.79,-4 -4,-4z" />
		</g>
	</g>
	<g id="Layer">
		<g id="Layer">
			<path id="Layer" class="shp0" d="M511.13,225.53l-31.56,-40c-0.76,-0.96 -1.92,-1.52 -3.14,-1.52h-439.96c-1.21,0 -2.35,0.55 -3.1,1.48l-32.43,40c-1.39,1.71 -1.13,4.24 0.59,5.63c1.72,1.4 4.24,1.13 5.63,-0.59l31.23,-38.51h436.11l30.36,38.47c0.79,1 1.96,1.52 3.14,1.52c0.88,0 1.74,-0.28 2.48,-0.86c1.73,-1.37 2.03,-3.88 0.66,-5.62z" />
		</g>
	</g>
	<g id="Layer">
		<g id="Layer">
			<path id="Layer" class="shp0" d="M32.04,240c-2.21,0 -4,1.79 -4,4c0,6.62 -5.38,12 -12,12c-3.46,0 -6.75,-1.49 -9.03,-4.09c-1.46,-1.67 -3.99,-1.82 -5.64,-0.37c-1.66,1.45 -1.83,3.98 -0.37,5.64c3.8,4.34 9.28,6.83 15.05,6.83c11.03,0 20,-8.97 20,-20c0,-2.21 -1.79,-4 -4,-4z" />
		</g>
	</g>
	<g id="Layer">
		<g id="Layer">
			<path id="Layer" class="shp0" d="M64.03,240c-2.21,0 -4,1.79 -4,4c0,6.62 -5.38,12 -12,12c-6.62,0 -12,-5.38 -12,-12c0,-2.21 -1.79,-4 -4,-4c-2.21,0 -4,1.79 -4,4c0,11.03 8.97,20 20,20c11.03,0 20,-8.97 20,-20c0,-2.21 -1.79,-4 -4,-4z" />
		</g>
	</g>
	<g id="Layer">
		<g id="Layer">
			<path id="Layer" class="shp0" d="M96.03,240c-2.21,0 -4,1.79 -4,4c0,6.62 -5.38,12 -12,12c-6.62,0 -12,-5.38 -12,-12c0,-2.21 -1.79,-4 -4,-4c-2.21,0 -4,1.79 -4,4c0,11.03 8.97,20 20,20c11.03,0 20,-8.97 20,-20c0,-2.21 -1.79,-4 -4,-4z" />
		</g>
	</g>
	<g id="Layer">
		<g id="Layer">
			<path id="Layer" class="shp0" d="M128.03,240c-2.21,0 -4,1.79 -4,4c0,6.62 -5.38,12 -12,12c-6.62,0 -12,-5.38 -12,-12c0,-2.21 -1.79,-4 -4,-4c-2.21,0 -4,1.79 -4,4c0,11.03 8.97,20 20,20c11.03,0 20,-8.97 20,-20c0,-2.21 -1.79,-4 -4,-4z" />
		</g>
	</g>
	<g id="Layer">
		<g id="Layer">
			<path id="Layer" class="shp0" d="M160.02,240c-2.21,0 -4,1.79 -4,4c0,6.62 -5.38,12 -12,12c-6.62,0 -12,-5.38 -12,-12c0,-2.21 -1.79,-4 -4,-4c-2.21,0 -4,1.79 -4,4c0,11.03 8.97,20 20,20c11.03,0 20,-8.97 20,-20c0,-2.21 -1.79,-4 -4,-4z" />
		</g>
	</g>
	<g id="Layer">
		<g id="Layer">
			<path id="Layer" class="shp0" d="M192.02,240c-2.21,0 -4,1.79 -4,4c0,6.62 -5.38,12 -12,12c-6.62,0 -12,-5.38 -12,-12c0,-2.21 -1.79,-4 -4,-4c-2.21,0 -4,1.79 -4,4c0,11.03 8.97,20 20,20c11.03,0 20,-8.97 20,-20c0,-2.21 -1.79,-4 -4,-4z" />
		</g>
	</g>
	<g id="Layer">
		<g id="Layer">
			<path id="Layer" class="shp0" d="M224.02,240c-2.21,0 -4,1.79 -4,4c0,6.62 -5.38,12 -12,12c-6.62,0 -12,-5.38 -12,-12c0,-2.21 -1.79,-4 -4,-4c-2.21,0 -4,1.79 -4,4c0,11.03 8.97,20 20,20c11.03,0 20,-8.97 20,-20c0,-2.21 -1.79,-4 -4,-4z" />
		</g>
	</g>
	<g id="Layer">
		<g id="Layer">
			<path id="Layer" class="shp0" d="M256.02,240c-2.21,0 -4,1.79 -4,4c0,6.62 -5.38,12 -12,12c-6.62,0 -12,-5.38 -12,-12c0,-2.21 -1.79,-4 -4,-4c-2.21,0 -4,1.79 -4,4c0,11.03 8.97,20 20,20c11.03,0 20,-8.97 20,-20c0,-2.21 -1.79,-4 -4,-4z" />
		</g>
	</g>
	<g id="Layer">
		<g id="Layer">
			<path id="Layer" class="shp0" d="M288.01,240c-2.21,0 -4,1.79 -4,4c0,6.62 -5.38,12 -12,12c-6.62,0 -12,-5.38 -12,-12c0,-2.21 -1.79,-4 -4,-4c-2.21,0 -4,1.79 -4,4c0,11.03 8.97,20 20,20c11.03,0 20,-8.97 20,-20c0,-2.21 -1.79,-4 -4,-4z" />
		</g>
	</g>
	<g id="Layer">
		<g id="Layer">
			<path id="Layer" class="shp0" d="M320.01,240c-2.21,0 -4,1.79 -4,4c0,6.62 -5.38,12 -12,12c-6.62,0 -12,-5.38 -12,-12c0,-2.21 -1.79,-4 -4,-4c-2.21,0 -4,1.79 -4,4c0,11.03 8.97,20 20,20c11.03,0 20,-8.97 20,-20c0,-2.21 -1.79,-4 -4,-4z" />
		</g>
	</g>
	<g id="Layer">
		<g id="Layer">
			<path id="Layer" class="shp0" d="M352.01,240c-2.21,0 -4,1.79 -4,4c0,6.62 -5.38,12 -12,12c-6.62,0 -12,-5.38 -12,-12c0,-2.21 -1.79,-4 -4,-4c-2.21,0 -4,1.79 -4,4c0,11.03 8.97,20 20,20c11.03,0 20,-8.97 20,-20c0,-2.21 -1.79,-4 -4,-4z" />
		</g>
	</g>
	<g id="Layer">
		<g id="Layer">
			<path id="Layer" class="shp0" d="M384,240c-2.21,0 -4,1.79 -4,4c0,6.62 -5.38,12 -12,12c-6.62,0 -12,-5.38 -12,-12c0,-2.21 -1.79,-4 -4,-4c-2.21,0 -4,1.79 -4,4c0,11.03 8.97,20 20,20c11.03,0 20,-8.97 20,-20c0,-2.21 -1.79,-4 -4,-4z" />
		</g>
	</g>
	<g id="Layer">
		<g id="Layer">
			<path id="Layer" class="shp0" d="M416,240c-2.21,0 -4,1.79 -4,4c0,6.62 -5.38,12 -12,12c-6.62,0 -12,-5.38 -12,-12c0,-2.21 -1.79,-4 -4,-4c-2.21,0 -4,1.79 -4,4c0,11.03 8.97,20 20,20c11.03,0 20,-8.97 20,-20c0,-2.21 -1.79,-4 -4,-4z" />
		</g>
	</g>
	<g id="Layer">
		<g id="Layer">
			<path id="Layer" class="shp0" d="M448,240c-2.21,0 -4,1.79 -4,4c0,6.62 -5.38,12 -12,12c-6.62,0 -12,-5.38 -12,-12c0,-2.21 -1.79,-4 -4,-4c-2.21,0 -4,1.79 -4,4c0,11.03 8.97,20 20,20c11.03,0 20,-8.97 20,-20c0,-2.21 -1.79,-4 -4,-4z" />
		</g>
	</g>
	<g id="Layer">
		<g id="Layer">
			<path id="Layer" class="shp0" d="M479.99,240c-2.21,0 -4,1.79 -4,4c0,6.62 -5.38,12 -12,12c-6.62,0 -12,-5.38 -12,-12c0,-2.21 -1.79,-4 -4,-4c-2.21,0 -4,1.79 -4,4c0,11.03 8.97,20 20,20c11.03,0 20,-8.97 20,-20c0,-2.21 -1.79,-4 -4,-4z" />
		</g>
	</g>
	<g id="Layer">
		<g id="Layer">
			<path id="Layer" class="shp0" d="M510.65,251.57c-1.66,-1.47 -4.19,-1.31 -5.66,0.36c-2.27,2.59 -5.55,4.07 -9,4.07c-6.62,0 -12,-5.38 -12,-12c0,-2.21 -1.79,-4 -4,-4c-2.21,0 -4,1.79 -4,4c0,11.03 8.97,20 20,20c5.74,0 11.22,-2.48 15.01,-6.79c1.45,-1.66 1.3,-4.18 -0.36,-5.64z" />
		</g>
	</g>
	<g id="Layer">
		<g id="Layer">
			<path id="Layer" class="shp0" d="M4.04,224c-2.21,0 -4,1.79 -4,4v26.54c0,2.21 1.79,4 4,4c2.21,0 4,-1.79 4,-4v-26.54c0,-2.21 -1.79,-4 -4,-4z" />
		</g>
	</g>
	<g id="Layer">
		<g id="Layer">
			<path id="Layer" class="shp0" d="M492.43,224h-471.95c-2.21,0 -4,1.79 -4,4c0,2.21 1.79,4 4,4h471.95c2.21,0 4,-1.79 4,-4c0,-2.21 -1.79,-4 -4,-4z" />
		</g>
	</g>
	<g id="Layer">
		<g id="Layer">
			<path id="Layer" class="shp0" d="M507.99,224c-2.21,0 -4,1.79 -4,4v26.57c0,2.21 1.79,4 4,4c2.21,0 4,-1.79 4,-4v-26.57c0,-2.21 -1.79,-4 -4,-4z" />
		</g>
	</g>
	<g id="Layer">
		<g id="Layer">
			<path id="Layer" class="shp0" d="M83.87,192.43c-1.97,-0.99 -4.38,-0.19 -5.37,1.79l-12.03,24c-0.99,1.97 -0.19,4.37 1.78,5.37c0.57,0.29 1.19,0.42 1.79,0.42c1.47,0 2.88,-0.81 3.58,-2.21l12.03,-24c0.99,-1.97 0.19,-4.37 -1.78,-5.37z" />
		</g>
	</g>
	<g id="Layer">
		<g id="Layer">
			<path id="Layer" class="shp0" d="M112.62,192.32c-2.03,-0.85 -4.37,0.1 -5.23,2.14l-10.04,24c-0.85,2.04 0.11,4.38 2.15,5.23c0.5,0.21 1.03,0.31 1.54,0.31c1.56,0 3.05,-0.92 3.69,-2.45l10.04,-24c0.85,-2.04 -0.11,-4.38 -2.15,-5.23z" />
		</g>
	</g>
	<g id="Layer">
		<g id="Layer">
			<path id="Layer" class="shp0" d="M141.29,192.3c-2.11,-0.69 -4.36,0.43 -5.06,2.53l-8,23.94c-0.7,2.09 0.43,4.36 2.52,5.06c0.42,0.14 0.85,0.2 1.27,0.2c1.68,0 3.24,-1.06 3.79,-2.74l8,-23.93c0.7,-2.09 -0.43,-4.36 -2.52,-5.06z" />
		</g>
	</g>
	<g id="Layer">
		<g id="Layer">
			<path id="Layer" class="shp0" d="M170,192.12c-2.16,-0.51 -4.32,0.76 -4.85,2.91l-6.01,24c-0.54,2.14 0.76,4.31 2.91,4.85c0.33,0.08 0.65,0.12 0.98,0.12c1.79,0 3.42,-1.21 3.88,-3.03l6.01,-24c0.54,-2.14 -0.77,-4.31 -2.91,-4.85z" />
		</g>
	</g>
	<g id="Layer">
		<g id="Layer">
			<path id="Layer" class="shp0" d="M198.68,192.06c-2.18,-0.37 -4.24,1.1 -4.6,3.29l-4,24c-0.36,2.18 1.11,4.24 3.29,4.6c0.22,0.04 0.44,0.06 0.66,0.06c1.92,0 3.62,-1.38 3.94,-3.34l4,-24c0.36,-2.18 -1.11,-4.24 -3.29,-4.6z" />
		</g>
	</g>
	<g id="Layer">
		<g id="Layer">
			<path id="Layer" class="shp0" d="M227.34,192.02c-2.29,-0.15 -4.13,1.45 -4.31,3.65l-2,24c-0.18,2.2 1.45,4.14 3.65,4.32c0.11,0.01 0.23,0.02 0.34,0.02c2.06,0 3.81,-1.58 3.98,-3.66l2,-24c0.18,-2.2 -1.45,-4.14 -3.65,-4.32z" />
		</g>
	</g>
	<g id="Layer">
		<g id="Layer">
			<path id="Layer" class="shp0" d="M256.02,192c-2.21,0 -4,1.79 -4,4v24c0,2.21 1.79,4 4,4c2.21,0 4,-1.79 4,-4v-24c0,-2.21 -1.79,-4 -4,-4z" />
		</g>
	</g>
	<g id="Layer">
		<g id="Layer">
			<path id="Layer" class="shp0" d="M55.1,192.55c-1.91,-1.13 -4.36,-0.48 -5.47,1.44l-14.03,24c-1.11,1.91 -0.47,4.35 1.43,5.47c0.64,0.38 1.33,0.55 2.02,0.55c1.38,0 2.72,-0.71 3.46,-1.98l14.03,-24c1.11,-1.91 0.47,-4.35 -1.43,-5.47z" />
		</g>
	</g>
	<g id="Layer">
		<g id="Layer">
			<path id="Layer" class="shp0" d="M445.56,218.21l-12.03,-24.01c-0.98,-1.97 -3.39,-2.76 -5.37,-1.78c-1.97,0.99 -2.76,3.4 -1.78,5.38l12.05,24c0.69,1.4 2.11,2.2 3.58,2.2c0.59,0 1.21,-0.13 1.78,-0.42c1.98,-0.99 2.78,-3.4 1.78,-5.37z" />
		</g>
	</g>
	<g id="Layer">
		<g id="Layer">
			<path id="Layer" class="shp0" d="M414.69,218.46l-10.05,-24.01c-0.86,-2.03 -3.19,-2.98 -5.23,-2.14c-2.05,0.85 -3,3.19 -2.16,5.23l10.05,24c0.65,1.53 2.13,2.45 3.69,2.45c0.52,0 1.04,-0.1 1.54,-0.31c2.05,-0.85 3,-3.19 2.16,-5.23z" />
		</g>
	</g>
	<g id="Layer">
		<g id="Layer">
			<path id="Layer" class="shp0" d="M383.78,218.74l-8.05,-24.01c-0.7,-2.09 -2.97,-3.25 -5.06,-2.51c-2.09,0.69 -3.22,2.97 -2.52,5.06l8.05,24c0.56,1.67 2.12,2.73 3.79,2.73c0.42,0 0.85,-0.06 1.27,-0.21c2.09,-0.7 3.22,-2.97 2.51,-5.06z" />
		</g>
	</g>
	<g id="Layer">
		<g id="Layer">
			<path id="Layer" class="shp0" d="M352.88,219.04l-6,-24.01c-0.53,-2.15 -2.7,-3.43 -4.84,-2.91c-2.14,0.54 -3.45,2.71 -2.91,4.85l6,24c0.45,1.82 2.08,3.03 3.88,3.03c0.31,0 0.64,-0.04 0.97,-0.12c2.14,-0.54 3.45,-2.71 2.91,-4.85z" />
		</g>
	</g>
	<g id="Layer">
		<g id="Layer">
			<path id="Layer" class="shp0" d="M321.95,219.36l-4,-24.01c-0.37,-2.19 -2.44,-3.66 -4.6,-3.29c-2.18,0.36 -3.66,2.42 -3.29,4.6l4,24c0.32,1.96 2.02,3.34 3.94,3.34c0.22,0 0.44,-0.02 0.66,-0.05c2.18,-0.36 3.66,-2.42 3.29,-4.6z" />
		</g>
	</g>
	<g id="Layer">
		<g id="Layer">
			<path id="Layer" class="shp0" d="M289,195.67c-0.18,-2.19 -2.09,-3.8 -4.31,-3.65c-2.2,0.18 -3.84,2.12 -3.65,4.32l2,24c0.17,2.09 1.92,3.66 3.98,3.66c0.11,0 0.22,-0.01 0.33,-0.02c2.2,-0.18 3.84,-2.12 3.66,-4.32z" />
		</g>
	</g>
	<g id="Layer">
		<g id="Layer">
			<path id="Layer" class="shp0" d="M476.44,217.99l-14.05,-24.01c-1.12,-1.91 -3.57,-2.54 -5.48,-1.43c-1.91,1.12 -2.55,3.56 -1.43,5.48l14.05,24c0.74,1.26 2.09,1.98 3.46,1.98c0.69,0 1.38,-0.18 2.02,-0.55c1.91,-1.12 2.55,-3.56 1.43,-5.48z" />
		</g>
	</g>
	<g id="Layer">
		<g id="Layer">
			<path id="Layer" class="shp0" d="M84.03,327.99c-2.21,0 -4,1.79 -4,4v135.99c0,2.21 1.79,4 4,4c2.21,0 4,-1.79 4,-4v-135.99c0,-2.21 -1.79,-4 -4,-4z" />
		</g>
	</g>
	<g id="Layer">
		<g id="Layer">
			<path id="Layer" class="shp0" d="M172.02,327.99c-2.21,0 -4,1.79 -4,4v135.99c0,2.21 1.79,4 4,4c2.21,0 4,-1.79 4,-4v-135.99c0,-2.21 -1.79,-4 -4,-4z" />
		</g>
	</g>
	<g id="Layer">
		<g id="Layer">
			<path id="Layer" class="shp0" d="M172.02,327.99h-87.99c-2.21,0 -4,1.79 -4,4c0,2.21 1.79,4 4,4h87.99c2.21,0 4,-1.79 4,-4c0,-2.21 -1.79,-4 -4,-4z" />
		</g>
	</g>
	<g id="Layer">
		<g id="Layer">
			<path id="Layer" class="shp0" d="M431.98,300v111.99c0,2.21 -1.79,4 -4,4h-207.98c-2.21,0 -4,-1.79 -4,-4v-111.99c0,-2.21 1.79,-4 4,-4h207.98c2.21,0 4,1.79 4,4zM423.98,303.99h-199.98v103.99h199.98z" />
		</g>
	</g>
	<g id="Layer">
		<g id="Layer">
			<path id="Layer" class="shp0" d="M176.01,300v16c0,2.21 -1.79,4 -4,4h-87.99c-2.21,0 -4,-1.79 -4,-4v-16c0,-2.21 1.79,-4 4,-4h87.99c2.21,0 4,1.79 4,4zM168.01,303.99h-79.99v8h79.99z" />
		</g>
	</g>
	<g id="Layer">
		<g id="Layer">
			<path id="Layer" class="shp0" d="M156.02,399.99h-55.99c-2.21,0 -4,1.79 -4,4c0,2.21 1.79,4 4,4h56c2.21,0 4,-1.79 4,-4c0,-2.21 -1.79,-4 -4,-4z" />
		</g>
	</g>
	<g id="Layer">
		<g id="Layer">
			<path id="Layer" class="shp0" d="M180.01,479.98h-103.99c-2.21,0 -4,1.79 -4,4c0,2.21 1.79,4 4,4h103.99c2.21,0 4,-1.79 4,-4c0,-2.21 -1.79,-4 -4,-4z" />
		</g>
	</g>
	<g id="Layer">
		<g id="Layer">
			<path id="Layer" class="shp0" d="M196.01,495.98h-135.99c-2.21,0 -4,1.79 -4,4c0,2.21 1.79,4 4,4h135.99c2.21,0 4,-1.79 4,-4c0,-2.21 -1.79,-4 -4,-4z" />
		</g>
	</g>
	<g id="Layer">
		<g id="Layer">
			<path id="Layer" class="shp0" d="M52.02,463.98h-24c-2.21,0 -4,1.79 -4,4c0,2.21 1.79,4 4,4h24c2.21,0 4,-1.79 4,-4c0,-2.21 -1.79,-4 -4,-4z" />
		</g>
	</g>
	<g id="Layer">
		<g id="Layer">
			<path id="Layer" class="shp0" d="M28.02,463.98c-2.21,0 -4,1.79 -4,4v16c0,2.21 1.79,4 4,4c2.21,0 4,-1.79 4,-4v-16c0,-2.21 -1.79,-4 -4,-4z" />
		</g>
	</g>
	<g id="Layer">
		<g id="Layer">
			<path id="Layer" class="shp0" d="M60.02,479.98h-32c-2.21,0 -4,1.79 -4,4c0,2.21 1.79,4 4,4h32c2.21,0 4,-1.79 4,-4c0,-2.21 -1.79,-4 -4,-4z" />
		</g>
	</g>
	<g id="Layer">
		<g id="Layer">
			<path id="Layer" class="shp0" d="M483.98,463.98h-24c-2.21,0 -4,1.79 -4,4c0,2.21 1.79,4 4,4h24c2.21,0 4,-1.79 4,-4c0,-2.21 -1.79,-4 -4,-4z" />
		</g>
	</g>
	<g id="Layer">
		<g id="Layer">
			<path id="Layer" class="shp0" d="M483.98,463.98c-2.21,0 -4,1.79 -4,4v16c0,2.21 1.79,4 4,4c2.21,0 4,-1.79 4,-4v-16c0,-2.21 -1.79,-4 -4,-4z" />
		</g>
	</g>
	<g id="Layer">
		<g id="Layer">
			<path id="Layer" class="shp0" d="M483.98,479.98h-287.97c-2.21,0 -4,1.79 -4,4c0,2.21 1.79,4 4,4h287.97c2.21,0 4,-1.79 4,-4c0,-2.21 -1.79,-4 -4,-4z" />
		</g>
	</g>
	<g id="Layer">
		<g id="Layer">
			<path id="Layer" class="shp0" d="M110.84,345.16c-1.56,-1.56 -4.09,-1.56 -5.66,0l-8,8c-1.56,1.56 -1.56,4.09 0,5.66c0.78,0.78 1.8,1.17 2.83,1.17c1.02,0 2.05,-0.39 2.83,-1.17l8,-8c1.56,-1.56 1.56,-4.09 0,-5.66z" />
		</g>
	</g>
	<g id="Layer">
		<g id="Layer">
			<path id="Layer" class="shp0" d="M126.84,345.16c-1.56,-1.56 -4.09,-1.56 -5.66,0l-23.99,23.99c-1.56,1.56 -1.56,4.09 0,5.66c0.78,0.78 1.8,1.17 2.83,1.17c1.02,0 2.05,-0.39 2.83,-1.17l23.99,-23.99c1.56,-1.56 1.56,-4.09 0,-5.65z" />
		</g>
	</g>
	<g id="Layer">
		<g id="Layer">
			<path id="Layer" class="shp0" d="M254.83,313.17c-1.56,-1.56 -4.09,-1.56 -5.66,0l-16,16c-1.56,1.56 -1.56,4.09 0,5.66c0.78,0.78 1.81,1.17 2.83,1.17c1.02,0 2.05,-0.39 2.83,-1.17l16,-16c1.56,-1.56 1.56,-4.09 0,-5.66z" />
		</g>
	</g>
	<g id="Layer">
		<g id="Layer">
			<path id="Layer" class="shp0" d="M278.82,313.17c-1.56,-1.56 -4.09,-1.56 -5.65,0l-39.99,39.99c-1.56,1.56 -1.56,4.09 0,5.66c0.78,0.78 1.81,1.17 2.83,1.17c1.02,0 2.05,-0.39 2.83,-1.17l39.99,-39.99c1.56,-1.56 1.56,-4.09 0,-5.66z" />
		</g>
	</g>
	<g id="Layer">
		<g id="Layer">
			<path id="Layer" class="shp0" d="M427.98,455.98h-207.98c-2.21,0 -4,1.79 -4,4v8c0,2.21 1.79,4 4,4c2.21,0 4,-1.79 4,-4v-4h199.98v4c0,2.21 1.79,4 4,4c2.21,0 4,-1.79 4,-4v-8c0,-2.21 -1.79,-4 -4,-4z" />
		</g>
	</g>
	<g id="Layer">
		<g id="Layer">
			<path id="Layer" class="shp0" d="M272,435.98c0,6.62 -5.38,12 -12,12c-6.62,0 -12,-5.38 -12,-12c0,-6.62 5.38,-12 12,-12c6.62,0 12,5.38 12,12zM264,435.98c0,-2.2 -1.79,-4 -4,-4c-2.21,0 -4,1.8 -4,4c0,2.2 1.79,4 4,4c2.21,0 4,-1.8 4,-4z" />
		</g>
	</g>
	<g id="Layer">
		<g id="Layer">
			<path id="Layer" class="shp0" d="M260,439.98c-2.21,0 -4,1.79 -4,4v16c0,2.21 1.79,4 4,4c2.21,0 4,-1.79 4,-4v-16c0,-2.21 -1.79,-4 -4,-4z" />
		</g>
	</g>
	<g id="Layer">
		<g id="Layer">
			<path id="Layer" class="shp0" d="M335.99,435.98c0,6.62 -5.38,12 -12,12c-6.62,0 -12,-5.38 -12,-12c0,-6.62 5.38,-12 12,-12c6.62,0 12,5.38 12,12zM327.99,435.98c0,-2.2 -1.8,-4 -4,-4c-2.2,0 -4,1.8 -4,4c0,2.2 1.8,4 4,4c2.2,0 4,-1.8 4,-4z" />
		</g>
	</g>
	<g id="Layer">
		<g id="Layer">
			<path id="Layer" class="shp0" d="M323.99,439.98c-2.21,0 -4,1.79 -4,4v16c0,2.21 1.79,4 4,4c2.21,0 4,-1.79 4,-4v-16c0,-2.21 -1.79,-4 -4,-4z" />
		</g>
	</g>
	<g id="Layer">
		<g id="Layer">
			<path id="Layer" class="shp0" d="M399.98,435.98c0,6.62 -5.38,12 -12,12c-6.62,0 -12,-5.38 -12,-12c0,-6.62 5.38,-12 12,-12c6.62,0 12,5.38 12,12zM391.99,435.98c0,-2.2 -1.8,-4 -4,-4c-2.2,0 -4,1.8 -4,4c0,2.2 1.8,4 4,4c2.2,0 4,-1.8 4,-4z" />
		</g>
	</g>
	<g id="Layer">
		<g id="Layer">
			<path id="Layer" class="shp0" d="M387.99,439.98c-2.21,0 -4,1.79 -4,4v16c0,2.21 1.79,4 4,4c2.21,0 4,-1.79 4,-4v-16c0,-2.21 -1.79,-4 -4,-4z" />
		</g>
	</g>
	<g id="Layer">
		<g id="Layer">
			<path id="Layer" class="shp0" d="M244,447.98c-2.21,0 -4,1.79 -4,4v8c0,2.21 1.79,4 4,4c2.21,0 4,-1.79 4,-4v-8c0,-2.21 -1.79,-4 -4,-4z" />
		</g>
	</g>
	<g id="Layer">
		<g id="Layer">
			<path id="Layer" class="shp0" d="M228,439.98c-2.21,0 -4,1.79 -4,4v16c0,2.21 1.79,4 4,4c2.21,0 4,-1.79 4,-4v-16c0,-2.21 -1.79,-4 -4,-4z" />
		</g>
	</g>
	<g id="Layer">
		<g id="Layer">
			<path id="Layer" class="shp0" d="M419.98,439.98c-2.21,0 -4,1.79 -4,4v16c0,2.21 1.79,4 4,4c2.21,0 4,-1.79 4,-4v-16c0,-2.21 -1.79,-4 -4,-4z" />
		</g>
	</g>
	<g id="Layer">
		<g id="Layer">
			<path id="Layer" class="shp0" d="M276,447.98c-2.21,0 -4,1.79 -4,4v8c0,2.21 1.79,4 4,4c2.21,0 4,-1.79 4,-4v-8c0,-2.21 -1.79,-4 -4,-4z" />
		</g>
	</g>
	<g id="Layer">
		<g id="Layer">
			<path id="Layer" class="shp0" d="M292,439.98c-2.21,0 -4,1.79 -4,4v16c0,2.21 1.79,4 4,4c2.21,0 4,-1.79 4,-4v-16c0,-2.21 -1.79,-4 -4,-4z" />
		</g>
	</g>
	<g id="Layer">
		<g id="Layer">
			<path id="Layer" class="shp0" d="M355.99,439.98c-2.21,0 -4,1.79 -4,4v16c0,2.21 1.79,4 4,4c2.21,0 4,-1.79 4,-4v-16c0,-2.21 -1.79,-4 -4,-4z" />
		</g>
	</g>
	<g id="Layer">
		<g id="Layer">
			<path id="Layer" class="shp0" d="M307.99,447.98c-2.21,0 -4,1.79 -4,4v8c0,2.21 1.79,4 4,4c2.21,0 4,-1.79 4,-4v-8c0,-2.21 -1.79,-4 -4,-4z" />
		</g>
	</g>
	<g id="Layer">
		<g id="Layer">
			<path id="Layer" class="shp0" d="M339.99,447.98c-2.21,0 -4,1.79 -4,4v8c0,2.21 1.79,4 4,4c2.21,0 4,-1.79 4,-4v-8c0,-2.21 -1.79,-4 -4,-4z" />
		</g>
	</g>
	<g id="Layer">
		<g id="Layer">
			<path id="Layer" class="shp0" d="M371.99,447.98c-2.21,0 -4,1.79 -4,4v8c0,2.21 1.79,4 4,4c2.21,0 4,-1.79 4,-4v-8c0,-2.21 -1.79,-4 -4,-4z" />
		</g>
	</g>
	<g id="Layer">
		<g id="Layer">
			<path id="Layer" class="shp0" d="M403.98,447.98c-2.21,0 -4,1.79 -4,4v8c0,2.21 1.79,4 4,4c2.21,0 4,-1.79 4,-4v-8c0,-2.21 -1.79,-4 -4,-4z" />
		</g>
	</g>
	<g id="Layer">
		<g id="Layer">
			<path id="Layer" class="shp0" d="M323.99,76.02c0,37.49 -30.5,67.99 -67.99,67.99c-37.49,0 -67.99,-30.5 -67.99,-67.99c0,-37.49 30.5,-67.99 67.99,-67.99c37.5,0 67.99,30.5 67.99,67.99zM315.99,76.02c0,-33.08 -26.91,-59.99 -59.99,-59.99c-33.08,0 -59.99,26.91 -59.99,59.99c0,33.08 26.91,59.99 59.99,59.99c33.08,0 59.99,-26.91 59.99,-59.99z" />
		</g>
	</g>
	<g id="Layer">
		<g id="Layer">
			<path id="Layer" class="shp0" d="M256,136.01c-2.21,0 -4,1.79 -4,4v16c0,2.21 1.79,4 4,4c2.21,0 4,-1.79 4,-4v-16c0,-2.21 -1.79,-4 -4,-4z" />
		</g>
	</g>
	<g id="Layer">
		<g id="Layer">
			<path id="Layer" class="shp0" d="M288.15,108.01c0,2.21 -1.79,4 -4,4c-0.05,0 -56.09,0 -56.15,0c-1.2,0 -2.33,-0.54 -3.09,-1.46c-0.76,-0.93 -1.06,-2.15 -0.83,-3.32l8,-40c0.38,-1.87 2.02,-3.22 3.92,-3.22h39.99c1.9,0 3.55,1.34 3.92,3.22l7.79,38.93c0.29,0.55 0.44,1.18 0.45,1.84zM279.12,104.01l-6.4,-32h-33.44l-6.4,32z" />
		</g>
	</g>
	<g id="Layer">
		<g id="Layer">
			<path id="Layer" class="shp0" d="M256,40.02c-6.62,0 -12,5.38 -12,12c0,2.21 1.79,4 4,4c2.21,0 4,-1.79 4,-4c0,-2.2 1.79,-4 4,-4c2.21,0 4,1.8 4,4c0,2.21 1.79,4 4,4c2.21,0 4,-1.79 4,-4c0,-6.62 -5.38,-12 -12,-12z" />
		</g>
	</g>
	<g id="Layer">
	</g>
	<g id="Layer">
	</g>
	<g id="Layer">
	</g>
	<g id="Layer">
	</g>
	<g id="Layer">
	</g>
	<g id="Layer">
	</g>
	<g id="Layer">
	</g>
	<g id="Layer">
	</g>
	<g id="Layer">
	</g>
	<g id="Layer">
	</g>
	<g id="Layer">
	</g>
	<g id="Layer">
	</g>
	<g id="Layer">
	</g>
	<g id="Layer">
	</g>
	<g id="Layer">
	</g>
</svg>