<svg id="svg3967" xmlns="http://www.w3.org/2000/svg" viewBox="0 0 58.22 51.58"><defs><style>.cls-1{fill:#1b1918;}</style></defs><title>favicon</title><g id="layer1"><g id="Layer1008"><path id="path262" class="cls-1" d="M56.92,9.8V8.67c2.65,0,5.29,0,7.93,0,3.47,0,7.2,0,7.91,4.06a26.06,26.06,0,0,1,.12,4c0,2.14.18,4-1.65,5.42a6.42,6.42,0,0,0-.64.41,5.15,5.15,0,0,1,2.46,2.09,7.15,7.15,0,0,1,.71,3.95c0,1.5.06,3.12,0,4.61-.2,4.7-3.54,5.7-8,5.7-3,0-6.08.06-9.08,0l0-1.25,1.9-1.31c.08-2.27,0-4.73,0-7V11.71c0-1,.08-.65-1.11-1.49l-.24-.17c-.27-.18-.19-.17-.25-.25ZM30.21,8.53h4.45c1.46,0,3.05-.24,3.68.83A14.55,14.55,0,0,1,39.21,13c.7,3.89,1.37,7.85,1.92,11.77.19,1.33.38,2.7.54,4,.09.68.18,1.37.26,2a9.74,9.74,0,0,0,.28,2c.14-.22,2.79-16.7,3.26-19.64a19,19,0,0,1,.78-3.8c.59-1.17,2.15-.85,3.65-.87s3,0,4.5,0V9.79a5.2,5.2,0,0,0-.82.53,8.68,8.68,0,0,0-.79.56v25c1.55,1.41,2,.62,1.82,2.52l-7.9,0,0-1.23c.22-.2.67-.48.91-.65a7.21,7.21,0,0,0,.92-.66c.05-.13,0-18.94,0-21.37,0-.49,0-1,0-1.46a10.82,10.82,0,0,0,0-1.39l0-.08c-.18.07-.16.33-.23.71s-.1.55-.14.84L44.47,34.68c-.09.54-.19,1.09-.28,1.64A7.14,7.14,0,0,1,43.84,38c-.85,0-3.65.13-4.19-.17S39.08,37,39,36.3s-.2-1.28-.31-1.93c-1.25-7.48-2.44-14.78-3.79-22.24,0-.25,0-.28-.23-.28-.07.31.18,5,.18,5.82v6.11c0,4-.07,8.14,0,12.17l1.73,1.11v1.32H30.13V37.06L31.86,36v-25a9.62,9.62,0,0,0-1.65-1.14Zm-7,14V28c0,.18.06,3.93.07,4.5,0,1.49.06,3,.1,4.46s.08,2.91.13,4.37c0,.81.13,3.69.18,4.3.46,0,3.12-.46,3.27-.36.07.34.15,3.67.16,4.29.16,0,1.29-.11,1.54-.13L33.37,49a197.22,197.22,0,0,1,31.78-.65c3.63.24,7.21.6,10.83,1a11.69,11.69,0,0,0,1.55.18l.11-4.21c.33-.07,3.12.36,3.32.27.19-3,.33-7.54.4-10.65.17-7.43.13-14.81,0-22.23-.09-3.64-.21-7.27-.29-10.9l-3.44.57L77.49-2c-1,.07-2.06.25-3.07.36A189.09,189.09,0,0,1,52.33,0c-2.14,0-4.28-.11-6.42-.22S41.7-.53,39.59-.68s-4.15-.4-6.21-.62l-3.09-.35C30-1.68,27.41-2,27.18-2c-.06,1.43-.08,3-.09,4.42l-3.43-.59c0,.25-.06,2.13-.07,2.53-.1,4.26-.22,8.61-.28,12.86,0,.61,0,5.1-.07,5.25Z" transform="translate(-23.24 2)"/><path id="path266" class="cls-1" d="M62,36.38a34.88,34.88,0,0,0,3.59,0A6.31,6.31,0,0,0,68.72,36c1.76-1,1.52-3.42,1.52-5.81,0-2.16.32-5.16-1-6.38a4,4,0,0,0-2.71-.91c-1.15,0-2.42,0-3.58,0-.08,1.59,0,5.45,0,7.29a43.43,43.43,0,0,1-.11,5.28c-.3.8-.85.46-.85,1Z" transform="translate(-23.24 2)"/><path id="path268" class="cls-1" d="M63,22.06c1,0,2,0,3,0,3.59,0,3.33-2.26,3.33-5.84,0-2.11.27-3.91-1-5.14a2.83,2.83,0,0,0-2.28-.7c-1,0-2,0-3,0Z" transform="translate(-23.24 2)"/></g></g></svg>