<?xml version="1.0" encoding="UTF-8" standalone="no"?>
<!-- Created with Inkscape (http://www.inkscape.org/) -->

<svg
   xmlns:dc="http://purl.org/dc/elements/1.1/"
   xmlns:cc="http://creativecommons.org/ns#"
   xmlns:rdf="http://www.w3.org/1999/02/22-rdf-syntax-ns#"
   xmlns:svg="http://www.w3.org/2000/svg"
   xmlns="http://www.w3.org/2000/svg"
   xmlns:sodipodi="http://sodipodi.sourceforge.net/DTD/sodipodi-0.dtd"
   xmlns:inkscape="http://www.inkscape.org/namespaces/inkscape"
   width="37.500008mm"
   height="18.196646mm"
   viewBox="0 0 37.500008 18.196646"
   version="1.1"
   id="svg3967"
   inkscape:version="0.92.1 r15371"
   sodipodi:docname="logo.svg">
  <defs
     id="defs3961" />
  <sodipodi:namedview
     id="base"
     pagecolor="#ffffff"
     bordercolor="#666666"
     borderopacity="1.0"
     inkscape:pageopacity="0.0"
     inkscape:pageshadow="2"
     inkscape:zoom="3.959798"
     inkscape:cx="92.042201"
     inkscape:cy="28.110456"
     inkscape:document-units="mm"
     inkscape:current-layer="layer1"
     showgrid="false"
     inkscape:window-width="1920"
     inkscape:window-height="1017"
     inkscape:window-x="-8"
     inkscape:window-y="-8"
     inkscape:window-maximized="1" />
  <metadata
     id="metadata3964">
    <rdf:RDF>
      <cc:Work
         rdf:about="">
        <dc:format>image/svg+xml</dc:format>
        <dc:type
           rdf:resource="http://purl.org/dc/dcmitype/StillImage" />
        <dc:title></dc:title>
      </cc:Work>
    </rdf:RDF>
  </metadata>
  <g
     inkscape:label="Layer 1"
     inkscape:groupmode="layer"
     id="layer1"
     transform="translate(-96.154759,-107.98501)">
    <g
       transform="matrix(0.26458333,0,0,0.26458333,85.528722,-29.246928)"
       id="Layer1008">
      <path
         d="m 41.9665,551.275 v 7.2148 c 0.0914,0.2339 0.1317,5.1218 0.1556,5.8668 0.0622,1.9438 0.1353,3.8723 0.2296,5.8131 0.0931,1.9127 0.2085,3.7951 0.3257,5.7019 0.0644,1.0476 0.2954,4.7998 0.4222,5.6014 1.085,0.0117 7.416,-0.6012 7.7727,-0.4679 0.1724,0.4333 0.3553,4.7761 0.3825,5.5849 0.375,0.025 3.0697,-0.1423 3.6667,-0.1742 l 11.1424,-0.547 c 25.6879,-1.2613 49.8238,-1.8055 75.6097,-0.8459 8.6423,0.3217 17.1665,0.7928 25.7798,1.3377 1.1457,0.0724 2.553,0.2418 3.6777,0.2319 l 0.2644,-5.4884 c 0.7933,-0.0865 7.4401,0.4752 7.8995,0.3485 0.4472,-3.9712 0.7854,-9.8239 0.9531,-13.8735 0.4011,-9.6846 0.3076,-19.2977 -0.1265,-28.9794 -0.2126,-4.7417 -0.4929,-9.4747 -0.6745,-14.2065 l -8.1847,0.7504 -0.2221,-5.7748 c -2.4114,0.0916 -4.8909,0.3227 -7.3048,0.4715 -17.7996,1.0969 -34.5017,2.202 -52.5484,2.1688 -5.1072,-0.01 -10.1877,-0.1329 -15.2855,-0.2851 -5.0262,-0.15 -10.0167,-0.4449 -15.0292,-0.6319 -4.9057,-0.183 -9.8894,-0.5289 -14.7894,-0.8158 -2.4622,-0.1442 -4.9155,-0.2968 -7.3614,-0.4467 -0.7366,-0.0452 -6.8398,-0.4674 -7.3869,-0.4522 -0.1474,1.8718 -0.1853,3.8664 -0.2109,5.763 l -8.1624,-0.7655 c -0.1017,0.3282 -0.1449,2.7721 -0.1688,3.302 -0.2507,5.5439 -0.5209,11.2169 -0.661,16.7555 -0.0202,0.7996 -0.088,6.6439 -0.1651,6.8426 z"
         style="fill:#ffffff;fill-rule:evenodd"
         id="path260"
         inkscape:connector-curvature="0" />
      <path
         d="m 54.4098,582.3824 0.0041,-2.243 c 4.6344,-0.1773 9.2379,-0.3714 13.8888,-0.4652 4.7559,-0.0958 9.5101,-0.122 14.2695,-0.1237 9.549,-0.004 19.0801,0.1082 28.6273,0.1082 9.5474,0 19.0785,-0.1106 28.6273,-0.1082 4.7453,10e-4 9.5088,0.0137 14.2414,0.1231 2.3554,0.0544 4.7,0.093 7.0534,0.1807 2.2658,0.0845 4.6445,0.1115 6.8863,0.2901 l 0.003,2.2351 c -1.1179,0.006 -2.3664,-0.1009 -3.4886,-0.1564 -1.1614,-0.0574 -2.3318,-0.1152 -3.4893,-0.1649 -2.3306,-0.1002 -4.6536,-0.2118 -6.9811,-0.3227 -4.6657,-0.2223 -9.3114,-0.3818 -13.9882,-0.5903 -9.5816,-0.4271 -19.2002,-0.3791 -28.82,-0.3795 -4.8604,-1e-4 -9.7201,-0.0236 -14.5804,0.0206 -9.2089,0.0837 -19.0151,0.5045 -28.2262,0.9459 -2.3251,0.1114 -4.6522,0.216 -6.9823,0.3229 -2.3243,0.1066 -4.7199,0.2848 -7.045,0.3273 z m 107.4608,-10.5883 c -0.0487,0.1141 0.0204,0.046 -0.0956,0.0824 l -0.6103,-0.008 c -0.2825,-0.005 -0.5562,0.0132 -0.8372,0.0163 0.005,-0.4651 0.2831,0.229 0.8381,-0.973 0.392,-0.8488 1.2506,-3.3136 1.4961,-3.8049 0.0222,-0.0444 0.021,-0.1753 0.226,-0.1352 0.169,0.0331 0.5231,1.1127 0.5735,1.2451 0.1663,0.4374 0.3554,0.8896 0.5335,1.3239 0.2356,0.5747 0.6393,1.927 1.1068,2.1148 0.2299,0.0923 0.2708,-0.0214 0.3145,0.1828 -0.134,0.0796 -0.3407,0.0411 -0.496,0.0359 l -1.1049,0.002 c -0.4903,0.0175 -0.4215,0.0556 -0.4722,-0.0821 0.1092,-0.1991 0.7603,0.0929 0.5106,-0.6995 -0.0575,-0.1824 -0.2922,-0.8249 -0.3915,-0.9579 l -1.7498,-0.005 c -0.9433,1.9828 0.008,1.4051 0.1584,1.6629 z m -71.4704,0 c -0.031,0.0658 0.0197,0.1032 -0.3146,0.0885 -0.37,-0.0163 -1.1142,0.0377 -1.2328,-0.0443 0.0546,-0.3672 0.3106,0.2393 0.8538,-0.9497 0.3018,-0.6604 0.9962,-2.4926 1.3008,-3.2948 0.0683,-0.1798 0.2636,-0.9206 0.526,-0.5201 l 0.9886,2.4593 c 0.192,0.4937 0.6493,1.9043 1.0709,2.1075 0.264,0.1272 0.2319,-0.0111 0.3557,0.1536 -0.0757,0.1349 0.0981,0.0712 -0.1945,0.0941 -0.0416,0.003 -0.214,-0.0104 -0.2697,-0.0127 -0.1762,-0.007 -0.354,-0.009 -0.5304,-0.009 -0.1767,-10e-5 -0.3534,0.002 -0.5301,0.008 -0.4117,0.0119 -0.4111,0.0413 -0.5449,-0.0356 0.0672,-0.1778 -0.0995,-0.0643 0.2126,-0.127 0.1241,-0.0249 0.1568,-0.004 0.2471,-0.0894 0.2785,-0.2627 -0.1959,-1.2075 -0.3346,-1.482 l -1.7449,-0.009 c -0.0698,0.1001 -0.5978,1.1698 -0.3629,1.4518 0.0601,0.0722 0.126,0.0984 0.2375,0.1198 0.2219,0.0424 0.1766,-0.0479 0.2664,0.092 z m 49.7809,-3.5825 0.0405,-1.1045 4.3915,0.008 c 0.006,0.2272 0.0675,0.8736 0,1.0695 -0.002,0.008 -0.008,0.0215 -0.0151,0.0308 -0.2662,-0.0467 -0.0339,-0.0228 -0.2119,-0.452 -0.2692,-0.6497 -1.5275,-0.4042 -1.5467,-0.3876 -0.1312,0.2325 -0.0536,2.1344 -0.0536,2.5625 0,1.1101 -0.1829,1.627 0.5435,1.7493 0.2099,0.0353 0.183,-0.0244 0.2568,0.1063 -0.057,0.1301 0.0421,0.0903 -0.2197,0.0949 l -1.5516,-0.015 c -0.16,0.004 -0.4426,0.0554 -0.5698,-0.0357 0.05,-0.3134 0.6232,0.024 0.7579,-0.5216 0.0825,-0.334 0.0706,-3.6708 0.0135,-3.926 -0.3115,-0.1137 -1.3428,-0.1861 -1.5775,0.3768 -0.1606,0.3851 0.0515,0.442 -0.2578,0.4441 z m 14.5932,-1.0123 c 0.0349,-0.105 -0.0855,-0.1097 0.4257,-0.0862 l 1.6065,0.0161 c 0.724,0.0336 1.3412,0.1557 1.5964,0.6234 0.3366,0.617 0.0853,1.2535 -0.3228,1.5309 -0.6105,0.415 -1.0603,0.3672 -1.8734,0.3464 -0.0144,0.4945 -0.1294,1.7818 0.2432,1.976 0.3151,0.1642 0.4782,0.004 0.5684,0.1882 -0.049,0.1079 0.1274,0.1115 -0.492,0.0893 -0.4104,-0.0148 -1.6436,0.0353 -1.7509,-0.0451 0.0452,-0.3795 0.6378,0.255 0.6826,-0.7938 0.0292,-0.6832 0.0126,-2.267 0.004,-3.0076 -0.005,-0.398 -0.0237,-0.6813 -0.4022,-0.7407 -0.0417,-0.006 -0.1414,-0.0118 -0.1639,-0.0173 -0.2312,-0.0567 -0.0234,0.0157 -0.1211,-0.0796 z m -7.5697,-0.0442 c 0.0768,-0.059 -0.0243,-0.0166 0.0972,-0.0424 l 1.7639,-0.0152 c 0.2402,0.009 0.162,-0.0298 0.2117,0.1018 -0.1095,0.1784 -0.3071,-0.0242 -0.4985,0.2053 -0.1549,0.3169 0.4117,1.0731 0.5774,1.3537 0.1235,0.2091 0.2426,0.4116 0.3616,0.6109 0.0743,0.1243 0.295,0.5319 0.4023,0.6164 0.2144,-0.2918 0.5464,-1.0637 0.7321,-1.4353 0.8138,-1.6291 -0.0679,-1.0698 -0.1791,-1.351 -0.008,-0.1744 0.4493,-0.082 0.7724,-0.08 l 0.6639,-0.0165 c 0.1352,0.0278 0.0859,-0.0219 0.137,0.0965 -0.1314,0.1904 -0.3679,-0.0696 -0.6677,0.4862 -0.4799,0.8893 -1.561,3.2803 -2.0417,3.8343 -0.552,0.6363 -1.4945,0.6011 -1.5895,0.0933 -0.0755,-0.4042 0.2873,-0.6202 0.6269,-0.4384 0.2439,0.1306 0.2865,0.5731 0.7099,0.2258 0.665,-0.5455 0.2254,-0.9255 -0.1112,-1.4872 -0.2925,-0.488 -0.5727,-0.9762 -0.8749,-1.4664 -0.1363,-0.221 -0.5212,-0.929 -0.702,-1.065 -0.2406,-0.181 -0.3491,0.006 -0.3917,-0.2268 z m -13.274,0.0442 c 0.0746,-0.1526 -0.1132,-0.0724 0.1921,-0.1052 l 1.419,0.02 c 0.5828,-0.0211 0.4356,-0.0558 0.5029,0.0852 -0.3622,0.4707 -0.7442,-0.7496 -0.684,1.9816 0.7117,-0.005 1.5701,-0.0703 2.1116,0.2841 0.9304,0.609 1.0078,2.3473 -1.1778,2.4205 l -2.1274,0.009 c -0.2618,-0.0111 -0.1663,0.0302 -0.2362,-0.1005 0.2529,-0.2637 0.6568,0.1939 0.6844,-0.7942 l 6e-4,-2.962 c -0.0193,-0.8081 -0.2389,-0.6919 -0.531,-0.7558 -0.2732,-0.0597 -0.0296,0.0118 -0.1542,-0.0828 z m -14.6538,0 c 0.06,-0.1368 -0.0919,-0.0737 0.1792,-0.101 0.0353,-0.004 0.2193,0.009 0.2694,0.0104 l 1.1493,-6e-4 c 0.5195,-0.0158 0.4285,-0.0475 0.4784,0.0912 -0.0668,0.119 -0.2887,0.0483 -0.5266,0.2064 -0.0571,0.4411 0.653,1.4298 0.9686,1.9658 0.0786,0.1334 0.2865,0.5349 0.4047,0.6153 0.24,-0.3802 0.5285,-1.0254 0.729,-1.4401 0.0972,-0.2014 0.3,-0.5533 0.3399,-0.7769 0.1116,-0.6249 -0.4315,-0.3641 -0.5213,-0.5705 -0.01,-0.1757 0.443,-0.0814 0.7778,-0.08 l 0.6634,-0.0171 c 0.135,0.028 0.0844,-0.025 0.1321,0.0971 -0.1148,0.1862 -0.3691,-0.0686 -0.6676,0.4815 -0.3615,0.6663 -0.8302,1.6481 -1.1815,2.3525 -0.3675,0.7366 -0.7803,1.7743 -1.6024,1.9356 -1.2312,0.2416 -0.9661,-1.2096 -0.2185,-0.7906 0.2378,0.1333 0.29,0.569 0.709,0.2183 0.115,-0.0963 0.4309,-0.5107 0.3551,-0.7055 -0.0571,-0.1469 -0.3429,-0.5738 -0.4472,-0.7481 l -1.3271,-2.2079 c -0.3729,-0.5844 -0.3148,-0.2907 -0.6637,-0.5358 z m -7.3064,0.0442 c 0.0133,-0.2221 0.1753,-0.1501 0.4212,-0.142 l 1.1494,0.0139 c 0.5815,-0.0178 0.4723,-0.0685 0.5442,0.0839 -0.2066,0.2763 -0.6431,-0.1415 -0.6829,0.7048 -0.0155,0.3284 -0.0365,1.1038 0.0139,1.4016 1.0396,6e-4 1.119,-0.2191 1.4507,-1.0433 0.226,-0.5616 0.53,-1.3605 1.2645,-1.2621 0.3997,0.0535 0.5126,0.5228 0.2269,0.719 -0.3886,0.2667 -0.651,-0.3324 -0.9609,0.0551 -0.4118,0.515 -0.1875,1.0363 -0.9569,1.6066 0.4196,0.289 0.6181,0.1485 1.1965,1.2011 0.124,0.2256 0.2809,0.5591 0.4366,0.7555 0.08,0.1009 0.2049,0.2456 0.4161,0.1904 0.2878,-0.0751 0.1175,-0.3449 0.3629,-0.1766 0.0455,0.0537 0.017,0.1125 -0.0684,0.2363 -0.0605,0.0875 -0.1224,0.1594 -0.1868,0.215 -0.1581,0.1364 -0.397,0.2105 -0.6728,0.1864 -0.7865,-0.0687 -0.9745,-1.0402 -1.3811,-1.9051 -0.2588,-0.5504 -0.4442,-0.536 -1.133,-0.5394 -0.0331,0.3081 -0.1025,1.7984 0.1268,2.0321 0.1319,0.1344 0.3127,0.1068 0.4007,0.1291 0.1319,0.0333 0.0875,-0.0216 0.1469,0.0883 -0.0513,0.103 0.1223,0.1109 -0.4552,0.0907 -0.3854,-0.0134 -1.5601,0.0305 -1.6603,-0.0465 0.0403,-0.3571 0.648,0.209 0.6838,-0.7938 0.0275,-0.7708 0.009,-2.1884 0.003,-3.0066 -0.002,-0.2307 -0.007,-0.4777 -0.1323,-0.6166 -0.1663,-0.1848 -0.3755,-0.0685 -0.5531,-0.1778 z m -11.0533,4.5506 c -0.0654,0.1336 0.0875,0.07 -0.1831,0.0981 -0.0379,0.004 -0.2178,-0.006 -0.2693,-0.008 -0.3848,-0.0125 -1.5608,0.0302 -1.6638,-0.0463 0.0521,-0.3474 0.63,0.1823 0.6816,-0.7488 0.025,-0.4518 0.0141,-0.9974 0.0028,-1.4535 -1.1441,-0.0579 -1.0417,0.2947 -1.5624,1.5611 -0.1645,0.4002 -0.3262,0.7349 -0.8143,0.79 -0.3766,0.0424 -0.6415,-0.0957 -0.8319,-0.3818 l -0.0758,-0.1765 c -0.0066,-0.0688 0.0016,-0.0693 0.0107,-0.096 0.2869,-0.1101 0.3728,0.6727 0.8474,-0.2046 0.2321,-0.4288 0.5299,-1.0701 0.9393,-1.3586 0.1059,-0.0746 0.2125,-0.1115 0.3061,-0.1936 -1.7006,-0.3234 -1.4136,-1.6791 -0.8077,-2.1196 0.4293,-0.3121 0.9243,-0.3643 1.5539,-0.3543 l 1.6837,-0.002 c 0.2832,0.0244 0.1189,-0.0421 0.182,0.0995 -0.1978,0.2788 -0.6591,-0.1862 -0.6856,0.7944 l -0.001,2.9612 c 0.002,0.2441 -0.0154,0.4573 0.1479,0.6174 0.158,0.1548 0.2745,0.1032 0.3951,0.1336 0.1309,0.0331 0.086,-0.0226 0.1446,0.0882 z m 30.0783,0 c -0.058,0.1279 0.0796,0.0699 -0.1764,0.0977 l -1.4183,-0.0194 c -0.0875,0.003 -0.1832,0.0102 -0.2687,0.0112 -0.1693,0.002 -0.1495,0.0294 -0.2519,-0.0453 0.0509,-0.3576 0.5758,0.1728 0.6687,-0.5994 0.0454,-0.3776 0.0898,-3.7276 -0.0764,-3.8444 -0.2363,-0.0617 -0.7073,-0.0534 -0.9498,-0.007 -0.3505,0.559 -0.0917,3.5238 -1.3371,4.4008 -0.437,0.3078 -1.3252,0.295 -1.1654,-0.3706 0.0574,-0.2392 0.3149,-0.3779 0.5811,-0.2257 0.2109,0.1205 0.294,0.3745 0.6285,0.0663 0.542,-0.4995 0.7549,-2.2545 0.8283,-3.0262 0.1239,-1.3039 -0.6961,-0.7561 -0.8563,-1.0325 0.0293,-0.0834 -0.0882,-0.1124 0.3865,-0.0925 1.0721,0.045 2.2493,-0.0265 3.1852,-0.004 0.1179,0.003 0.1533,0.005 0.22,0.0523 -0.1333,0.3431 -0.6431,-0.25 -0.6827,0.7939 -0.0233,0.6171 -0.0182,2.3646 -0.002,3.0063 0.0222,0.8654 0.2905,0.6926 0.548,0.752 0.1952,0.045 0.0704,-0.0551 0.1385,0.0868 z m -48.6627,-2.5001 2.566,0.0124 c 0.0464,-0.3531 0.024,-1.0271 0.0117,-1.4024 -0.0272,-0.8363 -0.5905,-0.4604 -0.6861,-0.7047 0.0388,-0.1233 -0.0515,-0.0744 0.155,-0.1026 l 1.4622,0.0175 c 0.5699,-0.02 0.434,-0.0564 0.4997,0.0851 -0.2137,0.2872 -0.6576,-0.1977 -0.6854,0.7941 -0.0227,0.8086 -0.0112,2.1258 -0.0014,2.9617 0.0028,0.24 0.0066,0.4876 0.1386,0.6222 0.2122,0.2165 0.4455,0.0247 0.5486,0.2168 -0.069,0.1366 0.0924,0.0698 -0.1863,0.0985 l -0.844,-0.0246 c -0.2334,-0.004 -0.948,0.076 -1.0846,-0.0297 0.0368,-0.3589 0.6393,0.2108 0.6828,-0.7933 0.0184,-0.4249 0.0307,-1.0846 -0.0071,-1.4995 l -2.5729,0.001 c -0.0297,0.4575 -0.0121,1.0029 -0.006,1.4542 0.0032,0.2354 0.0187,0.4454 0.1543,0.5789 0.0864,0.085 0.1222,0.0924 0.2395,0.111 0.2268,0.0361 0.2282,-0.0498 0.2938,0.1034 -0.0518,0.1274 0.0754,0.0706 -0.1693,0.0977 l -1.4626,-0.0181 c -0.0781,0.003 -0.1996,0.0147 -0.2703,0.0134 -0.2333,-0.004 -0.1588,0.0359 -0.2155,-0.093 0.1587,-0.2824 0.6609,0.174 0.6866,-0.7942 l 0.001,-3.0071 c -0.0127,-0.9949 -0.5543,-0.5281 -0.6878,-0.7935 0.0532,-0.1332 -0.0828,-0.073 0.1723,-0.1038 l 0.8441,0.0242 c 0.1901,0.003 0.3843,9e-4 0.5744,-0.005 0.0863,-0.003 0.1848,-0.011 0.2684,-0.0118 0.1392,-10e-4 0.1238,-0.002 0.2281,0.0363 0.0071,0.003 0.0208,0.009 0.0297,0.0157 -0.0578,0.2731 -0.2285,0.0207 -0.489,0.2141 -0.1315,0.0975 -0.1804,0.2789 -0.1928,0.4932 -0.0215,0.3719 -0.0333,1.072 0.0043,1.4316 z m -12.4259,-1.0344 c 10e-5,0.4336 -0.0879,2.9688 0.0952,3.247 0.2232,0.3391 0.4959,0.0628 0.5929,0.2875 -0.041,0.1019 0.1025,0.1083 -0.4806,0.0898 l -1.4194,0.003 c -0.2588,-0.003 -0.1621,0.0362 -0.2156,-0.0932 0.1108,-0.2062 0.362,0.0238 0.575,-0.2648 0.1804,-0.2446 0.1146,-1.5089 0.1118,-1.8804 -0.6881,-0.099 -0.9477,0.0476 -1.1789,0.5923 -0.1583,0.373 -0.2752,0.719 -0.4302,1.0715 -0.159,0.3618 -0.3563,0.6614 -0.8434,0.6804 -0.261,0.0101 -0.4388,-0.0543 -0.5866,-0.188 -0.1003,-0.0907 -0.2761,-0.2837 -0.2428,-0.4799 0.3129,-0.0605 0.0871,0.2125 0.5189,0.2122 0.3048,-0.1631 0.4984,-0.7252 0.682,-1.0494 0.4301,-0.7596 0.7175,-0.7376 0.8864,-0.9219 -1.3684,-0.1543 -1.611,-1.4474 -0.8126,-2.0967 0.5825,-0.4736 1.703,-0.3645 2.5134,-0.3518 0.1946,0.003 0.7713,-0.0763 0.9217,0.0375 -0.065,0.2858 -0.345,-0.013 -0.5739,0.3032 -0.1443,0.1992 -0.1133,0.5427 -0.1133,0.8013 z m -6.7081,3.5345 c -0.0574,0.1064 0.1256,0.1106 -0.4621,0.0905 l -1.4189,0.002 c -0.2554,-0.003 -0.165,0.0357 -0.236,-0.0929 0.176,-0.2489 0.5655,0.0581 0.663,-0.4993 0.0609,-0.3483 0.0394,-3.1463 0.0112,-3.4291 -0.2749,0.4238 -1.4897,3.7308 -1.7586,4.0176 -0.2205,-0.2096 -1.5774,-3.7228 -1.796,-4.0173 -0.0174,0.2951 -0.0437,3.2336 0.033,3.4793 0.048,0.1538 0.1423,0.2377 0.2829,0.2935 0.2845,0.1131 0.4503,-0.0111 0.451,0.1553 9e-4,0.1733 -0.5361,0.082 -0.8263,0.0759 -0.238,-0.005 -0.7024,0.0901 -0.8708,-0.0317 0.0561,-0.3582 0.6297,0.2057 0.6793,-0.8049 0.0323,-0.6591 0.0129,-2.2674 0.0057,-2.9959 -0.0111,-1.1271 -0.6783,-0.5553 -0.687,-0.8382 -0.0053,-0.1737 0.3161,-0.0886 0.6519,-0.081 0.2524,0.006 0.5066,0.003 0.7593,0.003 0.1168,0.1837 0.2877,0.6319 0.3919,0.8708 0.2101,0.4816 1.0441,2.5088 1.1973,2.6538 l 1.5241,-3.5294 1.0768,-0.0111 c 0.0393,-10e-4 0.1401,-0.004 0.175,10e-4 0.0027,4e-4 -0.0545,-0.0784 0.1514,0.0491 -0.1304,0.3438 -0.6521,-0.1481 -0.6827,0.7929 -0.026,0.7989 -0.0104,2.1707 -0.0026,3.0073 0.0101,1.0691 0.5176,0.5467 0.6872,0.8388 z m 14.6465,-1.5709 0.0343,0.0757 c 0.0307,0.1116 0.0765,1.3553 -0.0343,1.5115 -0.1426,-0.1291 -0.0834,-0.1916 -0.2209,-0.3338 -0.4447,0.2107 -0.5911,0.4094 -1.2397,0.4932 -0.5408,0.07 -1.0807,-0.008 -1.5052,-0.2129 -2.1697,-1.0464 -1.5464,-4.907 1.3709,-4.7601 0.6882,0.0346 0.8515,0.2583 1.3398,0.4345 0.0308,-0.1407 0.0321,-0.2562 0.1667,-0.3215 0.0963,0.1409 0.1208,1.2997 0.0442,1.4361 -0.3156,-0.0819 -0.0071,-0.537 -0.722,-1.0661 -0.9132,-0.6759 -2.6323,-0.2926 -2.5862,2.1497 0.0179,0.9477 0.3134,1.9375 1.3953,2.1419 0.5381,0.1017 1.0829,-0.0861 1.343,-0.3702 0.1837,-0.2007 0.3742,-0.5786 0.4578,-0.8689 0.0566,-0.1964 0.0398,-0.2337 0.1563,-0.3091 z m -23.8781,0.8988 c -0.502,-2.2985 -0.88,-3.7796 -0.9226,-6.1759 l 0.0745,-2.3401 c 0.1295,-0.0973 14.1394,-0.2188 15.553,-0.2513 5.2216,-0.12 10.4853,-0.1226 15.7115,-0.1531 10.5299,-0.0615 21.0209,0.1999 31.5445,0.1208 5.229,-0.0393 10.4467,-0.1293 15.6817,-0.1329 11.8075,-0.008 23.5046,0.191 35.2982,0.3576 0.6627,0.009 1.326,0.0268 1.9886,0.0319 0.5555,0.004 0.4753,-0.2404 0.4858,1.4835 0.0128,2.1161 -0.1449,3.4018 -0.5611,5.3994 -0.0877,0.4211 -0.2241,1.2844 -0.3572,1.6219 -0.1761,-1.7987 0.7004,-4.9388 -1.6998,-6.3479 -0.9965,-0.585 -2.1394,-0.587 -3.4276,-0.6496 -6.5274,-0.3171 -13.1319,-0.5392 -19.6663,-0.6793 -10.8021,-0.2314 -21.6497,-0.1459 -32.4708,-0.1368 -10.8162,0.009 -21.6255,-0.0886 -32.4266,0.1371 -6.4738,0.1354 -13.2223,0.3606 -19.6949,0.6786 -2.246,0.1103 -4.4883,0.2223 -5.0211,3.0956 -0.2485,1.3408 -0.0112,2.6128 -0.0898,3.9405 z m -7.7869,-12.8643 c 0.3708,3.878 1.055,8.7307 1.7538,12.61 0.1209,0.6715 0.2473,1.3329 0.3866,2.0031 0.0617,0.2972 0.3331,1.8178 0.4839,1.9469 0.1744,0.1492 8.7941,0.1123 10.6185,0.1128 l 20.6753,-0.0221 c 1.8193,-0.002 3.656,-0.1065 5.478,-0.104 0.4318,6e-4 0.9427,-0.0816 1.3253,-0.0562 0.4541,0.0302 5.703,-0.1414 6.316,-0.1558 4.6102,-0.1087 8.6325,-0.1087 13.2107,-0.1312 5.6185,-0.0277 11.1706,0.006 16.7876,0.0284 3.9535,0.0156 8.2847,0.1712 12.2816,0.2545 0.643,0.0134 0.8843,0.0609 1.6345,0.06 1.4007,-0.002 2.9538,0.1005 4.4177,0.1029 4.7945,0.008 30.4067,0.12 32.0818,-0.0558 0.5364,-1.0114 1.8566,-10.3393 2.0794,-12.0987 0.0674,-0.5323 0.4546,-4.0903 0.5122,-4.2557 0.041,0.7736 -0.009,1.6072 -0.0235,2.3846 -0.0152,0.8102 -0.0322,1.6222 -0.053,2.4296 -0.0565,2.1932 -0.3175,12.2963 -0.6368,14.2133 -2.4999,-0.007 -6.7512,-0.2653 -9.3529,-0.4255 -3.107,-0.1914 -6.1893,-0.3985 -9.3123,-0.515 -1.5545,-0.058 -3.1305,-0.112 -4.6908,-0.1809 -1.5753,-0.0696 -3.162,-0.086 -4.7282,-0.1923 -0.7882,-0.0535 -1.5426,-0.0709 -2.3416,-0.0895 -0.8078,-0.0187 -1.5485,-0.0848 -2.3417,-0.1284 -1.7837,-0.0982 -3.6363,-0.1005 -5.4337,-0.1033 -1.4569,-0.002 -2.807,-0.1324 -4.2852,-0.1336 -2.5704,-0.002 -5.1161,-0.1654 -7.6869,-0.1306 -2.3916,0.0324 -4.5242,-0.0494 -6.8475,-0.0468 l -22.3542,0.0485 -6.7592,0.1292 c -1.3039,0.0251 -3.0571,0.179 -4.2852,0.1334 -1.3326,-0.0493 -4.0685,0.0312 -5.3449,0.1001 -0.7784,0.042 -1.5064,0.1106 -2.2979,0.1289 -0.8055,0.0186 -1.5859,0.0332 -2.3848,0.0877 -1.5662,0.1069 -3.1542,0.1221 -4.7296,0.1942 -1.5719,0.0719 -3.1599,0.1326 -4.7266,0.1839 -4.6257,0.1513 -9.3109,0.5291 -13.9813,0.7589 -0.7932,0.039 -1.5744,0.0665 -2.363,0.1 -0.5683,0.0242 -1.8689,0.1458 -2.3582,0.066 -0.3696,-2.8062 -0.5626,-11.2116 -0.6346,-14.4191 z m 91.6446,-4.5335 c -0.0898,-1.5972 -0.0128,-3.4157 -0.0128,-5.0367 0,-1.6788 0,-3.3577 0,-5.0366 0,-3.9264 -0.1668,-5.807 2.1671,-7.9334 3.1154,-2.8386 11.8794,-2.5228 12.2464,4.6181 0.0828,1.6137 0.0132,3.4055 0.0132,5.0384 0,1.6788 0,3.3577 0,5.0366 0,3.1492 0.3541,5.7406 -2.1576,7.9577 -3.262,2.8795 -11.8564,2.465 -12.2563,-4.6441 z m -40.726,-12.907 -1.7158,0.004 0.1315,-6.3993 0.1785,-0.008 14.4663,0.0176 0.1406,6.3891 c -1.9173,-10e-5 -1.679,0.1579 -1.864,-0.4584 -0.1824,-0.6075 -0.9737,-3.3733 -1.0981,-3.672 -0.5723,-0.0266 -1.9844,-0.0173 -2.6049,9e-4 l -0.0106,0.1999 0.002,20.2349 c 0,0.2993 0.3036,0.4113 0.7301,0.7089 0.1882,0.1314 0.7763,0.5045 0.8526,0.6607 0.0212,0.0917 3e-4,1.017 -0.0191,1.1732 l -6.9059,-8e-4 -0.0207,-1.2284 c 0.179,-0.1305 1.5458,-1.0511 1.5776,-1.1369 l 0.006,-20.6111 -2.681,-0.008 c -0.138,0.3412 -1.0053,3.5364 -1.1654,4.1332 z m 59.038,11.727 4.039,-4e-4 c 0.1661,1.5463 -0.5479,4.4259 1.7798,4.9868 1.0404,0.2507 2.0725,-0.0299 2.6767,-0.5597 0.5827,-0.511 0.8382,-1.5046 0.8388,-2.5841 0.001,-2.4581 0.4615,-4.1287 -1.4157,-5.4093 -2.463,-1.6802 -7.1963,-1.8153 -7.6461,-5.9497 -0.11,-1.0112 -0.0368,-2.3516 -0.0372,-3.3973 -5e-4,-1.0647 0.1258,-2.0439 0.5634,-2.8603 0.7621,-1.422 2.1371,-2.3495 4.2307,-2.5613 3.8296,-0.3875 4.6755,1.5516 5.1227,1.5715 l 0.2978,-1.3534 2.4447,-0.0116 0.005,6.7589 -3.7054,0.004 c -0.0283,-1.2432 0.1638,-2.5687 -0.4147,-3.5325 -0.8759,-1.4593 -4.2902,-1.754 -4.7454,0.9919 -0.0835,0.504 -0.0799,3.2998 -0.0501,3.9103 0.177,3.6303 7.2113,2.742 8.8263,6.9275 0.4322,1.1204 0.3402,2.3157 0.3402,3.5855 0,1.2585 0.0828,2.4656 -0.3563,3.57 -0.7145,1.7968 -2.3206,2.9081 -4.6166,3.2883 -4.1867,0.6932 -8.1541,-0.9732 -8.192,-5.4003 -0.005,-0.5321 -0.053,-1.4883 0.0149,-1.9752 z m -36.7382,-17.1109 3e-4,-0.9441 c 2.2581,-0.0103 4.5185,-10e-4 6.7769,-10e-4 2.9625,0 6.1438,-0.0293 6.7538,3.3785 0.1749,0.9768 0.103,2.2809 0.103,3.3103 0,1.784 0.1505,3.3284 -1.4106,4.5187 -0.1773,0.1352 -0.3976,0.2 -0.5462,0.3412 0.4662,0.3347 1.3746,0.4807 2.1017,1.7457 0.6047,1.0521 0.6101,1.9337 0.6101,3.2909 0,1.2526 0.0482,2.6032 -0.008,3.844 -0.1765,3.915 -3.0315,4.7511 -6.853,4.751 -2.5696,0 -5.1967,0.0539 -7.7591,-0.002 l -0.0229,-1.0379 1.6246,-1.0894 c 0.0703,-1.8933 -0.005,-3.9492 -0.005,-5.8471 v -14.668 c 7e-4,-0.7936 0.0669,-0.5363 -0.9452,-1.2417 -0.0709,-0.0495 -0.1365,-0.0937 -0.2115,-0.1416 -0.2303,-0.1471 -0.1558,-0.1381 -0.2088,-0.2072 z m -66.3973,-1.0176 c 1.2907,-0.002 2.5751,-3e-4 3.8594,-3e-4 1.262,0 2.6379,-0.2102 3.1884,0.7008 0.3979,0.6583 0.5875,2.204 0.7512,3.0886 0.6097,3.2959 1.1868,6.6432 1.6687,9.9593 0.1635,1.1248 0.3235,2.2783 0.469,3.4061 0.0746,0.578 0.1489,1.1609 0.2193,1.7274 0.0443,0.3563 0.1009,1.494 0.2417,1.7077 0.1247,-0.1875 2.4235,-14.1221 2.8304,-16.6092 0.1321,-0.8072 0.3536,-2.6109 0.6703,-3.217 0.5178,-0.9912 1.8629,-0.7171 3.1702,-0.7332 1.2987,-0.0159 2.5962,-0.0344 3.8963,-0.0303 l 0.006,1.0704 c -0.2291,0.1023 -0.489,0.2973 -0.7094,0.4453 -0.2261,0.152 -0.4755,0.3013 -0.6808,0.4739 l -0.0114,21.1185 c 1.3459,1.1954 1.7287,0.5197 1.5758,2.132 l -6.8434,0.0128 -0.0231,-1.0402 c 0.1876,-0.1636 0.5752,-0.4056 0.7878,-0.5446 0.1724,-0.1126 0.6737,-0.429 0.7901,-0.56 0.0451,-0.1109 -0.0047,-16.0165 0.0383,-18.0701 0.0087,-0.4169 0.0261,-0.8187 0.0375,-1.2376 0.0049,-0.1764 0.0546,-1.0203 0.014,-1.1745 l -0.0263,-0.0636 c -0.1574,0.0575 -0.1404,0.2736 -0.1984,0.6 -0.044,0.2478 -0.0823,0.4642 -0.1252,0.7093 l -3.2341,18.2466 c -0.0815,0.4535 -0.1642,0.9211 -0.2447,1.3864 -0.0313,0.181 -0.1829,1.3445 -0.3062,1.3875 -0.7315,-5e-4 -3.1612,0.1068 -3.6267,-0.1449 -0.4289,-0.2319 -0.4937,-0.6834 -0.5899,-1.2581 -0.0935,-0.5591 -0.1759,-1.0818 -0.2703,-1.6314 -1.0862,-6.3262 -2.1188,-12.4977 -3.2856,-18.8123 -0.0384,-0.2077 -0.0021,-0.2325 -0.1967,-0.2302 -0.0629,0.2557 0.154,4.1833 0.1535,4.918 -0.0011,1.723 -2e-4,3.4461 -2e-4,5.1691 0,3.4151 -0.0609,6.8854 0.0026,10.2935 l 1.4989,0.9308 0.009,1.1199 -5.5785,0.005 -1e-4,-1.1246 1.5025,-0.9268 0.0078,-21.166 c -0.0758,-0.1486 -1.2371,-0.8766 -1.428,-0.9638 z m 37.8887,1.9438 -8e-4,21.2035 1.5128,0.9492 -0.0035,1.0998 -5.6014,0.014 -0.0124,-1.113 c 0.4684,-0.3442 1.0825,-0.6149 1.511,-0.9596 0.0299,-4.9082 6e-4,-9.8681 6e-4,-14.7861 0,-1.1705 0.2157,-2.7491 0.3683,-3.9773 0.0276,-0.2223 0.071,-0.3176 0.018,-0.5034 -0.0024,-0.008 -0.0075,-0.0237 -0.0138,-0.0343 -0.1264,0.1194 -0.1652,0.3929 -0.2423,0.6528 -1.8608,6.2662 -3.656,12.6484 -5.5021,18.9286 -0.3726,1.2677 -0.5824,1.7919 -1.9868,1.7922 l -2.8047,-3e-4 -0.0155,-23.1762 c -0.2913,-0.3122 -1.0258,-0.6705 -1.3673,-0.9638 l 0.002,-1.1022 c 0.4105,-0.0312 4.7188,-0.0254 5.2812,-0.004 0.0738,1.3243 0.0658,1.0691 -0.6418,1.5523 -0.2354,0.1608 -0.4634,0.3405 -0.707,0.4802 -0.0046,4.8641 0.0617,9.9101 -0.0832,14.7499 -0.0151,0.5029 -0.0343,0.9997 -0.049,1.5021 -0.0055,0.1876 -0.0824,1.3534 0.0319,1.5059 0.116,-0.2421 0.259,-1.0511 0.3277,-1.348 l 1.2605,-5.5024 c 0.1512,-0.6805 0.9544,-3.0679 1.2017,-3.8827 0.5182,-1.7077 1.0669,-3.4502 1.6126,-5.1446 0.281,-0.8724 0.5365,-1.7222 0.8104,-2.5908 0.4079,-1.2937 0.8201,-1.3313 2.2973,-1.3284 l 4.1504,2e-4 0.0029,1.0667 c -0.1614,0.082 -1.1845,0.7847 -1.3577,0.9198 z m -43.6876,6.66 c -0.0579,-0.5549 -0.0089,-1.3131 0.0011,-1.8852 0.0768,-4.3783 0.3097,-6.5965 0.871,-10.8757 0.0478,-0.3649 0.116,-1.5374 0.2157,-1.7769 0.5422,-0.0481 1.4143,0.0219 1.9899,0.0389 l 29.4208,0.8178 c 5.2175,0.1517 10.4166,0.3605 15.6394,0.5103 2.5998,0.0746 5.1962,0.1909 7.8188,0.2284 7.7492,0.111 16.2186,0.0808 23.8951,-0.2249 10.4382,-0.4158 20.8931,-0.6227 31.3277,-0.9635 3.8936,-0.1271 7.8911,-0.2276 11.7953,-0.3159 1.2707,-0.0287 2.7324,-0.1418 3.9855,-0.0961 0.1277,2.3194 0.6345,4.6901 0.807,7.0466 0.092,1.2576 0.1639,2.4902 0.2014,3.7549 0.0201,0.677 0.1164,3.3317 0.0536,3.8138 0.0304,-0.1101 -0.9114,-5.5752 -1.0221,-6.2077 -0.1516,-0.8663 -1.0201,-5.5037 -1.2865,-5.9907 -0.5102,-0.0446 -7.0014,0.0381 -7.687,0.0427 -2.5799,0.0174 -5.1498,0.0349 -7.7311,0.0554 -5.1372,0.0408 -10.281,0.0822 -15.4181,0.1171 -10.2969,0.07 -20.578,0.209 -30.8804,0.209 -10.2862,0 -20.553,-0.1326 -30.8362,-0.2085 -5.1569,-0.0381 -10.304,-0.0733 -15.4635,-0.1166 l -11.5292,-0.0832 c -1.2221,-0.006 -2.691,-0.0919 -3.8822,-0.017 -0.4897,1.9403 -0.9115,3.9268 -1.2607,5.9446 -0.3517,2.032 -0.6508,4.1423 -1.0253,6.1824 z m 7.2069,-19.7253 c 2.3625,0.0138 4.775,0.1343 7.1342,0.2068 2.355,0.0723 4.7136,0.1504 7.0689,0.2193 4.7001,0.1376 9.4308,0.3645 14.1384,0.4717 4.6823,0.1066 9.4032,0.3186 14.1008,0.4439 9.1973,0.2454 19.6015,0.2536 28.7951,-0.002 4.7184,-0.1314 9.4302,-0.3106 14.1351,-0.4444 9.4054,-0.2675 18.8155,-0.71 28.2293,-0.8989 l -0.0185,2.1397 c -2.3513,0.0845 -4.7788,0.048 -7.1371,0.0711 -2.3563,0.023 -4.7125,0.0474 -7.0685,0.069 -4.7301,0.0434 -9.4482,0.0942 -14.1811,0.1453 -9.4628,0.1022 -18.9371,0.2677 -28.4064,0.2677 -18.8809,0 -37.8606,-0.4891 -56.7833,-0.5493 z m -14.2479,28.0199 v 7.3811 c 0.0935,0.2394 0.1347,5.2401 0.1591,6.0022 0.0637,1.9886 0.1385,3.9617 0.235,5.9472 0.0952,1.9568 0.2133,3.8826 0.3332,5.8334 0.0659,1.0718 0.3022,4.9106 0.4319,5.7306 1.1101,0.012 7.5871,-0.615 7.952,-0.4787 0.1763,0.4433 0.3635,4.8863 0.3913,5.7138 0.3836,0.0255 3.1405,-0.1457 3.7513,-0.1783 l 11.3995,-0.5596 c 26.2803,-1.2904 50.9729,-1.8471 77.3535,-0.8654 8.8417,0.3291 17.5626,0.811 26.3745,1.3685 1.1721,0.0741 2.6119,0.2474 3.7625,0.2373 l 0.2705,-5.615 c 0.8116,-0.0885 7.6117,0.4861 8.0817,0.3565 0.4576,-4.0628 0.8035,-10.0505 0.9751,-14.1934 0.4103,-9.908 0.3147,-19.7429 -0.1294,-29.6479 -0.2175,-4.851 -0.5043,-9.6932 -0.6901,-14.5342 l -8.3734,0.7678 -0.2272,-5.9081 c -2.4671,0.0937 -5.0038,0.3302 -7.4734,0.4824 -18.2101,1.1222 -35.2974,2.2528 -53.7604,2.2188 -5.2251,-0.01 -10.4227,-0.1359 -15.6381,-0.2916 -5.1421,-0.1535 -10.2477,-0.4552 -15.3758,-0.6465 -5.0189,-0.1872 -10.1175,-0.5411 -15.1306,-0.8346 -2.519,-0.1475 -5.0288,-0.3037 -7.5311,-0.4571 -0.7536,-0.0461 -6.9976,-0.4781 -7.5573,-0.4626 -0.1508,1.915 -0.1896,3.9556 -0.2158,5.896 l -8.3506,-0.7832 c -0.1041,0.3358 -0.1483,2.8361 -0.1728,3.3782 -0.2564,5.6717 -0.5329,11.4756 -0.6762,17.1419 -0.0207,0.8181 -0.09,6.7972 -0.1689,7.0005 z"
         style="fill:#1b1918;fill-rule:evenodd"
         id="path262"
         inkscape:connector-curvature="0" />
      <path
         d="m 141.5629,553.68 c 0.082,2.2329 0.9046,3.7613 3.0875,3.9214 2.2467,0.1648 3.4842,-1.2665 3.7935,-3.2129 0.1614,-1.0161 0.0869,-2.3764 0.0869,-3.4477 v -7.0248 c 0,-1.1408 0.0411,-2.3597 -0.009,-3.4911 -0.092,-2.0918 -1.1128,-3.7346 -3.0842,-3.9335 -2.4033,-0.2424 -3.5611,1.0767 -3.8219,3.2157 -0.1212,0.9945 -0.0599,5.591 -0.0599,6.9481 0,2.3022 -0.0771,4.7391 0.007,7.0248 z"
         style="fill:#1b1918;fill-rule:evenodd"
         id="path264"
         inkscape:connector-curvature="0" />
      <path
         d="m 123.6556,557.4795 c 0.2392,0.0882 2.3439,0.0275 2.7853,0.0275 0.8554,0 1.7484,0.0354 2.4204,-0.3461 1.3712,-0.7784 1.1835,-2.5933 1.1835,-4.4087 0,-1.6325 0.2457,-3.9126 -0.7528,-4.8394 -0.4903,-0.4551 -1.2072,-0.6614 -2.0997,-0.6861 -0.8982,-0.0247 -1.8871,-0.022 -2.786,10e-5 -0.066,1.2009 -0.007,4.1286 -0.007,5.5254 0,0.5855 0.0779,3.5762 -0.0892,4.0109 -0.2327,0.6058 -0.6614,0.3478 -0.6547,0.7164 z"
         style="fill:#1b1918;fill-rule:evenodd"
         id="path266"
         inkscape:connector-curvature="0" />
      <path
         d="m 124.3996,545.4187 c 0.7682,0.0147 1.5417,0.002 2.3064,0.003 2.7875,0.002 2.5821,-1.7086 2.5821,-4.4214 0,-1.5975 0.2138,-2.9626 -0.7682,-3.8911 -0.4812,-0.455 -0.955,-0.533 -1.7697,-0.532 -0.7771,9e-4 -1.5675,-0.0147 -2.3428,0.003 z"
         style="fill:#1b1918;fill-rule:evenodd"
         id="path268"
         inkscape:connector-curvature="0" />
      <path
         d="m 135.3581,569.3523 c 0,0.4045 -0.0489,1.7462 0.0744,2.0224 0.2301,0.5158 1.1272,0.4054 1.4605,0.0476 0.3349,-0.3595 0.4486,-1.1549 0.1068,-1.6164 -0.3315,-0.4476 -0.9293,-0.4915 -1.6417,-0.4536 z"
         style="fill:#1b1918;fill-rule:evenodd"
         id="path270"
         inkscape:connector-curvature="0" />
      <path
         d="m 99.4866,569.4136 c 0.0061,-0.4988 0.0542,-1.6929 -0.03,-2.0966 -0.8444,-0.227 -1.5567,0.2637 -1.6012,1.0304 -0.0549,0.9474 0.7413,1.1281 1.6312,1.0662 z"
         style="fill:#1b1918;fill-rule:evenodd"
         id="path272"
         inkscape:connector-curvature="0" />
      <path
         d="m 69.1639,569.4207 c 0.0105,-0.5721 0.0378,-1.3141 0.0052,-1.8731 -0.0114,-0.1956 -0.0127,-0.2415 -0.2006,-0.2667 -0.107,-0.0143 -0.3612,0.009 -0.4695,0.0261 -0.9973,0.162 -1.156,1.1785 -0.8055,1.6947 0.2862,0.4214 0.8151,0.4236 1.4704,0.419 z"
         style="fill:#1b1918;fill-rule:evenodd"
         id="path274"
         inkscape:connector-curvature="0" />
      <path
         d="m 156.2171,569.4446 c 0.6806,0.0655 1.1338,0.014 1.3727,-0.4741 0.2505,-0.5119 0.2635,-1.5965 -0.7985,-1.6834 -0.4231,-0.0346 -0.5823,-0.0874 -0.5904,0.3509 -0.009,0.4931 -0.04,1.3445 0.0162,1.8066 z"
         style="fill:#1b1918;fill-rule:evenodd"
         id="path276"
         inkscape:connector-curvature="0" />
      <path
         d="m 90.3377,569.9019 1.5638,0.005 -0.7612,-2.006 c -0.1345,0.1417 -0.7824,1.9177 -0.8026,2.0012 z"
         style="fill:#1b1918;fill-rule:evenodd"
         id="path278"
         inkscape:connector-curvature="0" />
      <path
         d="m 161.7963,569.9015 1.5751,-0.003 c -0.0898,-0.3198 -0.2525,-0.6769 -0.3734,-0.999 l -0.4053,-0.9722 c -0.004,-0.006 -0.0132,-0.0175 -0.0207,-0.0255 z"
         style="fill:#1b1918;fill-rule:evenodd"
         id="path280"
         inkscape:connector-curvature="0" />
    </g>
  </g>
</svg>
